M48
; DRILL file {KiCad 7.0.8} date Mo 13 Nov 2023 22:43:03 CET
; FORMAT={-:-/ absolute / inch / decimal}
; #@! TF.CreationDate,2023-11-13T22:43:03+01:00
; #@! TF.GenerationSoftware,Kicad,Pcbnew,7.0.8
; #@! TF.FileFunction,Plated,1,2,PTH
FMAT,2
INCH
; #@! TA.AperFunction,Plated,PTH,ViaDrill
T1C0.0118
; #@! TA.AperFunction,Plated,PTH,ComponentDrill
T2C0.0354
; #@! TA.AperFunction,Plated,PTH,ComponentDrill
T3C0.0430
; #@! TA.AperFunction,Plated,PTH,ComponentDrill
T4C0.0630
; #@! TA.AperFunction,Plated,PTH,ComponentDrill
T5C0.1693
%
G90
G05
T1
X1.6535Y-1.6732
X1.6535Y-1.811
X1.6535Y-4.1732
X1.6535Y-4.3307
X1.7874Y-1.6732
X1.7874Y-4.3307
X1.97Y-2.1
X2.83Y-2.1
X2.9687Y-3.1926
X2.97Y-2.85
X2.97Y-3.76
X2.9787Y-2.39
X3.13Y-3.59
X3.14Y-2.53
X3.1401Y-3.186
X3.17Y-3.32
X3.2126Y-3.2366
X3.2187Y-2.8726
X3.24Y-2.4
X3.2611Y-2.659
X3.28Y-3.32
X3.3155Y-2.2926
X3.3687Y-3.0426
X3.4087Y-2.6126
X3.4687Y-3.0426
X3.4688Y-2.6346
X3.4987Y-3.1926
X3.5287Y-2.6126
X3.59Y-2.76
X3.6187Y-2.4326
X3.6461Y-2.7
X3.6787Y-2.3926
X3.6961Y-2.7
X3.7461Y-2.6
X3.7461Y-2.7
X3.7687Y-2.3926
X3.78Y-2.76
X3.8305Y-3.4904
X3.9087Y-2.625
X3.91Y-2.77
X3.97Y-2.64
X3.97Y-2.7
X3.97Y-2.77
X3.98Y-3.49
X4.03Y-2.64
X4.03Y-2.77
X4.0687Y-2.4826
X4.0787Y-3.2126
X4.0789Y-3.28
X4.1287Y-2.625
X4.1287Y-2.77
X4.15Y-3.53
X4.1587Y-2.4826
X4.2287Y-3.2126
X4.27Y-2.77
X4.32Y-3.83
X4.9409Y-1.6732
X4.9409Y-4.3307
X5.0787Y-1.6732
X5.0787Y-1.811
X5.0787Y-4.1732
X5.0787Y-4.3307
T2
X1.8866Y-2.1
X1.8866Y-2.2
X1.8866Y-2.3
X1.8866Y-2.4
X1.8866Y-2.5
X1.8866Y-2.6
X1.8866Y-2.7
X1.8866Y-2.8
X1.8866Y-2.9
X1.8866Y-3.0
X1.8866Y-3.1
X1.8866Y-3.2
X1.8866Y-3.3
X1.8866Y-3.4
X1.8866Y-3.5
X1.8866Y-3.6
X1.8866Y-3.7
X1.8866Y-3.8
X1.8866Y-3.9
X2.9102Y-2.1
X2.9102Y-2.2
X2.9102Y-2.3
X2.9102Y-2.4
X2.9102Y-2.5
X2.9102Y-2.6
X2.9102Y-2.7
X2.9102Y-2.8
X2.9102Y-2.9
X2.9102Y-3.0
X2.9102Y-3.1
X2.9102Y-3.2
X2.9102Y-3.3
X2.9102Y-3.4
X2.9102Y-3.5
X2.9102Y-3.6
X2.9102Y-3.7
X2.9102Y-3.8
X2.9102Y-3.9
T3
X3.6169Y-2.05
X3.8137Y-2.05
X4.02Y-2.05
X4.2169Y-2.05
X4.5102Y-1.9063
X4.5102Y-2.1031
X4.5102Y-2.3
X4.5102Y-2.5031
X4.5102Y-2.7
X4.5102Y-2.8969
X4.5102Y-3.1
X4.5102Y-3.2969
X4.5102Y-3.4937
X4.5102Y-3.7
X4.5102Y-3.8969
X4.5102Y-4.0937
T4
X3.6602Y-3.9
X4.1602Y-3.9
T5
X3.3484Y-3.9
T0
M30
