%TF.GenerationSoftware,KiCad,Pcbnew,7.0.8*%
%TF.CreationDate,2023-11-13T13:57:56+01:00*%
%TF.ProjectId,sdi12-esphome,73646931-322d-4657-9370-686f6d652e6b,rev?*%
%TF.SameCoordinates,Original*%
%TF.FileFunction,Copper,L2,Bot*%
%TF.FilePolarity,Positive*%
%FSLAX46Y46*%
G04 Gerber Fmt 4.6, Leading zero omitted, Abs format (unit mm)*
G04 Created by KiCad (PCBNEW 7.0.8) date 2023-11-13 13:57:56*
%MOMM*%
%LPD*%
G01*
G04 APERTURE LIST*
G04 Aperture macros list*
%AMRoundRect*
0 Rectangle with rounded corners*
0 $1 Rounding radius*
0 $2 $3 $4 $5 $6 $7 $8 $9 X,Y pos of 4 corners*
0 Add a 4 corners polygon primitive as box body*
4,1,4,$2,$3,$4,$5,$6,$7,$8,$9,$2,$3,0*
0 Add four circle primitives for the rounded corners*
1,1,$1+$1,$2,$3*
1,1,$1+$1,$4,$5*
1,1,$1+$1,$6,$7*
1,1,$1+$1,$8,$9*
0 Add four rect primitives between the rounded corners*
20,1,$1+$1,$2,$3,$4,$5,0*
20,1,$1+$1,$4,$5,$6,$7,0*
20,1,$1+$1,$6,$7,$8,$9,0*
20,1,$1+$1,$8,$9,$2,$3,0*%
G04 Aperture macros list end*
%TA.AperFunction,ComponentPad*%
%ADD10R,1.350000X1.350000*%
%TD*%
%TA.AperFunction,ComponentPad*%
%ADD11C,1.350000*%
%TD*%
%TA.AperFunction,ComponentPad*%
%ADD12RoundRect,0.800000X-0.800000X-0.800000X0.800000X-0.800000X0.800000X0.800000X-0.800000X0.800000X0*%
%TD*%
%TA.AperFunction,ComponentPad*%
%ADD13C,1.600200*%
%TD*%
%TA.AperFunction,ComponentPad*%
%ADD14C,4.700000*%
%TD*%
%TA.AperFunction,ConnectorPad*%
%ADD15C,7.600000*%
%TD*%
%TA.AperFunction,ViaPad*%
%ADD16C,0.700000*%
%TD*%
%TA.AperFunction,Conductor*%
%ADD17C,0.500000*%
%TD*%
%TA.AperFunction,Conductor*%
%ADD18C,1.500000*%
%TD*%
G04 APERTURE END LIST*
D10*
%TO.P,U1,J4_1,GND_J4_1*%
%TO.N,GND*%
X47920000Y-99060000D03*
D11*
%TO.P,U1,J4_2,G23*%
%TO.N,GPIO23*%
X47920000Y-96520000D03*
%TO.P,U1,J4_3,G22*%
%TO.N,GPIO22*%
X47920000Y-93980000D03*
%TO.P,U1,J4_4,TXD*%
%TO.N,unconnected-(U1-TXD-PadJ4_4)*%
X47920000Y-91440000D03*
%TO.P,U1,J4_5,RXD*%
%TO.N,unconnected-(U1-RXD-PadJ4_5)*%
X47920000Y-88900000D03*
%TO.P,U1,J4_6,G21*%
%TO.N,GPIO21*%
X47920000Y-86360000D03*
%TO.P,U1,J4_7,GND_J4_7*%
%TO.N,GND*%
X47920000Y-83820000D03*
%TO.P,U1,J4_8,G19*%
%TO.N,unconnected-(U1-G19-PadJ4_8)*%
X47920000Y-81280000D03*
%TO.P,U1,J4_9,G18*%
%TO.N,unconnected-(U1-G18-PadJ4_9)*%
X47920000Y-78740000D03*
%TO.P,U1,J4_10,G5*%
%TO.N,unconnected-(U1-G5-PadJ4_10)*%
X47920000Y-76200000D03*
%TO.P,U1,J4_11,G17*%
%TO.N,unconnected-(U1-G17-PadJ4_11)*%
X47920000Y-73660000D03*
%TO.P,U1,J4_12,G16*%
%TO.N,unconnected-(U1-G16-PadJ4_12)*%
X47920000Y-71120000D03*
%TO.P,U1,J4_13,G4*%
%TO.N,unconnected-(U1-G4-PadJ4_13)*%
X47920000Y-68580000D03*
%TO.P,U1,J4_14,G0*%
%TO.N,unconnected-(U1-G0-PadJ4_14)*%
X47920000Y-66040000D03*
%TO.P,U1,J4_15,G2*%
%TO.N,unconnected-(U1-G2-PadJ4_15)*%
X47920000Y-63500000D03*
%TO.P,U1,J4_16,G15*%
%TO.N,unconnected-(U1-G15-PadJ4_16)*%
X47920000Y-60960000D03*
%TO.P,U1,J4_17,SD1*%
%TO.N,unconnected-(U1-SD1-PadJ4_17)*%
X47920000Y-58420000D03*
%TO.P,U1,J4_18,SD0*%
%TO.N,unconnected-(U1-SD0-PadJ4_18)*%
X47920000Y-55880000D03*
%TO.P,U1,J4_19,CLK*%
%TO.N,unconnected-(U1-CLK-PadJ4_19)*%
X47920000Y-53340000D03*
D10*
%TO.P,U1,J5_1,5V*%
%TO.N,+5V*%
X73920000Y-53340000D03*
D11*
%TO.P,U1,J5_2,CMD*%
%TO.N,unconnected-(U1-CMD-PadJ5_2)*%
X73920000Y-55880000D03*
%TO.P,U1,J5_3,SD3*%
%TO.N,unconnected-(U1-SD3-PadJ5_3)*%
X73920000Y-58420000D03*
%TO.P,U1,J5_4,SD2*%
%TO.N,unconnected-(U1-SD2-PadJ5_4)*%
X73920000Y-60960000D03*
%TO.P,U1,J5_5,G13*%
%TO.N,unconnected-(U1-G13-PadJ5_5)*%
X73920000Y-63500000D03*
%TO.P,U1,J5_6,GND_J5_6*%
%TO.N,GND*%
X73920000Y-66040000D03*
%TO.P,U1,J5_7,G12*%
%TO.N,unconnected-(U1-G12-PadJ5_7)*%
X73920000Y-68580000D03*
%TO.P,U1,J5_8,G14*%
%TO.N,unconnected-(U1-G14-PadJ5_8)*%
X73920000Y-71120000D03*
%TO.P,U1,J5_9,G27*%
%TO.N,OE*%
X73920000Y-73660000D03*
%TO.P,U1,J5_10,G26*%
%TO.N,TXD*%
X73920000Y-76200000D03*
%TO.P,U1,J5_11,G25*%
%TO.N,RXD*%
X73920000Y-78740000D03*
%TO.P,U1,J5_12,G33*%
%TO.N,unconnected-(U1-G33-PadJ5_12)*%
X73920000Y-81280000D03*
%TO.P,U1,J5_13,G32*%
%TO.N,VCC Enable*%
X73920000Y-83820000D03*
%TO.P,U1,J5_14,G35*%
%TO.N,unconnected-(U1-G35-PadJ5_14)*%
X73920000Y-86360000D03*
%TO.P,U1,J5_15,G34*%
%TO.N,unconnected-(U1-G34-PadJ5_15)*%
X73920000Y-88900000D03*
%TO.P,U1,J5_16,SN*%
%TO.N,unconnected-(U1-SN-PadJ5_16)*%
X73920000Y-91440000D03*
%TO.P,U1,J5_17,SP*%
%TO.N,unconnected-(U1-SP-PadJ5_17)*%
X73920000Y-93980000D03*
%TO.P,U1,J5_18,EN*%
%TO.N,unconnected-(U1-EN-PadJ5_18)*%
X73920000Y-96520000D03*
%TO.P,U1,J5_19,3V3*%
%TO.N,+3V3*%
X73920000Y-99060000D03*
%TD*%
D12*
%TO.P,GD1,1*%
%TO.N,GND*%
X92970000Y-99060000D03*
%TO.P,GD1,3*%
%TO.N,SDI12_Bus*%
X105670000Y-99060000D03*
%TD*%
D13*
%TO.P,J1,1,Pin_1*%
%TO.N,+12V*%
X114560000Y-58420000D03*
%TO.P,J1,2,Pin_2*%
%TO.N,SDI12_Bus*%
X114560000Y-53420000D03*
%TO.P,J1,3,Pin_3*%
%TO.N,GND*%
X114560000Y-48420000D03*
%TD*%
%TO.P,J4,1,Pin_1*%
%TO.N,+12V*%
X114560000Y-103980000D03*
%TO.P,J4,2,Pin_2*%
%TO.N,SDI12_Bus*%
X114560000Y-98980000D03*
%TO.P,J4,3,Pin_3*%
%TO.N,GND*%
X114560000Y-93980000D03*
%TD*%
%TO.P,J6,1,Pin_1*%
%TO.N,GPIO23*%
X107108000Y-52070000D03*
%TO.P,J6,2,Pin_2*%
%TO.N,GND*%
X102108000Y-52070000D03*
%TD*%
D14*
%TO.P,J0,1,Pin_1*%
%TO.N,GND*%
X85050000Y-99060000D03*
D15*
X85050000Y-99060000D03*
%TD*%
D13*
%TO.P,J3,1,Pin_1*%
%TO.N,+12V*%
X114560000Y-88740000D03*
%TO.P,J3,2,Pin_2*%
%TO.N,SDI12_Bus*%
X114560000Y-83740000D03*
%TO.P,J3,3,Pin_3*%
%TO.N,GND*%
X114560000Y-78740000D03*
%TD*%
%TO.P,J2,1,Pin_1*%
%TO.N,+12V*%
X114560000Y-73580000D03*
%TO.P,J2,2,Pin_2*%
%TO.N,SDI12_Bus*%
X114560000Y-68580000D03*
%TO.P,J2,3,Pin_3*%
%TO.N,GND*%
X114560000Y-63580000D03*
%TD*%
%TO.P,J5,1,Pin_1*%
%TO.N,GPIO22*%
X96868000Y-52070000D03*
%TO.P,J5,2,Pin_2*%
%TO.N,GPIO21*%
X91868000Y-52070000D03*
%TD*%
D16*
%TO.N,GND*%
X79756000Y-64262000D03*
X101092000Y-88646000D03*
X109728000Y-97282000D03*
X129000000Y-106000000D03*
X91916000Y-61788000D03*
X45400000Y-42500000D03*
X104870000Y-66675000D03*
X75660000Y-60706000D03*
X71882000Y-53340000D03*
X125500000Y-42500000D03*
X50038000Y-53340000D03*
X99282000Y-66675000D03*
X42000000Y-110000000D03*
X100838000Y-70358000D03*
X97295399Y-88657359D03*
X82831416Y-67538450D03*
X107410000Y-81600000D03*
X129000000Y-110000000D03*
X125500000Y-110000000D03*
X95152000Y-66040000D03*
X105632000Y-63058000D03*
X100838000Y-67056000D03*
X89630000Y-66360000D03*
X79759110Y-80925644D03*
X83312000Y-84328000D03*
X100838000Y-68580000D03*
X103346000Y-63058000D03*
X95726000Y-60772000D03*
X88106000Y-77282000D03*
X84213382Y-58231030D03*
X108458000Y-70358000D03*
X45400000Y-110000000D03*
X82296000Y-60960000D03*
X95152000Y-68580000D03*
X42000000Y-46000000D03*
X93882000Y-68580000D03*
X85566000Y-77282000D03*
X80518000Y-84328000D03*
X103604000Y-83312000D03*
X79502000Y-91186000D03*
X96012000Y-70104000D03*
X88868000Y-81092000D03*
X75438000Y-95504000D03*
X129000000Y-46000000D03*
X86582000Y-66360000D03*
X105410000Y-89662000D03*
X42000000Y-42500000D03*
X99314000Y-70358000D03*
X88107661Y-66918706D03*
X104870000Y-70358000D03*
X102362000Y-67056000D03*
X103600000Y-81600000D03*
X75438000Y-72390000D03*
X92612000Y-68580000D03*
X75406000Y-81092000D03*
X102362000Y-70358000D03*
X81600109Y-82210285D03*
X81756000Y-72964000D03*
X129000000Y-42500000D03*
X91186000Y-70104000D03*
X42000000Y-106000000D03*
%TO.N,VCC Enable*%
X93440000Y-60772000D03*
%TD*%
D17*
%TO.N,VCC Enable*%
X73920000Y-83820000D02*
X74930000Y-83820000D01*
X74930000Y-83820000D02*
X79502000Y-79248000D01*
X79502000Y-79248000D02*
X79502000Y-67056000D01*
X79502000Y-67056000D02*
X85786000Y-60772000D01*
X85786000Y-60772000D02*
X93440000Y-60772000D01*
%TO.N,GPIO23*%
X107108000Y-52070000D02*
X104322000Y-54856000D01*
X85402318Y-54856000D02*
X75692000Y-64566318D01*
X104322000Y-54856000D02*
X85402318Y-54856000D01*
X75692000Y-64566318D02*
X75692000Y-66294000D01*
X75692000Y-66294000D02*
X74676000Y-67310000D01*
X74676000Y-67310000D02*
X68834000Y-67310000D01*
X68834000Y-67310000D02*
X50538000Y-85606000D01*
X50538000Y-85606000D02*
X50538000Y-93902000D01*
X50538000Y-93902000D02*
X47920000Y-96520000D01*
%TO.N,GPIO21*%
X91868000Y-52070000D02*
X90590000Y-53348000D01*
X75895682Y-62230000D02*
X71779582Y-62230000D01*
X90590000Y-53348000D02*
X84777682Y-53348000D01*
X84777682Y-53348000D02*
X75895682Y-62230000D01*
X71779582Y-62230000D02*
X47920000Y-86089582D01*
X47920000Y-86089582D02*
X47920000Y-86360000D01*
%TO.N,GPIO22*%
X96868000Y-52070000D02*
X94836000Y-54102000D01*
X94836000Y-54102000D02*
X85090000Y-54102000D01*
X85090000Y-54102000D02*
X74422000Y-64770000D01*
X49784000Y-92116000D02*
X47920000Y-93980000D01*
X74422000Y-64770000D02*
X70305900Y-64770000D01*
X70305900Y-64770000D02*
X49784000Y-85291900D01*
X49784000Y-85291900D02*
X49784000Y-92116000D01*
D18*
%TO.N,SDI12_Bus*%
X114560000Y-68580000D02*
X114554000Y-68580000D01*
X110744000Y-72390000D02*
X110744000Y-79924000D01*
X110744000Y-79924000D02*
X114560000Y-83740000D01*
X114554000Y-68580000D02*
X110744000Y-72390000D01*
%TD*%
%TA.AperFunction,Conductor*%
%TO.N,GND*%
G36*
X130897030Y-40019685D02*
G01*
X130917672Y-40036319D01*
X130933633Y-40052280D01*
X130938601Y-40057887D01*
X130973610Y-40102572D01*
X130999460Y-40167482D01*
X131000000Y-40179045D01*
X131000000Y-111820953D01*
X130980315Y-111887992D01*
X130973610Y-111897427D01*
X130938602Y-111942110D01*
X130933635Y-111947717D01*
X130925655Y-111955697D01*
X130917673Y-111963679D01*
X130856354Y-111997165D01*
X130829991Y-112000000D01*
X40124000Y-112000000D01*
X40056961Y-111980315D01*
X40011206Y-111927511D01*
X40000000Y-111876000D01*
X40000000Y-106000001D01*
X43544773Y-106000001D01*
X43563657Y-106264027D01*
X43563658Y-106264034D01*
X43619921Y-106522673D01*
X43712426Y-106770690D01*
X43712428Y-106770694D01*
X43839280Y-107003005D01*
X43839285Y-107003013D01*
X43997906Y-107214907D01*
X43997922Y-107214925D01*
X44185074Y-107402077D01*
X44185092Y-107402093D01*
X44396986Y-107560714D01*
X44396994Y-107560719D01*
X44629305Y-107687571D01*
X44629309Y-107687573D01*
X44629311Y-107687574D01*
X44877322Y-107780077D01*
X44877325Y-107780077D01*
X44877326Y-107780078D01*
X45072552Y-107822546D01*
X45135974Y-107836343D01*
X45379660Y-107853772D01*
X45399999Y-107855227D01*
X45400000Y-107855227D01*
X45400001Y-107855227D01*
X45418885Y-107853876D01*
X45664026Y-107836343D01*
X45922678Y-107780077D01*
X46170689Y-107687574D01*
X46403011Y-107560716D01*
X46614915Y-107402087D01*
X46802087Y-107214915D01*
X46960716Y-107003011D01*
X47087574Y-106770689D01*
X47180077Y-106522678D01*
X47236343Y-106264026D01*
X47255227Y-106000001D01*
X123544773Y-106000001D01*
X123563657Y-106264027D01*
X123563658Y-106264034D01*
X123619921Y-106522673D01*
X123712426Y-106770690D01*
X123712428Y-106770694D01*
X123839280Y-107003005D01*
X123839285Y-107003013D01*
X123997906Y-107214907D01*
X123997922Y-107214925D01*
X124185074Y-107402077D01*
X124185092Y-107402093D01*
X124396986Y-107560714D01*
X124396994Y-107560719D01*
X124629305Y-107687571D01*
X124629309Y-107687573D01*
X124629311Y-107687574D01*
X124877322Y-107780077D01*
X124877325Y-107780077D01*
X124877326Y-107780078D01*
X125072552Y-107822546D01*
X125135974Y-107836343D01*
X125379660Y-107853772D01*
X125399999Y-107855227D01*
X125400000Y-107855227D01*
X125400001Y-107855227D01*
X125418885Y-107853876D01*
X125664026Y-107836343D01*
X125922678Y-107780077D01*
X126170689Y-107687574D01*
X126403011Y-107560716D01*
X126614915Y-107402087D01*
X126802087Y-107214915D01*
X126960716Y-107003011D01*
X127087574Y-106770689D01*
X127180077Y-106522678D01*
X127236343Y-106264026D01*
X127255227Y-106000000D01*
X127236343Y-105735974D01*
X127180077Y-105477322D01*
X127087574Y-105229311D01*
X126960716Y-104996989D01*
X126948093Y-104980126D01*
X126802093Y-104785092D01*
X126802077Y-104785074D01*
X126614925Y-104597922D01*
X126614907Y-104597906D01*
X126403013Y-104439285D01*
X126403005Y-104439280D01*
X126170694Y-104312428D01*
X126170690Y-104312426D01*
X125922673Y-104219921D01*
X125664034Y-104163658D01*
X125664027Y-104163657D01*
X125400001Y-104144773D01*
X125399999Y-104144773D01*
X125135972Y-104163657D01*
X125135965Y-104163658D01*
X124877326Y-104219921D01*
X124629309Y-104312426D01*
X124629305Y-104312428D01*
X124396994Y-104439280D01*
X124396986Y-104439285D01*
X124185092Y-104597906D01*
X124185074Y-104597922D01*
X123997922Y-104785074D01*
X123997906Y-104785092D01*
X123839285Y-104996986D01*
X123839280Y-104996994D01*
X123712428Y-105229305D01*
X123712426Y-105229309D01*
X123619921Y-105477326D01*
X123563658Y-105735965D01*
X123563657Y-105735972D01*
X123544773Y-105999998D01*
X123544773Y-106000001D01*
X47255227Y-106000001D01*
X47255227Y-106000000D01*
X47236343Y-105735974D01*
X47180077Y-105477322D01*
X47087574Y-105229311D01*
X46960716Y-104996989D01*
X46948093Y-104980126D01*
X46802093Y-104785092D01*
X46802077Y-104785074D01*
X46614925Y-104597922D01*
X46614907Y-104597906D01*
X46403013Y-104439285D01*
X46403005Y-104439280D01*
X46170694Y-104312428D01*
X46170690Y-104312426D01*
X45922673Y-104219921D01*
X45664034Y-104163658D01*
X45664027Y-104163657D01*
X45400001Y-104144773D01*
X45399999Y-104144773D01*
X45135972Y-104163657D01*
X45135965Y-104163658D01*
X44877326Y-104219921D01*
X44629309Y-104312426D01*
X44629305Y-104312428D01*
X44396994Y-104439280D01*
X44396986Y-104439285D01*
X44185092Y-104597906D01*
X44185074Y-104597922D01*
X43997922Y-104785074D01*
X43997906Y-104785092D01*
X43839285Y-104996986D01*
X43839280Y-104996994D01*
X43712428Y-105229305D01*
X43712426Y-105229309D01*
X43619921Y-105477326D01*
X43563658Y-105735965D01*
X43563657Y-105735972D01*
X43544773Y-105999998D01*
X43544773Y-106000001D01*
X40000000Y-106000001D01*
X40000000Y-103980000D01*
X113254432Y-103980000D01*
X113274266Y-104206705D01*
X113274268Y-104206715D01*
X113333164Y-104426523D01*
X113333166Y-104426527D01*
X113333167Y-104426531D01*
X113381256Y-104529657D01*
X113429344Y-104632783D01*
X113429345Y-104632785D01*
X113559873Y-104819198D01*
X113559878Y-104819204D01*
X113720795Y-104980121D01*
X113720801Y-104980126D01*
X113907214Y-105110654D01*
X113907216Y-105110655D01*
X114113469Y-105206833D01*
X114333290Y-105265733D01*
X114514658Y-105281601D01*
X114559999Y-105285568D01*
X114560000Y-105285568D01*
X114560001Y-105285568D01*
X114597785Y-105282262D01*
X114786710Y-105265733D01*
X115006531Y-105206833D01*
X115212784Y-105110655D01*
X115399203Y-104980123D01*
X115560123Y-104819203D01*
X115690655Y-104632784D01*
X115786833Y-104426531D01*
X115845733Y-104206710D01*
X115865568Y-103980000D01*
X115845733Y-103753290D01*
X115786833Y-103533469D01*
X115690655Y-103327216D01*
X115686343Y-103321058D01*
X115560126Y-103140801D01*
X115560121Y-103140795D01*
X115399204Y-102979878D01*
X115399198Y-102979873D01*
X115212785Y-102849345D01*
X115212783Y-102849344D01*
X115081515Y-102788133D01*
X115006531Y-102753167D01*
X115006527Y-102753166D01*
X115006523Y-102753164D01*
X114786715Y-102694268D01*
X114786705Y-102694266D01*
X114560001Y-102674432D01*
X114559999Y-102674432D01*
X114333294Y-102694266D01*
X114333284Y-102694268D01*
X114113476Y-102753164D01*
X114113467Y-102753168D01*
X113907216Y-102849344D01*
X113907214Y-102849345D01*
X113720801Y-102979873D01*
X113720795Y-102979878D01*
X113559878Y-103140795D01*
X113559873Y-103140801D01*
X113429345Y-103327214D01*
X113429344Y-103327216D01*
X113333168Y-103533467D01*
X113333164Y-103533476D01*
X113274268Y-103753284D01*
X113274266Y-103753294D01*
X113254432Y-103979999D01*
X113254432Y-103980000D01*
X40000000Y-103980000D01*
X40000000Y-102141411D01*
X47040771Y-102141411D01*
X47050707Y-102375341D01*
X47050707Y-102375342D01*
X47100038Y-102604236D01*
X47187338Y-102821490D01*
X47310103Y-103020875D01*
X47464793Y-103196637D01*
X47464797Y-103196641D01*
X47618884Y-103321057D01*
X47646969Y-103343734D01*
X47646969Y-103343735D01*
X47851377Y-103457924D01*
X47851381Y-103457926D01*
X48072151Y-103535929D01*
X48200929Y-103558010D01*
X48302919Y-103575499D01*
X48302928Y-103575500D01*
X48478433Y-103575500D01*
X48653296Y-103560617D01*
X48653299Y-103560616D01*
X48653301Y-103560616D01*
X48879890Y-103501617D01*
X49010242Y-103442693D01*
X49093244Y-103405175D01*
X49093245Y-103405173D01*
X49093250Y-103405172D01*
X49287241Y-103274057D01*
X49456283Y-103112044D01*
X49595513Y-102923792D01*
X49700926Y-102714718D01*
X49769489Y-102490837D01*
X49799229Y-102258589D01*
X49794252Y-102141411D01*
X72040771Y-102141411D01*
X72050707Y-102375341D01*
X72050707Y-102375342D01*
X72100038Y-102604236D01*
X72187338Y-102821490D01*
X72310103Y-103020875D01*
X72464793Y-103196637D01*
X72464797Y-103196641D01*
X72618884Y-103321057D01*
X72646969Y-103343734D01*
X72646969Y-103343735D01*
X72851377Y-103457924D01*
X72851381Y-103457926D01*
X73072151Y-103535929D01*
X73200929Y-103558010D01*
X73302919Y-103575499D01*
X73302928Y-103575500D01*
X73478433Y-103575500D01*
X73653296Y-103560617D01*
X73653299Y-103560616D01*
X73653301Y-103560616D01*
X73879890Y-103501617D01*
X74010242Y-103442693D01*
X74093244Y-103405175D01*
X74093245Y-103405173D01*
X74093250Y-103405172D01*
X74287241Y-103274057D01*
X74456283Y-103112044D01*
X74595513Y-102923792D01*
X74700926Y-102714718D01*
X74769489Y-102490837D01*
X74799229Y-102258589D01*
X74789292Y-102024655D01*
X74739962Y-101795766D01*
X74652660Y-101578506D01*
X74581566Y-101463043D01*
X74529896Y-101379124D01*
X74375206Y-101203362D01*
X74375205Y-101203361D01*
X74375203Y-101203359D01*
X74193030Y-101056265D01*
X74193030Y-101056264D01*
X73988622Y-100942075D01*
X73767852Y-100864072D01*
X73767851Y-100864071D01*
X73767849Y-100864071D01*
X73767845Y-100864070D01*
X73767844Y-100864070D01*
X73537080Y-100824500D01*
X73537072Y-100824500D01*
X73361572Y-100824500D01*
X73361567Y-100824500D01*
X73186703Y-100839382D01*
X72960110Y-100898382D01*
X72746755Y-100994824D01*
X72746747Y-100994829D01*
X72552768Y-101125935D01*
X72552759Y-101125943D01*
X72383721Y-101287951D01*
X72244485Y-101476210D01*
X72139074Y-101685280D01*
X72070510Y-101909166D01*
X72040771Y-102141411D01*
X49794252Y-102141411D01*
X49789292Y-102024655D01*
X49739962Y-101795766D01*
X49652660Y-101578506D01*
X49581566Y-101463043D01*
X49529896Y-101379124D01*
X49375206Y-101203362D01*
X49375205Y-101203361D01*
X49375203Y-101203359D01*
X49193030Y-101056265D01*
X49193030Y-101056264D01*
X48988622Y-100942075D01*
X48767852Y-100864072D01*
X48767851Y-100864071D01*
X48767849Y-100864071D01*
X48767845Y-100864070D01*
X48767844Y-100864070D01*
X48537080Y-100824500D01*
X48537072Y-100824500D01*
X48361572Y-100824500D01*
X48361567Y-100824500D01*
X48186703Y-100839382D01*
X47960110Y-100898382D01*
X47746755Y-100994824D01*
X47746747Y-100994829D01*
X47552768Y-101125935D01*
X47552759Y-101125943D01*
X47383721Y-101287951D01*
X47244485Y-101476210D01*
X47139074Y-101685280D01*
X47070510Y-101909166D01*
X47040771Y-102141411D01*
X40000000Y-102141411D01*
X40000000Y-96520000D01*
X46739464Y-96520000D01*
X46759564Y-96736918D01*
X46819184Y-96946462D01*
X46889355Y-97087383D01*
X46916288Y-97141472D01*
X47047573Y-97315322D01*
X47208568Y-97462088D01*
X47208575Y-97462092D01*
X47208576Y-97462093D01*
X47393786Y-97576770D01*
X47393792Y-97576773D01*
X47425565Y-97589082D01*
X47570872Y-97645374D01*
X47626271Y-97687946D01*
X47649862Y-97753713D01*
X47634151Y-97821793D01*
X47584127Y-97870572D01*
X47526076Y-97885000D01*
X47197155Y-97885000D01*
X47137627Y-97891401D01*
X47137620Y-97891403D01*
X47002913Y-97941645D01*
X47002906Y-97941649D01*
X46887812Y-98027809D01*
X46887809Y-98027812D01*
X46801649Y-98142906D01*
X46801645Y-98142913D01*
X46751403Y-98277620D01*
X46751401Y-98277627D01*
X46745000Y-98337155D01*
X46745000Y-98810000D01*
X47544722Y-98810000D01*
X47496375Y-98893740D01*
X47466190Y-99025992D01*
X47476327Y-99161265D01*
X47525887Y-99287541D01*
X47543797Y-99310000D01*
X46745000Y-99310000D01*
X46745000Y-99782844D01*
X46751401Y-99842372D01*
X46751403Y-99842379D01*
X46801645Y-99977086D01*
X46801649Y-99977093D01*
X46887809Y-100092187D01*
X46887812Y-100092190D01*
X47002906Y-100178350D01*
X47002913Y-100178354D01*
X47137620Y-100228596D01*
X47137627Y-100228598D01*
X47197155Y-100234999D01*
X47197172Y-100235000D01*
X47670000Y-100235000D01*
X47670000Y-99434189D01*
X47722547Y-99470016D01*
X47852173Y-99510000D01*
X47953724Y-99510000D01*
X48054138Y-99494865D01*
X48170000Y-99439068D01*
X48170000Y-100235000D01*
X48642828Y-100235000D01*
X48642844Y-100234999D01*
X48702372Y-100228598D01*
X48702379Y-100228596D01*
X48837086Y-100178354D01*
X48837093Y-100178350D01*
X48952187Y-100092190D01*
X48952190Y-100092187D01*
X49038350Y-99977093D01*
X49038354Y-99977086D01*
X49088596Y-99842379D01*
X49088598Y-99842372D01*
X49094999Y-99782844D01*
X49095000Y-99782827D01*
X49095000Y-99310000D01*
X48295278Y-99310000D01*
X48343625Y-99226260D01*
X48373810Y-99094008D01*
X48363673Y-98958735D01*
X48314113Y-98832459D01*
X48296203Y-98810000D01*
X49095000Y-98810000D01*
X49095000Y-98337172D01*
X49094999Y-98337155D01*
X49088598Y-98277627D01*
X49088596Y-98277620D01*
X49038354Y-98142913D01*
X49038350Y-98142906D01*
X48952190Y-98027812D01*
X48952187Y-98027809D01*
X48837093Y-97941649D01*
X48837086Y-97941645D01*
X48702379Y-97891403D01*
X48702372Y-97891401D01*
X48642844Y-97885000D01*
X48313924Y-97885000D01*
X48246885Y-97865315D01*
X48201130Y-97812511D01*
X48191186Y-97743353D01*
X48220211Y-97679797D01*
X48269127Y-97645374D01*
X48446210Y-97576772D01*
X48631432Y-97462088D01*
X48792427Y-97315322D01*
X48923712Y-97141472D01*
X49020817Y-96946459D01*
X49080435Y-96736923D01*
X49100536Y-96520000D01*
X49095800Y-96468897D01*
X49109214Y-96400329D01*
X49131587Y-96369778D01*
X51023638Y-94477727D01*
X51037267Y-94465950D01*
X51056530Y-94451610D01*
X51056532Y-94451606D01*
X51056534Y-94451606D01*
X51077724Y-94426351D01*
X51090113Y-94411585D01*
X51093767Y-94407599D01*
X51099589Y-94401778D01*
X51119928Y-94376054D01*
X51136549Y-94356246D01*
X51169302Y-94317214D01*
X51169304Y-94317209D01*
X51173272Y-94311179D01*
X51173323Y-94311212D01*
X51177372Y-94304856D01*
X51177320Y-94304824D01*
X51181112Y-94298675D01*
X51213575Y-94229058D01*
X51231116Y-94194128D01*
X51248040Y-94160433D01*
X51248042Y-94160421D01*
X51250509Y-94153646D01*
X51250567Y-94153667D01*
X51253043Y-94146546D01*
X51252986Y-94146527D01*
X51255255Y-94139678D01*
X51255255Y-94139676D01*
X51255257Y-94139673D01*
X51270788Y-94064449D01*
X51288500Y-93989721D01*
X51288500Y-93989718D01*
X51289339Y-93982548D01*
X51289397Y-93982554D01*
X51290164Y-93975056D01*
X51290104Y-93975051D01*
X51290733Y-93967860D01*
X51288500Y-93891103D01*
X51288500Y-85968229D01*
X51308185Y-85901190D01*
X51324819Y-85880548D01*
X69108548Y-68096819D01*
X69169871Y-68063334D01*
X69196229Y-68060500D01*
X72681453Y-68060500D01*
X72748492Y-68080185D01*
X72794247Y-68132989D01*
X72804191Y-68202147D01*
X72800719Y-68218434D01*
X72759565Y-68363074D01*
X72759564Y-68363077D01*
X72739464Y-68579999D01*
X72739464Y-68580000D01*
X72759564Y-68796918D01*
X72759564Y-68796920D01*
X72759565Y-68796923D01*
X72762350Y-68806710D01*
X72819184Y-69006462D01*
X72829178Y-69026532D01*
X72916288Y-69201472D01*
X73047573Y-69375322D01*
X73208568Y-69522088D01*
X73208575Y-69522092D01*
X73208576Y-69522093D01*
X73393786Y-69636770D01*
X73393792Y-69636773D01*
X73416664Y-69645633D01*
X73596931Y-69715470D01*
X73664558Y-69728111D01*
X73726838Y-69759779D01*
X73762111Y-69820092D01*
X73759177Y-69889900D01*
X73718968Y-69947040D01*
X73664558Y-69971888D01*
X73596931Y-69984530D01*
X73548130Y-70003435D01*
X73393792Y-70063226D01*
X73393786Y-70063229D01*
X73208576Y-70177906D01*
X73208566Y-70177913D01*
X73047574Y-70324676D01*
X72916288Y-70498527D01*
X72819184Y-70693537D01*
X72759564Y-70903081D01*
X72739464Y-71119999D01*
X72739464Y-71120000D01*
X72759564Y-71336918D01*
X72759564Y-71336920D01*
X72759565Y-71336923D01*
X72819183Y-71546459D01*
X72916288Y-71741472D01*
X73047573Y-71915322D01*
X73208568Y-72062088D01*
X73208575Y-72062092D01*
X73208576Y-72062093D01*
X73393786Y-72176770D01*
X73393792Y-72176773D01*
X73416664Y-72185633D01*
X73596931Y-72255470D01*
X73664558Y-72268111D01*
X73726838Y-72299779D01*
X73762111Y-72360092D01*
X73759177Y-72429900D01*
X73718968Y-72487040D01*
X73664558Y-72511888D01*
X73596931Y-72524530D01*
X73548130Y-72543435D01*
X73393792Y-72603226D01*
X73393786Y-72603229D01*
X73208576Y-72717906D01*
X73208566Y-72717913D01*
X73047574Y-72864676D01*
X72916288Y-73038527D01*
X72819184Y-73233537D01*
X72759564Y-73443081D01*
X72739464Y-73659999D01*
X72739464Y-73660000D01*
X72759564Y-73876918D01*
X72759564Y-73876920D01*
X72759565Y-73876923D01*
X72819183Y-74086459D01*
X72916288Y-74281472D01*
X73047573Y-74455322D01*
X73208568Y-74602088D01*
X73208575Y-74602092D01*
X73208576Y-74602093D01*
X73393786Y-74716770D01*
X73393792Y-74716773D01*
X73416664Y-74725633D01*
X73596931Y-74795470D01*
X73664558Y-74808111D01*
X73726838Y-74839779D01*
X73762111Y-74900092D01*
X73759177Y-74969900D01*
X73718968Y-75027040D01*
X73664558Y-75051888D01*
X73596931Y-75064530D01*
X73548130Y-75083435D01*
X73393792Y-75143226D01*
X73393786Y-75143229D01*
X73208576Y-75257906D01*
X73208566Y-75257913D01*
X73047574Y-75404676D01*
X72916288Y-75578527D01*
X72819184Y-75773537D01*
X72759564Y-75983081D01*
X72739464Y-76199999D01*
X72739464Y-76200000D01*
X72759564Y-76416918D01*
X72759564Y-76416920D01*
X72759565Y-76416923D01*
X72819183Y-76626459D01*
X72916288Y-76821472D01*
X73047573Y-76995322D01*
X73208568Y-77142088D01*
X73208575Y-77142092D01*
X73208576Y-77142093D01*
X73393786Y-77256770D01*
X73393792Y-77256773D01*
X73416664Y-77265633D01*
X73596931Y-77335470D01*
X73664558Y-77348111D01*
X73726838Y-77379779D01*
X73762111Y-77440092D01*
X73759177Y-77509900D01*
X73718968Y-77567040D01*
X73664558Y-77591888D01*
X73596931Y-77604530D01*
X73548130Y-77623435D01*
X73393792Y-77683226D01*
X73393786Y-77683229D01*
X73208576Y-77797906D01*
X73208566Y-77797913D01*
X73047574Y-77944676D01*
X72916288Y-78118527D01*
X72819184Y-78313537D01*
X72789374Y-78418309D01*
X72762324Y-78513382D01*
X72759564Y-78523081D01*
X72739464Y-78739999D01*
X72739464Y-78740000D01*
X72759564Y-78956918D01*
X72759564Y-78956920D01*
X72759565Y-78956923D01*
X72798440Y-79093553D01*
X72819184Y-79166462D01*
X72912898Y-79354664D01*
X72916288Y-79361472D01*
X73047573Y-79535322D01*
X73208568Y-79682088D01*
X73208575Y-79682092D01*
X73208576Y-79682093D01*
X73393786Y-79796770D01*
X73393792Y-79796773D01*
X73395953Y-79797610D01*
X73596931Y-79875470D01*
X73664558Y-79888111D01*
X73726838Y-79919779D01*
X73762111Y-79980092D01*
X73759177Y-80049900D01*
X73718968Y-80107040D01*
X73664558Y-80131888D01*
X73596931Y-80144530D01*
X73587484Y-80148190D01*
X73393792Y-80223226D01*
X73393786Y-80223229D01*
X73208576Y-80337906D01*
X73208566Y-80337913D01*
X73047574Y-80484676D01*
X72916288Y-80658527D01*
X72819184Y-80853537D01*
X72759564Y-81063081D01*
X72739464Y-81279999D01*
X72739464Y-81280000D01*
X72759564Y-81496918D01*
X72759564Y-81496920D01*
X72759565Y-81496923D01*
X72819183Y-81706459D01*
X72916288Y-81901472D01*
X73047573Y-82075322D01*
X73208568Y-82222088D01*
X73208575Y-82222092D01*
X73208576Y-82222093D01*
X73393786Y-82336770D01*
X73393792Y-82336773D01*
X73416664Y-82345633D01*
X73596931Y-82415470D01*
X73664558Y-82428111D01*
X73726838Y-82459779D01*
X73762111Y-82520092D01*
X73759177Y-82589900D01*
X73718968Y-82647040D01*
X73664558Y-82671888D01*
X73596931Y-82684530D01*
X73548130Y-82703435D01*
X73393792Y-82763226D01*
X73393786Y-82763229D01*
X73208576Y-82877906D01*
X73208566Y-82877913D01*
X73047574Y-83024676D01*
X72916288Y-83198527D01*
X72819184Y-83393537D01*
X72759564Y-83603081D01*
X72739464Y-83819999D01*
X72739464Y-83820000D01*
X72759564Y-84036918D01*
X72759564Y-84036920D01*
X72759565Y-84036923D01*
X72819134Y-84246287D01*
X72819184Y-84246462D01*
X72830905Y-84270000D01*
X72916288Y-84441472D01*
X73047573Y-84615322D01*
X73208568Y-84762088D01*
X73208575Y-84762092D01*
X73208576Y-84762093D01*
X73393786Y-84876770D01*
X73393792Y-84876773D01*
X73416664Y-84885633D01*
X73596931Y-84955470D01*
X73664558Y-84968111D01*
X73726838Y-84999779D01*
X73762111Y-85060092D01*
X73759177Y-85129900D01*
X73718968Y-85187040D01*
X73664558Y-85211888D01*
X73596931Y-85224530D01*
X73548130Y-85243435D01*
X73393792Y-85303226D01*
X73393786Y-85303229D01*
X73208576Y-85417906D01*
X73208566Y-85417913D01*
X73047574Y-85564676D01*
X72916288Y-85738527D01*
X72819184Y-85933537D01*
X72759564Y-86143081D01*
X72739464Y-86359999D01*
X72739464Y-86360000D01*
X72759564Y-86576918D01*
X72759564Y-86576920D01*
X72759565Y-86576923D01*
X72819183Y-86786459D01*
X72916288Y-86981472D01*
X73047573Y-87155322D01*
X73208568Y-87302088D01*
X73208575Y-87302092D01*
X73208576Y-87302093D01*
X73393786Y-87416770D01*
X73393792Y-87416773D01*
X73416664Y-87425633D01*
X73596931Y-87495470D01*
X73664558Y-87508111D01*
X73726838Y-87539779D01*
X73762111Y-87600092D01*
X73759177Y-87669900D01*
X73718968Y-87727040D01*
X73664558Y-87751888D01*
X73596931Y-87764530D01*
X73548130Y-87783435D01*
X73393792Y-87843226D01*
X73393786Y-87843229D01*
X73208576Y-87957906D01*
X73208566Y-87957913D01*
X73047574Y-88104676D01*
X72916288Y-88278527D01*
X72819184Y-88473537D01*
X72759564Y-88683081D01*
X72739464Y-88899999D01*
X72739464Y-88900000D01*
X72759564Y-89116918D01*
X72759564Y-89116920D01*
X72759565Y-89116923D01*
X72819183Y-89326459D01*
X72916288Y-89521472D01*
X73047573Y-89695322D01*
X73208568Y-89842088D01*
X73208575Y-89842092D01*
X73208576Y-89842093D01*
X73393786Y-89956770D01*
X73393792Y-89956773D01*
X73416664Y-89965633D01*
X73596931Y-90035470D01*
X73664558Y-90048111D01*
X73726838Y-90079779D01*
X73762111Y-90140092D01*
X73759177Y-90209900D01*
X73718968Y-90267040D01*
X73664558Y-90291888D01*
X73596931Y-90304530D01*
X73548130Y-90323435D01*
X73393792Y-90383226D01*
X73393786Y-90383229D01*
X73208576Y-90497906D01*
X73208566Y-90497913D01*
X73047574Y-90644676D01*
X72916288Y-90818527D01*
X72819184Y-91013537D01*
X72759564Y-91223081D01*
X72739464Y-91439999D01*
X72739464Y-91440000D01*
X72759564Y-91656918D01*
X72759564Y-91656920D01*
X72759565Y-91656923D01*
X72819183Y-91866459D01*
X72916288Y-92061472D01*
X73047573Y-92235322D01*
X73208568Y-92382088D01*
X73208575Y-92382092D01*
X73208576Y-92382093D01*
X73393786Y-92496770D01*
X73393792Y-92496773D01*
X73416664Y-92505633D01*
X73596931Y-92575470D01*
X73664558Y-92588111D01*
X73726838Y-92619779D01*
X73762111Y-92680092D01*
X73759177Y-92749900D01*
X73718968Y-92807040D01*
X73664558Y-92831888D01*
X73596931Y-92844530D01*
X73548130Y-92863435D01*
X73393792Y-92923226D01*
X73393786Y-92923229D01*
X73208576Y-93037906D01*
X73208566Y-93037913D01*
X73047574Y-93184676D01*
X72916288Y-93358527D01*
X72819184Y-93553537D01*
X72798154Y-93627450D01*
X72762324Y-93753382D01*
X72759564Y-93763081D01*
X72739464Y-93979999D01*
X72739464Y-93980000D01*
X72759564Y-94196918D01*
X72759564Y-94196920D01*
X72759565Y-94196923D01*
X72817851Y-94401777D01*
X72819184Y-94406462D01*
X72871135Y-94510793D01*
X72916288Y-94601472D01*
X73047573Y-94775322D01*
X73208568Y-94922088D01*
X73208575Y-94922092D01*
X73208576Y-94922093D01*
X73393786Y-95036770D01*
X73393792Y-95036773D01*
X73416664Y-95045633D01*
X73596931Y-95115470D01*
X73664558Y-95128111D01*
X73726838Y-95159779D01*
X73762111Y-95220092D01*
X73759177Y-95289900D01*
X73718968Y-95347040D01*
X73664558Y-95371888D01*
X73596931Y-95384530D01*
X73548130Y-95403435D01*
X73393792Y-95463226D01*
X73393786Y-95463229D01*
X73208576Y-95577906D01*
X73208566Y-95577913D01*
X73047574Y-95724676D01*
X72916288Y-95898527D01*
X72819184Y-96093537D01*
X72759564Y-96303081D01*
X72739464Y-96519999D01*
X72739464Y-96520000D01*
X72759564Y-96736918D01*
X72819184Y-96946462D01*
X72889355Y-97087383D01*
X72916288Y-97141472D01*
X73047573Y-97315322D01*
X73208568Y-97462088D01*
X73208575Y-97462092D01*
X73208576Y-97462093D01*
X73393786Y-97576770D01*
X73393792Y-97576773D01*
X73416664Y-97585633D01*
X73596931Y-97655470D01*
X73664558Y-97668111D01*
X73726838Y-97699779D01*
X73762111Y-97760092D01*
X73759177Y-97829900D01*
X73718968Y-97887040D01*
X73664558Y-97911888D01*
X73596931Y-97924530D01*
X73552753Y-97941645D01*
X73393792Y-98003226D01*
X73393786Y-98003229D01*
X73208576Y-98117906D01*
X73208566Y-98117913D01*
X73047574Y-98264676D01*
X72916288Y-98438527D01*
X72819184Y-98633537D01*
X72759564Y-98843081D01*
X72739464Y-99059999D01*
X72739464Y-99060000D01*
X72759564Y-99276918D01*
X72759564Y-99276920D01*
X72759565Y-99276923D01*
X72804828Y-99436007D01*
X72819184Y-99486462D01*
X72825155Y-99498453D01*
X72916288Y-99681472D01*
X73039685Y-99844877D01*
X73047574Y-99855323D01*
X73068834Y-99874704D01*
X73208568Y-100002088D01*
X73208575Y-100002092D01*
X73208576Y-100002093D01*
X73393786Y-100116770D01*
X73393792Y-100116773D01*
X73416664Y-100125633D01*
X73596931Y-100195470D01*
X73811074Y-100235500D01*
X73811076Y-100235500D01*
X74028924Y-100235500D01*
X74028926Y-100235500D01*
X74243069Y-100195470D01*
X74446210Y-100116772D01*
X74631432Y-100002088D01*
X74792427Y-99855322D01*
X74923712Y-99681472D01*
X75020817Y-99486459D01*
X75080435Y-99276923D01*
X75100536Y-99060000D01*
X80745124Y-99060000D01*
X80764617Y-99469208D01*
X80822919Y-99874704D01*
X80919502Y-100272825D01*
X80919505Y-100272836D01*
X81053487Y-100659953D01*
X81053494Y-100659971D01*
X81223670Y-101032600D01*
X81223678Y-101032616D01*
X81428511Y-101387398D01*
X81428517Y-101387406D01*
X81666138Y-101721097D01*
X81837540Y-101918905D01*
X81837541Y-101918906D01*
X83363104Y-100393342D01*
X83475031Y-100530918D01*
X83689990Y-100731676D01*
X83714543Y-100749007D01*
X82189563Y-102273987D01*
X82230896Y-102313398D01*
X82230905Y-102313407D01*
X82552938Y-102566655D01*
X82897565Y-102788133D01*
X83261694Y-102975854D01*
X83261698Y-102975856D01*
X83642011Y-103128110D01*
X83642023Y-103128114D01*
X84035078Y-103243525D01*
X84437341Y-103321057D01*
X84437348Y-103321058D01*
X84845173Y-103360000D01*
X85254827Y-103360000D01*
X85662651Y-103321058D01*
X85662658Y-103321057D01*
X86064921Y-103243525D01*
X86457976Y-103128114D01*
X86457988Y-103128110D01*
X86838301Y-102975856D01*
X86838305Y-102975854D01*
X87202434Y-102788133D01*
X87547061Y-102566655D01*
X87869098Y-102313403D01*
X87910434Y-102273987D01*
X86385455Y-100749008D01*
X86410010Y-100731676D01*
X86624969Y-100530918D01*
X86736895Y-100393342D01*
X88262459Y-101918906D01*
X88433859Y-101721099D01*
X88433870Y-101721086D01*
X88671482Y-101387406D01*
X88671488Y-101387398D01*
X88876321Y-101032616D01*
X88876329Y-101032600D01*
X89046505Y-100659971D01*
X89046512Y-100659953D01*
X89180494Y-100272836D01*
X89180497Y-100272825D01*
X89277080Y-99874704D01*
X89335382Y-99469208D01*
X89354875Y-99060000D01*
X89342966Y-98810000D01*
X90870000Y-98810000D01*
X92209917Y-98810000D01*
X92185123Y-98880857D01*
X92164938Y-99060000D01*
X92185123Y-99239143D01*
X92209917Y-99310000D01*
X90870001Y-99310000D01*
X90870001Y-99916762D01*
X90884859Y-100086604D01*
X90884859Y-100086607D01*
X90943730Y-100306317D01*
X90943734Y-100306326D01*
X91039865Y-100512482D01*
X91170342Y-100698820D01*
X91331179Y-100859657D01*
X91517517Y-100990134D01*
X91723673Y-101086265D01*
X91723682Y-101086269D01*
X91943389Y-101145139D01*
X91943400Y-101145141D01*
X92113236Y-101160000D01*
X92113237Y-101160000D01*
X92719999Y-101159999D01*
X92720000Y-101159998D01*
X92720000Y-99820083D01*
X92790857Y-99844877D01*
X92925074Y-99860000D01*
X93014926Y-99860000D01*
X93149143Y-99844877D01*
X93220000Y-99820083D01*
X93220000Y-101159999D01*
X93826762Y-101159999D01*
X93996604Y-101145140D01*
X93996607Y-101145140D01*
X94216317Y-101086269D01*
X94216326Y-101086265D01*
X94422482Y-100990134D01*
X94608820Y-100859657D01*
X94769657Y-100698820D01*
X94900134Y-100512482D01*
X94996265Y-100306326D01*
X94996269Y-100306317D01*
X95055139Y-100086610D01*
X95055141Y-100086599D01*
X95070000Y-99916763D01*
X95070000Y-99310000D01*
X93730083Y-99310000D01*
X93754877Y-99239143D01*
X93775062Y-99060000D01*
X93754877Y-98880857D01*
X93730083Y-98810000D01*
X95069999Y-98810000D01*
X95069999Y-98203238D01*
X95067099Y-98170095D01*
X103069500Y-98170095D01*
X103069501Y-99949904D01*
X103075173Y-100050931D01*
X103075804Y-100062158D01*
X103075805Y-100062165D01*
X103125971Y-100327299D01*
X103125973Y-100327309D01*
X103215103Y-100582027D01*
X103341196Y-100820606D01*
X103341199Y-100820612D01*
X103501444Y-101037736D01*
X103692263Y-101228555D01*
X103907487Y-101387398D01*
X103909390Y-101388802D01*
X104147975Y-101514898D01*
X104402690Y-101604026D01*
X104402700Y-101604028D01*
X104535266Y-101629111D01*
X104667843Y-101654196D01*
X104780095Y-101660500D01*
X104780102Y-101660499D01*
X104780103Y-101660500D01*
X105617652Y-101660499D01*
X106559904Y-101660499D01*
X106672157Y-101654196D01*
X106937310Y-101604026D01*
X107192025Y-101514898D01*
X107430610Y-101388802D01*
X107647737Y-101228555D01*
X107838555Y-101037737D01*
X107998802Y-100820610D01*
X108124898Y-100582025D01*
X108214026Y-100327310D01*
X108264196Y-100062157D01*
X108270500Y-99949905D01*
X108270499Y-98980000D01*
X113254432Y-98980000D01*
X113274266Y-99206705D01*
X113274268Y-99206715D01*
X113333164Y-99426523D01*
X113333166Y-99426527D01*
X113333167Y-99426531D01*
X113381256Y-99529657D01*
X113429344Y-99632783D01*
X113429345Y-99632785D01*
X113559873Y-99819198D01*
X113559878Y-99819204D01*
X113720795Y-99980121D01*
X113720801Y-99980126D01*
X113907214Y-100110654D01*
X113907216Y-100110655D01*
X114113469Y-100206833D01*
X114333290Y-100265733D01*
X114514658Y-100281601D01*
X114559999Y-100285568D01*
X114560000Y-100285568D01*
X114560001Y-100285568D01*
X114597785Y-100282262D01*
X114786710Y-100265733D01*
X115006531Y-100206833D01*
X115212784Y-100110655D01*
X115399203Y-99980123D01*
X115560123Y-99819203D01*
X115690655Y-99632784D01*
X115786833Y-99426531D01*
X115845733Y-99206710D01*
X115865568Y-98980000D01*
X115845733Y-98753290D01*
X115786833Y-98533469D01*
X115690655Y-98327216D01*
X115655932Y-98277627D01*
X115560126Y-98140801D01*
X115560121Y-98140795D01*
X115399204Y-97979878D01*
X115399198Y-97979873D01*
X115212785Y-97849345D01*
X115212783Y-97849344D01*
X115091288Y-97792690D01*
X115006531Y-97753167D01*
X115006527Y-97753166D01*
X115006523Y-97753164D01*
X114786715Y-97694268D01*
X114786705Y-97694266D01*
X114560001Y-97674432D01*
X114559999Y-97674432D01*
X114333294Y-97694266D01*
X114333284Y-97694268D01*
X114113476Y-97753164D01*
X114113467Y-97753168D01*
X113907216Y-97849344D01*
X113907214Y-97849345D01*
X113720801Y-97979873D01*
X113720795Y-97979878D01*
X113559878Y-98140795D01*
X113559873Y-98140801D01*
X113429345Y-98327214D01*
X113429344Y-98327216D01*
X113333168Y-98533467D01*
X113333164Y-98533476D01*
X113274268Y-98753284D01*
X113274266Y-98753294D01*
X113254432Y-98979999D01*
X113254432Y-98980000D01*
X108270499Y-98980000D01*
X108270499Y-98170096D01*
X108264196Y-98057843D01*
X108214026Y-97792690D01*
X108124898Y-97537975D01*
X107998802Y-97299390D01*
X107838555Y-97082263D01*
X107647737Y-96891445D01*
X107647736Y-96891444D01*
X107430612Y-96731199D01*
X107430606Y-96731196D01*
X107192027Y-96605103D01*
X107192026Y-96605102D01*
X107192025Y-96605102D01*
X107111565Y-96576948D01*
X106937309Y-96515973D01*
X106937299Y-96515971D01*
X106672166Y-96465805D01*
X106672159Y-96465804D01*
X106649706Y-96464543D01*
X106559905Y-96459500D01*
X106559897Y-96459500D01*
X105722347Y-96459500D01*
X104780096Y-96459501D01*
X104688252Y-96464658D01*
X104667841Y-96465804D01*
X104667834Y-96465805D01*
X104402700Y-96515971D01*
X104402690Y-96515973D01*
X104147972Y-96605103D01*
X103909393Y-96731196D01*
X103909387Y-96731199D01*
X103692263Y-96891444D01*
X103501444Y-97082263D01*
X103341199Y-97299387D01*
X103341196Y-97299393D01*
X103215103Y-97537972D01*
X103125973Y-97792690D01*
X103125971Y-97792700D01*
X103075805Y-98057833D01*
X103075804Y-98057840D01*
X103075804Y-98057841D01*
X103075804Y-98057843D01*
X103069500Y-98170095D01*
X95067099Y-98170095D01*
X95055140Y-98033395D01*
X95055140Y-98033392D01*
X94996269Y-97813682D01*
X94996265Y-97813673D01*
X94900134Y-97607517D01*
X94769657Y-97421179D01*
X94608820Y-97260342D01*
X94422482Y-97129865D01*
X94216326Y-97033734D01*
X94216317Y-97033730D01*
X93996610Y-96974860D01*
X93996599Y-96974858D01*
X93826763Y-96960000D01*
X93220000Y-96960000D01*
X93220000Y-98299916D01*
X93149143Y-98275123D01*
X93014926Y-98260000D01*
X92925074Y-98260000D01*
X92790857Y-98275123D01*
X92720000Y-98299916D01*
X92720000Y-96960000D01*
X92719999Y-96960000D01*
X92113238Y-96960001D01*
X92113239Y-96960001D01*
X91943395Y-96974859D01*
X91943392Y-96974859D01*
X91723682Y-97033730D01*
X91723673Y-97033734D01*
X91517517Y-97129865D01*
X91331179Y-97260342D01*
X91170342Y-97421179D01*
X91039865Y-97607517D01*
X90943734Y-97813673D01*
X90943730Y-97813682D01*
X90884860Y-98033389D01*
X90884858Y-98033400D01*
X90870000Y-98203237D01*
X90870000Y-98810000D01*
X89342966Y-98810000D01*
X89335382Y-98650791D01*
X89277080Y-98245295D01*
X89180497Y-97847174D01*
X89180494Y-97847163D01*
X89046512Y-97460046D01*
X89046505Y-97460028D01*
X88876329Y-97087399D01*
X88876321Y-97087383D01*
X88671488Y-96732601D01*
X88671482Y-96732593D01*
X88433861Y-96398902D01*
X88262458Y-96201093D01*
X86736894Y-97726656D01*
X86624969Y-97589082D01*
X86410010Y-97388324D01*
X86385454Y-97370991D01*
X87910435Y-95846011D01*
X87869103Y-95806601D01*
X87869094Y-95806592D01*
X87547061Y-95553344D01*
X87202434Y-95331866D01*
X86838305Y-95144145D01*
X86838301Y-95144143D01*
X86457988Y-94991889D01*
X86457976Y-94991885D01*
X86064921Y-94876474D01*
X85662658Y-94798942D01*
X85662651Y-94798941D01*
X85254827Y-94760000D01*
X84845173Y-94760000D01*
X84437348Y-94798941D01*
X84437341Y-94798942D01*
X84035078Y-94876474D01*
X83642023Y-94991885D01*
X83642011Y-94991889D01*
X83261698Y-95144143D01*
X83261694Y-95144145D01*
X82897565Y-95331866D01*
X82552938Y-95553344D01*
X82230907Y-95806591D01*
X82230894Y-95806602D01*
X82189563Y-95846010D01*
X82189563Y-95846011D01*
X83714543Y-97370991D01*
X83689990Y-97388324D01*
X83475031Y-97589082D01*
X83363104Y-97726657D01*
X81837540Y-96201093D01*
X81837539Y-96201093D01*
X81666146Y-96398892D01*
X81666139Y-96398900D01*
X81428517Y-96732593D01*
X81428511Y-96732601D01*
X81223678Y-97087383D01*
X81223670Y-97087399D01*
X81053494Y-97460028D01*
X81053487Y-97460046D01*
X80919505Y-97847163D01*
X80919502Y-97847174D01*
X80822919Y-98245295D01*
X80764617Y-98650791D01*
X80745124Y-99060000D01*
X75100536Y-99060000D01*
X75080435Y-98843077D01*
X75020817Y-98633541D01*
X74923712Y-98438528D01*
X74792427Y-98264678D01*
X74787295Y-98260000D01*
X74656536Y-98140797D01*
X74631432Y-98117912D01*
X74631428Y-98117909D01*
X74631423Y-98117906D01*
X74446213Y-98003229D01*
X74446207Y-98003226D01*
X74361113Y-97970260D01*
X74243069Y-97924530D01*
X74175440Y-97911888D01*
X74113161Y-97880221D01*
X74077888Y-97819909D01*
X74080822Y-97750100D01*
X74121031Y-97692960D01*
X74175439Y-97668112D01*
X74243069Y-97655470D01*
X74446210Y-97576772D01*
X74631432Y-97462088D01*
X74792427Y-97315322D01*
X74923712Y-97141472D01*
X75020817Y-96946459D01*
X75080435Y-96736923D01*
X75100536Y-96520000D01*
X75080435Y-96303077D01*
X75020817Y-96093541D01*
X74923712Y-95898528D01*
X74792427Y-95724678D01*
X74631432Y-95577912D01*
X74631428Y-95577909D01*
X74631423Y-95577906D01*
X74446213Y-95463229D01*
X74446207Y-95463226D01*
X74361113Y-95430260D01*
X74243069Y-95384530D01*
X74175440Y-95371888D01*
X74113161Y-95340221D01*
X74077888Y-95279909D01*
X74080822Y-95210100D01*
X74121031Y-95152960D01*
X74175439Y-95128112D01*
X74243069Y-95115470D01*
X74446210Y-95036772D01*
X74631432Y-94922088D01*
X74792427Y-94775322D01*
X74923712Y-94601472D01*
X75020817Y-94406459D01*
X75080435Y-94196923D01*
X75100536Y-93980000D01*
X113254934Y-93980000D01*
X113274760Y-94206617D01*
X113274762Y-94206627D01*
X113333636Y-94426351D01*
X113333640Y-94426360D01*
X113429782Y-94632536D01*
X113480901Y-94705543D01*
X113480903Y-94705544D01*
X114037369Y-94149077D01*
X114040594Y-94164597D01*
X114109658Y-94297886D01*
X114212123Y-94407598D01*
X114340388Y-94485598D01*
X114393166Y-94500385D01*
X113834454Y-95059096D01*
X113907466Y-95110219D01*
X113907468Y-95110220D01*
X114113639Y-95206359D01*
X114113648Y-95206363D01*
X114333372Y-95265237D01*
X114333382Y-95265239D01*
X114559999Y-95285066D01*
X114560001Y-95285066D01*
X114786617Y-95265239D01*
X114786627Y-95265237D01*
X115006351Y-95206363D01*
X115006360Y-95206359D01*
X115212530Y-95110221D01*
X115285544Y-95059096D01*
X114728603Y-94502156D01*
X114846412Y-94450985D01*
X114962862Y-94356246D01*
X115049433Y-94233603D01*
X115080300Y-94146748D01*
X115639096Y-94705544D01*
X115690221Y-94632530D01*
X115786359Y-94426360D01*
X115786363Y-94426351D01*
X115845237Y-94206627D01*
X115845239Y-94206617D01*
X115865066Y-93980000D01*
X115865066Y-93979999D01*
X115845239Y-93753382D01*
X115845237Y-93753372D01*
X115786363Y-93533648D01*
X115786359Y-93533639D01*
X115690220Y-93327468D01*
X115690219Y-93327466D01*
X115639096Y-93254455D01*
X115639096Y-93254454D01*
X115082630Y-93810920D01*
X115079406Y-93795403D01*
X115010342Y-93662114D01*
X114907877Y-93552402D01*
X114779612Y-93474402D01*
X114726833Y-93459614D01*
X115285544Y-92900903D01*
X115285543Y-92900901D01*
X115212536Y-92849782D01*
X115006360Y-92753640D01*
X115006351Y-92753636D01*
X114786627Y-92694762D01*
X114786617Y-92694760D01*
X114560001Y-92674934D01*
X114559999Y-92674934D01*
X114333382Y-92694760D01*
X114333372Y-92694762D01*
X114113648Y-92753636D01*
X114113639Y-92753640D01*
X113907464Y-92849781D01*
X113834454Y-92900901D01*
X114391396Y-93457843D01*
X114273588Y-93509015D01*
X114157138Y-93603754D01*
X114070567Y-93726397D01*
X114039699Y-93813252D01*
X113480901Y-93254454D01*
X113429781Y-93327464D01*
X113333640Y-93533639D01*
X113333636Y-93533648D01*
X113274762Y-93753372D01*
X113274760Y-93753382D01*
X113254934Y-93979999D01*
X113254934Y-93980000D01*
X75100536Y-93980000D01*
X75080435Y-93763077D01*
X75020817Y-93553541D01*
X74923712Y-93358528D01*
X74792427Y-93184678D01*
X74631432Y-93037912D01*
X74631428Y-93037909D01*
X74631423Y-93037906D01*
X74446213Y-92923229D01*
X74446207Y-92923226D01*
X74361113Y-92890260D01*
X74243069Y-92844530D01*
X74175440Y-92831888D01*
X74113161Y-92800221D01*
X74077888Y-92739909D01*
X74080822Y-92670100D01*
X74121031Y-92612960D01*
X74175439Y-92588112D01*
X74243069Y-92575470D01*
X74446210Y-92496772D01*
X74631432Y-92382088D01*
X74792427Y-92235322D01*
X74923712Y-92061472D01*
X75020817Y-91866459D01*
X75080435Y-91656923D01*
X75100536Y-91440000D01*
X75080435Y-91223077D01*
X75020817Y-91013541D01*
X74923712Y-90818528D01*
X74792427Y-90644678D01*
X74631432Y-90497912D01*
X74631428Y-90497909D01*
X74631423Y-90497906D01*
X74446213Y-90383229D01*
X74446207Y-90383226D01*
X74361113Y-90350260D01*
X74243069Y-90304530D01*
X74175440Y-90291888D01*
X74113161Y-90260221D01*
X74077888Y-90199909D01*
X74080822Y-90130100D01*
X74121031Y-90072960D01*
X74175439Y-90048112D01*
X74243069Y-90035470D01*
X74446210Y-89956772D01*
X74631432Y-89842088D01*
X74792427Y-89695322D01*
X74923712Y-89521472D01*
X75020817Y-89326459D01*
X75080435Y-89116923D01*
X75100536Y-88900000D01*
X75085710Y-88740000D01*
X113254432Y-88740000D01*
X113274266Y-88966705D01*
X113274268Y-88966715D01*
X113333164Y-89186523D01*
X113333166Y-89186527D01*
X113333167Y-89186531D01*
X113377630Y-89281882D01*
X113429344Y-89392783D01*
X113429345Y-89392785D01*
X113559873Y-89579198D01*
X113559878Y-89579204D01*
X113720795Y-89740121D01*
X113720801Y-89740126D01*
X113907214Y-89870654D01*
X113907216Y-89870655D01*
X114113469Y-89966833D01*
X114333290Y-90025733D01*
X114514658Y-90041601D01*
X114559999Y-90045568D01*
X114560000Y-90045568D01*
X114560001Y-90045568D01*
X114597785Y-90042262D01*
X114786710Y-90025733D01*
X115006531Y-89966833D01*
X115212784Y-89870655D01*
X115399203Y-89740123D01*
X115560123Y-89579203D01*
X115690655Y-89392784D01*
X115786833Y-89186531D01*
X115845733Y-88966710D01*
X115865568Y-88740000D01*
X115845733Y-88513290D01*
X115786833Y-88293469D01*
X115690655Y-88087216D01*
X115600115Y-87957912D01*
X115560126Y-87900801D01*
X115560121Y-87900795D01*
X115399204Y-87739878D01*
X115399198Y-87739873D01*
X115212785Y-87609345D01*
X115212783Y-87609344D01*
X115063600Y-87539779D01*
X115006531Y-87513167D01*
X115006527Y-87513166D01*
X115006523Y-87513164D01*
X114786715Y-87454268D01*
X114786705Y-87454266D01*
X114560001Y-87434432D01*
X114559999Y-87434432D01*
X114333294Y-87454266D01*
X114333284Y-87454268D01*
X114113476Y-87513164D01*
X114113467Y-87513168D01*
X113907216Y-87609344D01*
X113907214Y-87609345D01*
X113720801Y-87739873D01*
X113720795Y-87739878D01*
X113559878Y-87900795D01*
X113559873Y-87900801D01*
X113429345Y-88087214D01*
X113429344Y-88087216D01*
X113333168Y-88293467D01*
X113333164Y-88293476D01*
X113274268Y-88513284D01*
X113274266Y-88513294D01*
X113254432Y-88739999D01*
X113254432Y-88740000D01*
X75085710Y-88740000D01*
X75080435Y-88683077D01*
X75020817Y-88473541D01*
X74923712Y-88278528D01*
X74792427Y-88104678D01*
X74631432Y-87957912D01*
X74631428Y-87957909D01*
X74631423Y-87957906D01*
X74446213Y-87843229D01*
X74446207Y-87843226D01*
X74361113Y-87810260D01*
X74243069Y-87764530D01*
X74175440Y-87751888D01*
X74113161Y-87720221D01*
X74077888Y-87659909D01*
X74080822Y-87590100D01*
X74121031Y-87532960D01*
X74175439Y-87508112D01*
X74243069Y-87495470D01*
X74446210Y-87416772D01*
X74631432Y-87302088D01*
X74792427Y-87155322D01*
X74923712Y-86981472D01*
X75020817Y-86786459D01*
X75080435Y-86576923D01*
X75100536Y-86360000D01*
X75080435Y-86143077D01*
X75020817Y-85933541D01*
X74923712Y-85738528D01*
X74792427Y-85564678D01*
X74631432Y-85417912D01*
X74631428Y-85417909D01*
X74631423Y-85417906D01*
X74446213Y-85303229D01*
X74446207Y-85303226D01*
X74361113Y-85270260D01*
X74243069Y-85224530D01*
X74175440Y-85211888D01*
X74113161Y-85180221D01*
X74077888Y-85119909D01*
X74080822Y-85050100D01*
X74121031Y-84992960D01*
X74175439Y-84968112D01*
X74243069Y-84955470D01*
X74446210Y-84876772D01*
X74631432Y-84762088D01*
X74792427Y-84615322D01*
X74792441Y-84615303D01*
X74793828Y-84613783D01*
X74794691Y-84613258D01*
X74796664Y-84611460D01*
X74797015Y-84611845D01*
X74853535Y-84577494D01*
X74903449Y-84574619D01*
X74908023Y-84575289D01*
X74960068Y-84570735D01*
X74965470Y-84570500D01*
X74973704Y-84570500D01*
X74973709Y-84570500D01*
X74985327Y-84569141D01*
X75006276Y-84566693D01*
X75019028Y-84565577D01*
X75082797Y-84559999D01*
X75082805Y-84559996D01*
X75089866Y-84558539D01*
X75089878Y-84558598D01*
X75097243Y-84556965D01*
X75097229Y-84556906D01*
X75104246Y-84555241D01*
X75104255Y-84555241D01*
X75176423Y-84528974D01*
X75249334Y-84504814D01*
X75249343Y-84504807D01*
X75255882Y-84501760D01*
X75255908Y-84501816D01*
X75262690Y-84498532D01*
X75262663Y-84498478D01*
X75269106Y-84495240D01*
X75269117Y-84495237D01*
X75333283Y-84453034D01*
X75398656Y-84412712D01*
X75398662Y-84412705D01*
X75404325Y-84408229D01*
X75404362Y-84408277D01*
X75410204Y-84403518D01*
X75410164Y-84403471D01*
X75415691Y-84398832D01*
X75415696Y-84398830D01*
X75468386Y-84342981D01*
X79915534Y-79895831D01*
X109488761Y-79895831D01*
X109493359Y-79964013D01*
X109493500Y-79968186D01*
X109493500Y-79980156D01*
X109497277Y-80022124D01*
X109503903Y-80120407D01*
X109503903Y-80120412D01*
X109504972Y-80124652D01*
X109508230Y-80143824D01*
X109508623Y-80148190D01*
X109534835Y-80243165D01*
X109558903Y-80338681D01*
X109560715Y-80342670D01*
X109567340Y-80360944D01*
X109568504Y-80365162D01*
X109568507Y-80365170D01*
X109611253Y-80453935D01*
X109651993Y-80543626D01*
X109651994Y-80543629D01*
X109654483Y-80547221D01*
X109664269Y-80564026D01*
X109666166Y-80567965D01*
X109666174Y-80567979D01*
X109724078Y-80647676D01*
X109780180Y-80728655D01*
X109783273Y-80731748D01*
X109795907Y-80746539D01*
X109798478Y-80750078D01*
X109798481Y-80750081D01*
X109869679Y-80818153D01*
X113400807Y-84349281D01*
X113425506Y-84384554D01*
X113429340Y-84392776D01*
X113429345Y-84392785D01*
X113559873Y-84579198D01*
X113559878Y-84579204D01*
X113720795Y-84740121D01*
X113720801Y-84740126D01*
X113907214Y-84870654D01*
X113907216Y-84870655D01*
X114113469Y-84966833D01*
X114113475Y-84966834D01*
X114113476Y-84966835D01*
X114166388Y-84981012D01*
X114333290Y-85025733D01*
X114514658Y-85041601D01*
X114559999Y-85045568D01*
X114560000Y-85045568D01*
X114560001Y-85045568D01*
X114597785Y-85042262D01*
X114786710Y-85025733D01*
X115006531Y-84966833D01*
X115212784Y-84870655D01*
X115399203Y-84740123D01*
X115560123Y-84579203D01*
X115690655Y-84392784D01*
X115786833Y-84186531D01*
X115845733Y-83966710D01*
X115865568Y-83740000D01*
X115845733Y-83513290D01*
X115786833Y-83293469D01*
X115690655Y-83087216D01*
X115646865Y-83024678D01*
X115560126Y-82900801D01*
X115560121Y-82900795D01*
X115399204Y-82739878D01*
X115399198Y-82739873D01*
X115212785Y-82609345D01*
X115212776Y-82609340D01*
X115204554Y-82605506D01*
X115169281Y-82580807D01*
X112030819Y-79442345D01*
X111997334Y-79381022D01*
X111994500Y-79354664D01*
X111994500Y-78740000D01*
X113254934Y-78740000D01*
X113274760Y-78966617D01*
X113274762Y-78966627D01*
X113333636Y-79186351D01*
X113333640Y-79186360D01*
X113429782Y-79392536D01*
X113480901Y-79465543D01*
X113480903Y-79465544D01*
X114037369Y-78909077D01*
X114040594Y-78924597D01*
X114109658Y-79057886D01*
X114212123Y-79167598D01*
X114340388Y-79245598D01*
X114393166Y-79260385D01*
X113834454Y-79819096D01*
X113907466Y-79870219D01*
X113907468Y-79870220D01*
X114113639Y-79966359D01*
X114113648Y-79966363D01*
X114333372Y-80025237D01*
X114333382Y-80025239D01*
X114559999Y-80045066D01*
X114560001Y-80045066D01*
X114786617Y-80025239D01*
X114786627Y-80025237D01*
X115006351Y-79966363D01*
X115006360Y-79966359D01*
X115212530Y-79870221D01*
X115285544Y-79819096D01*
X114728603Y-79262156D01*
X114846412Y-79210985D01*
X114962862Y-79116246D01*
X115049433Y-78993603D01*
X115080300Y-78906748D01*
X115639096Y-79465544D01*
X115690221Y-79392530D01*
X115786359Y-79186360D01*
X115786363Y-79186351D01*
X115845237Y-78966627D01*
X115845239Y-78966617D01*
X115865066Y-78740000D01*
X115865066Y-78739999D01*
X115845239Y-78513382D01*
X115845237Y-78513372D01*
X115786363Y-78293648D01*
X115786359Y-78293639D01*
X115690220Y-78087468D01*
X115690219Y-78087466D01*
X115639096Y-78014455D01*
X115639096Y-78014454D01*
X115082630Y-78570920D01*
X115079406Y-78555403D01*
X115010342Y-78422114D01*
X114907877Y-78312402D01*
X114779612Y-78234402D01*
X114726833Y-78219614D01*
X115285544Y-77660903D01*
X115285543Y-77660901D01*
X115212536Y-77609782D01*
X115006360Y-77513640D01*
X115006351Y-77513636D01*
X114786627Y-77454762D01*
X114786617Y-77454760D01*
X114560001Y-77434934D01*
X114559999Y-77434934D01*
X114333382Y-77454760D01*
X114333372Y-77454762D01*
X114113648Y-77513636D01*
X114113639Y-77513640D01*
X113907464Y-77609781D01*
X113834454Y-77660901D01*
X114391396Y-78217843D01*
X114273588Y-78269015D01*
X114157138Y-78363754D01*
X114070567Y-78486397D01*
X114039699Y-78573252D01*
X113480901Y-78014454D01*
X113429781Y-78087464D01*
X113333640Y-78293639D01*
X113333636Y-78293648D01*
X113274762Y-78513372D01*
X113274760Y-78513382D01*
X113254934Y-78739999D01*
X113254934Y-78740000D01*
X111994500Y-78740000D01*
X111994500Y-73580000D01*
X113254432Y-73580000D01*
X113274266Y-73806705D01*
X113274268Y-73806715D01*
X113333164Y-74026523D01*
X113333166Y-74026527D01*
X113333167Y-74026531D01*
X113381256Y-74129657D01*
X113429344Y-74232783D01*
X113429345Y-74232785D01*
X113559873Y-74419198D01*
X113559878Y-74419204D01*
X113720795Y-74580121D01*
X113720801Y-74580126D01*
X113907214Y-74710654D01*
X113907216Y-74710655D01*
X114113469Y-74806833D01*
X114113475Y-74806834D01*
X114113476Y-74806835D01*
X114166388Y-74821012D01*
X114333290Y-74865733D01*
X114514658Y-74881601D01*
X114559999Y-74885568D01*
X114560000Y-74885568D01*
X114560001Y-74885568D01*
X114597785Y-74882262D01*
X114786710Y-74865733D01*
X115006531Y-74806833D01*
X115212784Y-74710655D01*
X115399203Y-74580123D01*
X115560123Y-74419203D01*
X115690655Y-74232784D01*
X115786833Y-74026531D01*
X115845733Y-73806710D01*
X115865568Y-73580000D01*
X115845733Y-73353290D01*
X115786833Y-73133469D01*
X115690655Y-72927216D01*
X115646865Y-72864678D01*
X115560126Y-72740801D01*
X115560121Y-72740795D01*
X115399204Y-72579878D01*
X115399198Y-72579873D01*
X115212785Y-72449345D01*
X115212783Y-72449344D01*
X115109657Y-72401256D01*
X115006531Y-72353167D01*
X115006527Y-72353166D01*
X115006523Y-72353164D01*
X114786715Y-72294268D01*
X114786705Y-72294266D01*
X114560001Y-72274432D01*
X114559999Y-72274432D01*
X114333294Y-72294266D01*
X114333284Y-72294268D01*
X114113476Y-72353164D01*
X114113467Y-72353168D01*
X113907216Y-72449344D01*
X113907214Y-72449345D01*
X113720801Y-72579873D01*
X113720795Y-72579878D01*
X113559878Y-72740795D01*
X113559873Y-72740801D01*
X113429345Y-72927214D01*
X113429344Y-72927216D01*
X113333168Y-73133467D01*
X113333164Y-73133476D01*
X113274268Y-73353284D01*
X113274266Y-73353294D01*
X113254432Y-73579999D01*
X113254432Y-73580000D01*
X111994500Y-73580000D01*
X111994500Y-72959335D01*
X112014185Y-72892296D01*
X112030814Y-72871659D01*
X115158040Y-69744432D01*
X115193318Y-69719732D01*
X115212778Y-69710658D01*
X115212778Y-69710657D01*
X115212784Y-69710655D01*
X115399203Y-69580123D01*
X115560123Y-69419203D01*
X115690655Y-69232784D01*
X115786833Y-69026531D01*
X115845733Y-68806710D01*
X115865568Y-68580000D01*
X115845733Y-68353290D01*
X115786833Y-68133469D01*
X115690655Y-67927216D01*
X115667062Y-67893522D01*
X115560126Y-67740801D01*
X115560121Y-67740795D01*
X115399204Y-67579878D01*
X115399198Y-67579873D01*
X115212785Y-67449345D01*
X115212783Y-67449344D01*
X115107438Y-67400221D01*
X115006531Y-67353167D01*
X115006527Y-67353166D01*
X115006523Y-67353164D01*
X114786715Y-67294268D01*
X114786705Y-67294266D01*
X114560001Y-67274432D01*
X114559999Y-67274432D01*
X114333294Y-67294266D01*
X114333284Y-67294268D01*
X114113476Y-67353164D01*
X114113467Y-67353168D01*
X113907216Y-67449344D01*
X113907214Y-67449345D01*
X113720801Y-67579873D01*
X113720795Y-67579878D01*
X113559878Y-67740795D01*
X113559873Y-67740801D01*
X113429343Y-67927217D01*
X113426638Y-67931904D01*
X113425729Y-67931379D01*
X113406052Y-67959472D01*
X109911885Y-71453639D01*
X109906699Y-71458274D01*
X109876337Y-71482488D01*
X109876333Y-71482492D01*
X109831365Y-71533960D01*
X109828521Y-71537003D01*
X109820064Y-71545461D01*
X109820054Y-71545472D01*
X109793049Y-71577818D01*
X109728234Y-71652004D01*
X109728230Y-71652010D01*
X109725981Y-71655774D01*
X109714746Y-71671608D01*
X109711934Y-71674977D01*
X109711932Y-71674981D01*
X109663316Y-71760659D01*
X109635321Y-71807514D01*
X109612783Y-71845238D01*
X109611247Y-71849332D01*
X109603008Y-71866945D01*
X109600850Y-71870747D01*
X109600846Y-71870757D01*
X109568307Y-71963746D01*
X109533694Y-72055970D01*
X109533689Y-72055988D01*
X109532909Y-72060288D01*
X109527952Y-72079069D01*
X109526503Y-72083209D01*
X109526502Y-72083215D01*
X109511089Y-72180527D01*
X109493500Y-72277448D01*
X109493500Y-72281827D01*
X109491973Y-72301229D01*
X109491289Y-72305540D01*
X109493500Y-72404021D01*
X109493500Y-79850293D01*
X109493110Y-79857231D01*
X109491647Y-79870219D01*
X109488762Y-79895823D01*
X109488761Y-79895831D01*
X79915534Y-79895831D01*
X79987638Y-79823727D01*
X80001267Y-79811950D01*
X80020530Y-79797610D01*
X80020532Y-79797606D01*
X80020534Y-79797606D01*
X80038663Y-79775999D01*
X80054113Y-79757585D01*
X80057767Y-79753599D01*
X80063589Y-79747778D01*
X80083928Y-79722054D01*
X80089162Y-79715815D01*
X80133302Y-79663214D01*
X80133304Y-79663209D01*
X80137272Y-79657179D01*
X80137323Y-79657212D01*
X80141369Y-79650860D01*
X80141317Y-79650828D01*
X80145109Y-79644679D01*
X80145111Y-79644677D01*
X80177569Y-79575069D01*
X80212040Y-79506433D01*
X80212043Y-79506417D01*
X80214510Y-79499644D01*
X80214568Y-79499665D01*
X80217043Y-79492546D01*
X80216985Y-79492527D01*
X80219256Y-79485672D01*
X80234784Y-79410467D01*
X80241763Y-79381022D01*
X80252500Y-79335721D01*
X80252500Y-79335720D01*
X80253339Y-79328548D01*
X80253397Y-79328554D01*
X80254164Y-79321056D01*
X80254104Y-79321051D01*
X80254733Y-79313860D01*
X80252500Y-79237103D01*
X80252500Y-67418230D01*
X80272185Y-67351191D01*
X80288819Y-67330549D01*
X84039368Y-63580000D01*
X113254934Y-63580000D01*
X113274760Y-63806617D01*
X113274762Y-63806627D01*
X113333636Y-64026351D01*
X113333640Y-64026360D01*
X113429782Y-64232536D01*
X113480901Y-64305543D01*
X113480903Y-64305544D01*
X114037369Y-63749077D01*
X114040594Y-63764597D01*
X114109658Y-63897886D01*
X114212123Y-64007598D01*
X114340388Y-64085598D01*
X114393166Y-64100385D01*
X113834454Y-64659096D01*
X113907466Y-64710219D01*
X113907468Y-64710220D01*
X114113639Y-64806359D01*
X114113648Y-64806363D01*
X114333372Y-64865237D01*
X114333382Y-64865239D01*
X114559999Y-64885066D01*
X114560001Y-64885066D01*
X114786617Y-64865239D01*
X114786627Y-64865237D01*
X115006351Y-64806363D01*
X115006360Y-64806359D01*
X115212530Y-64710221D01*
X115285544Y-64659096D01*
X114728603Y-64102156D01*
X114846412Y-64050985D01*
X114962862Y-63956246D01*
X115049433Y-63833603D01*
X115080300Y-63746748D01*
X115639096Y-64305544D01*
X115690221Y-64232530D01*
X115786359Y-64026360D01*
X115786363Y-64026351D01*
X115845237Y-63806627D01*
X115845239Y-63806617D01*
X115865066Y-63580000D01*
X115865066Y-63579999D01*
X115845239Y-63353382D01*
X115845237Y-63353372D01*
X115786363Y-63133648D01*
X115786359Y-63133639D01*
X115690220Y-62927468D01*
X115690219Y-62927466D01*
X115639096Y-62854455D01*
X115639096Y-62854454D01*
X115082630Y-63410920D01*
X115079406Y-63395403D01*
X115010342Y-63262114D01*
X114907877Y-63152402D01*
X114779612Y-63074402D01*
X114726833Y-63059614D01*
X115285544Y-62500903D01*
X115285543Y-62500901D01*
X115212536Y-62449782D01*
X115006360Y-62353640D01*
X115006351Y-62353636D01*
X114786627Y-62294762D01*
X114786617Y-62294760D01*
X114560001Y-62274934D01*
X114559999Y-62274934D01*
X114333382Y-62294760D01*
X114333372Y-62294762D01*
X114113648Y-62353636D01*
X114113639Y-62353640D01*
X113907464Y-62449781D01*
X113834454Y-62500901D01*
X114391396Y-63057843D01*
X114273588Y-63109015D01*
X114157138Y-63203754D01*
X114070567Y-63326397D01*
X114039699Y-63413252D01*
X113480901Y-62854454D01*
X113429781Y-62927464D01*
X113333640Y-63133639D01*
X113333636Y-63133648D01*
X113274762Y-63353372D01*
X113274760Y-63353382D01*
X113254934Y-63579999D01*
X113254934Y-63580000D01*
X84039368Y-63580000D01*
X86060549Y-61558819D01*
X86121872Y-61525334D01*
X86148230Y-61522500D01*
X93008259Y-61522500D01*
X93058693Y-61533219D01*
X93175733Y-61585329D01*
X93350609Y-61622500D01*
X93350610Y-61622500D01*
X93529389Y-61622500D01*
X93529391Y-61622500D01*
X93704267Y-61585329D01*
X93867593Y-61512612D01*
X94012230Y-61407526D01*
X94131859Y-61274665D01*
X94221250Y-61119835D01*
X94276497Y-60949803D01*
X94295185Y-60772000D01*
X94276497Y-60594197D01*
X94221250Y-60424165D01*
X94131859Y-60269335D01*
X94085003Y-60217296D01*
X94012235Y-60136478D01*
X94012232Y-60136476D01*
X94012231Y-60136475D01*
X94012230Y-60136474D01*
X93867593Y-60031388D01*
X93704267Y-59958671D01*
X93704265Y-59958670D01*
X93576594Y-59931533D01*
X93529391Y-59921500D01*
X93350609Y-59921500D01*
X93319954Y-59928015D01*
X93175733Y-59958670D01*
X93058694Y-60010780D01*
X93008259Y-60021500D01*
X85849705Y-60021500D01*
X85831735Y-60020191D01*
X85807972Y-60016710D01*
X85762533Y-60020686D01*
X85755931Y-60021264D01*
X85750530Y-60021500D01*
X85742289Y-60021500D01*
X85720579Y-60024037D01*
X85709724Y-60025306D01*
X85694419Y-60026645D01*
X85633199Y-60032001D01*
X85626132Y-60033460D01*
X85626120Y-60033404D01*
X85618763Y-60035035D01*
X85618777Y-60035092D01*
X85611743Y-60036759D01*
X85539575Y-60063025D01*
X85466665Y-60087185D01*
X85460126Y-60090235D01*
X85460101Y-60090183D01*
X85453308Y-60093471D01*
X85453334Y-60093522D01*
X85446884Y-60096761D01*
X85382716Y-60138964D01*
X85317347Y-60179285D01*
X85311677Y-60183769D01*
X85311641Y-60183723D01*
X85305798Y-60188484D01*
X85305835Y-60188528D01*
X85300310Y-60193164D01*
X85247614Y-60249017D01*
X79016358Y-66480272D01*
X79002729Y-66492051D01*
X78983468Y-66506390D01*
X78949898Y-66546397D01*
X78946253Y-66550376D01*
X78940409Y-66556222D01*
X78920059Y-66581959D01*
X78870695Y-66640789D01*
X78866729Y-66646819D01*
X78866682Y-66646788D01*
X78862630Y-66653147D01*
X78862679Y-66653177D01*
X78858889Y-66659321D01*
X78826424Y-66728941D01*
X78791960Y-66797566D01*
X78789488Y-66804357D01*
X78789432Y-66804336D01*
X78786960Y-66811450D01*
X78787015Y-66811469D01*
X78784742Y-66818327D01*
X78779522Y-66843610D01*
X78769207Y-66893565D01*
X78756001Y-66949284D01*
X78751498Y-66968286D01*
X78750661Y-66975454D01*
X78750601Y-66975447D01*
X78749835Y-66982945D01*
X78749895Y-66982951D01*
X78749265Y-66990140D01*
X78751500Y-67066916D01*
X78751500Y-78885769D01*
X78731815Y-78952808D01*
X78715181Y-78973450D01*
X74808941Y-82879689D01*
X74747618Y-82913174D01*
X74677926Y-82908190D01*
X74637725Y-82883648D01*
X74631432Y-82877912D01*
X74631430Y-82877910D01*
X74446213Y-82763229D01*
X74446207Y-82763226D01*
X74361113Y-82730260D01*
X74243069Y-82684530D01*
X74175440Y-82671888D01*
X74113161Y-82640221D01*
X74077888Y-82579909D01*
X74080822Y-82510100D01*
X74121031Y-82452960D01*
X74175439Y-82428112D01*
X74243069Y-82415470D01*
X74446210Y-82336772D01*
X74631432Y-82222088D01*
X74792427Y-82075322D01*
X74923712Y-81901472D01*
X75020817Y-81706459D01*
X75080435Y-81496923D01*
X75100536Y-81280000D01*
X75080435Y-81063077D01*
X75020817Y-80853541D01*
X74923712Y-80658528D01*
X74792427Y-80484678D01*
X74758703Y-80453935D01*
X74632278Y-80338683D01*
X74631432Y-80337912D01*
X74631428Y-80337909D01*
X74631423Y-80337906D01*
X74446213Y-80223229D01*
X74446207Y-80223226D01*
X74361113Y-80190260D01*
X74243069Y-80144530D01*
X74175440Y-80131888D01*
X74113161Y-80100221D01*
X74077888Y-80039909D01*
X74080822Y-79970100D01*
X74121031Y-79912960D01*
X74175439Y-79888112D01*
X74243069Y-79875470D01*
X74446210Y-79796772D01*
X74631432Y-79682088D01*
X74792427Y-79535322D01*
X74923712Y-79361472D01*
X75020817Y-79166459D01*
X75080435Y-78956923D01*
X75100536Y-78740000D01*
X75080435Y-78523077D01*
X75020817Y-78313541D01*
X74923712Y-78118528D01*
X74792427Y-77944678D01*
X74631432Y-77797912D01*
X74631428Y-77797909D01*
X74631423Y-77797906D01*
X74446213Y-77683229D01*
X74446207Y-77683226D01*
X74361113Y-77650260D01*
X74243069Y-77604530D01*
X74175440Y-77591888D01*
X74113161Y-77560221D01*
X74077888Y-77499909D01*
X74080822Y-77430100D01*
X74121031Y-77372960D01*
X74175439Y-77348112D01*
X74243069Y-77335470D01*
X74446210Y-77256772D01*
X74631432Y-77142088D01*
X74792427Y-76995322D01*
X74923712Y-76821472D01*
X75020817Y-76626459D01*
X75080435Y-76416923D01*
X75100536Y-76200000D01*
X75080435Y-75983077D01*
X75020817Y-75773541D01*
X74923712Y-75578528D01*
X74792427Y-75404678D01*
X74631432Y-75257912D01*
X74631428Y-75257909D01*
X74631423Y-75257906D01*
X74446213Y-75143229D01*
X74446207Y-75143226D01*
X74361113Y-75110260D01*
X74243069Y-75064530D01*
X74175440Y-75051888D01*
X74113161Y-75020221D01*
X74077888Y-74959909D01*
X74080822Y-74890100D01*
X74121031Y-74832960D01*
X74175439Y-74808112D01*
X74243069Y-74795470D01*
X74446210Y-74716772D01*
X74631432Y-74602088D01*
X74792427Y-74455322D01*
X74923712Y-74281472D01*
X75020817Y-74086459D01*
X75080435Y-73876923D01*
X75100536Y-73660000D01*
X75080435Y-73443077D01*
X75020817Y-73233541D01*
X74923712Y-73038528D01*
X74792427Y-72864678D01*
X74631432Y-72717912D01*
X74631428Y-72717909D01*
X74631423Y-72717906D01*
X74446213Y-72603229D01*
X74446207Y-72603226D01*
X74361113Y-72570260D01*
X74243069Y-72524530D01*
X74175440Y-72511888D01*
X74113161Y-72480221D01*
X74077888Y-72419909D01*
X74080822Y-72350100D01*
X74121031Y-72292960D01*
X74175439Y-72268112D01*
X74243069Y-72255470D01*
X74446210Y-72176772D01*
X74631432Y-72062088D01*
X74792427Y-71915322D01*
X74923712Y-71741472D01*
X75020817Y-71546459D01*
X75080435Y-71336923D01*
X75100536Y-71120000D01*
X75080435Y-70903077D01*
X75020817Y-70693541D01*
X74923712Y-70498528D01*
X74792427Y-70324678D01*
X74631432Y-70177912D01*
X74631428Y-70177909D01*
X74631423Y-70177906D01*
X74446213Y-70063229D01*
X74446207Y-70063226D01*
X74361113Y-70030260D01*
X74243069Y-69984530D01*
X74175440Y-69971888D01*
X74113161Y-69940221D01*
X74077888Y-69879909D01*
X74080822Y-69810100D01*
X74121031Y-69752960D01*
X74175439Y-69728112D01*
X74243069Y-69715470D01*
X74446210Y-69636772D01*
X74631432Y-69522088D01*
X74792427Y-69375322D01*
X74923712Y-69201472D01*
X75020817Y-69006459D01*
X75080435Y-68796923D01*
X75100536Y-68580000D01*
X75080435Y-68363077D01*
X75020817Y-68153541D01*
X75010826Y-68133476D01*
X75005299Y-68122376D01*
X74993038Y-68053591D01*
X75019911Y-67989096D01*
X75048158Y-67963504D01*
X75065019Y-67952415D01*
X75079284Y-67943034D01*
X75116478Y-67920091D01*
X75144656Y-67902712D01*
X75144661Y-67902706D01*
X75150325Y-67898229D01*
X75150363Y-67898277D01*
X75156200Y-67893522D01*
X75156161Y-67893475D01*
X75161696Y-67888830D01*
X75214385Y-67832983D01*
X75871898Y-67175469D01*
X76177642Y-66869724D01*
X76191271Y-66857947D01*
X76210530Y-66843610D01*
X76224200Y-66827317D01*
X76244101Y-66803601D01*
X76247761Y-66799606D01*
X76249801Y-66797567D01*
X76253591Y-66793777D01*
X76273940Y-66768040D01*
X76323302Y-66709214D01*
X76323306Y-66709205D01*
X76327274Y-66703175D01*
X76327325Y-66703208D01*
X76331372Y-66696856D01*
X76331320Y-66696824D01*
X76335112Y-66690675D01*
X76367575Y-66621058D01*
X76387211Y-66581959D01*
X76402040Y-66552433D01*
X76402042Y-66552421D01*
X76404509Y-66545646D01*
X76404567Y-66545667D01*
X76407043Y-66538546D01*
X76406986Y-66538528D01*
X76409257Y-66531673D01*
X76424792Y-66456434D01*
X76434374Y-66416007D01*
X76442500Y-66381721D01*
X76442500Y-66381710D01*
X76443338Y-66374548D01*
X76443398Y-66374555D01*
X76444164Y-66367055D01*
X76444105Y-66367050D01*
X76444734Y-66359860D01*
X76442500Y-66283083D01*
X76442500Y-64928547D01*
X76462185Y-64861508D01*
X76478819Y-64840866D01*
X82899685Y-58420000D01*
X113254432Y-58420000D01*
X113274266Y-58646705D01*
X113274268Y-58646715D01*
X113333164Y-58866523D01*
X113333166Y-58866527D01*
X113333167Y-58866531D01*
X113381256Y-58969657D01*
X113429344Y-59072783D01*
X113429345Y-59072785D01*
X113559873Y-59259198D01*
X113559878Y-59259204D01*
X113720795Y-59420121D01*
X113720801Y-59420126D01*
X113907214Y-59550654D01*
X113907216Y-59550655D01*
X114113469Y-59646833D01*
X114113475Y-59646834D01*
X114113476Y-59646835D01*
X114162953Y-59660092D01*
X114333290Y-59705733D01*
X114495319Y-59719909D01*
X114559999Y-59725568D01*
X114560000Y-59725568D01*
X114560001Y-59725568D01*
X114624681Y-59719909D01*
X114786710Y-59705733D01*
X115006531Y-59646833D01*
X115212784Y-59550655D01*
X115399203Y-59420123D01*
X115560123Y-59259203D01*
X115690655Y-59072784D01*
X115786833Y-58866531D01*
X115845733Y-58646710D01*
X115865568Y-58420000D01*
X115845733Y-58193290D01*
X115786833Y-57973469D01*
X115690655Y-57767216D01*
X115590847Y-57624676D01*
X115560126Y-57580801D01*
X115560121Y-57580795D01*
X115399204Y-57419878D01*
X115399198Y-57419873D01*
X115212785Y-57289345D01*
X115212783Y-57289344D01*
X115107438Y-57240221D01*
X115006531Y-57193167D01*
X115006527Y-57193166D01*
X115006523Y-57193164D01*
X114786715Y-57134268D01*
X114786705Y-57134266D01*
X114560001Y-57114432D01*
X114559999Y-57114432D01*
X114333294Y-57134266D01*
X114333284Y-57134268D01*
X114113476Y-57193164D01*
X114113467Y-57193168D01*
X113907216Y-57289344D01*
X113907214Y-57289345D01*
X113720801Y-57419873D01*
X113720795Y-57419878D01*
X113559878Y-57580795D01*
X113559873Y-57580801D01*
X113429345Y-57767214D01*
X113429344Y-57767216D01*
X113333168Y-57973467D01*
X113333164Y-57973476D01*
X113274268Y-58193284D01*
X113274266Y-58193294D01*
X113254432Y-58419999D01*
X113254432Y-58420000D01*
X82899685Y-58420000D01*
X85676866Y-55642819D01*
X85738189Y-55609334D01*
X85764547Y-55606500D01*
X104258295Y-55606500D01*
X104276265Y-55607809D01*
X104300023Y-55611289D01*
X104352068Y-55606735D01*
X104357470Y-55606500D01*
X104365704Y-55606500D01*
X104365709Y-55606500D01*
X104377327Y-55605141D01*
X104398276Y-55602693D01*
X104411028Y-55601577D01*
X104474797Y-55595999D01*
X104474805Y-55595996D01*
X104481866Y-55594539D01*
X104481878Y-55594598D01*
X104489243Y-55592965D01*
X104489229Y-55592906D01*
X104496246Y-55591241D01*
X104496255Y-55591241D01*
X104568423Y-55564974D01*
X104641334Y-55540814D01*
X104641343Y-55540807D01*
X104647882Y-55537760D01*
X104647908Y-55537816D01*
X104654690Y-55534532D01*
X104654663Y-55534478D01*
X104661106Y-55531240D01*
X104661117Y-55531237D01*
X104725283Y-55489034D01*
X104790656Y-55448712D01*
X104790662Y-55448705D01*
X104796325Y-55444229D01*
X104796363Y-55444277D01*
X104802200Y-55439522D01*
X104802161Y-55439475D01*
X104807696Y-55434830D01*
X104860385Y-55378983D01*
X106345548Y-53893819D01*
X106819366Y-53420000D01*
X113254432Y-53420000D01*
X113274266Y-53646705D01*
X113274268Y-53646715D01*
X113333164Y-53866523D01*
X113333166Y-53866527D01*
X113333167Y-53866531D01*
X113377439Y-53961472D01*
X113429344Y-54072783D01*
X113429345Y-54072785D01*
X113559873Y-54259198D01*
X113559878Y-54259204D01*
X113720795Y-54420121D01*
X113720801Y-54420126D01*
X113907214Y-54550654D01*
X113907216Y-54550655D01*
X114113469Y-54646833D01*
X114333290Y-54705733D01*
X114504371Y-54720701D01*
X114559999Y-54725568D01*
X114560000Y-54725568D01*
X114560001Y-54725568D01*
X114597785Y-54722262D01*
X114786710Y-54705733D01*
X115006531Y-54646833D01*
X115212784Y-54550655D01*
X115399203Y-54420123D01*
X115560123Y-54259203D01*
X115690655Y-54072784D01*
X115786833Y-53866531D01*
X115845733Y-53646710D01*
X115865568Y-53420000D01*
X115845733Y-53193290D01*
X115786833Y-52973469D01*
X115690655Y-52767216D01*
X115687772Y-52763099D01*
X115560126Y-52580801D01*
X115560121Y-52580795D01*
X115399204Y-52419878D01*
X115399198Y-52419873D01*
X115212785Y-52289345D01*
X115212783Y-52289344D01*
X115066656Y-52221204D01*
X115006531Y-52193167D01*
X115006527Y-52193166D01*
X115006523Y-52193164D01*
X114786715Y-52134268D01*
X114786705Y-52134266D01*
X114560001Y-52114432D01*
X114559999Y-52114432D01*
X114333294Y-52134266D01*
X114333284Y-52134268D01*
X114113476Y-52193164D01*
X114113467Y-52193168D01*
X113907216Y-52289344D01*
X113907214Y-52289345D01*
X113720801Y-52419873D01*
X113720795Y-52419878D01*
X113559878Y-52580795D01*
X113559873Y-52580801D01*
X113429345Y-52767214D01*
X113429344Y-52767216D01*
X113333168Y-52973467D01*
X113333164Y-52973476D01*
X113274268Y-53193284D01*
X113274266Y-53193294D01*
X113254432Y-53419999D01*
X113254432Y-53420000D01*
X106819366Y-53420000D01*
X106842561Y-53396805D01*
X106903882Y-53363322D01*
X106941043Y-53360960D01*
X107108000Y-53375568D01*
X107334710Y-53355733D01*
X107554531Y-53296833D01*
X107760784Y-53200655D01*
X107947203Y-53070123D01*
X108108123Y-52909203D01*
X108238655Y-52722784D01*
X108334833Y-52516531D01*
X108393733Y-52296710D01*
X108413568Y-52070000D01*
X108393733Y-51843290D01*
X108334833Y-51623469D01*
X108238655Y-51417216D01*
X108230220Y-51405170D01*
X108108126Y-51230801D01*
X108108121Y-51230795D01*
X107947204Y-51069878D01*
X107947198Y-51069873D01*
X107760785Y-50939345D01*
X107760783Y-50939344D01*
X107657657Y-50891256D01*
X107554531Y-50843167D01*
X107554527Y-50843166D01*
X107554523Y-50843164D01*
X107334715Y-50784268D01*
X107334705Y-50784266D01*
X107108001Y-50764432D01*
X107107999Y-50764432D01*
X106881294Y-50784266D01*
X106881284Y-50784268D01*
X106661476Y-50843164D01*
X106661467Y-50843168D01*
X106455216Y-50939344D01*
X106455214Y-50939345D01*
X106268801Y-51069873D01*
X106268795Y-51069878D01*
X106107878Y-51230795D01*
X106107873Y-51230801D01*
X105977345Y-51417214D01*
X105977344Y-51417216D01*
X105881168Y-51623467D01*
X105881164Y-51623476D01*
X105822268Y-51843284D01*
X105822266Y-51843294D01*
X105802432Y-52069999D01*
X105802432Y-52070002D01*
X105817038Y-52236951D01*
X105803271Y-52305451D01*
X105781191Y-52335439D01*
X104047451Y-54069181D01*
X103986128Y-54102666D01*
X103959770Y-54105500D01*
X96193230Y-54105500D01*
X96126191Y-54085815D01*
X96080436Y-54033011D01*
X96070492Y-53963853D01*
X96099517Y-53900297D01*
X96105549Y-53893819D01*
X96210531Y-53788836D01*
X96602561Y-53396805D01*
X96663882Y-53363322D01*
X96701043Y-53360960D01*
X96868000Y-53375568D01*
X97094710Y-53355733D01*
X97314531Y-53296833D01*
X97520784Y-53200655D01*
X97707203Y-53070123D01*
X97868123Y-52909203D01*
X97998655Y-52722784D01*
X98094833Y-52516531D01*
X98153733Y-52296710D01*
X98173568Y-52070000D01*
X100802934Y-52070000D01*
X100822760Y-52296617D01*
X100822762Y-52296627D01*
X100881636Y-52516351D01*
X100881640Y-52516360D01*
X100977782Y-52722536D01*
X101028901Y-52795543D01*
X101028903Y-52795544D01*
X101585369Y-52239077D01*
X101588594Y-52254597D01*
X101657658Y-52387886D01*
X101760123Y-52497598D01*
X101888388Y-52575598D01*
X101941166Y-52590385D01*
X101382454Y-53149096D01*
X101455466Y-53200219D01*
X101455468Y-53200220D01*
X101661639Y-53296359D01*
X101661648Y-53296363D01*
X101881372Y-53355237D01*
X101881382Y-53355239D01*
X102107999Y-53375066D01*
X102108001Y-53375066D01*
X102334617Y-53355239D01*
X102334627Y-53355237D01*
X102554351Y-53296363D01*
X102554360Y-53296359D01*
X102760530Y-53200221D01*
X102833544Y-53149096D01*
X102276603Y-52592156D01*
X102394412Y-52540985D01*
X102510862Y-52446246D01*
X102597433Y-52323603D01*
X102628300Y-52236748D01*
X103187096Y-52795544D01*
X103238221Y-52722530D01*
X103334359Y-52516360D01*
X103334363Y-52516351D01*
X103393237Y-52296627D01*
X103393239Y-52296617D01*
X103413066Y-52070000D01*
X103413066Y-52069999D01*
X103393239Y-51843382D01*
X103393237Y-51843372D01*
X103334363Y-51623648D01*
X103334359Y-51623639D01*
X103238220Y-51417468D01*
X103238219Y-51417466D01*
X103187096Y-51344455D01*
X103187096Y-51344454D01*
X102630630Y-51900920D01*
X102627406Y-51885403D01*
X102558342Y-51752114D01*
X102455877Y-51642402D01*
X102327612Y-51564402D01*
X102274833Y-51549614D01*
X102833544Y-50990903D01*
X102833543Y-50990901D01*
X102760536Y-50939782D01*
X102554360Y-50843640D01*
X102554351Y-50843636D01*
X102334627Y-50784762D01*
X102334617Y-50784760D01*
X102108001Y-50764934D01*
X102107999Y-50764934D01*
X101881382Y-50784760D01*
X101881372Y-50784762D01*
X101661648Y-50843636D01*
X101661639Y-50843640D01*
X101455464Y-50939781D01*
X101382454Y-50990901D01*
X101939396Y-51547843D01*
X101821588Y-51599015D01*
X101705138Y-51693754D01*
X101618567Y-51816397D01*
X101587699Y-51903252D01*
X101028901Y-51344454D01*
X100977781Y-51417464D01*
X100881640Y-51623639D01*
X100881636Y-51623648D01*
X100822762Y-51843372D01*
X100822760Y-51843382D01*
X100802934Y-52069999D01*
X100802934Y-52070000D01*
X98173568Y-52070000D01*
X98153733Y-51843290D01*
X98094833Y-51623469D01*
X97998655Y-51417216D01*
X97990220Y-51405170D01*
X97868126Y-51230801D01*
X97868121Y-51230795D01*
X97707204Y-51069878D01*
X97707198Y-51069873D01*
X97520785Y-50939345D01*
X97520783Y-50939344D01*
X97417657Y-50891256D01*
X97314531Y-50843167D01*
X97314527Y-50843166D01*
X97314523Y-50843164D01*
X97094715Y-50784268D01*
X97094705Y-50784266D01*
X96868001Y-50764432D01*
X96867999Y-50764432D01*
X96641294Y-50784266D01*
X96641284Y-50784268D01*
X96421476Y-50843164D01*
X96421467Y-50843168D01*
X96215216Y-50939344D01*
X96215214Y-50939345D01*
X96028801Y-51069873D01*
X96028795Y-51069878D01*
X95867878Y-51230795D01*
X95867873Y-51230801D01*
X95737345Y-51417214D01*
X95737344Y-51417216D01*
X95641168Y-51623467D01*
X95641164Y-51623476D01*
X95582268Y-51843284D01*
X95582266Y-51843294D01*
X95562432Y-52069999D01*
X95562432Y-52070002D01*
X95577038Y-52236952D01*
X95563271Y-52305452D01*
X95541191Y-52335440D01*
X94561451Y-53315181D01*
X94500128Y-53348666D01*
X94473770Y-53351500D01*
X92698633Y-53351500D01*
X92631594Y-53331815D01*
X92585839Y-53279011D01*
X92575895Y-53209853D01*
X92604920Y-53146297D01*
X92627510Y-53125925D01*
X92660610Y-53102747D01*
X92707203Y-53070123D01*
X92868123Y-52909203D01*
X92998655Y-52722784D01*
X93094833Y-52516531D01*
X93153733Y-52296710D01*
X93173568Y-52070000D01*
X93153733Y-51843290D01*
X93094833Y-51623469D01*
X92998655Y-51417216D01*
X92990220Y-51405170D01*
X92868126Y-51230801D01*
X92868121Y-51230795D01*
X92707204Y-51069878D01*
X92707198Y-51069873D01*
X92520785Y-50939345D01*
X92520783Y-50939344D01*
X92417657Y-50891256D01*
X92314531Y-50843167D01*
X92314527Y-50843166D01*
X92314523Y-50843164D01*
X92094715Y-50784268D01*
X92094705Y-50784266D01*
X91868001Y-50764432D01*
X91867999Y-50764432D01*
X91641294Y-50784266D01*
X91641284Y-50784268D01*
X91421476Y-50843164D01*
X91421467Y-50843168D01*
X91215216Y-50939344D01*
X91215214Y-50939345D01*
X91028801Y-51069873D01*
X91028795Y-51069878D01*
X90867878Y-51230795D01*
X90867873Y-51230801D01*
X90737345Y-51417214D01*
X90737344Y-51417216D01*
X90641168Y-51623467D01*
X90641164Y-51623476D01*
X90582268Y-51843284D01*
X90582266Y-51843294D01*
X90562432Y-52069999D01*
X90562432Y-52070002D01*
X90577038Y-52236952D01*
X90563271Y-52305452D01*
X90541191Y-52335440D01*
X90315451Y-52561181D01*
X90254128Y-52594666D01*
X90227770Y-52597500D01*
X84841387Y-52597500D01*
X84823417Y-52596191D01*
X84799654Y-52592710D01*
X84754215Y-52596686D01*
X84747613Y-52597264D01*
X84742212Y-52597500D01*
X84733971Y-52597500D01*
X84712261Y-52600037D01*
X84701406Y-52601306D01*
X84686101Y-52602645D01*
X84624881Y-52608001D01*
X84617814Y-52609460D01*
X84617802Y-52609404D01*
X84610445Y-52611035D01*
X84610459Y-52611092D01*
X84603425Y-52612759D01*
X84531257Y-52639025D01*
X84458357Y-52663181D01*
X84451808Y-52666236D01*
X84451783Y-52666183D01*
X84444990Y-52669471D01*
X84445016Y-52669523D01*
X84438562Y-52672764D01*
X84374390Y-52714971D01*
X84309029Y-52755285D01*
X84303365Y-52759765D01*
X84303329Y-52759719D01*
X84297480Y-52764484D01*
X84297517Y-52764528D01*
X84291992Y-52769164D01*
X84239279Y-52825035D01*
X75621133Y-61443181D01*
X75559810Y-61476666D01*
X75533452Y-61479500D01*
X75158547Y-61479500D01*
X75091508Y-61459815D01*
X75045753Y-61407011D01*
X75035809Y-61337853D01*
X75039281Y-61321566D01*
X75080434Y-61176925D01*
X75080435Y-61176922D01*
X75100536Y-60960000D01*
X75100536Y-60959999D01*
X75080435Y-60743081D01*
X75080435Y-60743077D01*
X75020817Y-60533541D01*
X74923712Y-60338528D01*
X74792427Y-60164678D01*
X74714316Y-60093471D01*
X74646216Y-60031389D01*
X74631432Y-60017912D01*
X74631428Y-60017909D01*
X74631423Y-60017906D01*
X74446213Y-59903229D01*
X74446207Y-59903226D01*
X74361113Y-59870260D01*
X74243069Y-59824530D01*
X74175440Y-59811888D01*
X74113161Y-59780221D01*
X74077888Y-59719909D01*
X74080822Y-59650100D01*
X74121031Y-59592960D01*
X74175439Y-59568112D01*
X74243069Y-59555470D01*
X74446210Y-59476772D01*
X74631432Y-59362088D01*
X74792427Y-59215322D01*
X74923712Y-59041472D01*
X75020817Y-58846459D01*
X75080435Y-58636923D01*
X75100536Y-58420000D01*
X75080435Y-58203077D01*
X75020817Y-57993541D01*
X74923712Y-57798528D01*
X74792427Y-57624678D01*
X74631432Y-57477912D01*
X74631428Y-57477909D01*
X74631423Y-57477906D01*
X74446213Y-57363229D01*
X74446207Y-57363226D01*
X74361113Y-57330260D01*
X74243069Y-57284530D01*
X74175440Y-57271888D01*
X74113161Y-57240221D01*
X74077888Y-57179909D01*
X74080822Y-57110100D01*
X74121031Y-57052960D01*
X74175439Y-57028112D01*
X74243069Y-57015470D01*
X74446210Y-56936772D01*
X74631432Y-56822088D01*
X74792427Y-56675322D01*
X74923712Y-56501472D01*
X75020817Y-56306459D01*
X75080435Y-56096923D01*
X75100536Y-55880000D01*
X75080435Y-55663077D01*
X75020817Y-55453541D01*
X74923712Y-55258528D01*
X74792427Y-55084678D01*
X74631432Y-54937912D01*
X74631428Y-54937909D01*
X74631423Y-54937906D01*
X74446213Y-54823229D01*
X74446207Y-54823226D01*
X74358375Y-54789200D01*
X74270415Y-54755124D01*
X74215017Y-54712553D01*
X74191426Y-54646786D01*
X74207137Y-54578706D01*
X74257161Y-54529927D01*
X74315211Y-54515499D01*
X74642872Y-54515499D01*
X74702483Y-54509091D01*
X74837331Y-54458796D01*
X74952546Y-54372546D01*
X75038796Y-54257331D01*
X75089091Y-54122483D01*
X75095500Y-54062873D01*
X75095499Y-52617128D01*
X75089091Y-52557517D01*
X75084302Y-52544678D01*
X75038797Y-52422671D01*
X75038793Y-52422664D01*
X74952547Y-52307455D01*
X74952544Y-52307452D01*
X74837335Y-52221206D01*
X74837328Y-52221202D01*
X74702482Y-52170908D01*
X74702483Y-52170908D01*
X74642883Y-52164501D01*
X74642881Y-52164500D01*
X74642873Y-52164500D01*
X74642864Y-52164500D01*
X73197129Y-52164500D01*
X73197123Y-52164501D01*
X73137516Y-52170908D01*
X73002671Y-52221202D01*
X73002664Y-52221206D01*
X72887455Y-52307452D01*
X72887452Y-52307455D01*
X72801206Y-52422664D01*
X72801202Y-52422671D01*
X72750908Y-52557517D01*
X72744610Y-52616100D01*
X72744501Y-52617123D01*
X72744500Y-52617135D01*
X72744500Y-54062870D01*
X72744501Y-54062876D01*
X72750908Y-54122483D01*
X72801202Y-54257328D01*
X72801206Y-54257335D01*
X72887452Y-54372544D01*
X72887455Y-54372547D01*
X73002664Y-54458793D01*
X73002671Y-54458797D01*
X73137517Y-54509091D01*
X73137516Y-54509091D01*
X73144444Y-54509835D01*
X73197127Y-54515500D01*
X73524788Y-54515499D01*
X73591825Y-54535183D01*
X73637580Y-54587987D01*
X73647524Y-54657146D01*
X73618499Y-54720701D01*
X73569580Y-54755125D01*
X73393801Y-54823222D01*
X73393786Y-54823229D01*
X73208576Y-54937906D01*
X73208566Y-54937913D01*
X73047574Y-55084676D01*
X72916288Y-55258527D01*
X72819184Y-55453537D01*
X72759564Y-55663081D01*
X72739464Y-55879999D01*
X72739464Y-55880000D01*
X72759564Y-56096918D01*
X72759564Y-56096920D01*
X72759565Y-56096923D01*
X72819183Y-56306459D01*
X72916288Y-56501472D01*
X73047573Y-56675322D01*
X73208568Y-56822088D01*
X73208575Y-56822092D01*
X73208576Y-56822093D01*
X73393786Y-56936770D01*
X73393792Y-56936773D01*
X73416664Y-56945633D01*
X73596931Y-57015470D01*
X73664558Y-57028111D01*
X73726838Y-57059779D01*
X73762111Y-57120092D01*
X73759177Y-57189900D01*
X73718968Y-57247040D01*
X73664558Y-57271888D01*
X73596931Y-57284530D01*
X73548130Y-57303435D01*
X73393792Y-57363226D01*
X73393786Y-57363229D01*
X73208576Y-57477906D01*
X73208566Y-57477913D01*
X73047574Y-57624676D01*
X72916288Y-57798527D01*
X72819184Y-57993537D01*
X72819183Y-57993541D01*
X72762349Y-58193294D01*
X72759564Y-58203081D01*
X72739464Y-58419999D01*
X72739464Y-58420000D01*
X72759564Y-58636918D01*
X72759564Y-58636920D01*
X72759565Y-58636923D01*
X72762350Y-58646710D01*
X72819184Y-58846462D01*
X72829178Y-58866532D01*
X72916288Y-59041472D01*
X73047573Y-59215322D01*
X73208568Y-59362088D01*
X73208575Y-59362092D01*
X73208576Y-59362093D01*
X73393786Y-59476770D01*
X73393792Y-59476773D01*
X73416664Y-59485633D01*
X73596931Y-59555470D01*
X73664558Y-59568111D01*
X73726838Y-59599779D01*
X73762111Y-59660092D01*
X73759177Y-59729900D01*
X73718968Y-59787040D01*
X73664558Y-59811888D01*
X73596931Y-59824530D01*
X73548130Y-59843435D01*
X73393792Y-59903226D01*
X73393786Y-59903229D01*
X73208576Y-60017906D01*
X73208566Y-60017913D01*
X73047574Y-60164676D01*
X72916288Y-60338527D01*
X72819184Y-60533537D01*
X72759564Y-60743081D01*
X72739464Y-60959999D01*
X72739464Y-60960000D01*
X72759564Y-61176922D01*
X72759565Y-61176925D01*
X72800719Y-61321566D01*
X72800132Y-61391433D01*
X72761865Y-61449892D01*
X72698068Y-61478382D01*
X72681453Y-61479500D01*
X71843287Y-61479500D01*
X71825317Y-61478191D01*
X71801554Y-61474710D01*
X71756472Y-61478655D01*
X71749515Y-61479264D01*
X71744114Y-61479500D01*
X71735870Y-61479500D01*
X71703289Y-61483308D01*
X71626781Y-61490001D01*
X71619715Y-61491461D01*
X71619703Y-61491404D01*
X71612336Y-61493038D01*
X71612350Y-61493094D01*
X71605333Y-61494756D01*
X71533155Y-61521026D01*
X71460244Y-61545187D01*
X71453701Y-61548238D01*
X71453676Y-61548186D01*
X71446896Y-61551468D01*
X71446922Y-61551520D01*
X71440463Y-61554764D01*
X71376291Y-61596970D01*
X71310927Y-61637288D01*
X71305259Y-61641770D01*
X71305223Y-61641724D01*
X71299380Y-61646484D01*
X71299417Y-61646528D01*
X71293892Y-61651164D01*
X71241179Y-61707035D01*
X49287865Y-83660346D01*
X49226542Y-83693831D01*
X49156850Y-83688847D01*
X49100917Y-83646975D01*
X49080918Y-83606600D01*
X49020349Y-83393725D01*
X49020344Y-83393712D01*
X48923284Y-83198791D01*
X48911011Y-83182539D01*
X48364449Y-83729101D01*
X48363673Y-83718735D01*
X48314113Y-83592459D01*
X48229535Y-83486401D01*
X48117453Y-83409984D01*
X48009700Y-83376747D01*
X48555167Y-82831279D01*
X48445983Y-82763676D01*
X48242929Y-82685013D01*
X48174081Y-82672143D01*
X48111800Y-82640475D01*
X48076527Y-82580162D01*
X48079461Y-82510354D01*
X48119670Y-82453214D01*
X48174078Y-82428366D01*
X48243069Y-82415470D01*
X48446210Y-82336772D01*
X48631432Y-82222088D01*
X48792427Y-82075322D01*
X48923712Y-81901472D01*
X49020817Y-81706459D01*
X49080435Y-81496923D01*
X49100536Y-81280000D01*
X49080435Y-81063077D01*
X49020817Y-80853541D01*
X48923712Y-80658528D01*
X48792427Y-80484678D01*
X48758703Y-80453935D01*
X48632278Y-80338683D01*
X48631432Y-80337912D01*
X48631428Y-80337909D01*
X48631423Y-80337906D01*
X48446213Y-80223229D01*
X48446207Y-80223226D01*
X48361113Y-80190260D01*
X48243069Y-80144530D01*
X48175440Y-80131888D01*
X48113161Y-80100221D01*
X48077888Y-80039909D01*
X48080822Y-79970100D01*
X48121031Y-79912960D01*
X48175439Y-79888112D01*
X48243069Y-79875470D01*
X48446210Y-79796772D01*
X48631432Y-79682088D01*
X48792427Y-79535322D01*
X48923712Y-79361472D01*
X49020817Y-79166459D01*
X49080435Y-78956923D01*
X49100536Y-78740000D01*
X49080435Y-78523077D01*
X49020817Y-78313541D01*
X48923712Y-78118528D01*
X48792427Y-77944678D01*
X48631432Y-77797912D01*
X48631428Y-77797909D01*
X48631423Y-77797906D01*
X48446213Y-77683229D01*
X48446207Y-77683226D01*
X48361113Y-77650260D01*
X48243069Y-77604530D01*
X48175440Y-77591888D01*
X48113161Y-77560221D01*
X48077888Y-77499909D01*
X48080822Y-77430100D01*
X48121031Y-77372960D01*
X48175439Y-77348112D01*
X48243069Y-77335470D01*
X48446210Y-77256772D01*
X48631432Y-77142088D01*
X48792427Y-76995322D01*
X48923712Y-76821472D01*
X49020817Y-76626459D01*
X49080435Y-76416923D01*
X49100536Y-76200000D01*
X49080435Y-75983077D01*
X49020817Y-75773541D01*
X48923712Y-75578528D01*
X48792427Y-75404678D01*
X48631432Y-75257912D01*
X48631428Y-75257909D01*
X48631423Y-75257906D01*
X48446213Y-75143229D01*
X48446207Y-75143226D01*
X48361113Y-75110260D01*
X48243069Y-75064530D01*
X48175440Y-75051888D01*
X48113161Y-75020221D01*
X48077888Y-74959909D01*
X48080822Y-74890100D01*
X48121031Y-74832960D01*
X48175439Y-74808112D01*
X48243069Y-74795470D01*
X48446210Y-74716772D01*
X48631432Y-74602088D01*
X48792427Y-74455322D01*
X48923712Y-74281472D01*
X49020817Y-74086459D01*
X49080435Y-73876923D01*
X49100536Y-73660000D01*
X49080435Y-73443077D01*
X49020817Y-73233541D01*
X48923712Y-73038528D01*
X48792427Y-72864678D01*
X48631432Y-72717912D01*
X48631428Y-72717909D01*
X48631423Y-72717906D01*
X48446213Y-72603229D01*
X48446207Y-72603226D01*
X48361113Y-72570260D01*
X48243069Y-72524530D01*
X48175440Y-72511888D01*
X48113161Y-72480221D01*
X48077888Y-72419909D01*
X48080822Y-72350100D01*
X48121031Y-72292960D01*
X48175439Y-72268112D01*
X48243069Y-72255470D01*
X48446210Y-72176772D01*
X48631432Y-72062088D01*
X48792427Y-71915322D01*
X48923712Y-71741472D01*
X49020817Y-71546459D01*
X49080435Y-71336923D01*
X49100536Y-71120000D01*
X49080435Y-70903077D01*
X49020817Y-70693541D01*
X48923712Y-70498528D01*
X48792427Y-70324678D01*
X48631432Y-70177912D01*
X48631428Y-70177909D01*
X48631423Y-70177906D01*
X48446213Y-70063229D01*
X48446207Y-70063226D01*
X48361113Y-70030260D01*
X48243069Y-69984530D01*
X48175440Y-69971888D01*
X48113161Y-69940221D01*
X48077888Y-69879909D01*
X48080822Y-69810100D01*
X48121031Y-69752960D01*
X48175439Y-69728112D01*
X48243069Y-69715470D01*
X48446210Y-69636772D01*
X48631432Y-69522088D01*
X48792427Y-69375322D01*
X48923712Y-69201472D01*
X49020817Y-69006459D01*
X49080435Y-68796923D01*
X49100536Y-68580000D01*
X49080435Y-68363077D01*
X49020817Y-68153541D01*
X48923712Y-67958528D01*
X48792427Y-67784678D01*
X48631432Y-67637912D01*
X48631428Y-67637909D01*
X48631423Y-67637906D01*
X48446213Y-67523229D01*
X48446207Y-67523226D01*
X48361113Y-67490260D01*
X48243069Y-67444530D01*
X48175440Y-67431888D01*
X48113161Y-67400221D01*
X48077888Y-67339909D01*
X48080822Y-67270100D01*
X48121031Y-67212960D01*
X48175439Y-67188112D01*
X48243069Y-67175470D01*
X48446210Y-67096772D01*
X48631432Y-66982088D01*
X48792427Y-66835322D01*
X48923712Y-66661472D01*
X49020817Y-66466459D01*
X49080435Y-66256923D01*
X49100536Y-66040000D01*
X49080435Y-65823077D01*
X49020817Y-65613541D01*
X48923712Y-65418528D01*
X48792427Y-65244678D01*
X48631432Y-65097912D01*
X48631428Y-65097909D01*
X48631423Y-65097906D01*
X48446213Y-64983229D01*
X48446207Y-64983226D01*
X48361113Y-64950260D01*
X48243069Y-64904530D01*
X48175440Y-64891888D01*
X48113161Y-64860221D01*
X48077888Y-64799909D01*
X48080822Y-64730100D01*
X48121031Y-64672960D01*
X48175439Y-64648112D01*
X48243069Y-64635470D01*
X48446210Y-64556772D01*
X48631432Y-64442088D01*
X48792427Y-64295322D01*
X48923712Y-64121472D01*
X49020817Y-63926459D01*
X49080435Y-63716923D01*
X49100536Y-63500000D01*
X49080435Y-63283077D01*
X49020817Y-63073541D01*
X48923712Y-62878528D01*
X48792427Y-62704678D01*
X48631432Y-62557912D01*
X48631428Y-62557909D01*
X48631423Y-62557906D01*
X48446213Y-62443229D01*
X48446207Y-62443226D01*
X48361113Y-62410260D01*
X48243069Y-62364530D01*
X48175440Y-62351888D01*
X48113161Y-62320221D01*
X48077888Y-62259909D01*
X48080822Y-62190100D01*
X48121031Y-62132960D01*
X48175439Y-62108112D01*
X48243069Y-62095470D01*
X48446210Y-62016772D01*
X48631432Y-61902088D01*
X48792427Y-61755322D01*
X48923712Y-61581472D01*
X49020817Y-61386459D01*
X49080435Y-61176923D01*
X49100536Y-60960000D01*
X49099591Y-60949807D01*
X49080435Y-60743081D01*
X49080435Y-60743077D01*
X49020817Y-60533541D01*
X48923712Y-60338528D01*
X48792427Y-60164678D01*
X48714316Y-60093471D01*
X48646216Y-60031389D01*
X48631432Y-60017912D01*
X48631428Y-60017909D01*
X48631423Y-60017906D01*
X48446213Y-59903229D01*
X48446207Y-59903226D01*
X48361113Y-59870260D01*
X48243069Y-59824530D01*
X48175440Y-59811888D01*
X48113161Y-59780221D01*
X48077888Y-59719909D01*
X48080822Y-59650100D01*
X48121031Y-59592960D01*
X48175439Y-59568112D01*
X48243069Y-59555470D01*
X48446210Y-59476772D01*
X48631432Y-59362088D01*
X48792427Y-59215322D01*
X48923712Y-59041472D01*
X49020817Y-58846459D01*
X49080435Y-58636923D01*
X49100536Y-58420000D01*
X49080435Y-58203077D01*
X49020817Y-57993541D01*
X48923712Y-57798528D01*
X48792427Y-57624678D01*
X48631432Y-57477912D01*
X48631428Y-57477909D01*
X48631423Y-57477906D01*
X48446213Y-57363229D01*
X48446207Y-57363226D01*
X48361113Y-57330260D01*
X48243069Y-57284530D01*
X48175440Y-57271888D01*
X48113161Y-57240221D01*
X48077888Y-57179909D01*
X48080822Y-57110100D01*
X48121031Y-57052960D01*
X48175439Y-57028112D01*
X48243069Y-57015470D01*
X48446210Y-56936772D01*
X48631432Y-56822088D01*
X48792427Y-56675322D01*
X48923712Y-56501472D01*
X49020817Y-56306459D01*
X49080435Y-56096923D01*
X49100536Y-55880000D01*
X49080435Y-55663077D01*
X49020817Y-55453541D01*
X48923712Y-55258528D01*
X48792427Y-55084678D01*
X48631432Y-54937912D01*
X48631428Y-54937909D01*
X48631423Y-54937906D01*
X48446213Y-54823229D01*
X48446207Y-54823226D01*
X48361113Y-54790260D01*
X48243069Y-54744530D01*
X48175440Y-54731888D01*
X48113161Y-54700221D01*
X48077888Y-54639909D01*
X48080822Y-54570100D01*
X48121031Y-54512960D01*
X48175439Y-54488112D01*
X48243069Y-54475470D01*
X48446210Y-54396772D01*
X48631432Y-54282088D01*
X48792427Y-54135322D01*
X48923712Y-53961472D01*
X49020817Y-53766459D01*
X49080435Y-53556923D01*
X49100536Y-53340000D01*
X49080435Y-53123077D01*
X49020817Y-52913541D01*
X48923712Y-52718528D01*
X48792427Y-52544678D01*
X48761542Y-52516523D01*
X48655528Y-52419878D01*
X48631432Y-52397912D01*
X48631428Y-52397909D01*
X48631423Y-52397906D01*
X48446213Y-52283229D01*
X48446207Y-52283226D01*
X48361113Y-52250260D01*
X48243069Y-52204530D01*
X48028926Y-52164500D01*
X47811074Y-52164500D01*
X47596931Y-52204530D01*
X47553896Y-52221202D01*
X47393792Y-52283226D01*
X47393786Y-52283229D01*
X47208576Y-52397906D01*
X47208566Y-52397913D01*
X47047574Y-52544676D01*
X46916288Y-52718527D01*
X46819184Y-52913537D01*
X46759564Y-53123081D01*
X46739464Y-53339999D01*
X46739464Y-53340000D01*
X46759564Y-53556918D01*
X46759564Y-53556920D01*
X46759565Y-53556923D01*
X46819183Y-53766459D01*
X46916288Y-53961472D01*
X47047573Y-54135322D01*
X47208568Y-54282088D01*
X47208575Y-54282092D01*
X47208576Y-54282093D01*
X47393786Y-54396770D01*
X47393792Y-54396773D01*
X47416664Y-54405633D01*
X47596931Y-54475470D01*
X47664558Y-54488111D01*
X47726838Y-54519779D01*
X47762111Y-54580092D01*
X47759177Y-54649900D01*
X47718968Y-54707040D01*
X47664558Y-54731888D01*
X47596931Y-54744530D01*
X47569580Y-54755126D01*
X47393792Y-54823226D01*
X47393786Y-54823229D01*
X47208576Y-54937906D01*
X47208566Y-54937913D01*
X47047574Y-55084676D01*
X46916288Y-55258527D01*
X46819184Y-55453537D01*
X46759564Y-55663081D01*
X46739464Y-55879999D01*
X46739464Y-55880000D01*
X46759564Y-56096918D01*
X46759564Y-56096920D01*
X46759565Y-56096923D01*
X46819183Y-56306459D01*
X46916288Y-56501472D01*
X47047573Y-56675322D01*
X47208568Y-56822088D01*
X47208575Y-56822092D01*
X47208576Y-56822093D01*
X47393786Y-56936770D01*
X47393792Y-56936773D01*
X47416664Y-56945633D01*
X47596931Y-57015470D01*
X47664558Y-57028111D01*
X47726838Y-57059779D01*
X47762111Y-57120092D01*
X47759177Y-57189900D01*
X47718968Y-57247040D01*
X47664558Y-57271888D01*
X47596931Y-57284530D01*
X47548130Y-57303435D01*
X47393792Y-57363226D01*
X47393786Y-57363229D01*
X47208576Y-57477906D01*
X47208566Y-57477913D01*
X47047574Y-57624676D01*
X46916288Y-57798527D01*
X46819184Y-57993537D01*
X46819183Y-57993541D01*
X46762349Y-58193294D01*
X46759564Y-58203081D01*
X46739464Y-58419999D01*
X46739464Y-58420000D01*
X46759564Y-58636918D01*
X46759564Y-58636920D01*
X46759565Y-58636923D01*
X46762350Y-58646710D01*
X46819184Y-58846462D01*
X46829178Y-58866532D01*
X46916288Y-59041472D01*
X47047573Y-59215322D01*
X47208568Y-59362088D01*
X47208575Y-59362092D01*
X47208576Y-59362093D01*
X47393786Y-59476770D01*
X47393792Y-59476773D01*
X47416664Y-59485633D01*
X47596931Y-59555470D01*
X47664558Y-59568111D01*
X47726838Y-59599779D01*
X47762111Y-59660092D01*
X47759177Y-59729900D01*
X47718968Y-59787040D01*
X47664558Y-59811888D01*
X47596931Y-59824530D01*
X47548130Y-59843435D01*
X47393792Y-59903226D01*
X47393786Y-59903229D01*
X47208576Y-60017906D01*
X47208566Y-60017913D01*
X47047574Y-60164676D01*
X46916288Y-60338527D01*
X46819184Y-60533537D01*
X46759564Y-60743081D01*
X46739464Y-60959999D01*
X46739464Y-60960000D01*
X46759564Y-61176918D01*
X46759564Y-61176920D01*
X46759565Y-61176923D01*
X46819183Y-61386459D01*
X46819184Y-61386462D01*
X46899739Y-61548238D01*
X46916288Y-61581472D01*
X47047573Y-61755322D01*
X47208568Y-61902088D01*
X47208575Y-61902092D01*
X47208576Y-61902093D01*
X47393786Y-62016770D01*
X47393792Y-62016773D01*
X47416664Y-62025633D01*
X47596931Y-62095470D01*
X47664558Y-62108111D01*
X47726838Y-62139779D01*
X47762111Y-62200092D01*
X47759177Y-62269900D01*
X47718968Y-62327040D01*
X47664558Y-62351888D01*
X47596931Y-62364530D01*
X47548130Y-62383435D01*
X47393792Y-62443226D01*
X47393786Y-62443229D01*
X47208576Y-62557906D01*
X47208566Y-62557913D01*
X47047574Y-62704676D01*
X46916288Y-62878527D01*
X46819184Y-63073537D01*
X46819183Y-63073541D01*
X46765530Y-63262114D01*
X46759564Y-63283081D01*
X46739464Y-63499999D01*
X46739464Y-63500000D01*
X46759564Y-63716918D01*
X46759564Y-63716920D01*
X46759565Y-63716923D01*
X46811053Y-63897886D01*
X46819184Y-63926462D01*
X46898425Y-64085598D01*
X46916288Y-64121472D01*
X47047573Y-64295322D01*
X47208568Y-64442088D01*
X47208575Y-64442092D01*
X47208576Y-64442093D01*
X47393786Y-64556770D01*
X47393792Y-64556773D01*
X47416664Y-64565633D01*
X47596931Y-64635470D01*
X47664558Y-64648111D01*
X47726838Y-64679779D01*
X47762111Y-64740092D01*
X47759177Y-64809900D01*
X47718968Y-64867040D01*
X47664558Y-64891888D01*
X47596931Y-64904530D01*
X47548130Y-64923435D01*
X47393792Y-64983226D01*
X47393786Y-64983229D01*
X47208576Y-65097906D01*
X47208566Y-65097913D01*
X47047574Y-65244676D01*
X46916288Y-65418527D01*
X46819184Y-65613537D01*
X46759564Y-65823081D01*
X46739464Y-66039999D01*
X46739464Y-66040000D01*
X46759564Y-66256918D01*
X46759564Y-66256920D01*
X46759565Y-66256923D01*
X46814505Y-66450016D01*
X46819184Y-66466462D01*
X46863880Y-66556223D01*
X46916288Y-66661472D01*
X47027175Y-66808311D01*
X47047574Y-66835323D01*
X47072391Y-66857947D01*
X47208568Y-66982088D01*
X47208575Y-66982092D01*
X47208576Y-66982093D01*
X47393786Y-67096770D01*
X47393792Y-67096773D01*
X47416664Y-67105633D01*
X47596931Y-67175470D01*
X47664558Y-67188111D01*
X47726838Y-67219779D01*
X47762111Y-67280092D01*
X47759177Y-67349900D01*
X47718968Y-67407040D01*
X47664558Y-67431888D01*
X47596931Y-67444530D01*
X47548130Y-67463435D01*
X47393792Y-67523226D01*
X47393786Y-67523229D01*
X47208576Y-67637906D01*
X47208566Y-67637913D01*
X47047574Y-67784676D01*
X46916288Y-67958527D01*
X46819184Y-68153537D01*
X46819183Y-68153541D01*
X46762349Y-68353294D01*
X46759564Y-68363081D01*
X46739464Y-68579999D01*
X46739464Y-68580000D01*
X46759564Y-68796918D01*
X46759564Y-68796920D01*
X46759565Y-68796923D01*
X46762350Y-68806710D01*
X46819184Y-69006462D01*
X46829178Y-69026532D01*
X46916288Y-69201472D01*
X47047573Y-69375322D01*
X47208568Y-69522088D01*
X47208575Y-69522092D01*
X47208576Y-69522093D01*
X47393786Y-69636770D01*
X47393792Y-69636773D01*
X47416664Y-69645633D01*
X47596931Y-69715470D01*
X47664558Y-69728111D01*
X47726838Y-69759779D01*
X47762111Y-69820092D01*
X47759177Y-69889900D01*
X47718968Y-69947040D01*
X47664558Y-69971888D01*
X47596931Y-69984530D01*
X47548130Y-70003435D01*
X47393792Y-70063226D01*
X47393786Y-70063229D01*
X47208576Y-70177906D01*
X47208566Y-70177913D01*
X47047574Y-70324676D01*
X46916288Y-70498527D01*
X46819184Y-70693537D01*
X46759564Y-70903081D01*
X46739464Y-71119999D01*
X46739464Y-71120000D01*
X46759564Y-71336918D01*
X46759564Y-71336920D01*
X46759565Y-71336923D01*
X46819183Y-71546459D01*
X46916288Y-71741472D01*
X47047573Y-71915322D01*
X47208568Y-72062088D01*
X47208575Y-72062092D01*
X47208576Y-72062093D01*
X47393786Y-72176770D01*
X47393792Y-72176773D01*
X47416664Y-72185633D01*
X47596931Y-72255470D01*
X47664558Y-72268111D01*
X47726838Y-72299779D01*
X47762111Y-72360092D01*
X47759177Y-72429900D01*
X47718968Y-72487040D01*
X47664558Y-72511888D01*
X47596931Y-72524530D01*
X47548130Y-72543435D01*
X47393792Y-72603226D01*
X47393786Y-72603229D01*
X47208576Y-72717906D01*
X47208566Y-72717913D01*
X47047574Y-72864676D01*
X46916288Y-73038527D01*
X46819184Y-73233537D01*
X46759564Y-73443081D01*
X46739464Y-73659999D01*
X46739464Y-73660000D01*
X46759564Y-73876918D01*
X46759564Y-73876920D01*
X46759565Y-73876923D01*
X46819183Y-74086459D01*
X46916288Y-74281472D01*
X47047573Y-74455322D01*
X47208568Y-74602088D01*
X47208575Y-74602092D01*
X47208576Y-74602093D01*
X47393786Y-74716770D01*
X47393792Y-74716773D01*
X47416664Y-74725633D01*
X47596931Y-74795470D01*
X47664558Y-74808111D01*
X47726838Y-74839779D01*
X47762111Y-74900092D01*
X47759177Y-74969900D01*
X47718968Y-75027040D01*
X47664558Y-75051888D01*
X47596931Y-75064530D01*
X47548130Y-75083435D01*
X47393792Y-75143226D01*
X47393786Y-75143229D01*
X47208576Y-75257906D01*
X47208566Y-75257913D01*
X47047574Y-75404676D01*
X46916288Y-75578527D01*
X46819184Y-75773537D01*
X46759564Y-75983081D01*
X46739464Y-76199999D01*
X46739464Y-76200000D01*
X46759564Y-76416918D01*
X46759564Y-76416920D01*
X46759565Y-76416923D01*
X46819183Y-76626459D01*
X46916288Y-76821472D01*
X47047573Y-76995322D01*
X47208568Y-77142088D01*
X47208575Y-77142092D01*
X47208576Y-77142093D01*
X47393786Y-77256770D01*
X47393792Y-77256773D01*
X47416664Y-77265633D01*
X47596931Y-77335470D01*
X47664558Y-77348111D01*
X47726838Y-77379779D01*
X47762111Y-77440092D01*
X47759177Y-77509900D01*
X47718968Y-77567040D01*
X47664558Y-77591888D01*
X47596931Y-77604530D01*
X47548130Y-77623435D01*
X47393792Y-77683226D01*
X47393786Y-77683229D01*
X47208576Y-77797906D01*
X47208566Y-77797913D01*
X47047574Y-77944676D01*
X46916288Y-78118527D01*
X46819184Y-78313537D01*
X46789374Y-78418309D01*
X46762324Y-78513382D01*
X46759564Y-78523081D01*
X46739464Y-78739999D01*
X46739464Y-78740000D01*
X46759564Y-78956918D01*
X46759564Y-78956920D01*
X46759565Y-78956923D01*
X46798440Y-79093553D01*
X46819184Y-79166462D01*
X46912898Y-79354664D01*
X46916288Y-79361472D01*
X47047573Y-79535322D01*
X47208568Y-79682088D01*
X47208575Y-79682092D01*
X47208576Y-79682093D01*
X47393786Y-79796770D01*
X47393792Y-79796773D01*
X47395953Y-79797610D01*
X47596931Y-79875470D01*
X47664558Y-79888111D01*
X47726838Y-79919779D01*
X47762111Y-79980092D01*
X47759177Y-80049900D01*
X47718968Y-80107040D01*
X47664558Y-80131888D01*
X47596931Y-80144530D01*
X47587484Y-80148190D01*
X47393792Y-80223226D01*
X47393786Y-80223229D01*
X47208576Y-80337906D01*
X47208566Y-80337913D01*
X47047574Y-80484676D01*
X46916288Y-80658527D01*
X46819184Y-80853537D01*
X46759564Y-81063081D01*
X46739464Y-81279999D01*
X46739464Y-81280000D01*
X46759564Y-81496918D01*
X46759564Y-81496920D01*
X46759565Y-81496923D01*
X46819183Y-81706459D01*
X46916288Y-81901472D01*
X47047573Y-82075322D01*
X47208568Y-82222088D01*
X47208575Y-82222092D01*
X47208576Y-82222093D01*
X47393786Y-82336770D01*
X47393792Y-82336773D01*
X47422159Y-82347762D01*
X47596931Y-82415470D01*
X47665920Y-82428366D01*
X47728199Y-82460033D01*
X47763472Y-82520345D01*
X47760539Y-82590153D01*
X47720330Y-82647294D01*
X47665918Y-82672143D01*
X47597070Y-82685013D01*
X47597069Y-82685013D01*
X47394016Y-82763676D01*
X47394010Y-82763679D01*
X47284832Y-82831278D01*
X47284831Y-82831279D01*
X47831768Y-83378215D01*
X47785862Y-83385135D01*
X47663643Y-83443993D01*
X47564202Y-83536260D01*
X47496375Y-83653740D01*
X47478500Y-83732052D01*
X46928987Y-83182539D01*
X46916716Y-83198789D01*
X46819655Y-83393712D01*
X46819650Y-83393725D01*
X46760057Y-83603169D01*
X46739966Y-83819999D01*
X46739966Y-83820000D01*
X46760057Y-84036830D01*
X46819650Y-84246274D01*
X46819655Y-84246287D01*
X46916711Y-84441201D01*
X46916719Y-84441214D01*
X46928987Y-84457459D01*
X47475550Y-83910896D01*
X47476327Y-83921265D01*
X47525887Y-84047541D01*
X47610465Y-84153599D01*
X47722547Y-84230016D01*
X47830299Y-84263252D01*
X47284831Y-84808719D01*
X47394013Y-84876322D01*
X47394014Y-84876323D01*
X47597069Y-84954986D01*
X47597071Y-84954987D01*
X47665915Y-84967856D01*
X47728197Y-84999524D01*
X47763470Y-85059836D01*
X47760537Y-85129644D01*
X47720328Y-85186785D01*
X47665918Y-85211633D01*
X47596934Y-85224529D01*
X47393792Y-85303226D01*
X47393786Y-85303229D01*
X47208576Y-85417906D01*
X47208566Y-85417913D01*
X47047574Y-85564676D01*
X46916288Y-85738527D01*
X46819184Y-85933537D01*
X46759564Y-86143081D01*
X46739464Y-86359999D01*
X46739464Y-86360000D01*
X46759564Y-86576918D01*
X46759564Y-86576920D01*
X46759565Y-86576923D01*
X46819183Y-86786459D01*
X46916288Y-86981472D01*
X47047573Y-87155322D01*
X47208568Y-87302088D01*
X47208575Y-87302092D01*
X47208576Y-87302093D01*
X47393786Y-87416770D01*
X47393792Y-87416773D01*
X47416664Y-87425633D01*
X47596931Y-87495470D01*
X47664558Y-87508111D01*
X47726838Y-87539779D01*
X47762111Y-87600092D01*
X47759177Y-87669900D01*
X47718968Y-87727040D01*
X47664558Y-87751888D01*
X47596931Y-87764530D01*
X47548130Y-87783435D01*
X47393792Y-87843226D01*
X47393786Y-87843229D01*
X47208576Y-87957906D01*
X47208566Y-87957913D01*
X47047574Y-88104676D01*
X46916288Y-88278527D01*
X46819184Y-88473537D01*
X46759564Y-88683081D01*
X46739464Y-88899999D01*
X46739464Y-88900000D01*
X46759564Y-89116918D01*
X46759564Y-89116920D01*
X46759565Y-89116923D01*
X46819183Y-89326459D01*
X46916288Y-89521472D01*
X47047573Y-89695322D01*
X47208568Y-89842088D01*
X47208575Y-89842092D01*
X47208576Y-89842093D01*
X47393786Y-89956770D01*
X47393792Y-89956773D01*
X47416664Y-89965633D01*
X47596931Y-90035470D01*
X47664558Y-90048111D01*
X47726838Y-90079779D01*
X47762111Y-90140092D01*
X47759177Y-90209900D01*
X47718968Y-90267040D01*
X47664558Y-90291888D01*
X47596931Y-90304530D01*
X47548130Y-90323435D01*
X47393792Y-90383226D01*
X47393786Y-90383229D01*
X47208576Y-90497906D01*
X47208566Y-90497913D01*
X47047574Y-90644676D01*
X46916288Y-90818527D01*
X46819184Y-91013537D01*
X46759564Y-91223081D01*
X46739464Y-91439999D01*
X46739464Y-91440000D01*
X46759564Y-91656918D01*
X46759564Y-91656920D01*
X46759565Y-91656923D01*
X46819183Y-91866459D01*
X46916288Y-92061472D01*
X47047573Y-92235322D01*
X47208568Y-92382088D01*
X47208575Y-92382092D01*
X47208576Y-92382093D01*
X47393786Y-92496770D01*
X47393792Y-92496773D01*
X47416664Y-92505633D01*
X47596931Y-92575470D01*
X47664558Y-92588111D01*
X47726838Y-92619779D01*
X47762111Y-92680092D01*
X47759177Y-92749900D01*
X47718968Y-92807040D01*
X47664558Y-92831888D01*
X47596931Y-92844530D01*
X47548130Y-92863435D01*
X47393792Y-92923226D01*
X47393786Y-92923229D01*
X47208576Y-93037906D01*
X47208566Y-93037913D01*
X47047574Y-93184676D01*
X46916288Y-93358527D01*
X46819184Y-93553537D01*
X46798154Y-93627450D01*
X46762324Y-93753382D01*
X46759564Y-93763081D01*
X46739464Y-93979999D01*
X46739464Y-93980000D01*
X46759564Y-94196918D01*
X46759564Y-94196920D01*
X46759565Y-94196923D01*
X46817851Y-94401777D01*
X46819184Y-94406462D01*
X46871135Y-94510793D01*
X46916288Y-94601472D01*
X47047573Y-94775322D01*
X47208568Y-94922088D01*
X47208575Y-94922092D01*
X47208576Y-94922093D01*
X47393786Y-95036770D01*
X47393792Y-95036773D01*
X47416664Y-95045633D01*
X47596931Y-95115470D01*
X47664558Y-95128111D01*
X47726838Y-95159779D01*
X47762111Y-95220092D01*
X47759177Y-95289900D01*
X47718968Y-95347040D01*
X47664558Y-95371888D01*
X47596931Y-95384530D01*
X47548130Y-95403435D01*
X47393792Y-95463226D01*
X47393786Y-95463229D01*
X47208576Y-95577906D01*
X47208566Y-95577913D01*
X47047574Y-95724676D01*
X46916288Y-95898527D01*
X46819184Y-96093537D01*
X46759564Y-96303081D01*
X46739464Y-96519999D01*
X46739464Y-96520000D01*
X40000000Y-96520000D01*
X40000000Y-50141411D01*
X47040771Y-50141411D01*
X47050707Y-50375341D01*
X47050707Y-50375342D01*
X47100038Y-50604236D01*
X47187338Y-50821490D01*
X47187340Y-50821494D01*
X47200976Y-50843640D01*
X47310103Y-51020875D01*
X47464793Y-51196637D01*
X47464797Y-51196641D01*
X47646969Y-51343734D01*
X47646969Y-51343735D01*
X47851377Y-51457924D01*
X47851381Y-51457926D01*
X48072151Y-51535929D01*
X48200929Y-51558010D01*
X48302919Y-51575499D01*
X48302928Y-51575500D01*
X48478433Y-51575500D01*
X48653296Y-51560617D01*
X48653299Y-51560616D01*
X48653301Y-51560616D01*
X48879890Y-51501617D01*
X49010242Y-51442693D01*
X49093244Y-51405175D01*
X49093245Y-51405173D01*
X49093250Y-51405172D01*
X49287241Y-51274057D01*
X49456283Y-51112044D01*
X49595513Y-50923792D01*
X49700926Y-50714718D01*
X49769489Y-50490837D01*
X49799229Y-50258589D01*
X49794252Y-50141411D01*
X72040771Y-50141411D01*
X72050707Y-50375341D01*
X72050707Y-50375342D01*
X72100038Y-50604236D01*
X72187338Y-50821490D01*
X72187340Y-50821494D01*
X72200976Y-50843640D01*
X72310103Y-51020875D01*
X72464793Y-51196637D01*
X72464797Y-51196641D01*
X72646969Y-51343734D01*
X72646969Y-51343735D01*
X72851377Y-51457924D01*
X72851381Y-51457926D01*
X73072151Y-51535929D01*
X73200929Y-51558010D01*
X73302919Y-51575499D01*
X73302928Y-51575500D01*
X73478433Y-51575500D01*
X73653296Y-51560617D01*
X73653299Y-51560616D01*
X73653301Y-51560616D01*
X73879890Y-51501617D01*
X74010242Y-51442693D01*
X74093244Y-51405175D01*
X74093245Y-51405173D01*
X74093250Y-51405172D01*
X74287241Y-51274057D01*
X74456283Y-51112044D01*
X74595513Y-50923792D01*
X74700926Y-50714718D01*
X74769489Y-50490837D01*
X74799229Y-50258589D01*
X74789292Y-50024655D01*
X74739962Y-49795766D01*
X74711552Y-49725066D01*
X74679927Y-49646363D01*
X74652660Y-49578506D01*
X74581566Y-49463043D01*
X74529896Y-49379124D01*
X74375206Y-49203362D01*
X74375205Y-49203361D01*
X74375203Y-49203359D01*
X74193030Y-49056265D01*
X74193030Y-49056264D01*
X73988622Y-48942075D01*
X73767852Y-48864072D01*
X73767851Y-48864071D01*
X73767849Y-48864071D01*
X73767845Y-48864070D01*
X73767844Y-48864070D01*
X73537080Y-48824500D01*
X73537072Y-48824500D01*
X73361572Y-48824500D01*
X73361567Y-48824500D01*
X73186703Y-48839382D01*
X72960110Y-48898382D01*
X72746755Y-48994824D01*
X72746747Y-48994829D01*
X72552768Y-49125935D01*
X72552759Y-49125943D01*
X72383721Y-49287951D01*
X72244485Y-49476210D01*
X72139074Y-49685280D01*
X72070510Y-49909166D01*
X72040771Y-50141411D01*
X49794252Y-50141411D01*
X49789292Y-50024655D01*
X49739962Y-49795766D01*
X49711552Y-49725066D01*
X49679927Y-49646363D01*
X49652660Y-49578506D01*
X49581566Y-49463043D01*
X49529896Y-49379124D01*
X49375206Y-49203362D01*
X49375205Y-49203361D01*
X49375203Y-49203359D01*
X49193030Y-49056265D01*
X49193030Y-49056264D01*
X48988622Y-48942075D01*
X48767852Y-48864072D01*
X48767851Y-48864071D01*
X48767849Y-48864071D01*
X48767845Y-48864070D01*
X48767844Y-48864070D01*
X48537080Y-48824500D01*
X48537072Y-48824500D01*
X48361572Y-48824500D01*
X48361567Y-48824500D01*
X48186703Y-48839382D01*
X47960110Y-48898382D01*
X47746755Y-48994824D01*
X47746747Y-48994829D01*
X47552768Y-49125935D01*
X47552759Y-49125943D01*
X47383721Y-49287951D01*
X47244485Y-49476210D01*
X47139074Y-49685280D01*
X47070510Y-49909166D01*
X47040771Y-50141411D01*
X40000000Y-50141411D01*
X40000000Y-48420000D01*
X113254934Y-48420000D01*
X113274760Y-48646617D01*
X113274762Y-48646627D01*
X113333636Y-48866351D01*
X113333640Y-48866360D01*
X113429782Y-49072536D01*
X113480901Y-49145543D01*
X113480903Y-49145544D01*
X114037369Y-48589077D01*
X114040594Y-48604597D01*
X114109658Y-48737886D01*
X114212123Y-48847598D01*
X114340388Y-48925598D01*
X114393166Y-48940385D01*
X113834454Y-49499096D01*
X113907466Y-49550219D01*
X113907468Y-49550220D01*
X114113639Y-49646359D01*
X114113648Y-49646363D01*
X114333372Y-49705237D01*
X114333382Y-49705239D01*
X114559999Y-49725066D01*
X114560001Y-49725066D01*
X114786617Y-49705239D01*
X114786627Y-49705237D01*
X115006351Y-49646363D01*
X115006360Y-49646359D01*
X115212530Y-49550221D01*
X115285544Y-49499096D01*
X114728603Y-48942156D01*
X114846412Y-48890985D01*
X114962862Y-48796246D01*
X115049433Y-48673603D01*
X115080300Y-48586748D01*
X115639096Y-49145544D01*
X115690221Y-49072530D01*
X115786359Y-48866360D01*
X115786363Y-48866351D01*
X115845237Y-48646627D01*
X115845239Y-48646617D01*
X115865066Y-48420000D01*
X115865066Y-48419999D01*
X115845239Y-48193382D01*
X115845237Y-48193372D01*
X115786363Y-47973648D01*
X115786359Y-47973639D01*
X115690220Y-47767468D01*
X115690219Y-47767466D01*
X115639096Y-47694455D01*
X115639096Y-47694454D01*
X115082630Y-48250920D01*
X115079406Y-48235403D01*
X115010342Y-48102114D01*
X114907877Y-47992402D01*
X114779612Y-47914402D01*
X114726833Y-47899614D01*
X115285544Y-47340903D01*
X115285543Y-47340901D01*
X115212536Y-47289782D01*
X115006360Y-47193640D01*
X115006351Y-47193636D01*
X114786627Y-47134762D01*
X114786617Y-47134760D01*
X114560001Y-47114934D01*
X114559999Y-47114934D01*
X114333382Y-47134760D01*
X114333372Y-47134762D01*
X114113648Y-47193636D01*
X114113639Y-47193640D01*
X113907464Y-47289781D01*
X113834454Y-47340901D01*
X114391396Y-47897843D01*
X114273588Y-47949015D01*
X114157138Y-48043754D01*
X114070567Y-48166397D01*
X114039699Y-48253252D01*
X113480901Y-47694454D01*
X113429781Y-47767464D01*
X113333640Y-47973639D01*
X113333636Y-47973648D01*
X113274762Y-48193372D01*
X113274760Y-48193382D01*
X113254934Y-48419999D01*
X113254934Y-48420000D01*
X40000000Y-48420000D01*
X40000000Y-46000001D01*
X43544773Y-46000001D01*
X43563657Y-46264027D01*
X43563658Y-46264034D01*
X43619921Y-46522673D01*
X43712426Y-46770690D01*
X43712428Y-46770694D01*
X43839280Y-47003005D01*
X43839285Y-47003013D01*
X43997906Y-47214907D01*
X43997922Y-47214925D01*
X44185074Y-47402077D01*
X44185092Y-47402093D01*
X44396986Y-47560714D01*
X44396994Y-47560719D01*
X44629305Y-47687571D01*
X44629309Y-47687573D01*
X44629311Y-47687574D01*
X44877322Y-47780077D01*
X44877325Y-47780077D01*
X44877326Y-47780078D01*
X45072552Y-47822546D01*
X45135974Y-47836343D01*
X45379660Y-47853772D01*
X45399999Y-47855227D01*
X45400000Y-47855227D01*
X45400001Y-47855227D01*
X45418885Y-47853876D01*
X45664026Y-47836343D01*
X45922678Y-47780077D01*
X46170689Y-47687574D01*
X46403011Y-47560716D01*
X46614915Y-47402087D01*
X46802087Y-47214915D01*
X46960716Y-47003011D01*
X47087574Y-46770689D01*
X47180077Y-46522678D01*
X47236343Y-46264026D01*
X47255227Y-46000001D01*
X123544773Y-46000001D01*
X123563657Y-46264027D01*
X123563658Y-46264034D01*
X123619921Y-46522673D01*
X123712426Y-46770690D01*
X123712428Y-46770694D01*
X123839280Y-47003005D01*
X123839285Y-47003013D01*
X123997906Y-47214907D01*
X123997922Y-47214925D01*
X124185074Y-47402077D01*
X124185092Y-47402093D01*
X124396986Y-47560714D01*
X124396994Y-47560719D01*
X124629305Y-47687571D01*
X124629309Y-47687573D01*
X124629311Y-47687574D01*
X124877322Y-47780077D01*
X124877325Y-47780077D01*
X124877326Y-47780078D01*
X125072552Y-47822546D01*
X125135974Y-47836343D01*
X125379660Y-47853772D01*
X125399999Y-47855227D01*
X125400000Y-47855227D01*
X125400001Y-47855227D01*
X125418885Y-47853876D01*
X125664026Y-47836343D01*
X125922678Y-47780077D01*
X126170689Y-47687574D01*
X126403011Y-47560716D01*
X126614915Y-47402087D01*
X126802087Y-47214915D01*
X126960716Y-47003011D01*
X127087574Y-46770689D01*
X127180077Y-46522678D01*
X127236343Y-46264026D01*
X127255227Y-46000000D01*
X127236343Y-45735974D01*
X127180077Y-45477322D01*
X127087574Y-45229311D01*
X126960716Y-44996989D01*
X126901512Y-44917901D01*
X126802093Y-44785092D01*
X126802077Y-44785074D01*
X126614925Y-44597922D01*
X126614907Y-44597906D01*
X126403013Y-44439285D01*
X126403005Y-44439280D01*
X126170694Y-44312428D01*
X126170690Y-44312426D01*
X125922673Y-44219921D01*
X125664034Y-44163658D01*
X125664027Y-44163657D01*
X125400001Y-44144773D01*
X125399999Y-44144773D01*
X125135972Y-44163657D01*
X125135965Y-44163658D01*
X124877326Y-44219921D01*
X124629309Y-44312426D01*
X124629305Y-44312428D01*
X124396994Y-44439280D01*
X124396986Y-44439285D01*
X124185092Y-44597906D01*
X124185074Y-44597922D01*
X123997922Y-44785074D01*
X123997906Y-44785092D01*
X123839285Y-44996986D01*
X123839280Y-44996994D01*
X123712428Y-45229305D01*
X123712426Y-45229309D01*
X123619921Y-45477326D01*
X123563658Y-45735965D01*
X123563657Y-45735972D01*
X123544773Y-45999998D01*
X123544773Y-46000001D01*
X47255227Y-46000001D01*
X47255227Y-46000000D01*
X47236343Y-45735974D01*
X47180077Y-45477322D01*
X47087574Y-45229311D01*
X46960716Y-44996989D01*
X46901512Y-44917901D01*
X46802093Y-44785092D01*
X46802077Y-44785074D01*
X46614925Y-44597922D01*
X46614907Y-44597906D01*
X46403013Y-44439285D01*
X46403005Y-44439280D01*
X46170694Y-44312428D01*
X46170690Y-44312426D01*
X45922673Y-44219921D01*
X45664034Y-44163658D01*
X45664027Y-44163657D01*
X45400001Y-44144773D01*
X45399999Y-44144773D01*
X45135972Y-44163657D01*
X45135965Y-44163658D01*
X44877326Y-44219921D01*
X44629309Y-44312426D01*
X44629305Y-44312428D01*
X44396994Y-44439280D01*
X44396986Y-44439285D01*
X44185092Y-44597906D01*
X44185074Y-44597922D01*
X43997922Y-44785074D01*
X43997906Y-44785092D01*
X43839285Y-44996986D01*
X43839280Y-44996994D01*
X43712428Y-45229305D01*
X43712426Y-45229309D01*
X43619921Y-45477326D01*
X43563658Y-45735965D01*
X43563657Y-45735972D01*
X43544773Y-45999998D01*
X43544773Y-46000001D01*
X40000000Y-46000001D01*
X40000000Y-40124000D01*
X40019685Y-40056961D01*
X40072489Y-40011206D01*
X40124000Y-40000000D01*
X130829991Y-40000000D01*
X130897030Y-40019685D01*
G37*
%TD.AperFunction*%
%TD*%
M02*
