%TF.GenerationSoftware,KiCad,Pcbnew,7.0.8*%
%TF.CreationDate,2023-11-13T13:57:56+01:00*%
%TF.ProjectId,sdi12-esphome,73646931-322d-4657-9370-686f6d652e6b,rev?*%
%TF.SameCoordinates,Original*%
%TF.FileFunction,Soldermask,Top*%
%TF.FilePolarity,Negative*%
%FSLAX46Y46*%
G04 Gerber Fmt 4.6, Leading zero omitted, Abs format (unit mm)*
G04 Created by KiCad (PCBNEW 7.0.8) date 2023-11-13 13:57:56*
%MOMM*%
%LPD*%
G01*
G04 APERTURE LIST*
G04 Aperture macros list*
%AMRoundRect*
0 Rectangle with rounded corners*
0 $1 Rounding radius*
0 $2 $3 $4 $5 $6 $7 $8 $9 X,Y pos of 4 corners*
0 Add a 4 corners polygon primitive as box body*
4,1,4,$2,$3,$4,$5,$6,$7,$8,$9,$2,$3,0*
0 Add four circle primitives for the rounded corners*
1,1,$1+$1,$2,$3*
1,1,$1+$1,$4,$5*
1,1,$1+$1,$6,$7*
1,1,$1+$1,$8,$9*
0 Add four rect primitives between the rounded corners*
20,1,$1+$1,$2,$3,$4,$5,0*
20,1,$1+$1,$4,$5,$6,$7,0*
20,1,$1+$1,$6,$7,$8,$9,0*
20,1,$1+$1,$8,$9,$2,$3,0*%
G04 Aperture macros list end*
%ADD10C,0.010000*%
%ADD11C,2.250000*%
%ADD12R,1.350000X1.350000*%
%ADD13C,1.350000*%
%ADD14RoundRect,0.250000X-0.350000X-0.450000X0.350000X-0.450000X0.350000X0.450000X-0.350000X0.450000X0*%
%ADD15RoundRect,0.250000X0.350000X0.450000X-0.350000X0.450000X-0.350000X-0.450000X0.350000X-0.450000X0*%
%ADD16RoundRect,0.800000X-0.800000X-0.800000X0.800000X-0.800000X0.800000X0.800000X-0.800000X0.800000X0*%
%ADD17C,1.600200*%
%ADD18RoundRect,0.250000X-0.450000X0.350000X-0.450000X-0.350000X0.450000X-0.350000X0.450000X0.350000X0*%
%ADD19RoundRect,0.250000X-0.337500X-0.475000X0.337500X-0.475000X0.337500X0.475000X-0.337500X0.475000X0*%
%ADD20RoundRect,0.250000X-0.475000X0.337500X-0.475000X-0.337500X0.475000X-0.337500X0.475000X0.337500X0*%
%ADD21C,4.700000*%
%ADD22C,7.600000*%
%ADD23R,1.560000X0.650000*%
%ADD24RoundRect,0.250000X-0.325000X-0.450000X0.325000X-0.450000X0.325000X0.450000X-0.325000X0.450000X0*%
%ADD25RoundRect,0.250000X0.450000X-0.350000X0.450000X0.350000X-0.450000X0.350000X-0.450000X-0.350000X0*%
%ADD26RoundRect,0.250000X0.337500X0.475000X-0.337500X0.475000X-0.337500X-0.475000X0.337500X-0.475000X0*%
%ADD27RoundRect,0.150000X-0.587500X-0.150000X0.587500X-0.150000X0.587500X0.150000X-0.587500X0.150000X0*%
%ADD28RoundRect,0.250001X-0.849999X0.462499X-0.849999X-0.462499X0.849999X-0.462499X0.849999X0.462499X0*%
%ADD29RoundRect,0.225000X0.375000X-0.225000X0.375000X0.225000X-0.375000X0.225000X-0.375000X-0.225000X0*%
%ADD30RoundRect,0.250000X-0.600000X0.400000X-0.600000X-0.400000X0.600000X-0.400000X0.600000X0.400000X0*%
%ADD31R,0.650000X1.560000*%
G04 APERTURE END LIST*
%TO.C,LOGO1*%
D10*
X83267014Y-47792998D02*
X83425006Y-47793863D01*
X83539347Y-47796205D01*
X83617407Y-47800762D01*
X83666554Y-47808270D01*
X83694159Y-47819466D01*
X83707592Y-47835088D01*
X83714221Y-47855873D01*
X83714865Y-47858563D01*
X83724935Y-47907113D01*
X83743575Y-48002905D01*
X83768845Y-48135743D01*
X83798807Y-48295431D01*
X83831522Y-48471774D01*
X83832664Y-48477967D01*
X83865433Y-48650782D01*
X83896093Y-48803469D01*
X83922664Y-48926871D01*
X83943167Y-49011831D01*
X83955626Y-49049190D01*
X83956220Y-49049852D01*
X83992919Y-49068095D01*
X84068586Y-49098497D01*
X84166878Y-49134493D01*
X84167425Y-49134685D01*
X84291233Y-49181222D01*
X84437196Y-49240504D01*
X84574781Y-49300109D01*
X84581293Y-49303056D01*
X84805390Y-49404765D01*
X85301619Y-49065897D01*
X85453846Y-48962592D01*
X85591741Y-48870237D01*
X85707315Y-48794084D01*
X85792579Y-48739385D01*
X85839544Y-48711393D01*
X85844004Y-48709317D01*
X85878134Y-48718560D01*
X85941881Y-48763156D01*
X86037731Y-48845209D01*
X86168169Y-48966821D01*
X86301328Y-49096205D01*
X86429694Y-49223702D01*
X86544581Y-49340046D01*
X86639073Y-49438052D01*
X86706253Y-49510536D01*
X86739206Y-49550313D01*
X86740432Y-49552361D01*
X86744074Y-49579656D01*
X86730350Y-49624234D01*
X86695869Y-49692112D01*
X86637239Y-49789311D01*
X86551070Y-49921851D01*
X86436200Y-50092476D01*
X86334254Y-50242655D01*
X86243123Y-50377350D01*
X86168073Y-50488740D01*
X86114369Y-50569005D01*
X86087280Y-50610325D01*
X86085574Y-50613130D01*
X86088882Y-50652721D01*
X86113953Y-50729669D01*
X86155798Y-50829432D01*
X86170712Y-50861291D01*
X86235786Y-51003226D01*
X86305212Y-51164273D01*
X86361609Y-51303621D01*
X86402247Y-51407044D01*
X86434526Y-51485642D01*
X86453178Y-51526720D01*
X86455497Y-51529885D01*
X86489803Y-51535128D01*
X86570669Y-51549494D01*
X86687343Y-51570937D01*
X86829075Y-51597413D01*
X86985110Y-51626877D01*
X87144698Y-51657283D01*
X87297085Y-51686588D01*
X87431521Y-51712745D01*
X87537252Y-51733710D01*
X87603526Y-51747439D01*
X87619782Y-51751320D01*
X87636573Y-51760900D01*
X87649249Y-51782536D01*
X87658378Y-51823531D01*
X87664531Y-51891189D01*
X87668280Y-51992812D01*
X87670192Y-52135703D01*
X87670840Y-52327165D01*
X87670874Y-52405645D01*
X87670874Y-53043906D01*
X87517598Y-53074160D01*
X87432322Y-53090564D01*
X87305070Y-53114509D01*
X87151315Y-53143107D01*
X86986534Y-53173467D01*
X86940989Y-53181806D01*
X86788932Y-53211370D01*
X86656468Y-53240442D01*
X86554714Y-53266329D01*
X86494788Y-53286337D01*
X86484805Y-53292301D01*
X86460293Y-53334534D01*
X86425148Y-53416370D01*
X86386173Y-53521683D01*
X86378442Y-53544368D01*
X86327360Y-53685018D01*
X86263954Y-53843714D01*
X86201904Y-53986225D01*
X86201598Y-53986886D01*
X86098267Y-54210440D01*
X86777961Y-55210232D01*
X86341621Y-55647300D01*
X86209649Y-55777381D01*
X86089279Y-55892048D01*
X85987273Y-55985181D01*
X85910391Y-56050658D01*
X85865393Y-56082357D01*
X85858938Y-56084368D01*
X85821040Y-56068529D01*
X85743708Y-56024496D01*
X85635389Y-55957490D01*
X85504532Y-55872734D01*
X85363052Y-55777816D01*
X85219461Y-55680998D01*
X85091435Y-55596751D01*
X84987105Y-55530258D01*
X84914600Y-55486702D01*
X84882158Y-55471264D01*
X84842576Y-55484328D01*
X84767519Y-55518750D01*
X84672468Y-55567380D01*
X84662392Y-55572785D01*
X84534391Y-55636980D01*
X84446618Y-55668463D01*
X84392028Y-55668798D01*
X84363575Y-55639548D01*
X84363410Y-55639138D01*
X84349188Y-55604498D01*
X84315269Y-55522269D01*
X84264284Y-55398814D01*
X84198862Y-55240498D01*
X84121634Y-55053686D01*
X84035229Y-54844742D01*
X83951551Y-54642446D01*
X83859588Y-54419200D01*
X83775150Y-54212392D01*
X83700769Y-54028362D01*
X83638974Y-53873451D01*
X83592297Y-53753996D01*
X83563268Y-53676339D01*
X83554322Y-53647356D01*
X83576756Y-53614110D01*
X83635439Y-53561123D01*
X83713689Y-53502704D01*
X83936534Y-53317952D01*
X84110718Y-53106182D01*
X84234154Y-52871856D01*
X84304754Y-52619434D01*
X84320431Y-52353377D01*
X84309036Y-52230575D01*
X84246950Y-51975793D01*
X84140023Y-51750801D01*
X83994889Y-51557817D01*
X83818178Y-51399061D01*
X83616522Y-51276750D01*
X83396554Y-51193105D01*
X83164906Y-51150344D01*
X82928209Y-51150687D01*
X82693095Y-51196352D01*
X82466196Y-51289559D01*
X82254144Y-51432527D01*
X82165636Y-51513383D01*
X81995889Y-51721007D01*
X81877699Y-51947895D01*
X81810278Y-52187433D01*
X81792840Y-52433007D01*
X81824598Y-52678003D01*
X81904765Y-52915808D01*
X82032555Y-53139807D01*
X82207180Y-53343387D01*
X82402312Y-53502704D01*
X82483591Y-53563602D01*
X82541009Y-53616015D01*
X82561678Y-53647406D01*
X82550856Y-53681639D01*
X82520077Y-53763419D01*
X82471874Y-53886407D01*
X82408778Y-54044263D01*
X82333322Y-54230649D01*
X82248038Y-54439226D01*
X82164219Y-54642496D01*
X82071745Y-54865933D01*
X81986089Y-55072984D01*
X81909882Y-55257286D01*
X81845753Y-55412475D01*
X81796332Y-55532188D01*
X81764248Y-55610061D01*
X81752359Y-55639138D01*
X81724274Y-55668677D01*
X81669949Y-55668591D01*
X81582395Y-55637326D01*
X81454619Y-55573329D01*
X81453608Y-55572785D01*
X81357402Y-55523121D01*
X81279631Y-55486945D01*
X81235777Y-55471408D01*
X81233842Y-55471264D01*
X81200829Y-55487024D01*
X81127946Y-55530850D01*
X81023322Y-55597557D01*
X80895090Y-55681964D01*
X80752948Y-55777816D01*
X80608233Y-55874867D01*
X80477804Y-55959270D01*
X80370110Y-56025801D01*
X80293598Y-56069238D01*
X80257062Y-56084368D01*
X80223418Y-56064482D01*
X80155776Y-56008903D01*
X80060893Y-55923754D01*
X79945530Y-55815153D01*
X79816445Y-55689221D01*
X79774229Y-55647149D01*
X79337739Y-55209931D01*
X79669977Y-54722340D01*
X79770946Y-54572605D01*
X79859562Y-54438220D01*
X79930854Y-54326969D01*
X79979850Y-54246639D01*
X80001578Y-54205014D01*
X80002215Y-54202053D01*
X79990760Y-54162818D01*
X79959949Y-54083895D01*
X79915116Y-53978509D01*
X79883647Y-53907954D01*
X79824808Y-53772876D01*
X79769396Y-53636409D01*
X79726436Y-53521103D01*
X79714766Y-53485977D01*
X79681611Y-53392174D01*
X79649201Y-53319694D01*
X79631399Y-53292301D01*
X79592114Y-53275536D01*
X79506374Y-53251770D01*
X79385303Y-53223697D01*
X79240027Y-53194009D01*
X79175012Y-53181806D01*
X79009913Y-53151468D01*
X78851552Y-53122093D01*
X78715404Y-53096569D01*
X78616943Y-53077785D01*
X78598402Y-53074160D01*
X78445127Y-53043906D01*
X78445127Y-52405645D01*
X78445471Y-52195770D01*
X78446884Y-52036980D01*
X78449936Y-51921973D01*
X78455197Y-51843446D01*
X78463237Y-51794096D01*
X78474627Y-51766619D01*
X78489937Y-51753713D01*
X78496218Y-51751320D01*
X78534104Y-51742833D01*
X78617805Y-51725900D01*
X78736567Y-51702566D01*
X78879639Y-51674875D01*
X79036268Y-51644873D01*
X79195703Y-51614604D01*
X79347191Y-51586115D01*
X79479981Y-51561449D01*
X79583319Y-51542651D01*
X79646455Y-51531767D01*
X79660503Y-51529885D01*
X79673230Y-51504704D01*
X79701400Y-51437622D01*
X79739748Y-51341333D01*
X79754391Y-51303621D01*
X79813452Y-51157921D01*
X79883000Y-50996951D01*
X79945288Y-50861291D01*
X79991121Y-50757561D01*
X80021613Y-50672326D01*
X80031792Y-50620126D01*
X80030169Y-50613130D01*
X80008657Y-50580102D01*
X79959535Y-50506643D01*
X79888077Y-50400577D01*
X79799555Y-50269726D01*
X79699241Y-50121912D01*
X79679406Y-50092734D01*
X79563012Y-49919863D01*
X79477452Y-49788226D01*
X79419316Y-49691761D01*
X79385192Y-49624408D01*
X79371669Y-49580106D01*
X79375336Y-49552794D01*
X79375430Y-49552620D01*
X79404293Y-49516746D01*
X79468133Y-49447391D01*
X79560031Y-49351745D01*
X79673067Y-49236999D01*
X79800321Y-49110341D01*
X79814672Y-49096205D01*
X79975043Y-48940903D01*
X80098805Y-48826870D01*
X80188445Y-48752002D01*
X80246448Y-48714196D01*
X80271996Y-48709317D01*
X80309282Y-48730603D01*
X80386657Y-48779773D01*
X80496133Y-48851575D01*
X80629720Y-48940755D01*
X80779430Y-49042063D01*
X80814382Y-49065897D01*
X81310610Y-49404765D01*
X81534707Y-49303056D01*
X81670989Y-49243783D01*
X81817276Y-49184170D01*
X81943035Y-49136640D01*
X81948575Y-49134685D01*
X82046943Y-49098677D01*
X82122771Y-49068229D01*
X82159718Y-49049905D01*
X82159780Y-49049852D01*
X82171504Y-49016729D01*
X82191432Y-48935267D01*
X82217587Y-48814625D01*
X82247990Y-48663959D01*
X82280663Y-48492428D01*
X82283336Y-48477967D01*
X82316110Y-48301235D01*
X82346198Y-48140810D01*
X82371661Y-48006888D01*
X82390559Y-47909663D01*
X82400953Y-47859332D01*
X82401135Y-47858563D01*
X82407461Y-47837153D01*
X82419761Y-47820988D01*
X82445406Y-47809331D01*
X82491765Y-47801445D01*
X82566208Y-47796593D01*
X82676105Y-47794039D01*
X82828825Y-47793045D01*
X83031738Y-47792874D01*
X83058000Y-47792874D01*
X83267014Y-47792998D01*
G36*
X83267014Y-47792998D02*
G01*
X83425006Y-47793863D01*
X83539347Y-47796205D01*
X83617407Y-47800762D01*
X83666554Y-47808270D01*
X83694159Y-47819466D01*
X83707592Y-47835088D01*
X83714221Y-47855873D01*
X83714865Y-47858563D01*
X83724935Y-47907113D01*
X83743575Y-48002905D01*
X83768845Y-48135743D01*
X83798807Y-48295431D01*
X83831522Y-48471774D01*
X83832664Y-48477967D01*
X83865433Y-48650782D01*
X83896093Y-48803469D01*
X83922664Y-48926871D01*
X83943167Y-49011831D01*
X83955626Y-49049190D01*
X83956220Y-49049852D01*
X83992919Y-49068095D01*
X84068586Y-49098497D01*
X84166878Y-49134493D01*
X84167425Y-49134685D01*
X84291233Y-49181222D01*
X84437196Y-49240504D01*
X84574781Y-49300109D01*
X84581293Y-49303056D01*
X84805390Y-49404765D01*
X85301619Y-49065897D01*
X85453846Y-48962592D01*
X85591741Y-48870237D01*
X85707315Y-48794084D01*
X85792579Y-48739385D01*
X85839544Y-48711393D01*
X85844004Y-48709317D01*
X85878134Y-48718560D01*
X85941881Y-48763156D01*
X86037731Y-48845209D01*
X86168169Y-48966821D01*
X86301328Y-49096205D01*
X86429694Y-49223702D01*
X86544581Y-49340046D01*
X86639073Y-49438052D01*
X86706253Y-49510536D01*
X86739206Y-49550313D01*
X86740432Y-49552361D01*
X86744074Y-49579656D01*
X86730350Y-49624234D01*
X86695869Y-49692112D01*
X86637239Y-49789311D01*
X86551070Y-49921851D01*
X86436200Y-50092476D01*
X86334254Y-50242655D01*
X86243123Y-50377350D01*
X86168073Y-50488740D01*
X86114369Y-50569005D01*
X86087280Y-50610325D01*
X86085574Y-50613130D01*
X86088882Y-50652721D01*
X86113953Y-50729669D01*
X86155798Y-50829432D01*
X86170712Y-50861291D01*
X86235786Y-51003226D01*
X86305212Y-51164273D01*
X86361609Y-51303621D01*
X86402247Y-51407044D01*
X86434526Y-51485642D01*
X86453178Y-51526720D01*
X86455497Y-51529885D01*
X86489803Y-51535128D01*
X86570669Y-51549494D01*
X86687343Y-51570937D01*
X86829075Y-51597413D01*
X86985110Y-51626877D01*
X87144698Y-51657283D01*
X87297085Y-51686588D01*
X87431521Y-51712745D01*
X87537252Y-51733710D01*
X87603526Y-51747439D01*
X87619782Y-51751320D01*
X87636573Y-51760900D01*
X87649249Y-51782536D01*
X87658378Y-51823531D01*
X87664531Y-51891189D01*
X87668280Y-51992812D01*
X87670192Y-52135703D01*
X87670840Y-52327165D01*
X87670874Y-52405645D01*
X87670874Y-53043906D01*
X87517598Y-53074160D01*
X87432322Y-53090564D01*
X87305070Y-53114509D01*
X87151315Y-53143107D01*
X86986534Y-53173467D01*
X86940989Y-53181806D01*
X86788932Y-53211370D01*
X86656468Y-53240442D01*
X86554714Y-53266329D01*
X86494788Y-53286337D01*
X86484805Y-53292301D01*
X86460293Y-53334534D01*
X86425148Y-53416370D01*
X86386173Y-53521683D01*
X86378442Y-53544368D01*
X86327360Y-53685018D01*
X86263954Y-53843714D01*
X86201904Y-53986225D01*
X86201598Y-53986886D01*
X86098267Y-54210440D01*
X86777961Y-55210232D01*
X86341621Y-55647300D01*
X86209649Y-55777381D01*
X86089279Y-55892048D01*
X85987273Y-55985181D01*
X85910391Y-56050658D01*
X85865393Y-56082357D01*
X85858938Y-56084368D01*
X85821040Y-56068529D01*
X85743708Y-56024496D01*
X85635389Y-55957490D01*
X85504532Y-55872734D01*
X85363052Y-55777816D01*
X85219461Y-55680998D01*
X85091435Y-55596751D01*
X84987105Y-55530258D01*
X84914600Y-55486702D01*
X84882158Y-55471264D01*
X84842576Y-55484328D01*
X84767519Y-55518750D01*
X84672468Y-55567380D01*
X84662392Y-55572785D01*
X84534391Y-55636980D01*
X84446618Y-55668463D01*
X84392028Y-55668798D01*
X84363575Y-55639548D01*
X84363410Y-55639138D01*
X84349188Y-55604498D01*
X84315269Y-55522269D01*
X84264284Y-55398814D01*
X84198862Y-55240498D01*
X84121634Y-55053686D01*
X84035229Y-54844742D01*
X83951551Y-54642446D01*
X83859588Y-54419200D01*
X83775150Y-54212392D01*
X83700769Y-54028362D01*
X83638974Y-53873451D01*
X83592297Y-53753996D01*
X83563268Y-53676339D01*
X83554322Y-53647356D01*
X83576756Y-53614110D01*
X83635439Y-53561123D01*
X83713689Y-53502704D01*
X83936534Y-53317952D01*
X84110718Y-53106182D01*
X84234154Y-52871856D01*
X84304754Y-52619434D01*
X84320431Y-52353377D01*
X84309036Y-52230575D01*
X84246950Y-51975793D01*
X84140023Y-51750801D01*
X83994889Y-51557817D01*
X83818178Y-51399061D01*
X83616522Y-51276750D01*
X83396554Y-51193105D01*
X83164906Y-51150344D01*
X82928209Y-51150687D01*
X82693095Y-51196352D01*
X82466196Y-51289559D01*
X82254144Y-51432527D01*
X82165636Y-51513383D01*
X81995889Y-51721007D01*
X81877699Y-51947895D01*
X81810278Y-52187433D01*
X81792840Y-52433007D01*
X81824598Y-52678003D01*
X81904765Y-52915808D01*
X82032555Y-53139807D01*
X82207180Y-53343387D01*
X82402312Y-53502704D01*
X82483591Y-53563602D01*
X82541009Y-53616015D01*
X82561678Y-53647406D01*
X82550856Y-53681639D01*
X82520077Y-53763419D01*
X82471874Y-53886407D01*
X82408778Y-54044263D01*
X82333322Y-54230649D01*
X82248038Y-54439226D01*
X82164219Y-54642496D01*
X82071745Y-54865933D01*
X81986089Y-55072984D01*
X81909882Y-55257286D01*
X81845753Y-55412475D01*
X81796332Y-55532188D01*
X81764248Y-55610061D01*
X81752359Y-55639138D01*
X81724274Y-55668677D01*
X81669949Y-55668591D01*
X81582395Y-55637326D01*
X81454619Y-55573329D01*
X81453608Y-55572785D01*
X81357402Y-55523121D01*
X81279631Y-55486945D01*
X81235777Y-55471408D01*
X81233842Y-55471264D01*
X81200829Y-55487024D01*
X81127946Y-55530850D01*
X81023322Y-55597557D01*
X80895090Y-55681964D01*
X80752948Y-55777816D01*
X80608233Y-55874867D01*
X80477804Y-55959270D01*
X80370110Y-56025801D01*
X80293598Y-56069238D01*
X80257062Y-56084368D01*
X80223418Y-56064482D01*
X80155776Y-56008903D01*
X80060893Y-55923754D01*
X79945530Y-55815153D01*
X79816445Y-55689221D01*
X79774229Y-55647149D01*
X79337739Y-55209931D01*
X79669977Y-54722340D01*
X79770946Y-54572605D01*
X79859562Y-54438220D01*
X79930854Y-54326969D01*
X79979850Y-54246639D01*
X80001578Y-54205014D01*
X80002215Y-54202053D01*
X79990760Y-54162818D01*
X79959949Y-54083895D01*
X79915116Y-53978509D01*
X79883647Y-53907954D01*
X79824808Y-53772876D01*
X79769396Y-53636409D01*
X79726436Y-53521103D01*
X79714766Y-53485977D01*
X79681611Y-53392174D01*
X79649201Y-53319694D01*
X79631399Y-53292301D01*
X79592114Y-53275536D01*
X79506374Y-53251770D01*
X79385303Y-53223697D01*
X79240027Y-53194009D01*
X79175012Y-53181806D01*
X79009913Y-53151468D01*
X78851552Y-53122093D01*
X78715404Y-53096569D01*
X78616943Y-53077785D01*
X78598402Y-53074160D01*
X78445127Y-53043906D01*
X78445127Y-52405645D01*
X78445471Y-52195770D01*
X78446884Y-52036980D01*
X78449936Y-51921973D01*
X78455197Y-51843446D01*
X78463237Y-51794096D01*
X78474627Y-51766619D01*
X78489937Y-51753713D01*
X78496218Y-51751320D01*
X78534104Y-51742833D01*
X78617805Y-51725900D01*
X78736567Y-51702566D01*
X78879639Y-51674875D01*
X79036268Y-51644873D01*
X79195703Y-51614604D01*
X79347191Y-51586115D01*
X79479981Y-51561449D01*
X79583319Y-51542651D01*
X79646455Y-51531767D01*
X79660503Y-51529885D01*
X79673230Y-51504704D01*
X79701400Y-51437622D01*
X79739748Y-51341333D01*
X79754391Y-51303621D01*
X79813452Y-51157921D01*
X79883000Y-50996951D01*
X79945288Y-50861291D01*
X79991121Y-50757561D01*
X80021613Y-50672326D01*
X80031792Y-50620126D01*
X80030169Y-50613130D01*
X80008657Y-50580102D01*
X79959535Y-50506643D01*
X79888077Y-50400577D01*
X79799555Y-50269726D01*
X79699241Y-50121912D01*
X79679406Y-50092734D01*
X79563012Y-49919863D01*
X79477452Y-49788226D01*
X79419316Y-49691761D01*
X79385192Y-49624408D01*
X79371669Y-49580106D01*
X79375336Y-49552794D01*
X79375430Y-49552620D01*
X79404293Y-49516746D01*
X79468133Y-49447391D01*
X79560031Y-49351745D01*
X79673067Y-49236999D01*
X79800321Y-49110341D01*
X79814672Y-49096205D01*
X79975043Y-48940903D01*
X80098805Y-48826870D01*
X80188445Y-48752002D01*
X80246448Y-48714196D01*
X80271996Y-48709317D01*
X80309282Y-48730603D01*
X80386657Y-48779773D01*
X80496133Y-48851575D01*
X80629720Y-48940755D01*
X80779430Y-49042063D01*
X80814382Y-49065897D01*
X81310610Y-49404765D01*
X81534707Y-49303056D01*
X81670989Y-49243783D01*
X81817276Y-49184170D01*
X81943035Y-49136640D01*
X81948575Y-49134685D01*
X82046943Y-49098677D01*
X82122771Y-49068229D01*
X82159718Y-49049905D01*
X82159780Y-49049852D01*
X82171504Y-49016729D01*
X82191432Y-48935267D01*
X82217587Y-48814625D01*
X82247990Y-48663959D01*
X82280663Y-48492428D01*
X82283336Y-48477967D01*
X82316110Y-48301235D01*
X82346198Y-48140810D01*
X82371661Y-48006888D01*
X82390559Y-47909663D01*
X82400953Y-47859332D01*
X82401135Y-47858563D01*
X82407461Y-47837153D01*
X82419761Y-47820988D01*
X82445406Y-47809331D01*
X82491765Y-47801445D01*
X82566208Y-47796593D01*
X82676105Y-47794039D01*
X82828825Y-47793045D01*
X83031738Y-47792874D01*
X83058000Y-47792874D01*
X83267014Y-47792998D01*
G37*
%TD*%
D11*
%TO.C,U1*%
X73420000Y-102200000D03*
X73420000Y-50200000D03*
X48420000Y-102200000D03*
X48420000Y-50200000D03*
D12*
X47920000Y-99060000D03*
D13*
X47920000Y-96520000D03*
X47920000Y-93980000D03*
X47920000Y-91440000D03*
X47920000Y-88900000D03*
X47920000Y-86360000D03*
X47920000Y-83820000D03*
X47920000Y-81280000D03*
X47920000Y-78740000D03*
X47920000Y-76200000D03*
X47920000Y-73660000D03*
X47920000Y-71120000D03*
X47920000Y-68580000D03*
X47920000Y-66040000D03*
X47920000Y-63500000D03*
X47920000Y-60960000D03*
X47920000Y-58420000D03*
X47920000Y-55880000D03*
X47920000Y-53340000D03*
D12*
X73920000Y-53340000D03*
D13*
X73920000Y-55880000D03*
X73920000Y-58420000D03*
X73920000Y-60960000D03*
X73920000Y-63500000D03*
X73920000Y-66040000D03*
X73920000Y-68580000D03*
X73920000Y-71120000D03*
X73920000Y-73660000D03*
X73920000Y-76200000D03*
X73920000Y-78740000D03*
X73920000Y-81280000D03*
X73920000Y-83820000D03*
X73920000Y-86360000D03*
X73920000Y-88900000D03*
X73920000Y-91440000D03*
X73920000Y-93980000D03*
X73920000Y-96520000D03*
X73920000Y-99060000D03*
%TD*%
D14*
%TO.C,R3*%
X96343000Y-79822000D03*
X98343000Y-79822000D03*
%TD*%
D15*
%TO.C,R6*%
X99282000Y-64676000D03*
X97282000Y-64676000D03*
%TD*%
D16*
%TO.C,GD1*%
X92970000Y-99060000D03*
X105670000Y-99060000D03*
%TD*%
D17*
%TO.C,J1*%
X114560000Y-58420000D03*
X114560000Y-53420000D03*
X114560000Y-48420000D03*
%TD*%
D18*
%TO.C,R1*%
X97282000Y-84836000D03*
X97282000Y-86836000D03*
%TD*%
D17*
%TO.C,J4*%
X114560000Y-103980000D03*
X114560000Y-98980000D03*
X114560000Y-93980000D03*
%TD*%
%TO.C,J6*%
X107108000Y-52070000D03*
X102108000Y-52070000D03*
%TD*%
D14*
%TO.C,R2*%
X105394000Y-79822000D03*
X107394000Y-79822000D03*
%TD*%
D19*
%TO.C,C2*%
X81734500Y-74488000D03*
X83809500Y-74488000D03*
%TD*%
D20*
%TO.C,C3*%
X88106000Y-63500000D03*
X88106000Y-65575000D03*
%TD*%
D21*
%TO.C,J0*%
X85050000Y-99060000D03*
D22*
X85050000Y-99060000D03*
%TD*%
D14*
%TO.C,R8*%
X97282000Y-68580000D03*
X99282000Y-68580000D03*
%TD*%
D15*
%TO.C,R7*%
X104362000Y-64683500D03*
X102362000Y-64683500D03*
%TD*%
D17*
%TO.C,J3*%
X114560000Y-88740000D03*
X114560000Y-83740000D03*
X114560000Y-78740000D03*
%TD*%
D23*
%TO.C,U2*%
X81596000Y-78938000D03*
X81596000Y-79888000D03*
X81596000Y-80838000D03*
X84296000Y-80838000D03*
X84296000Y-78938000D03*
%TD*%
D14*
%TO.C,R9*%
X97266000Y-60772000D03*
X99266000Y-60772000D03*
%TD*%
D24*
%TO.C,D3*%
X102337000Y-60772000D03*
X104387000Y-60772000D03*
%TD*%
D25*
%TO.C,R5*%
X78486000Y-88376000D03*
X78486000Y-86376000D03*
%TD*%
D26*
%TO.C,C4*%
X104415500Y-68580000D03*
X102340500Y-68580000D03*
%TD*%
D27*
%TO.C,Q1*%
X90549000Y-78938000D03*
X90549000Y-80838000D03*
X92424000Y-79888000D03*
%TD*%
D28*
%TO.C,L1*%
X84296000Y-63500000D03*
X84296000Y-65825000D03*
%TD*%
D20*
%TO.C,C1*%
X101092000Y-84814500D03*
X101092000Y-86889500D03*
%TD*%
D17*
%TO.C,J2*%
X114560000Y-73580000D03*
X114560000Y-68580000D03*
X114560000Y-63580000D03*
%TD*%
%TO.C,J5*%
X96868000Y-52070000D03*
X91868000Y-52070000D03*
%TD*%
D25*
%TO.C,R4*%
X82042000Y-88392000D03*
X82042000Y-86392000D03*
%TD*%
D29*
%TO.C,D2*%
X89662000Y-71880000D03*
X89662000Y-68580000D03*
%TD*%
D30*
%TO.C,D1*%
X105410000Y-84356000D03*
X105410000Y-87856000D03*
%TD*%
D31*
%TO.C,U3*%
X91662000Y-66252500D03*
X92612000Y-66252500D03*
X93562000Y-66252500D03*
X93562000Y-63552500D03*
X91662000Y-63552500D03*
%TD*%
M02*
