%TF.GenerationSoftware,KiCad,Pcbnew,7.0.8*%
%TF.CreationDate,2023-11-13T13:57:56+01:00*%
%TF.ProjectId,sdi12-esphome,73646931-322d-4657-9370-686f6d652e6b,rev?*%
%TF.SameCoordinates,Original*%
%TF.FileFunction,Paste,Top*%
%TF.FilePolarity,Positive*%
%FSLAX46Y46*%
G04 Gerber Fmt 4.6, Leading zero omitted, Abs format (unit mm)*
G04 Created by KiCad (PCBNEW 7.0.8) date 2023-11-13 13:57:56*
%MOMM*%
%LPD*%
G01*
G04 APERTURE LIST*
G04 Aperture macros list*
%AMRoundRect*
0 Rectangle with rounded corners*
0 $1 Rounding radius*
0 $2 $3 $4 $5 $6 $7 $8 $9 X,Y pos of 4 corners*
0 Add a 4 corners polygon primitive as box body*
4,1,4,$2,$3,$4,$5,$6,$7,$8,$9,$2,$3,0*
0 Add four circle primitives for the rounded corners*
1,1,$1+$1,$2,$3*
1,1,$1+$1,$4,$5*
1,1,$1+$1,$6,$7*
1,1,$1+$1,$8,$9*
0 Add four rect primitives between the rounded corners*
20,1,$1+$1,$2,$3,$4,$5,0*
20,1,$1+$1,$4,$5,$6,$7,0*
20,1,$1+$1,$6,$7,$8,$9,0*
20,1,$1+$1,$8,$9,$2,$3,0*%
G04 Aperture macros list end*
%ADD10RoundRect,0.250000X-0.350000X-0.450000X0.350000X-0.450000X0.350000X0.450000X-0.350000X0.450000X0*%
%ADD11RoundRect,0.250000X0.350000X0.450000X-0.350000X0.450000X-0.350000X-0.450000X0.350000X-0.450000X0*%
%ADD12RoundRect,0.250000X-0.450000X0.350000X-0.450000X-0.350000X0.450000X-0.350000X0.450000X0.350000X0*%
%ADD13RoundRect,0.250000X-0.337500X-0.475000X0.337500X-0.475000X0.337500X0.475000X-0.337500X0.475000X0*%
%ADD14RoundRect,0.250000X-0.475000X0.337500X-0.475000X-0.337500X0.475000X-0.337500X0.475000X0.337500X0*%
%ADD15R,1.560000X0.650000*%
%ADD16RoundRect,0.250000X-0.325000X-0.450000X0.325000X-0.450000X0.325000X0.450000X-0.325000X0.450000X0*%
%ADD17RoundRect,0.250000X0.450000X-0.350000X0.450000X0.350000X-0.450000X0.350000X-0.450000X-0.350000X0*%
%ADD18RoundRect,0.250000X0.337500X0.475000X-0.337500X0.475000X-0.337500X-0.475000X0.337500X-0.475000X0*%
%ADD19RoundRect,0.150000X-0.587500X-0.150000X0.587500X-0.150000X0.587500X0.150000X-0.587500X0.150000X0*%
%ADD20RoundRect,0.250001X-0.849999X0.462499X-0.849999X-0.462499X0.849999X-0.462499X0.849999X0.462499X0*%
%ADD21RoundRect,0.225000X0.375000X-0.225000X0.375000X0.225000X-0.375000X0.225000X-0.375000X-0.225000X0*%
%ADD22RoundRect,0.250000X-0.600000X0.400000X-0.600000X-0.400000X0.600000X-0.400000X0.600000X0.400000X0*%
%ADD23R,0.650000X1.560000*%
G04 APERTURE END LIST*
D10*
%TO.C,R3*%
X96343000Y-79822000D03*
X98343000Y-79822000D03*
%TD*%
D11*
%TO.C,R6*%
X99282000Y-64676000D03*
X97282000Y-64676000D03*
%TD*%
D12*
%TO.C,R1*%
X97282000Y-84836000D03*
X97282000Y-86836000D03*
%TD*%
D10*
%TO.C,R2*%
X105394000Y-79822000D03*
X107394000Y-79822000D03*
%TD*%
D13*
%TO.C,C2*%
X81734500Y-74488000D03*
X83809500Y-74488000D03*
%TD*%
D14*
%TO.C,C3*%
X88106000Y-63500000D03*
X88106000Y-65575000D03*
%TD*%
D10*
%TO.C,R8*%
X97282000Y-68580000D03*
X99282000Y-68580000D03*
%TD*%
D11*
%TO.C,R7*%
X104362000Y-64683500D03*
X102362000Y-64683500D03*
%TD*%
D15*
%TO.C,U2*%
X81596000Y-78938000D03*
X81596000Y-79888000D03*
X81596000Y-80838000D03*
X84296000Y-80838000D03*
X84296000Y-78938000D03*
%TD*%
D10*
%TO.C,R9*%
X97266000Y-60772000D03*
X99266000Y-60772000D03*
%TD*%
D16*
%TO.C,D3*%
X102337000Y-60772000D03*
X104387000Y-60772000D03*
%TD*%
D17*
%TO.C,R5*%
X78486000Y-88376000D03*
X78486000Y-86376000D03*
%TD*%
D18*
%TO.C,C4*%
X104415500Y-68580000D03*
X102340500Y-68580000D03*
%TD*%
D19*
%TO.C,Q1*%
X90549000Y-78938000D03*
X90549000Y-80838000D03*
X92424000Y-79888000D03*
%TD*%
D20*
%TO.C,L1*%
X84296000Y-63500000D03*
X84296000Y-65825000D03*
%TD*%
D14*
%TO.C,C1*%
X101092000Y-84814500D03*
X101092000Y-86889500D03*
%TD*%
D17*
%TO.C,R4*%
X82042000Y-88392000D03*
X82042000Y-86392000D03*
%TD*%
D21*
%TO.C,D2*%
X89662000Y-71880000D03*
X89662000Y-68580000D03*
%TD*%
D22*
%TO.C,D1*%
X105410000Y-84356000D03*
X105410000Y-87856000D03*
%TD*%
D23*
%TO.C,U3*%
X91662000Y-66252500D03*
X92612000Y-66252500D03*
X93562000Y-66252500D03*
X93562000Y-63552500D03*
X91662000Y-63552500D03*
%TD*%
M02*
