%TF.GenerationSoftware,KiCad,Pcbnew,7.0.8*%
%TF.CreationDate,2023-11-13T13:57:56+01:00*%
%TF.ProjectId,sdi12-esphome,73646931-322d-4657-9370-686f6d652e6b,rev?*%
%TF.SameCoordinates,Original*%
%TF.FileFunction,Legend,Top*%
%TF.FilePolarity,Positive*%
%FSLAX46Y46*%
G04 Gerber Fmt 4.6, Leading zero omitted, Abs format (unit mm)*
G04 Created by KiCad (PCBNEW 7.0.8) date 2023-11-13 13:57:56*
%MOMM*%
%LPD*%
G01*
G04 APERTURE LIST*
%ADD10C,0.150000*%
%ADD11C,0.127000*%
%ADD12C,0.120000*%
%ADD13C,0.152400*%
%ADD14C,0.010000*%
G04 APERTURE END LIST*
D10*
X103560666Y-43217819D02*
X103227333Y-42741628D01*
X102989238Y-43217819D02*
X102989238Y-42217819D01*
X102989238Y-42217819D02*
X103370190Y-42217819D01*
X103370190Y-42217819D02*
X103465428Y-42265438D01*
X103465428Y-42265438D02*
X103513047Y-42313057D01*
X103513047Y-42313057D02*
X103560666Y-42408295D01*
X103560666Y-42408295D02*
X103560666Y-42551152D01*
X103560666Y-42551152D02*
X103513047Y-42646390D01*
X103513047Y-42646390D02*
X103465428Y-42694009D01*
X103465428Y-42694009D02*
X103370190Y-42741628D01*
X103370190Y-42741628D02*
X102989238Y-42741628D01*
X104417809Y-43217819D02*
X104417809Y-42694009D01*
X104417809Y-42694009D02*
X104370190Y-42598771D01*
X104370190Y-42598771D02*
X104274952Y-42551152D01*
X104274952Y-42551152D02*
X104084476Y-42551152D01*
X104084476Y-42551152D02*
X103989238Y-42598771D01*
X104417809Y-43170200D02*
X104322571Y-43217819D01*
X104322571Y-43217819D02*
X104084476Y-43217819D01*
X104084476Y-43217819D02*
X103989238Y-43170200D01*
X103989238Y-43170200D02*
X103941619Y-43074961D01*
X103941619Y-43074961D02*
X103941619Y-42979723D01*
X103941619Y-42979723D02*
X103989238Y-42884485D01*
X103989238Y-42884485D02*
X104084476Y-42836866D01*
X104084476Y-42836866D02*
X104322571Y-42836866D01*
X104322571Y-42836866D02*
X104417809Y-42789247D01*
X104894000Y-43217819D02*
X104894000Y-42551152D01*
X104894000Y-42217819D02*
X104846381Y-42265438D01*
X104846381Y-42265438D02*
X104894000Y-42313057D01*
X104894000Y-42313057D02*
X104941619Y-42265438D01*
X104941619Y-42265438D02*
X104894000Y-42217819D01*
X104894000Y-42217819D02*
X104894000Y-42313057D01*
X105370190Y-42551152D02*
X105370190Y-43217819D01*
X105370190Y-42646390D02*
X105417809Y-42598771D01*
X105417809Y-42598771D02*
X105513047Y-42551152D01*
X105513047Y-42551152D02*
X105655904Y-42551152D01*
X105655904Y-42551152D02*
X105751142Y-42598771D01*
X105751142Y-42598771D02*
X105798761Y-42694009D01*
X105798761Y-42694009D02*
X105798761Y-43217819D01*
X102870190Y-43875438D02*
X102774952Y-43827819D01*
X102774952Y-43827819D02*
X102632095Y-43827819D01*
X102632095Y-43827819D02*
X102489238Y-43875438D01*
X102489238Y-43875438D02*
X102394000Y-43970676D01*
X102394000Y-43970676D02*
X102346381Y-44065914D01*
X102346381Y-44065914D02*
X102298762Y-44256390D01*
X102298762Y-44256390D02*
X102298762Y-44399247D01*
X102298762Y-44399247D02*
X102346381Y-44589723D01*
X102346381Y-44589723D02*
X102394000Y-44684961D01*
X102394000Y-44684961D02*
X102489238Y-44780200D01*
X102489238Y-44780200D02*
X102632095Y-44827819D01*
X102632095Y-44827819D02*
X102727333Y-44827819D01*
X102727333Y-44827819D02*
X102870190Y-44780200D01*
X102870190Y-44780200D02*
X102917809Y-44732580D01*
X102917809Y-44732580D02*
X102917809Y-44399247D01*
X102917809Y-44399247D02*
X102727333Y-44399247D01*
X103774952Y-44827819D02*
X103774952Y-44304009D01*
X103774952Y-44304009D02*
X103727333Y-44208771D01*
X103727333Y-44208771D02*
X103632095Y-44161152D01*
X103632095Y-44161152D02*
X103441619Y-44161152D01*
X103441619Y-44161152D02*
X103346381Y-44208771D01*
X103774952Y-44780200D02*
X103679714Y-44827819D01*
X103679714Y-44827819D02*
X103441619Y-44827819D01*
X103441619Y-44827819D02*
X103346381Y-44780200D01*
X103346381Y-44780200D02*
X103298762Y-44684961D01*
X103298762Y-44684961D02*
X103298762Y-44589723D01*
X103298762Y-44589723D02*
X103346381Y-44494485D01*
X103346381Y-44494485D02*
X103441619Y-44446866D01*
X103441619Y-44446866D02*
X103679714Y-44446866D01*
X103679714Y-44446866D02*
X103774952Y-44399247D01*
X104679714Y-44161152D02*
X104679714Y-44827819D01*
X104251143Y-44161152D02*
X104251143Y-44684961D01*
X104251143Y-44684961D02*
X104298762Y-44780200D01*
X104298762Y-44780200D02*
X104394000Y-44827819D01*
X104394000Y-44827819D02*
X104536857Y-44827819D01*
X104536857Y-44827819D02*
X104632095Y-44780200D01*
X104632095Y-44780200D02*
X104679714Y-44732580D01*
X105584476Y-44161152D02*
X105584476Y-44970676D01*
X105584476Y-44970676D02*
X105536857Y-45065914D01*
X105536857Y-45065914D02*
X105489238Y-45113533D01*
X105489238Y-45113533D02*
X105394000Y-45161152D01*
X105394000Y-45161152D02*
X105251143Y-45161152D01*
X105251143Y-45161152D02*
X105155905Y-45113533D01*
X105584476Y-44780200D02*
X105489238Y-44827819D01*
X105489238Y-44827819D02*
X105298762Y-44827819D01*
X105298762Y-44827819D02*
X105203524Y-44780200D01*
X105203524Y-44780200D02*
X105155905Y-44732580D01*
X105155905Y-44732580D02*
X105108286Y-44637342D01*
X105108286Y-44637342D02*
X105108286Y-44351628D01*
X105108286Y-44351628D02*
X105155905Y-44256390D01*
X105155905Y-44256390D02*
X105203524Y-44208771D01*
X105203524Y-44208771D02*
X105298762Y-44161152D01*
X105298762Y-44161152D02*
X105489238Y-44161152D01*
X105489238Y-44161152D02*
X105584476Y-44208771D01*
X106441619Y-44780200D02*
X106346381Y-44827819D01*
X106346381Y-44827819D02*
X106155905Y-44827819D01*
X106155905Y-44827819D02*
X106060667Y-44780200D01*
X106060667Y-44780200D02*
X106013048Y-44684961D01*
X106013048Y-44684961D02*
X106013048Y-44304009D01*
X106013048Y-44304009D02*
X106060667Y-44208771D01*
X106060667Y-44208771D02*
X106155905Y-44161152D01*
X106155905Y-44161152D02*
X106346381Y-44161152D01*
X106346381Y-44161152D02*
X106441619Y-44208771D01*
X106441619Y-44208771D02*
X106489238Y-44304009D01*
X106489238Y-44304009D02*
X106489238Y-44399247D01*
X106489238Y-44399247D02*
X106013048Y-44494485D01*
X52455826Y-110686128D02*
X52455826Y-109186128D01*
X53098684Y-110686128D02*
X53098684Y-109900414D01*
X53098684Y-109900414D02*
X53027255Y-109757557D01*
X53027255Y-109757557D02*
X52884398Y-109686128D01*
X52884398Y-109686128D02*
X52670112Y-109686128D01*
X52670112Y-109686128D02*
X52527255Y-109757557D01*
X52527255Y-109757557D02*
X52455826Y-109828985D01*
X53598684Y-109686128D02*
X54170112Y-109686128D01*
X53812969Y-109186128D02*
X53812969Y-110471842D01*
X53812969Y-110471842D02*
X53884398Y-110614700D01*
X53884398Y-110614700D02*
X54027255Y-110686128D01*
X54027255Y-110686128D02*
X54170112Y-110686128D01*
X54455827Y-109686128D02*
X55027255Y-109686128D01*
X54670112Y-109186128D02*
X54670112Y-110471842D01*
X54670112Y-110471842D02*
X54741541Y-110614700D01*
X54741541Y-110614700D02*
X54884398Y-110686128D01*
X54884398Y-110686128D02*
X55027255Y-110686128D01*
X55527255Y-109686128D02*
X55527255Y-111186128D01*
X55527255Y-109757557D02*
X55670113Y-109686128D01*
X55670113Y-109686128D02*
X55955827Y-109686128D01*
X55955827Y-109686128D02*
X56098684Y-109757557D01*
X56098684Y-109757557D02*
X56170113Y-109828985D01*
X56170113Y-109828985D02*
X56241541Y-109971842D01*
X56241541Y-109971842D02*
X56241541Y-110400414D01*
X56241541Y-110400414D02*
X56170113Y-110543271D01*
X56170113Y-110543271D02*
X56098684Y-110614700D01*
X56098684Y-110614700D02*
X55955827Y-110686128D01*
X55955827Y-110686128D02*
X55670113Y-110686128D01*
X55670113Y-110686128D02*
X55527255Y-110614700D01*
X56884398Y-110543271D02*
X56955827Y-110614700D01*
X56955827Y-110614700D02*
X56884398Y-110686128D01*
X56884398Y-110686128D02*
X56812970Y-110614700D01*
X56812970Y-110614700D02*
X56884398Y-110543271D01*
X56884398Y-110543271D02*
X56884398Y-110686128D01*
X56884398Y-109757557D02*
X56955827Y-109828985D01*
X56955827Y-109828985D02*
X56884398Y-109900414D01*
X56884398Y-109900414D02*
X56812970Y-109828985D01*
X56812970Y-109828985D02*
X56884398Y-109757557D01*
X56884398Y-109757557D02*
X56884398Y-109900414D01*
X58670113Y-109114700D02*
X57384399Y-111043271D01*
X60241542Y-109114700D02*
X58955828Y-111043271D01*
X61384400Y-109686128D02*
X61384400Y-110900414D01*
X61384400Y-110900414D02*
X61312971Y-111043271D01*
X61312971Y-111043271D02*
X61241542Y-111114700D01*
X61241542Y-111114700D02*
X61098685Y-111186128D01*
X61098685Y-111186128D02*
X60884400Y-111186128D01*
X60884400Y-111186128D02*
X60741542Y-111114700D01*
X61384400Y-110614700D02*
X61241542Y-110686128D01*
X61241542Y-110686128D02*
X60955828Y-110686128D01*
X60955828Y-110686128D02*
X60812971Y-110614700D01*
X60812971Y-110614700D02*
X60741542Y-110543271D01*
X60741542Y-110543271D02*
X60670114Y-110400414D01*
X60670114Y-110400414D02*
X60670114Y-109971842D01*
X60670114Y-109971842D02*
X60741542Y-109828985D01*
X60741542Y-109828985D02*
X60812971Y-109757557D01*
X60812971Y-109757557D02*
X60955828Y-109686128D01*
X60955828Y-109686128D02*
X61241542Y-109686128D01*
X61241542Y-109686128D02*
X61384400Y-109757557D01*
X62098685Y-110686128D02*
X62098685Y-109686128D01*
X62098685Y-109186128D02*
X62027257Y-109257557D01*
X62027257Y-109257557D02*
X62098685Y-109328985D01*
X62098685Y-109328985D02*
X62170114Y-109257557D01*
X62170114Y-109257557D02*
X62098685Y-109186128D01*
X62098685Y-109186128D02*
X62098685Y-109328985D01*
X62598686Y-109686128D02*
X63170114Y-109686128D01*
X62812971Y-109186128D02*
X62812971Y-110471842D01*
X62812971Y-110471842D02*
X62884400Y-110614700D01*
X62884400Y-110614700D02*
X63027257Y-110686128D01*
X63027257Y-110686128D02*
X63170114Y-110686128D01*
X63670114Y-110543271D02*
X63741543Y-110614700D01*
X63741543Y-110614700D02*
X63670114Y-110686128D01*
X63670114Y-110686128D02*
X63598686Y-110614700D01*
X63598686Y-110614700D02*
X63670114Y-110543271D01*
X63670114Y-110543271D02*
X63670114Y-110686128D01*
X64170115Y-109686128D02*
X64741543Y-109686128D01*
X64384400Y-110686128D02*
X64384400Y-109400414D01*
X64384400Y-109400414D02*
X64455829Y-109257557D01*
X64455829Y-109257557D02*
X64598686Y-109186128D01*
X64598686Y-109186128D02*
X64741543Y-109186128D01*
X65241543Y-110686128D02*
X65241543Y-109686128D01*
X65241543Y-109971842D02*
X65312972Y-109828985D01*
X65312972Y-109828985D02*
X65384401Y-109757557D01*
X65384401Y-109757557D02*
X65527258Y-109686128D01*
X65527258Y-109686128D02*
X65670115Y-109686128D01*
X66812972Y-110686128D02*
X66812972Y-109900414D01*
X66812972Y-109900414D02*
X66741543Y-109757557D01*
X66741543Y-109757557D02*
X66598686Y-109686128D01*
X66598686Y-109686128D02*
X66312972Y-109686128D01*
X66312972Y-109686128D02*
X66170114Y-109757557D01*
X66812972Y-110614700D02*
X66670114Y-110686128D01*
X66670114Y-110686128D02*
X66312972Y-110686128D01*
X66312972Y-110686128D02*
X66170114Y-110614700D01*
X66170114Y-110614700D02*
X66098686Y-110471842D01*
X66098686Y-110471842D02*
X66098686Y-110328985D01*
X66098686Y-110328985D02*
X66170114Y-110186128D01*
X66170114Y-110186128D02*
X66312972Y-110114700D01*
X66312972Y-110114700D02*
X66670114Y-110114700D01*
X66670114Y-110114700D02*
X66812972Y-110043271D01*
X67384400Y-110686128D02*
X68170115Y-109686128D01*
X67384400Y-109686128D02*
X68170115Y-110686128D01*
X68741543Y-110686128D02*
X68741543Y-109686128D01*
X68741543Y-109186128D02*
X68670115Y-109257557D01*
X68670115Y-109257557D02*
X68741543Y-109328985D01*
X68741543Y-109328985D02*
X68812972Y-109257557D01*
X68812972Y-109257557D02*
X68741543Y-109186128D01*
X68741543Y-109186128D02*
X68741543Y-109328985D01*
X69455829Y-109686128D02*
X69455829Y-110686128D01*
X69455829Y-109828985D02*
X69527258Y-109757557D01*
X69527258Y-109757557D02*
X69670115Y-109686128D01*
X69670115Y-109686128D02*
X69884401Y-109686128D01*
X69884401Y-109686128D02*
X70027258Y-109757557D01*
X70027258Y-109757557D02*
X70098687Y-109900414D01*
X70098687Y-109900414D02*
X70098687Y-110686128D01*
X71455830Y-110686128D02*
X71455830Y-109900414D01*
X71455830Y-109900414D02*
X71384401Y-109757557D01*
X71384401Y-109757557D02*
X71241544Y-109686128D01*
X71241544Y-109686128D02*
X70955830Y-109686128D01*
X70955830Y-109686128D02*
X70812972Y-109757557D01*
X71455830Y-110614700D02*
X71312972Y-110686128D01*
X71312972Y-110686128D02*
X70955830Y-110686128D01*
X70955830Y-110686128D02*
X70812972Y-110614700D01*
X70812972Y-110614700D02*
X70741544Y-110471842D01*
X70741544Y-110471842D02*
X70741544Y-110328985D01*
X70741544Y-110328985D02*
X70812972Y-110186128D01*
X70812972Y-110186128D02*
X70955830Y-110114700D01*
X70955830Y-110114700D02*
X71312972Y-110114700D01*
X71312972Y-110114700D02*
X71455830Y-110043271D01*
X72098687Y-110614700D02*
X72241544Y-110686128D01*
X72241544Y-110686128D02*
X72527258Y-110686128D01*
X72527258Y-110686128D02*
X72670115Y-110614700D01*
X72670115Y-110614700D02*
X72741544Y-110471842D01*
X72741544Y-110471842D02*
X72741544Y-110400414D01*
X72741544Y-110400414D02*
X72670115Y-110257557D01*
X72670115Y-110257557D02*
X72527258Y-110186128D01*
X72527258Y-110186128D02*
X72312973Y-110186128D01*
X72312973Y-110186128D02*
X72170115Y-110114700D01*
X72170115Y-110114700D02*
X72098687Y-109971842D01*
X72098687Y-109971842D02*
X72098687Y-109900414D01*
X72098687Y-109900414D02*
X72170115Y-109757557D01*
X72170115Y-109757557D02*
X72312973Y-109686128D01*
X72312973Y-109686128D02*
X72527258Y-109686128D01*
X72527258Y-109686128D02*
X72670115Y-109757557D01*
X73384401Y-110543271D02*
X73455830Y-110614700D01*
X73455830Y-110614700D02*
X73384401Y-110686128D01*
X73384401Y-110686128D02*
X73312973Y-110614700D01*
X73312973Y-110614700D02*
X73384401Y-110543271D01*
X73384401Y-110543271D02*
X73384401Y-110686128D01*
X74741545Y-110686128D02*
X74741545Y-109186128D01*
X74741545Y-110614700D02*
X74598687Y-110686128D01*
X74598687Y-110686128D02*
X74312973Y-110686128D01*
X74312973Y-110686128D02*
X74170116Y-110614700D01*
X74170116Y-110614700D02*
X74098687Y-110543271D01*
X74098687Y-110543271D02*
X74027259Y-110400414D01*
X74027259Y-110400414D02*
X74027259Y-109971842D01*
X74027259Y-109971842D02*
X74098687Y-109828985D01*
X74098687Y-109828985D02*
X74170116Y-109757557D01*
X74170116Y-109757557D02*
X74312973Y-109686128D01*
X74312973Y-109686128D02*
X74598687Y-109686128D01*
X74598687Y-109686128D02*
X74741545Y-109757557D01*
X76027259Y-110614700D02*
X75884402Y-110686128D01*
X75884402Y-110686128D02*
X75598688Y-110686128D01*
X75598688Y-110686128D02*
X75455830Y-110614700D01*
X75455830Y-110614700D02*
X75384402Y-110471842D01*
X75384402Y-110471842D02*
X75384402Y-109900414D01*
X75384402Y-109900414D02*
X75455830Y-109757557D01*
X75455830Y-109757557D02*
X75598688Y-109686128D01*
X75598688Y-109686128D02*
X75884402Y-109686128D01*
X75884402Y-109686128D02*
X76027259Y-109757557D01*
X76027259Y-109757557D02*
X76098688Y-109900414D01*
X76098688Y-109900414D02*
X76098688Y-110043271D01*
X76098688Y-110043271D02*
X75384402Y-110186128D01*
X76598687Y-109686128D02*
X76955830Y-110686128D01*
X76955830Y-110686128D02*
X77312973Y-109686128D01*
X78955830Y-109114700D02*
X77670116Y-111043271D01*
X79384402Y-110614700D02*
X79527259Y-110686128D01*
X79527259Y-110686128D02*
X79812973Y-110686128D01*
X79812973Y-110686128D02*
X79955830Y-110614700D01*
X79955830Y-110614700D02*
X80027259Y-110471842D01*
X80027259Y-110471842D02*
X80027259Y-110400414D01*
X80027259Y-110400414D02*
X79955830Y-110257557D01*
X79955830Y-110257557D02*
X79812973Y-110186128D01*
X79812973Y-110186128D02*
X79598688Y-110186128D01*
X79598688Y-110186128D02*
X79455830Y-110114700D01*
X79455830Y-110114700D02*
X79384402Y-109971842D01*
X79384402Y-109971842D02*
X79384402Y-109900414D01*
X79384402Y-109900414D02*
X79455830Y-109757557D01*
X79455830Y-109757557D02*
X79598688Y-109686128D01*
X79598688Y-109686128D02*
X79812973Y-109686128D01*
X79812973Y-109686128D02*
X79955830Y-109757557D01*
X81312974Y-110686128D02*
X81312974Y-109186128D01*
X81312974Y-110614700D02*
X81170116Y-110686128D01*
X81170116Y-110686128D02*
X80884402Y-110686128D01*
X80884402Y-110686128D02*
X80741545Y-110614700D01*
X80741545Y-110614700D02*
X80670116Y-110543271D01*
X80670116Y-110543271D02*
X80598688Y-110400414D01*
X80598688Y-110400414D02*
X80598688Y-109971842D01*
X80598688Y-109971842D02*
X80670116Y-109828985D01*
X80670116Y-109828985D02*
X80741545Y-109757557D01*
X80741545Y-109757557D02*
X80884402Y-109686128D01*
X80884402Y-109686128D02*
X81170116Y-109686128D01*
X81170116Y-109686128D02*
X81312974Y-109757557D01*
X82027259Y-110686128D02*
X82027259Y-109686128D01*
X82027259Y-109186128D02*
X81955831Y-109257557D01*
X81955831Y-109257557D02*
X82027259Y-109328985D01*
X82027259Y-109328985D02*
X82098688Y-109257557D01*
X82098688Y-109257557D02*
X82027259Y-109186128D01*
X82027259Y-109186128D02*
X82027259Y-109328985D01*
X83527260Y-110686128D02*
X82670117Y-110686128D01*
X83098688Y-110686128D02*
X83098688Y-109186128D01*
X83098688Y-109186128D02*
X82955831Y-109400414D01*
X82955831Y-109400414D02*
X82812974Y-109543271D01*
X82812974Y-109543271D02*
X82670117Y-109614700D01*
X84098688Y-109328985D02*
X84170116Y-109257557D01*
X84170116Y-109257557D02*
X84312974Y-109186128D01*
X84312974Y-109186128D02*
X84670116Y-109186128D01*
X84670116Y-109186128D02*
X84812974Y-109257557D01*
X84812974Y-109257557D02*
X84884402Y-109328985D01*
X84884402Y-109328985D02*
X84955831Y-109471842D01*
X84955831Y-109471842D02*
X84955831Y-109614700D01*
X84955831Y-109614700D02*
X84884402Y-109828985D01*
X84884402Y-109828985D02*
X84027259Y-110686128D01*
X84027259Y-110686128D02*
X84955831Y-110686128D01*
X85598687Y-110114700D02*
X86741545Y-110114700D01*
X88027259Y-110614700D02*
X87884402Y-110686128D01*
X87884402Y-110686128D02*
X87598688Y-110686128D01*
X87598688Y-110686128D02*
X87455830Y-110614700D01*
X87455830Y-110614700D02*
X87384402Y-110471842D01*
X87384402Y-110471842D02*
X87384402Y-109900414D01*
X87384402Y-109900414D02*
X87455830Y-109757557D01*
X87455830Y-109757557D02*
X87598688Y-109686128D01*
X87598688Y-109686128D02*
X87884402Y-109686128D01*
X87884402Y-109686128D02*
X88027259Y-109757557D01*
X88027259Y-109757557D02*
X88098688Y-109900414D01*
X88098688Y-109900414D02*
X88098688Y-110043271D01*
X88098688Y-110043271D02*
X87384402Y-110186128D01*
X88670116Y-110614700D02*
X88812973Y-110686128D01*
X88812973Y-110686128D02*
X89098687Y-110686128D01*
X89098687Y-110686128D02*
X89241544Y-110614700D01*
X89241544Y-110614700D02*
X89312973Y-110471842D01*
X89312973Y-110471842D02*
X89312973Y-110400414D01*
X89312973Y-110400414D02*
X89241544Y-110257557D01*
X89241544Y-110257557D02*
X89098687Y-110186128D01*
X89098687Y-110186128D02*
X88884402Y-110186128D01*
X88884402Y-110186128D02*
X88741544Y-110114700D01*
X88741544Y-110114700D02*
X88670116Y-109971842D01*
X88670116Y-109971842D02*
X88670116Y-109900414D01*
X88670116Y-109900414D02*
X88741544Y-109757557D01*
X88741544Y-109757557D02*
X88884402Y-109686128D01*
X88884402Y-109686128D02*
X89098687Y-109686128D01*
X89098687Y-109686128D02*
X89241544Y-109757557D01*
X89955830Y-109686128D02*
X89955830Y-111186128D01*
X89955830Y-109757557D02*
X90098688Y-109686128D01*
X90098688Y-109686128D02*
X90384402Y-109686128D01*
X90384402Y-109686128D02*
X90527259Y-109757557D01*
X90527259Y-109757557D02*
X90598688Y-109828985D01*
X90598688Y-109828985D02*
X90670116Y-109971842D01*
X90670116Y-109971842D02*
X90670116Y-110400414D01*
X90670116Y-110400414D02*
X90598688Y-110543271D01*
X90598688Y-110543271D02*
X90527259Y-110614700D01*
X90527259Y-110614700D02*
X90384402Y-110686128D01*
X90384402Y-110686128D02*
X90098688Y-110686128D01*
X90098688Y-110686128D02*
X89955830Y-110614700D01*
X91312973Y-110686128D02*
X91312973Y-109186128D01*
X91955831Y-110686128D02*
X91955831Y-109900414D01*
X91955831Y-109900414D02*
X91884402Y-109757557D01*
X91884402Y-109757557D02*
X91741545Y-109686128D01*
X91741545Y-109686128D02*
X91527259Y-109686128D01*
X91527259Y-109686128D02*
X91384402Y-109757557D01*
X91384402Y-109757557D02*
X91312973Y-109828985D01*
X92884402Y-110686128D02*
X92741545Y-110614700D01*
X92741545Y-110614700D02*
X92670116Y-110543271D01*
X92670116Y-110543271D02*
X92598688Y-110400414D01*
X92598688Y-110400414D02*
X92598688Y-109971842D01*
X92598688Y-109971842D02*
X92670116Y-109828985D01*
X92670116Y-109828985D02*
X92741545Y-109757557D01*
X92741545Y-109757557D02*
X92884402Y-109686128D01*
X92884402Y-109686128D02*
X93098688Y-109686128D01*
X93098688Y-109686128D02*
X93241545Y-109757557D01*
X93241545Y-109757557D02*
X93312974Y-109828985D01*
X93312974Y-109828985D02*
X93384402Y-109971842D01*
X93384402Y-109971842D02*
X93384402Y-110400414D01*
X93384402Y-110400414D02*
X93312974Y-110543271D01*
X93312974Y-110543271D02*
X93241545Y-110614700D01*
X93241545Y-110614700D02*
X93098688Y-110686128D01*
X93098688Y-110686128D02*
X92884402Y-110686128D01*
X94027259Y-110686128D02*
X94027259Y-109686128D01*
X94027259Y-109828985D02*
X94098688Y-109757557D01*
X94098688Y-109757557D02*
X94241545Y-109686128D01*
X94241545Y-109686128D02*
X94455831Y-109686128D01*
X94455831Y-109686128D02*
X94598688Y-109757557D01*
X94598688Y-109757557D02*
X94670117Y-109900414D01*
X94670117Y-109900414D02*
X94670117Y-110686128D01*
X94670117Y-109900414D02*
X94741545Y-109757557D01*
X94741545Y-109757557D02*
X94884402Y-109686128D01*
X94884402Y-109686128D02*
X95098688Y-109686128D01*
X95098688Y-109686128D02*
X95241545Y-109757557D01*
X95241545Y-109757557D02*
X95312974Y-109900414D01*
X95312974Y-109900414D02*
X95312974Y-110686128D01*
X96598688Y-110614700D02*
X96455831Y-110686128D01*
X96455831Y-110686128D02*
X96170117Y-110686128D01*
X96170117Y-110686128D02*
X96027259Y-110614700D01*
X96027259Y-110614700D02*
X95955831Y-110471842D01*
X95955831Y-110471842D02*
X95955831Y-109900414D01*
X95955831Y-109900414D02*
X96027259Y-109757557D01*
X96027259Y-109757557D02*
X96170117Y-109686128D01*
X96170117Y-109686128D02*
X96455831Y-109686128D01*
X96455831Y-109686128D02*
X96598688Y-109757557D01*
X96598688Y-109757557D02*
X96670117Y-109900414D01*
X96670117Y-109900414D02*
X96670117Y-110043271D01*
X96670117Y-110043271D02*
X95955831Y-110186128D01*
X121770588Y-93532438D02*
X121675350Y-93484819D01*
X121675350Y-93484819D02*
X121532493Y-93484819D01*
X121532493Y-93484819D02*
X121389636Y-93532438D01*
X121389636Y-93532438D02*
X121294398Y-93627676D01*
X121294398Y-93627676D02*
X121246779Y-93722914D01*
X121246779Y-93722914D02*
X121199160Y-93913390D01*
X121199160Y-93913390D02*
X121199160Y-94056247D01*
X121199160Y-94056247D02*
X121246779Y-94246723D01*
X121246779Y-94246723D02*
X121294398Y-94341961D01*
X121294398Y-94341961D02*
X121389636Y-94437200D01*
X121389636Y-94437200D02*
X121532493Y-94484819D01*
X121532493Y-94484819D02*
X121627731Y-94484819D01*
X121627731Y-94484819D02*
X121770588Y-94437200D01*
X121770588Y-94437200D02*
X121818207Y-94389580D01*
X121818207Y-94389580D02*
X121818207Y-94056247D01*
X121818207Y-94056247D02*
X121627731Y-94056247D01*
X122246779Y-94484819D02*
X122246779Y-93484819D01*
X122246779Y-93484819D02*
X122818207Y-94484819D01*
X122818207Y-94484819D02*
X122818207Y-93484819D01*
X123294398Y-94484819D02*
X123294398Y-93484819D01*
X123294398Y-93484819D02*
X123532493Y-93484819D01*
X123532493Y-93484819D02*
X123675350Y-93532438D01*
X123675350Y-93532438D02*
X123770588Y-93627676D01*
X123770588Y-93627676D02*
X123818207Y-93722914D01*
X123818207Y-93722914D02*
X123865826Y-93913390D01*
X123865826Y-93913390D02*
X123865826Y-94056247D01*
X123865826Y-94056247D02*
X123818207Y-94246723D01*
X123818207Y-94246723D02*
X123770588Y-94341961D01*
X123770588Y-94341961D02*
X123675350Y-94437200D01*
X123675350Y-94437200D02*
X123532493Y-94484819D01*
X123532493Y-94484819D02*
X123294398Y-94484819D01*
X93488000Y-42351438D02*
X93392762Y-42303819D01*
X93392762Y-42303819D02*
X93249905Y-42303819D01*
X93249905Y-42303819D02*
X93107048Y-42351438D01*
X93107048Y-42351438D02*
X93011810Y-42446676D01*
X93011810Y-42446676D02*
X92964191Y-42541914D01*
X92964191Y-42541914D02*
X92916572Y-42732390D01*
X92916572Y-42732390D02*
X92916572Y-42875247D01*
X92916572Y-42875247D02*
X92964191Y-43065723D01*
X92964191Y-43065723D02*
X93011810Y-43160961D01*
X93011810Y-43160961D02*
X93107048Y-43256200D01*
X93107048Y-43256200D02*
X93249905Y-43303819D01*
X93249905Y-43303819D02*
X93345143Y-43303819D01*
X93345143Y-43303819D02*
X93488000Y-43256200D01*
X93488000Y-43256200D02*
X93535619Y-43208580D01*
X93535619Y-43208580D02*
X93535619Y-42875247D01*
X93535619Y-42875247D02*
X93345143Y-42875247D01*
X93964191Y-43303819D02*
X93964191Y-42303819D01*
X93964191Y-42303819D02*
X94345143Y-42303819D01*
X94345143Y-42303819D02*
X94440381Y-42351438D01*
X94440381Y-42351438D02*
X94488000Y-42399057D01*
X94488000Y-42399057D02*
X94535619Y-42494295D01*
X94535619Y-42494295D02*
X94535619Y-42637152D01*
X94535619Y-42637152D02*
X94488000Y-42732390D01*
X94488000Y-42732390D02*
X94440381Y-42780009D01*
X94440381Y-42780009D02*
X94345143Y-42827628D01*
X94345143Y-42827628D02*
X93964191Y-42827628D01*
X94964191Y-43303819D02*
X94964191Y-42303819D01*
X95630857Y-42303819D02*
X95821333Y-42303819D01*
X95821333Y-42303819D02*
X95916571Y-42351438D01*
X95916571Y-42351438D02*
X96011809Y-42446676D01*
X96011809Y-42446676D02*
X96059428Y-42637152D01*
X96059428Y-42637152D02*
X96059428Y-42970485D01*
X96059428Y-42970485D02*
X96011809Y-43160961D01*
X96011809Y-43160961D02*
X95916571Y-43256200D01*
X95916571Y-43256200D02*
X95821333Y-43303819D01*
X95821333Y-43303819D02*
X95630857Y-43303819D01*
X95630857Y-43303819D02*
X95535619Y-43256200D01*
X95535619Y-43256200D02*
X95440381Y-43160961D01*
X95440381Y-43160961D02*
X95392762Y-42970485D01*
X95392762Y-42970485D02*
X95392762Y-42637152D01*
X95392762Y-42637152D02*
X95440381Y-42446676D01*
X95440381Y-42446676D02*
X95535619Y-42351438D01*
X95535619Y-42351438D02*
X95630857Y-42303819D01*
X121770588Y-58924819D02*
X121199160Y-58924819D01*
X121484874Y-58924819D02*
X121484874Y-57924819D01*
X121484874Y-57924819D02*
X121389636Y-58067676D01*
X121389636Y-58067676D02*
X121294398Y-58162914D01*
X121294398Y-58162914D02*
X121199160Y-58210533D01*
X122151541Y-58020057D02*
X122199160Y-57972438D01*
X122199160Y-57972438D02*
X122294398Y-57924819D01*
X122294398Y-57924819D02*
X122532493Y-57924819D01*
X122532493Y-57924819D02*
X122627731Y-57972438D01*
X122627731Y-57972438D02*
X122675350Y-58020057D01*
X122675350Y-58020057D02*
X122722969Y-58115295D01*
X122722969Y-58115295D02*
X122722969Y-58210533D01*
X122722969Y-58210533D02*
X122675350Y-58353390D01*
X122675350Y-58353390D02*
X122103922Y-58924819D01*
X122103922Y-58924819D02*
X122722969Y-58924819D01*
X123008684Y-57924819D02*
X123342017Y-58924819D01*
X123342017Y-58924819D02*
X123675350Y-57924819D01*
X121199160Y-53797200D02*
X121342017Y-53844819D01*
X121342017Y-53844819D02*
X121580112Y-53844819D01*
X121580112Y-53844819D02*
X121675350Y-53797200D01*
X121675350Y-53797200D02*
X121722969Y-53749580D01*
X121722969Y-53749580D02*
X121770588Y-53654342D01*
X121770588Y-53654342D02*
X121770588Y-53559104D01*
X121770588Y-53559104D02*
X121722969Y-53463866D01*
X121722969Y-53463866D02*
X121675350Y-53416247D01*
X121675350Y-53416247D02*
X121580112Y-53368628D01*
X121580112Y-53368628D02*
X121389636Y-53321009D01*
X121389636Y-53321009D02*
X121294398Y-53273390D01*
X121294398Y-53273390D02*
X121246779Y-53225771D01*
X121246779Y-53225771D02*
X121199160Y-53130533D01*
X121199160Y-53130533D02*
X121199160Y-53035295D01*
X121199160Y-53035295D02*
X121246779Y-52940057D01*
X121246779Y-52940057D02*
X121294398Y-52892438D01*
X121294398Y-52892438D02*
X121389636Y-52844819D01*
X121389636Y-52844819D02*
X121627731Y-52844819D01*
X121627731Y-52844819D02*
X121770588Y-52892438D01*
X122199160Y-53844819D02*
X122199160Y-52844819D01*
X122199160Y-52844819D02*
X122437255Y-52844819D01*
X122437255Y-52844819D02*
X122580112Y-52892438D01*
X122580112Y-52892438D02*
X122675350Y-52987676D01*
X122675350Y-52987676D02*
X122722969Y-53082914D01*
X122722969Y-53082914D02*
X122770588Y-53273390D01*
X122770588Y-53273390D02*
X122770588Y-53416247D01*
X122770588Y-53416247D02*
X122722969Y-53606723D01*
X122722969Y-53606723D02*
X122675350Y-53701961D01*
X122675350Y-53701961D02*
X122580112Y-53797200D01*
X122580112Y-53797200D02*
X122437255Y-53844819D01*
X122437255Y-53844819D02*
X122199160Y-53844819D01*
X123199160Y-53844819D02*
X123199160Y-52844819D01*
X123675350Y-53463866D02*
X124437255Y-53463866D01*
X125437254Y-53844819D02*
X124865826Y-53844819D01*
X125151540Y-53844819D02*
X125151540Y-52844819D01*
X125151540Y-52844819D02*
X125056302Y-52987676D01*
X125056302Y-52987676D02*
X124961064Y-53082914D01*
X124961064Y-53082914D02*
X124865826Y-53130533D01*
X125818207Y-52940057D02*
X125865826Y-52892438D01*
X125865826Y-52892438D02*
X125961064Y-52844819D01*
X125961064Y-52844819D02*
X126199159Y-52844819D01*
X126199159Y-52844819D02*
X126294397Y-52892438D01*
X126294397Y-52892438D02*
X126342016Y-52940057D01*
X126342016Y-52940057D02*
X126389635Y-53035295D01*
X126389635Y-53035295D02*
X126389635Y-53130533D01*
X126389635Y-53130533D02*
X126342016Y-53273390D01*
X126342016Y-53273390D02*
X125770588Y-53844819D01*
X125770588Y-53844819D02*
X126389635Y-53844819D01*
X121199160Y-99517200D02*
X121342017Y-99564819D01*
X121342017Y-99564819D02*
X121580112Y-99564819D01*
X121580112Y-99564819D02*
X121675350Y-99517200D01*
X121675350Y-99517200D02*
X121722969Y-99469580D01*
X121722969Y-99469580D02*
X121770588Y-99374342D01*
X121770588Y-99374342D02*
X121770588Y-99279104D01*
X121770588Y-99279104D02*
X121722969Y-99183866D01*
X121722969Y-99183866D02*
X121675350Y-99136247D01*
X121675350Y-99136247D02*
X121580112Y-99088628D01*
X121580112Y-99088628D02*
X121389636Y-99041009D01*
X121389636Y-99041009D02*
X121294398Y-98993390D01*
X121294398Y-98993390D02*
X121246779Y-98945771D01*
X121246779Y-98945771D02*
X121199160Y-98850533D01*
X121199160Y-98850533D02*
X121199160Y-98755295D01*
X121199160Y-98755295D02*
X121246779Y-98660057D01*
X121246779Y-98660057D02*
X121294398Y-98612438D01*
X121294398Y-98612438D02*
X121389636Y-98564819D01*
X121389636Y-98564819D02*
X121627731Y-98564819D01*
X121627731Y-98564819D02*
X121770588Y-98612438D01*
X122199160Y-99564819D02*
X122199160Y-98564819D01*
X122199160Y-98564819D02*
X122437255Y-98564819D01*
X122437255Y-98564819D02*
X122580112Y-98612438D01*
X122580112Y-98612438D02*
X122675350Y-98707676D01*
X122675350Y-98707676D02*
X122722969Y-98802914D01*
X122722969Y-98802914D02*
X122770588Y-98993390D01*
X122770588Y-98993390D02*
X122770588Y-99136247D01*
X122770588Y-99136247D02*
X122722969Y-99326723D01*
X122722969Y-99326723D02*
X122675350Y-99421961D01*
X122675350Y-99421961D02*
X122580112Y-99517200D01*
X122580112Y-99517200D02*
X122437255Y-99564819D01*
X122437255Y-99564819D02*
X122199160Y-99564819D01*
X123199160Y-99564819D02*
X123199160Y-98564819D01*
X123675350Y-99183866D02*
X124437255Y-99183866D01*
X125437254Y-99564819D02*
X124865826Y-99564819D01*
X125151540Y-99564819D02*
X125151540Y-98564819D01*
X125151540Y-98564819D02*
X125056302Y-98707676D01*
X125056302Y-98707676D02*
X124961064Y-98802914D01*
X124961064Y-98802914D02*
X124865826Y-98850533D01*
X125818207Y-98660057D02*
X125865826Y-98612438D01*
X125865826Y-98612438D02*
X125961064Y-98564819D01*
X125961064Y-98564819D02*
X126199159Y-98564819D01*
X126199159Y-98564819D02*
X126294397Y-98612438D01*
X126294397Y-98612438D02*
X126342016Y-98660057D01*
X126342016Y-98660057D02*
X126389635Y-98755295D01*
X126389635Y-98755295D02*
X126389635Y-98850533D01*
X126389635Y-98850533D02*
X126342016Y-98993390D01*
X126342016Y-98993390D02*
X125770588Y-99564819D01*
X125770588Y-99564819D02*
X126389635Y-99564819D01*
X121199160Y-69037200D02*
X121342017Y-69084819D01*
X121342017Y-69084819D02*
X121580112Y-69084819D01*
X121580112Y-69084819D02*
X121675350Y-69037200D01*
X121675350Y-69037200D02*
X121722969Y-68989580D01*
X121722969Y-68989580D02*
X121770588Y-68894342D01*
X121770588Y-68894342D02*
X121770588Y-68799104D01*
X121770588Y-68799104D02*
X121722969Y-68703866D01*
X121722969Y-68703866D02*
X121675350Y-68656247D01*
X121675350Y-68656247D02*
X121580112Y-68608628D01*
X121580112Y-68608628D02*
X121389636Y-68561009D01*
X121389636Y-68561009D02*
X121294398Y-68513390D01*
X121294398Y-68513390D02*
X121246779Y-68465771D01*
X121246779Y-68465771D02*
X121199160Y-68370533D01*
X121199160Y-68370533D02*
X121199160Y-68275295D01*
X121199160Y-68275295D02*
X121246779Y-68180057D01*
X121246779Y-68180057D02*
X121294398Y-68132438D01*
X121294398Y-68132438D02*
X121389636Y-68084819D01*
X121389636Y-68084819D02*
X121627731Y-68084819D01*
X121627731Y-68084819D02*
X121770588Y-68132438D01*
X122199160Y-69084819D02*
X122199160Y-68084819D01*
X122199160Y-68084819D02*
X122437255Y-68084819D01*
X122437255Y-68084819D02*
X122580112Y-68132438D01*
X122580112Y-68132438D02*
X122675350Y-68227676D01*
X122675350Y-68227676D02*
X122722969Y-68322914D01*
X122722969Y-68322914D02*
X122770588Y-68513390D01*
X122770588Y-68513390D02*
X122770588Y-68656247D01*
X122770588Y-68656247D02*
X122722969Y-68846723D01*
X122722969Y-68846723D02*
X122675350Y-68941961D01*
X122675350Y-68941961D02*
X122580112Y-69037200D01*
X122580112Y-69037200D02*
X122437255Y-69084819D01*
X122437255Y-69084819D02*
X122199160Y-69084819D01*
X123199160Y-69084819D02*
X123199160Y-68084819D01*
X123675350Y-68703866D02*
X124437255Y-68703866D01*
X125437254Y-69084819D02*
X124865826Y-69084819D01*
X125151540Y-69084819D02*
X125151540Y-68084819D01*
X125151540Y-68084819D02*
X125056302Y-68227676D01*
X125056302Y-68227676D02*
X124961064Y-68322914D01*
X124961064Y-68322914D02*
X124865826Y-68370533D01*
X125818207Y-68180057D02*
X125865826Y-68132438D01*
X125865826Y-68132438D02*
X125961064Y-68084819D01*
X125961064Y-68084819D02*
X126199159Y-68084819D01*
X126199159Y-68084819D02*
X126294397Y-68132438D01*
X126294397Y-68132438D02*
X126342016Y-68180057D01*
X126342016Y-68180057D02*
X126389635Y-68275295D01*
X126389635Y-68275295D02*
X126389635Y-68370533D01*
X126389635Y-68370533D02*
X126342016Y-68513390D01*
X126342016Y-68513390D02*
X125770588Y-69084819D01*
X125770588Y-69084819D02*
X126389635Y-69084819D01*
X101284285Y-58923997D02*
X101427142Y-58971616D01*
X101427142Y-58971616D02*
X101474761Y-59019235D01*
X101474761Y-59019235D02*
X101522380Y-59114473D01*
X101522380Y-59114473D02*
X101522380Y-59257330D01*
X101522380Y-59257330D02*
X101474761Y-59352568D01*
X101474761Y-59352568D02*
X101427142Y-59400188D01*
X101427142Y-59400188D02*
X101331904Y-59447807D01*
X101331904Y-59447807D02*
X100950952Y-59447807D01*
X100950952Y-59447807D02*
X100950952Y-58447807D01*
X100950952Y-58447807D02*
X101284285Y-58447807D01*
X101284285Y-58447807D02*
X101379523Y-58495426D01*
X101379523Y-58495426D02*
X101427142Y-58543045D01*
X101427142Y-58543045D02*
X101474761Y-58638283D01*
X101474761Y-58638283D02*
X101474761Y-58733521D01*
X101474761Y-58733521D02*
X101427142Y-58828759D01*
X101427142Y-58828759D02*
X101379523Y-58876378D01*
X101379523Y-58876378D02*
X101284285Y-58923997D01*
X101284285Y-58923997D02*
X100950952Y-58923997D01*
X102379523Y-58781140D02*
X102379523Y-59447807D01*
X101950952Y-58781140D02*
X101950952Y-59304949D01*
X101950952Y-59304949D02*
X101998571Y-59400188D01*
X101998571Y-59400188D02*
X102093809Y-59447807D01*
X102093809Y-59447807D02*
X102236666Y-59447807D01*
X102236666Y-59447807D02*
X102331904Y-59400188D01*
X102331904Y-59400188D02*
X102379523Y-59352568D01*
X102808095Y-59400188D02*
X102903333Y-59447807D01*
X102903333Y-59447807D02*
X103093809Y-59447807D01*
X103093809Y-59447807D02*
X103189047Y-59400188D01*
X103189047Y-59400188D02*
X103236666Y-59304949D01*
X103236666Y-59304949D02*
X103236666Y-59257330D01*
X103236666Y-59257330D02*
X103189047Y-59162092D01*
X103189047Y-59162092D02*
X103093809Y-59114473D01*
X103093809Y-59114473D02*
X102950952Y-59114473D01*
X102950952Y-59114473D02*
X102855714Y-59066854D01*
X102855714Y-59066854D02*
X102808095Y-58971616D01*
X102808095Y-58971616D02*
X102808095Y-58923997D01*
X102808095Y-58923997D02*
X102855714Y-58828759D01*
X102855714Y-58828759D02*
X102950952Y-58781140D01*
X102950952Y-58781140D02*
X103093809Y-58781140D01*
X103093809Y-58781140D02*
X103189047Y-58828759D01*
X103665238Y-59447807D02*
X103665238Y-58447807D01*
X103665238Y-58447807D02*
X104046190Y-58447807D01*
X104046190Y-58447807D02*
X104141428Y-58495426D01*
X104141428Y-58495426D02*
X104189047Y-58543045D01*
X104189047Y-58543045D02*
X104236666Y-58638283D01*
X104236666Y-58638283D02*
X104236666Y-58781140D01*
X104236666Y-58781140D02*
X104189047Y-58876378D01*
X104189047Y-58876378D02*
X104141428Y-58923997D01*
X104141428Y-58923997D02*
X104046190Y-58971616D01*
X104046190Y-58971616D02*
X103665238Y-58971616D01*
X104570000Y-58781140D02*
X104760476Y-59447807D01*
X104760476Y-59447807D02*
X104950952Y-58971616D01*
X104950952Y-58971616D02*
X105141428Y-59447807D01*
X105141428Y-59447807D02*
X105331904Y-58781140D01*
X105712857Y-59447807D02*
X105712857Y-58781140D01*
X105712857Y-58971616D02*
X105760476Y-58876378D01*
X105760476Y-58876378D02*
X105808095Y-58828759D01*
X105808095Y-58828759D02*
X105903333Y-58781140D01*
X105903333Y-58781140D02*
X105998571Y-58781140D01*
X121770588Y-63052438D02*
X121675350Y-63004819D01*
X121675350Y-63004819D02*
X121532493Y-63004819D01*
X121532493Y-63004819D02*
X121389636Y-63052438D01*
X121389636Y-63052438D02*
X121294398Y-63147676D01*
X121294398Y-63147676D02*
X121246779Y-63242914D01*
X121246779Y-63242914D02*
X121199160Y-63433390D01*
X121199160Y-63433390D02*
X121199160Y-63576247D01*
X121199160Y-63576247D02*
X121246779Y-63766723D01*
X121246779Y-63766723D02*
X121294398Y-63861961D01*
X121294398Y-63861961D02*
X121389636Y-63957200D01*
X121389636Y-63957200D02*
X121532493Y-64004819D01*
X121532493Y-64004819D02*
X121627731Y-64004819D01*
X121627731Y-64004819D02*
X121770588Y-63957200D01*
X121770588Y-63957200D02*
X121818207Y-63909580D01*
X121818207Y-63909580D02*
X121818207Y-63576247D01*
X121818207Y-63576247D02*
X121627731Y-63576247D01*
X122246779Y-64004819D02*
X122246779Y-63004819D01*
X122246779Y-63004819D02*
X122818207Y-64004819D01*
X122818207Y-64004819D02*
X122818207Y-63004819D01*
X123294398Y-64004819D02*
X123294398Y-63004819D01*
X123294398Y-63004819D02*
X123532493Y-63004819D01*
X123532493Y-63004819D02*
X123675350Y-63052438D01*
X123675350Y-63052438D02*
X123770588Y-63147676D01*
X123770588Y-63147676D02*
X123818207Y-63242914D01*
X123818207Y-63242914D02*
X123865826Y-63433390D01*
X123865826Y-63433390D02*
X123865826Y-63576247D01*
X123865826Y-63576247D02*
X123818207Y-63766723D01*
X123818207Y-63766723D02*
X123770588Y-63861961D01*
X123770588Y-63861961D02*
X123675350Y-63957200D01*
X123675350Y-63957200D02*
X123532493Y-64004819D01*
X123532493Y-64004819D02*
X123294398Y-64004819D01*
X121199160Y-84277200D02*
X121342017Y-84324819D01*
X121342017Y-84324819D02*
X121580112Y-84324819D01*
X121580112Y-84324819D02*
X121675350Y-84277200D01*
X121675350Y-84277200D02*
X121722969Y-84229580D01*
X121722969Y-84229580D02*
X121770588Y-84134342D01*
X121770588Y-84134342D02*
X121770588Y-84039104D01*
X121770588Y-84039104D02*
X121722969Y-83943866D01*
X121722969Y-83943866D02*
X121675350Y-83896247D01*
X121675350Y-83896247D02*
X121580112Y-83848628D01*
X121580112Y-83848628D02*
X121389636Y-83801009D01*
X121389636Y-83801009D02*
X121294398Y-83753390D01*
X121294398Y-83753390D02*
X121246779Y-83705771D01*
X121246779Y-83705771D02*
X121199160Y-83610533D01*
X121199160Y-83610533D02*
X121199160Y-83515295D01*
X121199160Y-83515295D02*
X121246779Y-83420057D01*
X121246779Y-83420057D02*
X121294398Y-83372438D01*
X121294398Y-83372438D02*
X121389636Y-83324819D01*
X121389636Y-83324819D02*
X121627731Y-83324819D01*
X121627731Y-83324819D02*
X121770588Y-83372438D01*
X122199160Y-84324819D02*
X122199160Y-83324819D01*
X122199160Y-83324819D02*
X122437255Y-83324819D01*
X122437255Y-83324819D02*
X122580112Y-83372438D01*
X122580112Y-83372438D02*
X122675350Y-83467676D01*
X122675350Y-83467676D02*
X122722969Y-83562914D01*
X122722969Y-83562914D02*
X122770588Y-83753390D01*
X122770588Y-83753390D02*
X122770588Y-83896247D01*
X122770588Y-83896247D02*
X122722969Y-84086723D01*
X122722969Y-84086723D02*
X122675350Y-84181961D01*
X122675350Y-84181961D02*
X122580112Y-84277200D01*
X122580112Y-84277200D02*
X122437255Y-84324819D01*
X122437255Y-84324819D02*
X122199160Y-84324819D01*
X123199160Y-84324819D02*
X123199160Y-83324819D01*
X123675350Y-83943866D02*
X124437255Y-83943866D01*
X125437254Y-84324819D02*
X124865826Y-84324819D01*
X125151540Y-84324819D02*
X125151540Y-83324819D01*
X125151540Y-83324819D02*
X125056302Y-83467676D01*
X125056302Y-83467676D02*
X124961064Y-83562914D01*
X124961064Y-83562914D02*
X124865826Y-83610533D01*
X125818207Y-83420057D02*
X125865826Y-83372438D01*
X125865826Y-83372438D02*
X125961064Y-83324819D01*
X125961064Y-83324819D02*
X126199159Y-83324819D01*
X126199159Y-83324819D02*
X126294397Y-83372438D01*
X126294397Y-83372438D02*
X126342016Y-83420057D01*
X126342016Y-83420057D02*
X126389635Y-83515295D01*
X126389635Y-83515295D02*
X126389635Y-83610533D01*
X126389635Y-83610533D02*
X126342016Y-83753390D01*
X126342016Y-83753390D02*
X125770588Y-84324819D01*
X125770588Y-84324819D02*
X126389635Y-84324819D01*
X47977636Y-43822200D02*
X48263350Y-43917438D01*
X48263350Y-43917438D02*
X48739541Y-43917438D01*
X48739541Y-43917438D02*
X48930017Y-43822200D01*
X48930017Y-43822200D02*
X49025255Y-43726961D01*
X49025255Y-43726961D02*
X49120493Y-43536485D01*
X49120493Y-43536485D02*
X49120493Y-43346009D01*
X49120493Y-43346009D02*
X49025255Y-43155533D01*
X49025255Y-43155533D02*
X48930017Y-43060295D01*
X48930017Y-43060295D02*
X48739541Y-42965057D01*
X48739541Y-42965057D02*
X48358588Y-42869819D01*
X48358588Y-42869819D02*
X48168112Y-42774580D01*
X48168112Y-42774580D02*
X48072874Y-42679342D01*
X48072874Y-42679342D02*
X47977636Y-42488866D01*
X47977636Y-42488866D02*
X47977636Y-42298390D01*
X47977636Y-42298390D02*
X48072874Y-42107914D01*
X48072874Y-42107914D02*
X48168112Y-42012676D01*
X48168112Y-42012676D02*
X48358588Y-41917438D01*
X48358588Y-41917438D02*
X48834779Y-41917438D01*
X48834779Y-41917438D02*
X49120493Y-42012676D01*
X49977636Y-43917438D02*
X49977636Y-41917438D01*
X49977636Y-41917438D02*
X50453826Y-41917438D01*
X50453826Y-41917438D02*
X50739541Y-42012676D01*
X50739541Y-42012676D02*
X50930017Y-42203152D01*
X50930017Y-42203152D02*
X51025255Y-42393628D01*
X51025255Y-42393628D02*
X51120493Y-42774580D01*
X51120493Y-42774580D02*
X51120493Y-43060295D01*
X51120493Y-43060295D02*
X51025255Y-43441247D01*
X51025255Y-43441247D02*
X50930017Y-43631723D01*
X50930017Y-43631723D02*
X50739541Y-43822200D01*
X50739541Y-43822200D02*
X50453826Y-43917438D01*
X50453826Y-43917438D02*
X49977636Y-43917438D01*
X51977636Y-43917438D02*
X51977636Y-41917438D01*
X52930017Y-43155533D02*
X54453827Y-43155533D01*
X56453826Y-43917438D02*
X55310969Y-43917438D01*
X55882397Y-43917438D02*
X55882397Y-41917438D01*
X55882397Y-41917438D02*
X55691921Y-42203152D01*
X55691921Y-42203152D02*
X55501445Y-42393628D01*
X55501445Y-42393628D02*
X55310969Y-42488866D01*
X57215731Y-42107914D02*
X57310969Y-42012676D01*
X57310969Y-42012676D02*
X57501445Y-41917438D01*
X57501445Y-41917438D02*
X57977636Y-41917438D01*
X57977636Y-41917438D02*
X58168112Y-42012676D01*
X58168112Y-42012676D02*
X58263350Y-42107914D01*
X58263350Y-42107914D02*
X58358588Y-42298390D01*
X58358588Y-42298390D02*
X58358588Y-42488866D01*
X58358588Y-42488866D02*
X58263350Y-42774580D01*
X58263350Y-42774580D02*
X57120493Y-43917438D01*
X57120493Y-43917438D02*
X58358588Y-43917438D01*
X60739541Y-42869819D02*
X61406208Y-42869819D01*
X61691922Y-43917438D02*
X60739541Y-43917438D01*
X60739541Y-43917438D02*
X60739541Y-41917438D01*
X60739541Y-41917438D02*
X61691922Y-41917438D01*
X62453827Y-43822200D02*
X62739541Y-43917438D01*
X62739541Y-43917438D02*
X63215732Y-43917438D01*
X63215732Y-43917438D02*
X63406208Y-43822200D01*
X63406208Y-43822200D02*
X63501446Y-43726961D01*
X63501446Y-43726961D02*
X63596684Y-43536485D01*
X63596684Y-43536485D02*
X63596684Y-43346009D01*
X63596684Y-43346009D02*
X63501446Y-43155533D01*
X63501446Y-43155533D02*
X63406208Y-43060295D01*
X63406208Y-43060295D02*
X63215732Y-42965057D01*
X63215732Y-42965057D02*
X62834779Y-42869819D01*
X62834779Y-42869819D02*
X62644303Y-42774580D01*
X62644303Y-42774580D02*
X62549065Y-42679342D01*
X62549065Y-42679342D02*
X62453827Y-42488866D01*
X62453827Y-42488866D02*
X62453827Y-42298390D01*
X62453827Y-42298390D02*
X62549065Y-42107914D01*
X62549065Y-42107914D02*
X62644303Y-42012676D01*
X62644303Y-42012676D02*
X62834779Y-41917438D01*
X62834779Y-41917438D02*
X63310970Y-41917438D01*
X63310970Y-41917438D02*
X63596684Y-42012676D01*
X64453827Y-43917438D02*
X64453827Y-41917438D01*
X64453827Y-41917438D02*
X65215732Y-41917438D01*
X65215732Y-41917438D02*
X65406208Y-42012676D01*
X65406208Y-42012676D02*
X65501446Y-42107914D01*
X65501446Y-42107914D02*
X65596684Y-42298390D01*
X65596684Y-42298390D02*
X65596684Y-42584104D01*
X65596684Y-42584104D02*
X65501446Y-42774580D01*
X65501446Y-42774580D02*
X65406208Y-42869819D01*
X65406208Y-42869819D02*
X65215732Y-42965057D01*
X65215732Y-42965057D02*
X64453827Y-42965057D01*
X66453827Y-43917438D02*
X66453827Y-41917438D01*
X66453827Y-42869819D02*
X67596684Y-42869819D01*
X67596684Y-43917438D02*
X67596684Y-41917438D01*
X68834779Y-43917438D02*
X68644303Y-43822200D01*
X68644303Y-43822200D02*
X68549065Y-43726961D01*
X68549065Y-43726961D02*
X68453827Y-43536485D01*
X68453827Y-43536485D02*
X68453827Y-42965057D01*
X68453827Y-42965057D02*
X68549065Y-42774580D01*
X68549065Y-42774580D02*
X68644303Y-42679342D01*
X68644303Y-42679342D02*
X68834779Y-42584104D01*
X68834779Y-42584104D02*
X69120494Y-42584104D01*
X69120494Y-42584104D02*
X69310970Y-42679342D01*
X69310970Y-42679342D02*
X69406208Y-42774580D01*
X69406208Y-42774580D02*
X69501446Y-42965057D01*
X69501446Y-42965057D02*
X69501446Y-43536485D01*
X69501446Y-43536485D02*
X69406208Y-43726961D01*
X69406208Y-43726961D02*
X69310970Y-43822200D01*
X69310970Y-43822200D02*
X69120494Y-43917438D01*
X69120494Y-43917438D02*
X68834779Y-43917438D01*
X70358589Y-43917438D02*
X70358589Y-42584104D01*
X70358589Y-42774580D02*
X70453827Y-42679342D01*
X70453827Y-42679342D02*
X70644303Y-42584104D01*
X70644303Y-42584104D02*
X70930018Y-42584104D01*
X70930018Y-42584104D02*
X71120494Y-42679342D01*
X71120494Y-42679342D02*
X71215732Y-42869819D01*
X71215732Y-42869819D02*
X71215732Y-43917438D01*
X71215732Y-42869819D02*
X71310970Y-42679342D01*
X71310970Y-42679342D02*
X71501446Y-42584104D01*
X71501446Y-42584104D02*
X71787160Y-42584104D01*
X71787160Y-42584104D02*
X71977637Y-42679342D01*
X71977637Y-42679342D02*
X72072875Y-42869819D01*
X72072875Y-42869819D02*
X72072875Y-43917438D01*
X73787161Y-43822200D02*
X73596685Y-43917438D01*
X73596685Y-43917438D02*
X73215732Y-43917438D01*
X73215732Y-43917438D02*
X73025256Y-43822200D01*
X73025256Y-43822200D02*
X72930018Y-43631723D01*
X72930018Y-43631723D02*
X72930018Y-42869819D01*
X72930018Y-42869819D02*
X73025256Y-42679342D01*
X73025256Y-42679342D02*
X73215732Y-42584104D01*
X73215732Y-42584104D02*
X73596685Y-42584104D01*
X73596685Y-42584104D02*
X73787161Y-42679342D01*
X73787161Y-42679342D02*
X73882399Y-42869819D01*
X73882399Y-42869819D02*
X73882399Y-43060295D01*
X73882399Y-43060295D02*
X72930018Y-43250771D01*
X76263352Y-43917438D02*
X76263352Y-41917438D01*
X77215733Y-42584104D02*
X77215733Y-43917438D01*
X77215733Y-42774580D02*
X77310971Y-42679342D01*
X77310971Y-42679342D02*
X77501447Y-42584104D01*
X77501447Y-42584104D02*
X77787162Y-42584104D01*
X77787162Y-42584104D02*
X77977638Y-42679342D01*
X77977638Y-42679342D02*
X78072876Y-42869819D01*
X78072876Y-42869819D02*
X78072876Y-43917438D01*
X78739543Y-42584104D02*
X79501447Y-42584104D01*
X79025257Y-41917438D02*
X79025257Y-43631723D01*
X79025257Y-43631723D02*
X79120495Y-43822200D01*
X79120495Y-43822200D02*
X79310971Y-43917438D01*
X79310971Y-43917438D02*
X79501447Y-43917438D01*
X80930019Y-43822200D02*
X80739543Y-43917438D01*
X80739543Y-43917438D02*
X80358590Y-43917438D01*
X80358590Y-43917438D02*
X80168114Y-43822200D01*
X80168114Y-43822200D02*
X80072876Y-43631723D01*
X80072876Y-43631723D02*
X80072876Y-42869819D01*
X80072876Y-42869819D02*
X80168114Y-42679342D01*
X80168114Y-42679342D02*
X80358590Y-42584104D01*
X80358590Y-42584104D02*
X80739543Y-42584104D01*
X80739543Y-42584104D02*
X80930019Y-42679342D01*
X80930019Y-42679342D02*
X81025257Y-42869819D01*
X81025257Y-42869819D02*
X81025257Y-43060295D01*
X81025257Y-43060295D02*
X80072876Y-43250771D01*
X81882400Y-43917438D02*
X81882400Y-42584104D01*
X81882400Y-42965057D02*
X81977638Y-42774580D01*
X81977638Y-42774580D02*
X82072876Y-42679342D01*
X82072876Y-42679342D02*
X82263352Y-42584104D01*
X82263352Y-42584104D02*
X82453829Y-42584104D01*
X82834781Y-42584104D02*
X83596685Y-42584104D01*
X83120495Y-43917438D02*
X83120495Y-42203152D01*
X83120495Y-42203152D02*
X83215733Y-42012676D01*
X83215733Y-42012676D02*
X83406209Y-41917438D01*
X83406209Y-41917438D02*
X83596685Y-41917438D01*
X85120495Y-43917438D02*
X85120495Y-42869819D01*
X85120495Y-42869819D02*
X85025257Y-42679342D01*
X85025257Y-42679342D02*
X84834781Y-42584104D01*
X84834781Y-42584104D02*
X84453828Y-42584104D01*
X84453828Y-42584104D02*
X84263352Y-42679342D01*
X85120495Y-43822200D02*
X84930019Y-43917438D01*
X84930019Y-43917438D02*
X84453828Y-43917438D01*
X84453828Y-43917438D02*
X84263352Y-43822200D01*
X84263352Y-43822200D02*
X84168114Y-43631723D01*
X84168114Y-43631723D02*
X84168114Y-43441247D01*
X84168114Y-43441247D02*
X84263352Y-43250771D01*
X84263352Y-43250771D02*
X84453828Y-43155533D01*
X84453828Y-43155533D02*
X84930019Y-43155533D01*
X84930019Y-43155533D02*
X85120495Y-43060295D01*
X86930019Y-43822200D02*
X86739543Y-43917438D01*
X86739543Y-43917438D02*
X86358590Y-43917438D01*
X86358590Y-43917438D02*
X86168114Y-43822200D01*
X86168114Y-43822200D02*
X86072876Y-43726961D01*
X86072876Y-43726961D02*
X85977638Y-43536485D01*
X85977638Y-43536485D02*
X85977638Y-42965057D01*
X85977638Y-42965057D02*
X86072876Y-42774580D01*
X86072876Y-42774580D02*
X86168114Y-42679342D01*
X86168114Y-42679342D02*
X86358590Y-42584104D01*
X86358590Y-42584104D02*
X86739543Y-42584104D01*
X86739543Y-42584104D02*
X86930019Y-42679342D01*
X88549067Y-43822200D02*
X88358591Y-43917438D01*
X88358591Y-43917438D02*
X87977638Y-43917438D01*
X87977638Y-43917438D02*
X87787162Y-43822200D01*
X87787162Y-43822200D02*
X87691924Y-43631723D01*
X87691924Y-43631723D02*
X87691924Y-42869819D01*
X87691924Y-42869819D02*
X87787162Y-42679342D01*
X87787162Y-42679342D02*
X87977638Y-42584104D01*
X87977638Y-42584104D02*
X88358591Y-42584104D01*
X88358591Y-42584104D02*
X88549067Y-42679342D01*
X88549067Y-42679342D02*
X88644305Y-42869819D01*
X88644305Y-42869819D02*
X88644305Y-43060295D01*
X88644305Y-43060295D02*
X87691924Y-43250771D01*
X107127922Y-109690819D02*
X107461255Y-110690819D01*
X107461255Y-110690819D02*
X107794588Y-109690819D01*
X108508874Y-110643200D02*
X108413636Y-110690819D01*
X108413636Y-110690819D02*
X108223160Y-110690819D01*
X108223160Y-110690819D02*
X108127922Y-110643200D01*
X108127922Y-110643200D02*
X108080303Y-110547961D01*
X108080303Y-110547961D02*
X108080303Y-110167009D01*
X108080303Y-110167009D02*
X108127922Y-110071771D01*
X108127922Y-110071771D02*
X108223160Y-110024152D01*
X108223160Y-110024152D02*
X108413636Y-110024152D01*
X108413636Y-110024152D02*
X108508874Y-110071771D01*
X108508874Y-110071771D02*
X108556493Y-110167009D01*
X108556493Y-110167009D02*
X108556493Y-110262247D01*
X108556493Y-110262247D02*
X108080303Y-110357485D01*
X108985065Y-110690819D02*
X108985065Y-110024152D01*
X108985065Y-110214628D02*
X109032684Y-110119390D01*
X109032684Y-110119390D02*
X109080303Y-110071771D01*
X109080303Y-110071771D02*
X109175541Y-110024152D01*
X109175541Y-110024152D02*
X109270779Y-110024152D01*
X109604113Y-110595580D02*
X109651732Y-110643200D01*
X109651732Y-110643200D02*
X109604113Y-110690819D01*
X109604113Y-110690819D02*
X109556494Y-110643200D01*
X109556494Y-110643200D02*
X109604113Y-110595580D01*
X109604113Y-110595580D02*
X109604113Y-110690819D01*
X111032684Y-109690819D02*
X111127922Y-109690819D01*
X111127922Y-109690819D02*
X111223160Y-109738438D01*
X111223160Y-109738438D02*
X111270779Y-109786057D01*
X111270779Y-109786057D02*
X111318398Y-109881295D01*
X111318398Y-109881295D02*
X111366017Y-110071771D01*
X111366017Y-110071771D02*
X111366017Y-110309866D01*
X111366017Y-110309866D02*
X111318398Y-110500342D01*
X111318398Y-110500342D02*
X111270779Y-110595580D01*
X111270779Y-110595580D02*
X111223160Y-110643200D01*
X111223160Y-110643200D02*
X111127922Y-110690819D01*
X111127922Y-110690819D02*
X111032684Y-110690819D01*
X111032684Y-110690819D02*
X110937446Y-110643200D01*
X110937446Y-110643200D02*
X110889827Y-110595580D01*
X110889827Y-110595580D02*
X110842208Y-110500342D01*
X110842208Y-110500342D02*
X110794589Y-110309866D01*
X110794589Y-110309866D02*
X110794589Y-110071771D01*
X110794589Y-110071771D02*
X110842208Y-109881295D01*
X110842208Y-109881295D02*
X110889827Y-109786057D01*
X110889827Y-109786057D02*
X110937446Y-109738438D01*
X110937446Y-109738438D02*
X111032684Y-109690819D01*
X111794589Y-110595580D02*
X111842208Y-110643200D01*
X111842208Y-110643200D02*
X111794589Y-110690819D01*
X111794589Y-110690819D02*
X111746970Y-110643200D01*
X111746970Y-110643200D02*
X111794589Y-110595580D01*
X111794589Y-110595580D02*
X111794589Y-110690819D01*
X112794588Y-110690819D02*
X112223160Y-110690819D01*
X112508874Y-110690819D02*
X112508874Y-109690819D01*
X112508874Y-109690819D02*
X112413636Y-109833676D01*
X112413636Y-109833676D02*
X112318398Y-109928914D01*
X112318398Y-109928914D02*
X112223160Y-109976533D01*
X114508874Y-110690819D02*
X113937446Y-110690819D01*
X114223160Y-110690819D02*
X114223160Y-109690819D01*
X114223160Y-109690819D02*
X114127922Y-109833676D01*
X114127922Y-109833676D02*
X114032684Y-109928914D01*
X114032684Y-109928914D02*
X113937446Y-109976533D01*
X115461255Y-110690819D02*
X114889827Y-110690819D01*
X115175541Y-110690819D02*
X115175541Y-109690819D01*
X115175541Y-109690819D02*
X115080303Y-109833676D01*
X115080303Y-109833676D02*
X114985065Y-109928914D01*
X114985065Y-109928914D02*
X114889827Y-109976533D01*
X116604112Y-109643200D02*
X115746970Y-110928914D01*
X116889827Y-109786057D02*
X116937446Y-109738438D01*
X116937446Y-109738438D02*
X117032684Y-109690819D01*
X117032684Y-109690819D02*
X117270779Y-109690819D01*
X117270779Y-109690819D02*
X117366017Y-109738438D01*
X117366017Y-109738438D02*
X117413636Y-109786057D01*
X117413636Y-109786057D02*
X117461255Y-109881295D01*
X117461255Y-109881295D02*
X117461255Y-109976533D01*
X117461255Y-109976533D02*
X117413636Y-110119390D01*
X117413636Y-110119390D02*
X116842208Y-110690819D01*
X116842208Y-110690819D02*
X117461255Y-110690819D01*
X118080303Y-109690819D02*
X118175541Y-109690819D01*
X118175541Y-109690819D02*
X118270779Y-109738438D01*
X118270779Y-109738438D02*
X118318398Y-109786057D01*
X118318398Y-109786057D02*
X118366017Y-109881295D01*
X118366017Y-109881295D02*
X118413636Y-110071771D01*
X118413636Y-110071771D02*
X118413636Y-110309866D01*
X118413636Y-110309866D02*
X118366017Y-110500342D01*
X118366017Y-110500342D02*
X118318398Y-110595580D01*
X118318398Y-110595580D02*
X118270779Y-110643200D01*
X118270779Y-110643200D02*
X118175541Y-110690819D01*
X118175541Y-110690819D02*
X118080303Y-110690819D01*
X118080303Y-110690819D02*
X117985065Y-110643200D01*
X117985065Y-110643200D02*
X117937446Y-110595580D01*
X117937446Y-110595580D02*
X117889827Y-110500342D01*
X117889827Y-110500342D02*
X117842208Y-110309866D01*
X117842208Y-110309866D02*
X117842208Y-110071771D01*
X117842208Y-110071771D02*
X117889827Y-109881295D01*
X117889827Y-109881295D02*
X117937446Y-109786057D01*
X117937446Y-109786057D02*
X117985065Y-109738438D01*
X117985065Y-109738438D02*
X118080303Y-109690819D01*
X118794589Y-109786057D02*
X118842208Y-109738438D01*
X118842208Y-109738438D02*
X118937446Y-109690819D01*
X118937446Y-109690819D02*
X119175541Y-109690819D01*
X119175541Y-109690819D02*
X119270779Y-109738438D01*
X119270779Y-109738438D02*
X119318398Y-109786057D01*
X119318398Y-109786057D02*
X119366017Y-109881295D01*
X119366017Y-109881295D02*
X119366017Y-109976533D01*
X119366017Y-109976533D02*
X119318398Y-110119390D01*
X119318398Y-110119390D02*
X118746970Y-110690819D01*
X118746970Y-110690819D02*
X119366017Y-110690819D01*
X119699351Y-109690819D02*
X120318398Y-109690819D01*
X120318398Y-109690819D02*
X119985065Y-110071771D01*
X119985065Y-110071771D02*
X120127922Y-110071771D01*
X120127922Y-110071771D02*
X120223160Y-110119390D01*
X120223160Y-110119390D02*
X120270779Y-110167009D01*
X120270779Y-110167009D02*
X120318398Y-110262247D01*
X120318398Y-110262247D02*
X120318398Y-110500342D01*
X120318398Y-110500342D02*
X120270779Y-110595580D01*
X120270779Y-110595580D02*
X120223160Y-110643200D01*
X120223160Y-110643200D02*
X120127922Y-110690819D01*
X120127922Y-110690819D02*
X119842208Y-110690819D01*
X119842208Y-110690819D02*
X119746970Y-110643200D01*
X119746970Y-110643200D02*
X119699351Y-110595580D01*
X121770588Y-104644819D02*
X121199160Y-104644819D01*
X121484874Y-104644819D02*
X121484874Y-103644819D01*
X121484874Y-103644819D02*
X121389636Y-103787676D01*
X121389636Y-103787676D02*
X121294398Y-103882914D01*
X121294398Y-103882914D02*
X121199160Y-103930533D01*
X122151541Y-103740057D02*
X122199160Y-103692438D01*
X122199160Y-103692438D02*
X122294398Y-103644819D01*
X122294398Y-103644819D02*
X122532493Y-103644819D01*
X122532493Y-103644819D02*
X122627731Y-103692438D01*
X122627731Y-103692438D02*
X122675350Y-103740057D01*
X122675350Y-103740057D02*
X122722969Y-103835295D01*
X122722969Y-103835295D02*
X122722969Y-103930533D01*
X122722969Y-103930533D02*
X122675350Y-104073390D01*
X122675350Y-104073390D02*
X122103922Y-104644819D01*
X122103922Y-104644819D02*
X122722969Y-104644819D01*
X123008684Y-103644819D02*
X123342017Y-104644819D01*
X123342017Y-104644819D02*
X123675350Y-103644819D01*
X91249904Y-43923057D02*
X91297523Y-43875438D01*
X91297523Y-43875438D02*
X91392761Y-43827819D01*
X91392761Y-43827819D02*
X91630856Y-43827819D01*
X91630856Y-43827819D02*
X91726094Y-43875438D01*
X91726094Y-43875438D02*
X91773713Y-43923057D01*
X91773713Y-43923057D02*
X91821332Y-44018295D01*
X91821332Y-44018295D02*
X91821332Y-44113533D01*
X91821332Y-44113533D02*
X91773713Y-44256390D01*
X91773713Y-44256390D02*
X91202285Y-44827819D01*
X91202285Y-44827819D02*
X91821332Y-44827819D01*
X92773713Y-44827819D02*
X92202285Y-44827819D01*
X92487999Y-44827819D02*
X92487999Y-43827819D01*
X92487999Y-43827819D02*
X92392761Y-43970676D01*
X92392761Y-43970676D02*
X92297523Y-44065914D01*
X92297523Y-44065914D02*
X92202285Y-44113533D01*
X96202286Y-43923057D02*
X96249905Y-43875438D01*
X96249905Y-43875438D02*
X96345143Y-43827819D01*
X96345143Y-43827819D02*
X96583238Y-43827819D01*
X96583238Y-43827819D02*
X96678476Y-43875438D01*
X96678476Y-43875438D02*
X96726095Y-43923057D01*
X96726095Y-43923057D02*
X96773714Y-44018295D01*
X96773714Y-44018295D02*
X96773714Y-44113533D01*
X96773714Y-44113533D02*
X96726095Y-44256390D01*
X96726095Y-44256390D02*
X96154667Y-44827819D01*
X96154667Y-44827819D02*
X96773714Y-44827819D01*
X97154667Y-43923057D02*
X97202286Y-43875438D01*
X97202286Y-43875438D02*
X97297524Y-43827819D01*
X97297524Y-43827819D02*
X97535619Y-43827819D01*
X97535619Y-43827819D02*
X97630857Y-43875438D01*
X97630857Y-43875438D02*
X97678476Y-43923057D01*
X97678476Y-43923057D02*
X97726095Y-44018295D01*
X97726095Y-44018295D02*
X97726095Y-44113533D01*
X97726095Y-44113533D02*
X97678476Y-44256390D01*
X97678476Y-44256390D02*
X97107048Y-44827819D01*
X97107048Y-44827819D02*
X97726095Y-44827819D01*
X121770588Y-47812438D02*
X121675350Y-47764819D01*
X121675350Y-47764819D02*
X121532493Y-47764819D01*
X121532493Y-47764819D02*
X121389636Y-47812438D01*
X121389636Y-47812438D02*
X121294398Y-47907676D01*
X121294398Y-47907676D02*
X121246779Y-48002914D01*
X121246779Y-48002914D02*
X121199160Y-48193390D01*
X121199160Y-48193390D02*
X121199160Y-48336247D01*
X121199160Y-48336247D02*
X121246779Y-48526723D01*
X121246779Y-48526723D02*
X121294398Y-48621961D01*
X121294398Y-48621961D02*
X121389636Y-48717200D01*
X121389636Y-48717200D02*
X121532493Y-48764819D01*
X121532493Y-48764819D02*
X121627731Y-48764819D01*
X121627731Y-48764819D02*
X121770588Y-48717200D01*
X121770588Y-48717200D02*
X121818207Y-48669580D01*
X121818207Y-48669580D02*
X121818207Y-48336247D01*
X121818207Y-48336247D02*
X121627731Y-48336247D01*
X122246779Y-48764819D02*
X122246779Y-47764819D01*
X122246779Y-47764819D02*
X122818207Y-48764819D01*
X122818207Y-48764819D02*
X122818207Y-47764819D01*
X123294398Y-48764819D02*
X123294398Y-47764819D01*
X123294398Y-47764819D02*
X123532493Y-47764819D01*
X123532493Y-47764819D02*
X123675350Y-47812438D01*
X123675350Y-47812438D02*
X123770588Y-47907676D01*
X123770588Y-47907676D02*
X123818207Y-48002914D01*
X123818207Y-48002914D02*
X123865826Y-48193390D01*
X123865826Y-48193390D02*
X123865826Y-48336247D01*
X123865826Y-48336247D02*
X123818207Y-48526723D01*
X123818207Y-48526723D02*
X123770588Y-48621961D01*
X123770588Y-48621961D02*
X123675350Y-48717200D01*
X123675350Y-48717200D02*
X123532493Y-48764819D01*
X123532493Y-48764819D02*
X123294398Y-48764819D01*
X121770588Y-89404819D02*
X121199160Y-89404819D01*
X121484874Y-89404819D02*
X121484874Y-88404819D01*
X121484874Y-88404819D02*
X121389636Y-88547676D01*
X121389636Y-88547676D02*
X121294398Y-88642914D01*
X121294398Y-88642914D02*
X121199160Y-88690533D01*
X122151541Y-88500057D02*
X122199160Y-88452438D01*
X122199160Y-88452438D02*
X122294398Y-88404819D01*
X122294398Y-88404819D02*
X122532493Y-88404819D01*
X122532493Y-88404819D02*
X122627731Y-88452438D01*
X122627731Y-88452438D02*
X122675350Y-88500057D01*
X122675350Y-88500057D02*
X122722969Y-88595295D01*
X122722969Y-88595295D02*
X122722969Y-88690533D01*
X122722969Y-88690533D02*
X122675350Y-88833390D01*
X122675350Y-88833390D02*
X122103922Y-89404819D01*
X122103922Y-89404819D02*
X122722969Y-89404819D01*
X123008684Y-88404819D02*
X123342017Y-89404819D01*
X123342017Y-89404819D02*
X123675350Y-88404819D01*
X121770588Y-74164819D02*
X121199160Y-74164819D01*
X121484874Y-74164819D02*
X121484874Y-73164819D01*
X121484874Y-73164819D02*
X121389636Y-73307676D01*
X121389636Y-73307676D02*
X121294398Y-73402914D01*
X121294398Y-73402914D02*
X121199160Y-73450533D01*
X122151541Y-73260057D02*
X122199160Y-73212438D01*
X122199160Y-73212438D02*
X122294398Y-73164819D01*
X122294398Y-73164819D02*
X122532493Y-73164819D01*
X122532493Y-73164819D02*
X122627731Y-73212438D01*
X122627731Y-73212438D02*
X122675350Y-73260057D01*
X122675350Y-73260057D02*
X122722969Y-73355295D01*
X122722969Y-73355295D02*
X122722969Y-73450533D01*
X122722969Y-73450533D02*
X122675350Y-73593390D01*
X122675350Y-73593390D02*
X122103922Y-74164819D01*
X122103922Y-74164819D02*
X122722969Y-74164819D01*
X123008684Y-73164819D02*
X123342017Y-74164819D01*
X123342017Y-74164819D02*
X123675350Y-73164819D01*
X121770588Y-78292438D02*
X121675350Y-78244819D01*
X121675350Y-78244819D02*
X121532493Y-78244819D01*
X121532493Y-78244819D02*
X121389636Y-78292438D01*
X121389636Y-78292438D02*
X121294398Y-78387676D01*
X121294398Y-78387676D02*
X121246779Y-78482914D01*
X121246779Y-78482914D02*
X121199160Y-78673390D01*
X121199160Y-78673390D02*
X121199160Y-78816247D01*
X121199160Y-78816247D02*
X121246779Y-79006723D01*
X121246779Y-79006723D02*
X121294398Y-79101961D01*
X121294398Y-79101961D02*
X121389636Y-79197200D01*
X121389636Y-79197200D02*
X121532493Y-79244819D01*
X121532493Y-79244819D02*
X121627731Y-79244819D01*
X121627731Y-79244819D02*
X121770588Y-79197200D01*
X121770588Y-79197200D02*
X121818207Y-79149580D01*
X121818207Y-79149580D02*
X121818207Y-78816247D01*
X121818207Y-78816247D02*
X121627731Y-78816247D01*
X122246779Y-79244819D02*
X122246779Y-78244819D01*
X122246779Y-78244819D02*
X122818207Y-79244819D01*
X122818207Y-79244819D02*
X122818207Y-78244819D01*
X123294398Y-79244819D02*
X123294398Y-78244819D01*
X123294398Y-78244819D02*
X123532493Y-78244819D01*
X123532493Y-78244819D02*
X123675350Y-78292438D01*
X123675350Y-78292438D02*
X123770588Y-78387676D01*
X123770588Y-78387676D02*
X123818207Y-78482914D01*
X123818207Y-78482914D02*
X123865826Y-78673390D01*
X123865826Y-78673390D02*
X123865826Y-78816247D01*
X123865826Y-78816247D02*
X123818207Y-79006723D01*
X123818207Y-79006723D02*
X123770588Y-79101961D01*
X123770588Y-79101961D02*
X123675350Y-79197200D01*
X123675350Y-79197200D02*
X123532493Y-79244819D01*
X123532493Y-79244819D02*
X123294398Y-79244819D01*
X71233095Y-105039819D02*
X71233095Y-105849342D01*
X71233095Y-105849342D02*
X71280714Y-105944580D01*
X71280714Y-105944580D02*
X71328333Y-105992200D01*
X71328333Y-105992200D02*
X71423571Y-106039819D01*
X71423571Y-106039819D02*
X71614047Y-106039819D01*
X71614047Y-106039819D02*
X71709285Y-105992200D01*
X71709285Y-105992200D02*
X71756904Y-105944580D01*
X71756904Y-105944580D02*
X71804523Y-105849342D01*
X71804523Y-105849342D02*
X71804523Y-105039819D01*
X72804523Y-106039819D02*
X72233095Y-106039819D01*
X72518809Y-106039819D02*
X72518809Y-105039819D01*
X72518809Y-105039819D02*
X72423571Y-105182676D01*
X72423571Y-105182676D02*
X72328333Y-105277914D01*
X72328333Y-105277914D02*
X72233095Y-105325533D01*
X97176333Y-78626819D02*
X96843000Y-78150628D01*
X96604905Y-78626819D02*
X96604905Y-77626819D01*
X96604905Y-77626819D02*
X96985857Y-77626819D01*
X96985857Y-77626819D02*
X97081095Y-77674438D01*
X97081095Y-77674438D02*
X97128714Y-77722057D01*
X97128714Y-77722057D02*
X97176333Y-77817295D01*
X97176333Y-77817295D02*
X97176333Y-77960152D01*
X97176333Y-77960152D02*
X97128714Y-78055390D01*
X97128714Y-78055390D02*
X97081095Y-78103009D01*
X97081095Y-78103009D02*
X96985857Y-78150628D01*
X96985857Y-78150628D02*
X96604905Y-78150628D01*
X97509667Y-77626819D02*
X98128714Y-77626819D01*
X98128714Y-77626819D02*
X97795381Y-78007771D01*
X97795381Y-78007771D02*
X97938238Y-78007771D01*
X97938238Y-78007771D02*
X98033476Y-78055390D01*
X98033476Y-78055390D02*
X98081095Y-78103009D01*
X98081095Y-78103009D02*
X98128714Y-78198247D01*
X98128714Y-78198247D02*
X98128714Y-78436342D01*
X98128714Y-78436342D02*
X98081095Y-78531580D01*
X98081095Y-78531580D02*
X98033476Y-78579200D01*
X98033476Y-78579200D02*
X97938238Y-78626819D01*
X97938238Y-78626819D02*
X97652524Y-78626819D01*
X97652524Y-78626819D02*
X97557286Y-78579200D01*
X97557286Y-78579200D02*
X97509667Y-78531580D01*
X97993333Y-66912819D02*
X97660000Y-66436628D01*
X97421905Y-66912819D02*
X97421905Y-65912819D01*
X97421905Y-65912819D02*
X97802857Y-65912819D01*
X97802857Y-65912819D02*
X97898095Y-65960438D01*
X97898095Y-65960438D02*
X97945714Y-66008057D01*
X97945714Y-66008057D02*
X97993333Y-66103295D01*
X97993333Y-66103295D02*
X97993333Y-66246152D01*
X97993333Y-66246152D02*
X97945714Y-66341390D01*
X97945714Y-66341390D02*
X97898095Y-66389009D01*
X97898095Y-66389009D02*
X97802857Y-66436628D01*
X97802857Y-66436628D02*
X97421905Y-66436628D01*
X98850476Y-65912819D02*
X98660000Y-65912819D01*
X98660000Y-65912819D02*
X98564762Y-65960438D01*
X98564762Y-65960438D02*
X98517143Y-66008057D01*
X98517143Y-66008057D02*
X98421905Y-66150914D01*
X98421905Y-66150914D02*
X98374286Y-66341390D01*
X98374286Y-66341390D02*
X98374286Y-66722342D01*
X98374286Y-66722342D02*
X98421905Y-66817580D01*
X98421905Y-66817580D02*
X98469524Y-66865200D01*
X98469524Y-66865200D02*
X98564762Y-66912819D01*
X98564762Y-66912819D02*
X98755238Y-66912819D01*
X98755238Y-66912819D02*
X98850476Y-66865200D01*
X98850476Y-66865200D02*
X98898095Y-66817580D01*
X98898095Y-66817580D02*
X98945714Y-66722342D01*
X98945714Y-66722342D02*
X98945714Y-66484247D01*
X98945714Y-66484247D02*
X98898095Y-66389009D01*
X98898095Y-66389009D02*
X98850476Y-66341390D01*
X98850476Y-66341390D02*
X98755238Y-66293771D01*
X98755238Y-66293771D02*
X98564762Y-66293771D01*
X98564762Y-66293771D02*
X98469524Y-66341390D01*
X98469524Y-66341390D02*
X98421905Y-66389009D01*
X98421905Y-66389009D02*
X98374286Y-66484247D01*
X98605714Y-92892438D02*
X98510476Y-92844819D01*
X98510476Y-92844819D02*
X98367619Y-92844819D01*
X98367619Y-92844819D02*
X98224762Y-92892438D01*
X98224762Y-92892438D02*
X98129524Y-92987676D01*
X98129524Y-92987676D02*
X98081905Y-93082914D01*
X98081905Y-93082914D02*
X98034286Y-93273390D01*
X98034286Y-93273390D02*
X98034286Y-93416247D01*
X98034286Y-93416247D02*
X98081905Y-93606723D01*
X98081905Y-93606723D02*
X98129524Y-93701961D01*
X98129524Y-93701961D02*
X98224762Y-93797200D01*
X98224762Y-93797200D02*
X98367619Y-93844819D01*
X98367619Y-93844819D02*
X98462857Y-93844819D01*
X98462857Y-93844819D02*
X98605714Y-93797200D01*
X98605714Y-93797200D02*
X98653333Y-93749580D01*
X98653333Y-93749580D02*
X98653333Y-93416247D01*
X98653333Y-93416247D02*
X98462857Y-93416247D01*
X99081905Y-93844819D02*
X99081905Y-92844819D01*
X99081905Y-92844819D02*
X99320000Y-92844819D01*
X99320000Y-92844819D02*
X99462857Y-92892438D01*
X99462857Y-92892438D02*
X99558095Y-92987676D01*
X99558095Y-92987676D02*
X99605714Y-93082914D01*
X99605714Y-93082914D02*
X99653333Y-93273390D01*
X99653333Y-93273390D02*
X99653333Y-93416247D01*
X99653333Y-93416247D02*
X99605714Y-93606723D01*
X99605714Y-93606723D02*
X99558095Y-93701961D01*
X99558095Y-93701961D02*
X99462857Y-93797200D01*
X99462857Y-93797200D02*
X99320000Y-93844819D01*
X99320000Y-93844819D02*
X99081905Y-93844819D01*
X100605714Y-93844819D02*
X100034286Y-93844819D01*
X100320000Y-93844819D02*
X100320000Y-92844819D01*
X100320000Y-92844819D02*
X100224762Y-92987676D01*
X100224762Y-92987676D02*
X100129524Y-93082914D01*
X100129524Y-93082914D02*
X100034286Y-93130533D01*
X118345375Y-53830909D02*
X119059660Y-53830909D01*
X119059660Y-53830909D02*
X119202517Y-53878528D01*
X119202517Y-53878528D02*
X119297756Y-53973766D01*
X119297756Y-53973766D02*
X119345375Y-54116623D01*
X119345375Y-54116623D02*
X119345375Y-54211861D01*
X119345375Y-52830909D02*
X119345375Y-53402337D01*
X119345375Y-53116623D02*
X118345375Y-53116623D01*
X118345375Y-53116623D02*
X118488232Y-53211861D01*
X118488232Y-53211861D02*
X118583470Y-53307099D01*
X118583470Y-53307099D02*
X118631089Y-53402337D01*
X99386819Y-86002666D02*
X98910628Y-86335999D01*
X99386819Y-86574094D02*
X98386819Y-86574094D01*
X98386819Y-86574094D02*
X98386819Y-86193142D01*
X98386819Y-86193142D02*
X98434438Y-86097904D01*
X98434438Y-86097904D02*
X98482057Y-86050285D01*
X98482057Y-86050285D02*
X98577295Y-86002666D01*
X98577295Y-86002666D02*
X98720152Y-86002666D01*
X98720152Y-86002666D02*
X98815390Y-86050285D01*
X98815390Y-86050285D02*
X98863009Y-86097904D01*
X98863009Y-86097904D02*
X98910628Y-86193142D01*
X98910628Y-86193142D02*
X98910628Y-86574094D01*
X99386819Y-85050285D02*
X99386819Y-85621713D01*
X99386819Y-85335999D02*
X98386819Y-85335999D01*
X98386819Y-85335999D02*
X98529676Y-85431237D01*
X98529676Y-85431237D02*
X98624914Y-85526475D01*
X98624914Y-85526475D02*
X98672533Y-85621713D01*
X118345375Y-99390909D02*
X119059660Y-99390909D01*
X119059660Y-99390909D02*
X119202517Y-99438528D01*
X119202517Y-99438528D02*
X119297756Y-99533766D01*
X119297756Y-99533766D02*
X119345375Y-99676623D01*
X119345375Y-99676623D02*
X119345375Y-99771861D01*
X118678708Y-98486147D02*
X119345375Y-98486147D01*
X118297756Y-98724242D02*
X119012041Y-98962337D01*
X119012041Y-98962337D02*
X119012041Y-98343290D01*
X104410609Y-48190113D02*
X104410609Y-47475828D01*
X104410609Y-47475828D02*
X104458228Y-47332971D01*
X104458228Y-47332971D02*
X104553466Y-47237733D01*
X104553466Y-47237733D02*
X104696323Y-47190113D01*
X104696323Y-47190113D02*
X104791561Y-47190113D01*
X103505847Y-48190113D02*
X103696323Y-48190113D01*
X103696323Y-48190113D02*
X103791561Y-48142494D01*
X103791561Y-48142494D02*
X103839180Y-48094875D01*
X103839180Y-48094875D02*
X103934418Y-47952018D01*
X103934418Y-47952018D02*
X103982037Y-47761542D01*
X103982037Y-47761542D02*
X103982037Y-47380590D01*
X103982037Y-47380590D02*
X103934418Y-47285352D01*
X103934418Y-47285352D02*
X103886799Y-47237733D01*
X103886799Y-47237733D02*
X103791561Y-47190113D01*
X103791561Y-47190113D02*
X103601085Y-47190113D01*
X103601085Y-47190113D02*
X103505847Y-47237733D01*
X103505847Y-47237733D02*
X103458228Y-47285352D01*
X103458228Y-47285352D02*
X103410609Y-47380590D01*
X103410609Y-47380590D02*
X103410609Y-47618685D01*
X103410609Y-47618685D02*
X103458228Y-47713923D01*
X103458228Y-47713923D02*
X103505847Y-47761542D01*
X103505847Y-47761542D02*
X103601085Y-47809161D01*
X103601085Y-47809161D02*
X103791561Y-47809161D01*
X103791561Y-47809161D02*
X103886799Y-47761542D01*
X103886799Y-47761542D02*
X103934418Y-47713923D01*
X103934418Y-47713923D02*
X103982037Y-47618685D01*
X106227333Y-78626819D02*
X105894000Y-78150628D01*
X105655905Y-78626819D02*
X105655905Y-77626819D01*
X105655905Y-77626819D02*
X106036857Y-77626819D01*
X106036857Y-77626819D02*
X106132095Y-77674438D01*
X106132095Y-77674438D02*
X106179714Y-77722057D01*
X106179714Y-77722057D02*
X106227333Y-77817295D01*
X106227333Y-77817295D02*
X106227333Y-77960152D01*
X106227333Y-77960152D02*
X106179714Y-78055390D01*
X106179714Y-78055390D02*
X106132095Y-78103009D01*
X106132095Y-78103009D02*
X106036857Y-78150628D01*
X106036857Y-78150628D02*
X105655905Y-78150628D01*
X106608286Y-77722057D02*
X106655905Y-77674438D01*
X106655905Y-77674438D02*
X106751143Y-77626819D01*
X106751143Y-77626819D02*
X106989238Y-77626819D01*
X106989238Y-77626819D02*
X107084476Y-77674438D01*
X107084476Y-77674438D02*
X107132095Y-77722057D01*
X107132095Y-77722057D02*
X107179714Y-77817295D01*
X107179714Y-77817295D02*
X107179714Y-77912533D01*
X107179714Y-77912533D02*
X107132095Y-78055390D01*
X107132095Y-78055390D02*
X106560667Y-78626819D01*
X106560667Y-78626819D02*
X107179714Y-78626819D01*
X82605333Y-73167580D02*
X82557714Y-73215200D01*
X82557714Y-73215200D02*
X82414857Y-73262819D01*
X82414857Y-73262819D02*
X82319619Y-73262819D01*
X82319619Y-73262819D02*
X82176762Y-73215200D01*
X82176762Y-73215200D02*
X82081524Y-73119961D01*
X82081524Y-73119961D02*
X82033905Y-73024723D01*
X82033905Y-73024723D02*
X81986286Y-72834247D01*
X81986286Y-72834247D02*
X81986286Y-72691390D01*
X81986286Y-72691390D02*
X82033905Y-72500914D01*
X82033905Y-72500914D02*
X82081524Y-72405676D01*
X82081524Y-72405676D02*
X82176762Y-72310438D01*
X82176762Y-72310438D02*
X82319619Y-72262819D01*
X82319619Y-72262819D02*
X82414857Y-72262819D01*
X82414857Y-72262819D02*
X82557714Y-72310438D01*
X82557714Y-72310438D02*
X82605333Y-72358057D01*
X82986286Y-72358057D02*
X83033905Y-72310438D01*
X83033905Y-72310438D02*
X83129143Y-72262819D01*
X83129143Y-72262819D02*
X83367238Y-72262819D01*
X83367238Y-72262819D02*
X83462476Y-72310438D01*
X83462476Y-72310438D02*
X83510095Y-72358057D01*
X83510095Y-72358057D02*
X83557714Y-72453295D01*
X83557714Y-72453295D02*
X83557714Y-72548533D01*
X83557714Y-72548533D02*
X83510095Y-72691390D01*
X83510095Y-72691390D02*
X82938667Y-73262819D01*
X82938667Y-73262819D02*
X83557714Y-73262819D01*
X86941580Y-64936666D02*
X86989200Y-64984285D01*
X86989200Y-64984285D02*
X87036819Y-65127142D01*
X87036819Y-65127142D02*
X87036819Y-65222380D01*
X87036819Y-65222380D02*
X86989200Y-65365237D01*
X86989200Y-65365237D02*
X86893961Y-65460475D01*
X86893961Y-65460475D02*
X86798723Y-65508094D01*
X86798723Y-65508094D02*
X86608247Y-65555713D01*
X86608247Y-65555713D02*
X86465390Y-65555713D01*
X86465390Y-65555713D02*
X86274914Y-65508094D01*
X86274914Y-65508094D02*
X86179676Y-65460475D01*
X86179676Y-65460475D02*
X86084438Y-65365237D01*
X86084438Y-65365237D02*
X86036819Y-65222380D01*
X86036819Y-65222380D02*
X86036819Y-65127142D01*
X86036819Y-65127142D02*
X86084438Y-64984285D01*
X86084438Y-64984285D02*
X86132057Y-64936666D01*
X86036819Y-64603332D02*
X86036819Y-63984285D01*
X86036819Y-63984285D02*
X86417771Y-64317618D01*
X86417771Y-64317618D02*
X86417771Y-64174761D01*
X86417771Y-64174761D02*
X86465390Y-64079523D01*
X86465390Y-64079523D02*
X86513009Y-64031904D01*
X86513009Y-64031904D02*
X86608247Y-63984285D01*
X86608247Y-63984285D02*
X86846342Y-63984285D01*
X86846342Y-63984285D02*
X86941580Y-64031904D01*
X86941580Y-64031904D02*
X86989200Y-64079523D01*
X86989200Y-64079523D02*
X87036819Y-64174761D01*
X87036819Y-64174761D02*
X87036819Y-64460475D01*
X87036819Y-64460475D02*
X86989200Y-64555713D01*
X86989200Y-64555713D02*
X86941580Y-64603332D01*
X84716666Y-93434819D02*
X84716666Y-94149104D01*
X84716666Y-94149104D02*
X84669047Y-94291961D01*
X84669047Y-94291961D02*
X84573809Y-94387200D01*
X84573809Y-94387200D02*
X84430952Y-94434819D01*
X84430952Y-94434819D02*
X84335714Y-94434819D01*
X85383333Y-93434819D02*
X85478571Y-93434819D01*
X85478571Y-93434819D02*
X85573809Y-93482438D01*
X85573809Y-93482438D02*
X85621428Y-93530057D01*
X85621428Y-93530057D02*
X85669047Y-93625295D01*
X85669047Y-93625295D02*
X85716666Y-93815771D01*
X85716666Y-93815771D02*
X85716666Y-94053866D01*
X85716666Y-94053866D02*
X85669047Y-94244342D01*
X85669047Y-94244342D02*
X85621428Y-94339580D01*
X85621428Y-94339580D02*
X85573809Y-94387200D01*
X85573809Y-94387200D02*
X85478571Y-94434819D01*
X85478571Y-94434819D02*
X85383333Y-94434819D01*
X85383333Y-94434819D02*
X85288095Y-94387200D01*
X85288095Y-94387200D02*
X85240476Y-94339580D01*
X85240476Y-94339580D02*
X85192857Y-94244342D01*
X85192857Y-94244342D02*
X85145238Y-94053866D01*
X85145238Y-94053866D02*
X85145238Y-93815771D01*
X85145238Y-93815771D02*
X85192857Y-93625295D01*
X85192857Y-93625295D02*
X85240476Y-93530057D01*
X85240476Y-93530057D02*
X85288095Y-93482438D01*
X85288095Y-93482438D02*
X85383333Y-93434819D01*
X82049999Y-103642438D02*
X81954761Y-103594819D01*
X81954761Y-103594819D02*
X81811904Y-103594819D01*
X81811904Y-103594819D02*
X81669047Y-103642438D01*
X81669047Y-103642438D02*
X81573809Y-103737676D01*
X81573809Y-103737676D02*
X81526190Y-103832914D01*
X81526190Y-103832914D02*
X81478571Y-104023390D01*
X81478571Y-104023390D02*
X81478571Y-104166247D01*
X81478571Y-104166247D02*
X81526190Y-104356723D01*
X81526190Y-104356723D02*
X81573809Y-104451961D01*
X81573809Y-104451961D02*
X81669047Y-104547200D01*
X81669047Y-104547200D02*
X81811904Y-104594819D01*
X81811904Y-104594819D02*
X81907142Y-104594819D01*
X81907142Y-104594819D02*
X82049999Y-104547200D01*
X82049999Y-104547200D02*
X82097618Y-104499580D01*
X82097618Y-104499580D02*
X82097618Y-104166247D01*
X82097618Y-104166247D02*
X81907142Y-104166247D01*
X82526190Y-104594819D02*
X82526190Y-103928152D01*
X82526190Y-104118628D02*
X82573809Y-104023390D01*
X82573809Y-104023390D02*
X82621428Y-103975771D01*
X82621428Y-103975771D02*
X82716666Y-103928152D01*
X82716666Y-103928152D02*
X82811904Y-103928152D01*
X83288095Y-104594819D02*
X83192857Y-104547200D01*
X83192857Y-104547200D02*
X83145238Y-104499580D01*
X83145238Y-104499580D02*
X83097619Y-104404342D01*
X83097619Y-104404342D02*
X83097619Y-104118628D01*
X83097619Y-104118628D02*
X83145238Y-104023390D01*
X83145238Y-104023390D02*
X83192857Y-103975771D01*
X83192857Y-103975771D02*
X83288095Y-103928152D01*
X83288095Y-103928152D02*
X83430952Y-103928152D01*
X83430952Y-103928152D02*
X83526190Y-103975771D01*
X83526190Y-103975771D02*
X83573809Y-104023390D01*
X83573809Y-104023390D02*
X83621428Y-104118628D01*
X83621428Y-104118628D02*
X83621428Y-104404342D01*
X83621428Y-104404342D02*
X83573809Y-104499580D01*
X83573809Y-104499580D02*
X83526190Y-104547200D01*
X83526190Y-104547200D02*
X83430952Y-104594819D01*
X83430952Y-104594819D02*
X83288095Y-104594819D01*
X84478571Y-103928152D02*
X84478571Y-104594819D01*
X84050000Y-103928152D02*
X84050000Y-104451961D01*
X84050000Y-104451961D02*
X84097619Y-104547200D01*
X84097619Y-104547200D02*
X84192857Y-104594819D01*
X84192857Y-104594819D02*
X84335714Y-104594819D01*
X84335714Y-104594819D02*
X84430952Y-104547200D01*
X84430952Y-104547200D02*
X84478571Y-104499580D01*
X84954762Y-103928152D02*
X84954762Y-104594819D01*
X84954762Y-104023390D02*
X85002381Y-103975771D01*
X85002381Y-103975771D02*
X85097619Y-103928152D01*
X85097619Y-103928152D02*
X85240476Y-103928152D01*
X85240476Y-103928152D02*
X85335714Y-103975771D01*
X85335714Y-103975771D02*
X85383333Y-104071009D01*
X85383333Y-104071009D02*
X85383333Y-104594819D01*
X86288095Y-104594819D02*
X86288095Y-103594819D01*
X86288095Y-104547200D02*
X86192857Y-104594819D01*
X86192857Y-104594819D02*
X86002381Y-104594819D01*
X86002381Y-104594819D02*
X85907143Y-104547200D01*
X85907143Y-104547200D02*
X85859524Y-104499580D01*
X85859524Y-104499580D02*
X85811905Y-104404342D01*
X85811905Y-104404342D02*
X85811905Y-104118628D01*
X85811905Y-104118628D02*
X85859524Y-104023390D01*
X85859524Y-104023390D02*
X85907143Y-103975771D01*
X85907143Y-103975771D02*
X86002381Y-103928152D01*
X86002381Y-103928152D02*
X86192857Y-103928152D01*
X86192857Y-103928152D02*
X86288095Y-103975771D01*
X86764286Y-104594819D02*
X86764286Y-103928152D01*
X86764286Y-103594819D02*
X86716667Y-103642438D01*
X86716667Y-103642438D02*
X86764286Y-103690057D01*
X86764286Y-103690057D02*
X86811905Y-103642438D01*
X86811905Y-103642438D02*
X86764286Y-103594819D01*
X86764286Y-103594819D02*
X86764286Y-103690057D01*
X87240476Y-103928152D02*
X87240476Y-104594819D01*
X87240476Y-104023390D02*
X87288095Y-103975771D01*
X87288095Y-103975771D02*
X87383333Y-103928152D01*
X87383333Y-103928152D02*
X87526190Y-103928152D01*
X87526190Y-103928152D02*
X87621428Y-103975771D01*
X87621428Y-103975771D02*
X87669047Y-104071009D01*
X87669047Y-104071009D02*
X87669047Y-104594819D01*
X88573809Y-103928152D02*
X88573809Y-104737676D01*
X88573809Y-104737676D02*
X88526190Y-104832914D01*
X88526190Y-104832914D02*
X88478571Y-104880533D01*
X88478571Y-104880533D02*
X88383333Y-104928152D01*
X88383333Y-104928152D02*
X88240476Y-104928152D01*
X88240476Y-104928152D02*
X88145238Y-104880533D01*
X88573809Y-104547200D02*
X88478571Y-104594819D01*
X88478571Y-104594819D02*
X88288095Y-104594819D01*
X88288095Y-104594819D02*
X88192857Y-104547200D01*
X88192857Y-104547200D02*
X88145238Y-104499580D01*
X88145238Y-104499580D02*
X88097619Y-104404342D01*
X88097619Y-104404342D02*
X88097619Y-104118628D01*
X88097619Y-104118628D02*
X88145238Y-104023390D01*
X88145238Y-104023390D02*
X88192857Y-103975771D01*
X88192857Y-103975771D02*
X88288095Y-103928152D01*
X88288095Y-103928152D02*
X88478571Y-103928152D01*
X88478571Y-103928152D02*
X88573809Y-103975771D01*
X98083333Y-70816819D02*
X97750000Y-70340628D01*
X97511905Y-70816819D02*
X97511905Y-69816819D01*
X97511905Y-69816819D02*
X97892857Y-69816819D01*
X97892857Y-69816819D02*
X97988095Y-69864438D01*
X97988095Y-69864438D02*
X98035714Y-69912057D01*
X98035714Y-69912057D02*
X98083333Y-70007295D01*
X98083333Y-70007295D02*
X98083333Y-70150152D01*
X98083333Y-70150152D02*
X98035714Y-70245390D01*
X98035714Y-70245390D02*
X97988095Y-70293009D01*
X97988095Y-70293009D02*
X97892857Y-70340628D01*
X97892857Y-70340628D02*
X97511905Y-70340628D01*
X98654762Y-70245390D02*
X98559524Y-70197771D01*
X98559524Y-70197771D02*
X98511905Y-70150152D01*
X98511905Y-70150152D02*
X98464286Y-70054914D01*
X98464286Y-70054914D02*
X98464286Y-70007295D01*
X98464286Y-70007295D02*
X98511905Y-69912057D01*
X98511905Y-69912057D02*
X98559524Y-69864438D01*
X98559524Y-69864438D02*
X98654762Y-69816819D01*
X98654762Y-69816819D02*
X98845238Y-69816819D01*
X98845238Y-69816819D02*
X98940476Y-69864438D01*
X98940476Y-69864438D02*
X98988095Y-69912057D01*
X98988095Y-69912057D02*
X99035714Y-70007295D01*
X99035714Y-70007295D02*
X99035714Y-70054914D01*
X99035714Y-70054914D02*
X98988095Y-70150152D01*
X98988095Y-70150152D02*
X98940476Y-70197771D01*
X98940476Y-70197771D02*
X98845238Y-70245390D01*
X98845238Y-70245390D02*
X98654762Y-70245390D01*
X98654762Y-70245390D02*
X98559524Y-70293009D01*
X98559524Y-70293009D02*
X98511905Y-70340628D01*
X98511905Y-70340628D02*
X98464286Y-70435866D01*
X98464286Y-70435866D02*
X98464286Y-70626342D01*
X98464286Y-70626342D02*
X98511905Y-70721580D01*
X98511905Y-70721580D02*
X98559524Y-70769200D01*
X98559524Y-70769200D02*
X98654762Y-70816819D01*
X98654762Y-70816819D02*
X98845238Y-70816819D01*
X98845238Y-70816819D02*
X98940476Y-70769200D01*
X98940476Y-70769200D02*
X98988095Y-70721580D01*
X98988095Y-70721580D02*
X99035714Y-70626342D01*
X99035714Y-70626342D02*
X99035714Y-70435866D01*
X99035714Y-70435866D02*
X98988095Y-70340628D01*
X98988095Y-70340628D02*
X98940476Y-70293009D01*
X98940476Y-70293009D02*
X98845238Y-70245390D01*
X103073333Y-66920319D02*
X102740000Y-66444128D01*
X102501905Y-66920319D02*
X102501905Y-65920319D01*
X102501905Y-65920319D02*
X102882857Y-65920319D01*
X102882857Y-65920319D02*
X102978095Y-65967938D01*
X102978095Y-65967938D02*
X103025714Y-66015557D01*
X103025714Y-66015557D02*
X103073333Y-66110795D01*
X103073333Y-66110795D02*
X103073333Y-66253652D01*
X103073333Y-66253652D02*
X103025714Y-66348890D01*
X103025714Y-66348890D02*
X102978095Y-66396509D01*
X102978095Y-66396509D02*
X102882857Y-66444128D01*
X102882857Y-66444128D02*
X102501905Y-66444128D01*
X103406667Y-65920319D02*
X104073333Y-65920319D01*
X104073333Y-65920319D02*
X103644762Y-66920319D01*
X118345375Y-84150909D02*
X119059660Y-84150909D01*
X119059660Y-84150909D02*
X119202517Y-84198528D01*
X119202517Y-84198528D02*
X119297756Y-84293766D01*
X119297756Y-84293766D02*
X119345375Y-84436623D01*
X119345375Y-84436623D02*
X119345375Y-84531861D01*
X118345375Y-83769956D02*
X118345375Y-83150909D01*
X118345375Y-83150909D02*
X118726327Y-83484242D01*
X118726327Y-83484242D02*
X118726327Y-83341385D01*
X118726327Y-83341385D02*
X118773946Y-83246147D01*
X118773946Y-83246147D02*
X118821565Y-83198528D01*
X118821565Y-83198528D02*
X118916803Y-83150909D01*
X118916803Y-83150909D02*
X119154898Y-83150909D01*
X119154898Y-83150909D02*
X119250136Y-83198528D01*
X119250136Y-83198528D02*
X119297756Y-83246147D01*
X119297756Y-83246147D02*
X119345375Y-83341385D01*
X119345375Y-83341385D02*
X119345375Y-83627099D01*
X119345375Y-83627099D02*
X119297756Y-83722337D01*
X119297756Y-83722337D02*
X119250136Y-83769956D01*
X82184095Y-76670819D02*
X82184095Y-77480342D01*
X82184095Y-77480342D02*
X82231714Y-77575580D01*
X82231714Y-77575580D02*
X82279333Y-77623200D01*
X82279333Y-77623200D02*
X82374571Y-77670819D01*
X82374571Y-77670819D02*
X82565047Y-77670819D01*
X82565047Y-77670819D02*
X82660285Y-77623200D01*
X82660285Y-77623200D02*
X82707904Y-77575580D01*
X82707904Y-77575580D02*
X82755523Y-77480342D01*
X82755523Y-77480342D02*
X82755523Y-76670819D01*
X83184095Y-76766057D02*
X83231714Y-76718438D01*
X83231714Y-76718438D02*
X83326952Y-76670819D01*
X83326952Y-76670819D02*
X83565047Y-76670819D01*
X83565047Y-76670819D02*
X83660285Y-76718438D01*
X83660285Y-76718438D02*
X83707904Y-76766057D01*
X83707904Y-76766057D02*
X83755523Y-76861295D01*
X83755523Y-76861295D02*
X83755523Y-76956533D01*
X83755523Y-76956533D02*
X83707904Y-77099390D01*
X83707904Y-77099390D02*
X83136476Y-77670819D01*
X83136476Y-77670819D02*
X83755523Y-77670819D01*
X98099333Y-62876819D02*
X97766000Y-62400628D01*
X97527905Y-62876819D02*
X97527905Y-61876819D01*
X97527905Y-61876819D02*
X97908857Y-61876819D01*
X97908857Y-61876819D02*
X98004095Y-61924438D01*
X98004095Y-61924438D02*
X98051714Y-61972057D01*
X98051714Y-61972057D02*
X98099333Y-62067295D01*
X98099333Y-62067295D02*
X98099333Y-62210152D01*
X98099333Y-62210152D02*
X98051714Y-62305390D01*
X98051714Y-62305390D02*
X98004095Y-62353009D01*
X98004095Y-62353009D02*
X97908857Y-62400628D01*
X97908857Y-62400628D02*
X97527905Y-62400628D01*
X98575524Y-62876819D02*
X98766000Y-62876819D01*
X98766000Y-62876819D02*
X98861238Y-62829200D01*
X98861238Y-62829200D02*
X98908857Y-62781580D01*
X98908857Y-62781580D02*
X99004095Y-62638723D01*
X99004095Y-62638723D02*
X99051714Y-62448247D01*
X99051714Y-62448247D02*
X99051714Y-62067295D01*
X99051714Y-62067295D02*
X99004095Y-61972057D01*
X99004095Y-61972057D02*
X98956476Y-61924438D01*
X98956476Y-61924438D02*
X98861238Y-61876819D01*
X98861238Y-61876819D02*
X98670762Y-61876819D01*
X98670762Y-61876819D02*
X98575524Y-61924438D01*
X98575524Y-61924438D02*
X98527905Y-61972057D01*
X98527905Y-61972057D02*
X98480286Y-62067295D01*
X98480286Y-62067295D02*
X98480286Y-62305390D01*
X98480286Y-62305390D02*
X98527905Y-62400628D01*
X98527905Y-62400628D02*
X98575524Y-62448247D01*
X98575524Y-62448247D02*
X98670762Y-62495866D01*
X98670762Y-62495866D02*
X98861238Y-62495866D01*
X98861238Y-62495866D02*
X98956476Y-62448247D01*
X98956476Y-62448247D02*
X99004095Y-62400628D01*
X99004095Y-62400628D02*
X99051714Y-62305390D01*
X102591905Y-62876819D02*
X102591905Y-61876819D01*
X102591905Y-61876819D02*
X102830000Y-61876819D01*
X102830000Y-61876819D02*
X102972857Y-61924438D01*
X102972857Y-61924438D02*
X103068095Y-62019676D01*
X103068095Y-62019676D02*
X103115714Y-62114914D01*
X103115714Y-62114914D02*
X103163333Y-62305390D01*
X103163333Y-62305390D02*
X103163333Y-62448247D01*
X103163333Y-62448247D02*
X103115714Y-62638723D01*
X103115714Y-62638723D02*
X103068095Y-62733961D01*
X103068095Y-62733961D02*
X102972857Y-62829200D01*
X102972857Y-62829200D02*
X102830000Y-62876819D01*
X102830000Y-62876819D02*
X102591905Y-62876819D01*
X103496667Y-61876819D02*
X104115714Y-61876819D01*
X104115714Y-61876819D02*
X103782381Y-62257771D01*
X103782381Y-62257771D02*
X103925238Y-62257771D01*
X103925238Y-62257771D02*
X104020476Y-62305390D01*
X104020476Y-62305390D02*
X104068095Y-62353009D01*
X104068095Y-62353009D02*
X104115714Y-62448247D01*
X104115714Y-62448247D02*
X104115714Y-62686342D01*
X104115714Y-62686342D02*
X104068095Y-62781580D01*
X104068095Y-62781580D02*
X104020476Y-62829200D01*
X104020476Y-62829200D02*
X103925238Y-62876819D01*
X103925238Y-62876819D02*
X103639524Y-62876819D01*
X103639524Y-62876819D02*
X103544286Y-62829200D01*
X103544286Y-62829200D02*
X103496667Y-62781580D01*
X80590819Y-87542666D02*
X80114628Y-87875999D01*
X80590819Y-88114094D02*
X79590819Y-88114094D01*
X79590819Y-88114094D02*
X79590819Y-87733142D01*
X79590819Y-87733142D02*
X79638438Y-87637904D01*
X79638438Y-87637904D02*
X79686057Y-87590285D01*
X79686057Y-87590285D02*
X79781295Y-87542666D01*
X79781295Y-87542666D02*
X79924152Y-87542666D01*
X79924152Y-87542666D02*
X80019390Y-87590285D01*
X80019390Y-87590285D02*
X80067009Y-87637904D01*
X80067009Y-87637904D02*
X80114628Y-87733142D01*
X80114628Y-87733142D02*
X80114628Y-88114094D01*
X79590819Y-86637904D02*
X79590819Y-87114094D01*
X79590819Y-87114094D02*
X80067009Y-87161713D01*
X80067009Y-87161713D02*
X80019390Y-87114094D01*
X80019390Y-87114094D02*
X79971771Y-87018856D01*
X79971771Y-87018856D02*
X79971771Y-86780761D01*
X79971771Y-86780761D02*
X80019390Y-86685523D01*
X80019390Y-86685523D02*
X80067009Y-86637904D01*
X80067009Y-86637904D02*
X80162247Y-86590285D01*
X80162247Y-86590285D02*
X80400342Y-86590285D01*
X80400342Y-86590285D02*
X80495580Y-86637904D01*
X80495580Y-86637904D02*
X80543200Y-86685523D01*
X80543200Y-86685523D02*
X80590819Y-86780761D01*
X80590819Y-86780761D02*
X80590819Y-87018856D01*
X80590819Y-87018856D02*
X80543200Y-87114094D01*
X80543200Y-87114094D02*
X80495580Y-87161713D01*
X103211333Y-70619580D02*
X103163714Y-70667200D01*
X103163714Y-70667200D02*
X103020857Y-70714819D01*
X103020857Y-70714819D02*
X102925619Y-70714819D01*
X102925619Y-70714819D02*
X102782762Y-70667200D01*
X102782762Y-70667200D02*
X102687524Y-70571961D01*
X102687524Y-70571961D02*
X102639905Y-70476723D01*
X102639905Y-70476723D02*
X102592286Y-70286247D01*
X102592286Y-70286247D02*
X102592286Y-70143390D01*
X102592286Y-70143390D02*
X102639905Y-69952914D01*
X102639905Y-69952914D02*
X102687524Y-69857676D01*
X102687524Y-69857676D02*
X102782762Y-69762438D01*
X102782762Y-69762438D02*
X102925619Y-69714819D01*
X102925619Y-69714819D02*
X103020857Y-69714819D01*
X103020857Y-69714819D02*
X103163714Y-69762438D01*
X103163714Y-69762438D02*
X103211333Y-69810057D01*
X104068476Y-70048152D02*
X104068476Y-70714819D01*
X103830381Y-69667200D02*
X103592286Y-70381485D01*
X103592286Y-70381485D02*
X104211333Y-70381485D01*
X91391261Y-78038057D02*
X91296023Y-77990438D01*
X91296023Y-77990438D02*
X91200785Y-77895200D01*
X91200785Y-77895200D02*
X91057928Y-77752342D01*
X91057928Y-77752342D02*
X90962690Y-77704723D01*
X90962690Y-77704723D02*
X90867452Y-77704723D01*
X90915071Y-77942819D02*
X90819833Y-77895200D01*
X90819833Y-77895200D02*
X90724595Y-77799961D01*
X90724595Y-77799961D02*
X90676976Y-77609485D01*
X90676976Y-77609485D02*
X90676976Y-77276152D01*
X90676976Y-77276152D02*
X90724595Y-77085676D01*
X90724595Y-77085676D02*
X90819833Y-76990438D01*
X90819833Y-76990438D02*
X90915071Y-76942819D01*
X90915071Y-76942819D02*
X91105547Y-76942819D01*
X91105547Y-76942819D02*
X91200785Y-76990438D01*
X91200785Y-76990438D02*
X91296023Y-77085676D01*
X91296023Y-77085676D02*
X91343642Y-77276152D01*
X91343642Y-77276152D02*
X91343642Y-77609485D01*
X91343642Y-77609485D02*
X91296023Y-77799961D01*
X91296023Y-77799961D02*
X91200785Y-77895200D01*
X91200785Y-77895200D02*
X91105547Y-77942819D01*
X91105547Y-77942819D02*
X90915071Y-77942819D01*
X92296023Y-77942819D02*
X91724595Y-77942819D01*
X92010309Y-77942819D02*
X92010309Y-76942819D01*
X92010309Y-76942819D02*
X91915071Y-77085676D01*
X91915071Y-77085676D02*
X91819833Y-77180914D01*
X91819833Y-77180914D02*
X91724595Y-77228533D01*
X82525819Y-64936666D02*
X82525819Y-65412856D01*
X82525819Y-65412856D02*
X81525819Y-65412856D01*
X82525819Y-64079523D02*
X82525819Y-64650951D01*
X82525819Y-64365237D02*
X81525819Y-64365237D01*
X81525819Y-64365237D02*
X81668676Y-64460475D01*
X81668676Y-64460475D02*
X81763914Y-64555713D01*
X81763914Y-64555713D02*
X81811533Y-64650951D01*
X103131580Y-86018666D02*
X103179200Y-86066285D01*
X103179200Y-86066285D02*
X103226819Y-86209142D01*
X103226819Y-86209142D02*
X103226819Y-86304380D01*
X103226819Y-86304380D02*
X103179200Y-86447237D01*
X103179200Y-86447237D02*
X103083961Y-86542475D01*
X103083961Y-86542475D02*
X102988723Y-86590094D01*
X102988723Y-86590094D02*
X102798247Y-86637713D01*
X102798247Y-86637713D02*
X102655390Y-86637713D01*
X102655390Y-86637713D02*
X102464914Y-86590094D01*
X102464914Y-86590094D02*
X102369676Y-86542475D01*
X102369676Y-86542475D02*
X102274438Y-86447237D01*
X102274438Y-86447237D02*
X102226819Y-86304380D01*
X102226819Y-86304380D02*
X102226819Y-86209142D01*
X102226819Y-86209142D02*
X102274438Y-86066285D01*
X102274438Y-86066285D02*
X102322057Y-86018666D01*
X103226819Y-85066285D02*
X103226819Y-85637713D01*
X103226819Y-85351999D02*
X102226819Y-85351999D01*
X102226819Y-85351999D02*
X102369676Y-85447237D01*
X102369676Y-85447237D02*
X102464914Y-85542475D01*
X102464914Y-85542475D02*
X102512533Y-85637713D01*
X118345375Y-68990909D02*
X119059660Y-68990909D01*
X119059660Y-68990909D02*
X119202517Y-69038528D01*
X119202517Y-69038528D02*
X119297756Y-69133766D01*
X119297756Y-69133766D02*
X119345375Y-69276623D01*
X119345375Y-69276623D02*
X119345375Y-69371861D01*
X118440613Y-68562337D02*
X118392994Y-68514718D01*
X118392994Y-68514718D02*
X118345375Y-68419480D01*
X118345375Y-68419480D02*
X118345375Y-68181385D01*
X118345375Y-68181385D02*
X118392994Y-68086147D01*
X118392994Y-68086147D02*
X118440613Y-68038528D01*
X118440613Y-68038528D02*
X118535851Y-67990909D01*
X118535851Y-67990909D02*
X118631089Y-67990909D01*
X118631089Y-67990909D02*
X118773946Y-68038528D01*
X118773946Y-68038528D02*
X119345375Y-68609956D01*
X119345375Y-68609956D02*
X119345375Y-67990909D01*
X94170609Y-48190113D02*
X94170609Y-47475828D01*
X94170609Y-47475828D02*
X94218228Y-47332971D01*
X94218228Y-47332971D02*
X94313466Y-47237733D01*
X94313466Y-47237733D02*
X94456323Y-47190113D01*
X94456323Y-47190113D02*
X94551561Y-47190113D01*
X93218228Y-48190113D02*
X93694418Y-48190113D01*
X93694418Y-48190113D02*
X93742037Y-47713923D01*
X93742037Y-47713923D02*
X93694418Y-47761542D01*
X93694418Y-47761542D02*
X93599180Y-47809161D01*
X93599180Y-47809161D02*
X93361085Y-47809161D01*
X93361085Y-47809161D02*
X93265847Y-47761542D01*
X93265847Y-47761542D02*
X93218228Y-47713923D01*
X93218228Y-47713923D02*
X93170609Y-47618685D01*
X93170609Y-47618685D02*
X93170609Y-47380590D01*
X93170609Y-47380590D02*
X93218228Y-47285352D01*
X93218228Y-47285352D02*
X93265847Y-47237733D01*
X93265847Y-47237733D02*
X93361085Y-47190113D01*
X93361085Y-47190113D02*
X93599180Y-47190113D01*
X93599180Y-47190113D02*
X93694418Y-47237733D01*
X93694418Y-47237733D02*
X93742037Y-47285352D01*
X84176818Y-87421167D02*
X83700627Y-87754500D01*
X84176818Y-87992595D02*
X83176818Y-87992595D01*
X83176818Y-87992595D02*
X83176818Y-87611643D01*
X83176818Y-87611643D02*
X83224437Y-87516405D01*
X83224437Y-87516405D02*
X83272056Y-87468786D01*
X83272056Y-87468786D02*
X83367294Y-87421167D01*
X83367294Y-87421167D02*
X83510151Y-87421167D01*
X83510151Y-87421167D02*
X83605389Y-87468786D01*
X83605389Y-87468786D02*
X83653008Y-87516405D01*
X83653008Y-87516405D02*
X83700627Y-87611643D01*
X83700627Y-87611643D02*
X83700627Y-87992595D01*
X83510151Y-86564024D02*
X84176818Y-86564024D01*
X83129199Y-86802119D02*
X83843484Y-87040214D01*
X83843484Y-87040214D02*
X83843484Y-86421167D01*
X88116819Y-70968094D02*
X87116819Y-70968094D01*
X87116819Y-70968094D02*
X87116819Y-70729999D01*
X87116819Y-70729999D02*
X87164438Y-70587142D01*
X87164438Y-70587142D02*
X87259676Y-70491904D01*
X87259676Y-70491904D02*
X87354914Y-70444285D01*
X87354914Y-70444285D02*
X87545390Y-70396666D01*
X87545390Y-70396666D02*
X87688247Y-70396666D01*
X87688247Y-70396666D02*
X87878723Y-70444285D01*
X87878723Y-70444285D02*
X87973961Y-70491904D01*
X87973961Y-70491904D02*
X88069200Y-70587142D01*
X88069200Y-70587142D02*
X88116819Y-70729999D01*
X88116819Y-70729999D02*
X88116819Y-70968094D01*
X87212057Y-70015713D02*
X87164438Y-69968094D01*
X87164438Y-69968094D02*
X87116819Y-69872856D01*
X87116819Y-69872856D02*
X87116819Y-69634761D01*
X87116819Y-69634761D02*
X87164438Y-69539523D01*
X87164438Y-69539523D02*
X87212057Y-69491904D01*
X87212057Y-69491904D02*
X87307295Y-69444285D01*
X87307295Y-69444285D02*
X87402533Y-69444285D01*
X87402533Y-69444285D02*
X87545390Y-69491904D01*
X87545390Y-69491904D02*
X88116819Y-70063332D01*
X88116819Y-70063332D02*
X88116819Y-69444285D01*
X107864819Y-86844094D02*
X106864819Y-86844094D01*
X106864819Y-86844094D02*
X106864819Y-86605999D01*
X106864819Y-86605999D02*
X106912438Y-86463142D01*
X106912438Y-86463142D02*
X107007676Y-86367904D01*
X107007676Y-86367904D02*
X107102914Y-86320285D01*
X107102914Y-86320285D02*
X107293390Y-86272666D01*
X107293390Y-86272666D02*
X107436247Y-86272666D01*
X107436247Y-86272666D02*
X107626723Y-86320285D01*
X107626723Y-86320285D02*
X107721961Y-86367904D01*
X107721961Y-86367904D02*
X107817200Y-86463142D01*
X107817200Y-86463142D02*
X107864819Y-86605999D01*
X107864819Y-86605999D02*
X107864819Y-86844094D01*
X107864819Y-85320285D02*
X107864819Y-85891713D01*
X107864819Y-85605999D02*
X106864819Y-85605999D01*
X106864819Y-85605999D02*
X107007676Y-85701237D01*
X107007676Y-85701237D02*
X107102914Y-85796475D01*
X107102914Y-85796475D02*
X107150533Y-85891713D01*
X94418819Y-65531404D02*
X95228342Y-65531404D01*
X95228342Y-65531404D02*
X95323580Y-65483785D01*
X95323580Y-65483785D02*
X95371200Y-65436166D01*
X95371200Y-65436166D02*
X95418819Y-65340928D01*
X95418819Y-65340928D02*
X95418819Y-65150452D01*
X95418819Y-65150452D02*
X95371200Y-65055214D01*
X95371200Y-65055214D02*
X95323580Y-65007595D01*
X95323580Y-65007595D02*
X95228342Y-64959976D01*
X95228342Y-64959976D02*
X94418819Y-64959976D01*
X94418819Y-64579023D02*
X94418819Y-63959976D01*
X94418819Y-63959976D02*
X94799771Y-64293309D01*
X94799771Y-64293309D02*
X94799771Y-64150452D01*
X94799771Y-64150452D02*
X94847390Y-64055214D01*
X94847390Y-64055214D02*
X94895009Y-64007595D01*
X94895009Y-64007595D02*
X94990247Y-63959976D01*
X94990247Y-63959976D02*
X95228342Y-63959976D01*
X95228342Y-63959976D02*
X95323580Y-64007595D01*
X95323580Y-64007595D02*
X95371200Y-64055214D01*
X95371200Y-64055214D02*
X95418819Y-64150452D01*
X95418819Y-64150452D02*
X95418819Y-64436166D01*
X95418819Y-64436166D02*
X95371200Y-64531404D01*
X95371200Y-64531404D02*
X95323580Y-64579023D01*
D11*
%TO.C,U1*%
X74920000Y-103700000D02*
X74920000Y-48700000D01*
X74920000Y-103700000D02*
X46920000Y-103700000D01*
X74920000Y-48700000D02*
X46920000Y-48700000D01*
X46920000Y-103700000D02*
X46920000Y-48700000D01*
D12*
%TO.C,R3*%
X97115936Y-79087000D02*
X97570064Y-79087000D01*
X97115936Y-80557000D02*
X97570064Y-80557000D01*
%TO.C,R6*%
X98509064Y-65411000D02*
X98054936Y-65411000D01*
X98509064Y-63941000D02*
X98054936Y-63941000D01*
%TO.C,GD1*%
X94650000Y-94390000D02*
X103990000Y-94390000D01*
X94650000Y-97220000D02*
X94650000Y-94390000D01*
X94650000Y-100900000D02*
X94650000Y-103730000D01*
X94650000Y-103730000D02*
X103990000Y-103730000D01*
X99100000Y-94390000D02*
X99100000Y-103730000D01*
X99220000Y-94390000D02*
X99220000Y-103730000D01*
X103990000Y-94390000D02*
X103990000Y-97220000D01*
X103990000Y-103730000D02*
X103990000Y-100900000D01*
D13*
%TO.C,J1*%
X110133001Y-60597001D02*
X120387001Y-60597001D01*
X120387001Y-60597001D02*
X120387001Y-46242998D01*
X110133001Y-46242998D02*
X110133001Y-60597001D01*
X120387001Y-46242998D02*
X110133001Y-46242998D01*
D12*
%TO.C,R1*%
X98017000Y-85608936D02*
X98017000Y-86063064D01*
X96547000Y-85608936D02*
X96547000Y-86063064D01*
D13*
%TO.C,J4*%
X110133001Y-106157001D02*
X120387001Y-106157001D01*
X120387001Y-106157001D02*
X120387001Y-91802998D01*
X110133001Y-91802998D02*
X110133001Y-106157001D01*
X120387001Y-91802998D02*
X110133001Y-91802998D01*
%TO.C,J6*%
X109285001Y-56496999D02*
X109285001Y-46242999D01*
X109285001Y-46242999D02*
X99930998Y-46242999D01*
X99930998Y-56496999D02*
X109285001Y-56496999D01*
X99930998Y-46242999D02*
X99930998Y-56496999D01*
D12*
%TO.C,R2*%
X106166936Y-79087000D02*
X106621064Y-79087000D01*
X106166936Y-80557000D02*
X106621064Y-80557000D01*
%TO.C,C2*%
X82510748Y-73753000D02*
X83033252Y-73753000D01*
X82510748Y-75223000D02*
X83033252Y-75223000D01*
%TO.C,C3*%
X88841000Y-64276248D02*
X88841000Y-64798752D01*
X87371000Y-64276248D02*
X87371000Y-64798752D01*
%TO.C,R8*%
X98054936Y-67845000D02*
X98509064Y-67845000D01*
X98054936Y-69315000D02*
X98509064Y-69315000D01*
%TO.C,R7*%
X103589064Y-65418500D02*
X103134936Y-65418500D01*
X103589064Y-63948500D02*
X103134936Y-63948500D01*
D13*
%TO.C,J3*%
X110133001Y-90917001D02*
X120387001Y-90917001D01*
X120387001Y-90917001D02*
X120387001Y-76562998D01*
X110133001Y-76562998D02*
X110133001Y-90917001D01*
X120387001Y-76562998D02*
X110133001Y-76562998D01*
D12*
%TO.C,U2*%
X82046000Y-81498000D02*
X83846000Y-81498000D01*
X83846000Y-78278000D02*
X81396000Y-78278000D01*
%TO.C,R9*%
X98038936Y-60037000D02*
X98493064Y-60037000D01*
X98038936Y-61507000D02*
X98493064Y-61507000D01*
%TO.C,D3*%
X101502000Y-59812000D02*
X101502000Y-61732000D01*
X101502000Y-61732000D02*
X104362000Y-61732000D01*
X104362000Y-59812000D02*
X101502000Y-59812000D01*
%TO.C,R5*%
X77751000Y-87603064D02*
X77751000Y-87148936D01*
X79221000Y-87603064D02*
X79221000Y-87148936D01*
%TO.C,C4*%
X103639252Y-69315000D02*
X103116748Y-69315000D01*
X103639252Y-67845000D02*
X103116748Y-67845000D01*
%TO.C,Q1*%
X91486500Y-78328000D02*
X89811500Y-78328000D01*
X91486500Y-78328000D02*
X92136500Y-78328000D01*
X91486500Y-81448000D02*
X90836500Y-81448000D01*
X91486500Y-81448000D02*
X92136500Y-81448000D01*
%TO.C,L1*%
X85406000Y-64401248D02*
X85406000Y-64923752D01*
X83186000Y-64401248D02*
X83186000Y-64923752D01*
%TO.C,C1*%
X101827000Y-85590748D02*
X101827000Y-86113252D01*
X100357000Y-85590748D02*
X100357000Y-86113252D01*
%TO.C,LOGO1*%
D14*
X88393690Y-57280018D02*
X88428585Y-57295269D01*
X88511877Y-57361235D01*
X88583103Y-57456618D01*
X88627153Y-57558406D01*
X88634322Y-57608587D01*
X88610285Y-57678647D01*
X88557561Y-57715717D01*
X88501031Y-57738164D01*
X88475146Y-57742300D01*
X88462542Y-57712283D01*
X88437654Y-57646961D01*
X88426735Y-57617445D01*
X88365508Y-57515348D01*
X88276861Y-57464423D01*
X88163193Y-57465989D01*
X88154774Y-57467994D01*
X88094088Y-57496767D01*
X88049474Y-57552859D01*
X88019002Y-57643163D01*
X88000744Y-57774571D01*
X87992771Y-57953974D01*
X87992023Y-58049433D01*
X87991652Y-58199913D01*
X87989223Y-58302495D01*
X87982760Y-58367672D01*
X87970288Y-58405938D01*
X87949833Y-58427785D01*
X87919419Y-58443707D01*
X87917661Y-58444509D01*
X87859091Y-58469272D01*
X87830075Y-58478391D01*
X87825616Y-58450822D01*
X87821799Y-58374620D01*
X87818899Y-58259541D01*
X87817191Y-58115341D01*
X87816851Y-58009814D01*
X87818588Y-57805613D01*
X87825382Y-57650697D01*
X87839607Y-57536024D01*
X87863638Y-57452551D01*
X87899848Y-57391236D01*
X87950612Y-57343034D01*
X88000739Y-57309393D01*
X88121275Y-57264619D01*
X88261557Y-57254521D01*
X88393690Y-57280018D01*
G36*
X88393690Y-57280018D02*
G01*
X88428585Y-57295269D01*
X88511877Y-57361235D01*
X88583103Y-57456618D01*
X88627153Y-57558406D01*
X88634322Y-57608587D01*
X88610285Y-57678647D01*
X88557561Y-57715717D01*
X88501031Y-57738164D01*
X88475146Y-57742300D01*
X88462542Y-57712283D01*
X88437654Y-57646961D01*
X88426735Y-57617445D01*
X88365508Y-57515348D01*
X88276861Y-57464423D01*
X88163193Y-57465989D01*
X88154774Y-57467994D01*
X88094088Y-57496767D01*
X88049474Y-57552859D01*
X88019002Y-57643163D01*
X88000744Y-57774571D01*
X87992771Y-57953974D01*
X87992023Y-58049433D01*
X87991652Y-58199913D01*
X87989223Y-58302495D01*
X87982760Y-58367672D01*
X87970288Y-58405938D01*
X87949833Y-58427785D01*
X87919419Y-58443707D01*
X87917661Y-58444509D01*
X87859091Y-58469272D01*
X87830075Y-58478391D01*
X87825616Y-58450822D01*
X87821799Y-58374620D01*
X87818899Y-58259541D01*
X87817191Y-58115341D01*
X87816851Y-58009814D01*
X87818588Y-57805613D01*
X87825382Y-57650697D01*
X87839607Y-57536024D01*
X87863638Y-57452551D01*
X87899848Y-57391236D01*
X87950612Y-57343034D01*
X88000739Y-57309393D01*
X88121275Y-57264619D01*
X88261557Y-57254521D01*
X88393690Y-57280018D01*
G37*
X80475429Y-57217719D02*
X80569123Y-57271914D01*
X80634264Y-57325707D01*
X80681907Y-57382066D01*
X80714728Y-57450987D01*
X80735406Y-57542468D01*
X80746620Y-57666506D01*
X80751049Y-57833098D01*
X80751563Y-57952851D01*
X80751563Y-58393659D01*
X80627483Y-58449283D01*
X80503402Y-58504907D01*
X80488805Y-58022095D01*
X80482773Y-57841779D01*
X80476445Y-57710901D01*
X80468606Y-57620511D01*
X80458037Y-57561664D01*
X80443523Y-57525413D01*
X80423848Y-57502810D01*
X80417535Y-57497917D01*
X80321888Y-57459706D01*
X80225207Y-57474827D01*
X80167655Y-57514943D01*
X80144245Y-57543370D01*
X80128039Y-57580672D01*
X80117741Y-57637223D01*
X80112049Y-57723394D01*
X80109664Y-57849558D01*
X80109264Y-57981042D01*
X80109186Y-58145999D01*
X80106361Y-58262761D01*
X80096907Y-58341510D01*
X80076940Y-58392431D01*
X80042576Y-58425706D01*
X79989932Y-58451520D01*
X79919617Y-58478344D01*
X79842820Y-58507542D01*
X79851962Y-57989346D01*
X79855643Y-57802539D01*
X79859950Y-57664490D01*
X79866123Y-57565568D01*
X79875402Y-57496145D01*
X79889027Y-57446590D01*
X79908239Y-57407273D01*
X79931402Y-57372584D01*
X80043152Y-57261770D01*
X80179513Y-57197689D01*
X80327825Y-57182339D01*
X80475429Y-57217719D01*
G36*
X80475429Y-57217719D02*
G01*
X80569123Y-57271914D01*
X80634264Y-57325707D01*
X80681907Y-57382066D01*
X80714728Y-57450987D01*
X80735406Y-57542468D01*
X80746620Y-57666506D01*
X80751049Y-57833098D01*
X80751563Y-57952851D01*
X80751563Y-58393659D01*
X80627483Y-58449283D01*
X80503402Y-58504907D01*
X80488805Y-58022095D01*
X80482773Y-57841779D01*
X80476445Y-57710901D01*
X80468606Y-57620511D01*
X80458037Y-57561664D01*
X80443523Y-57525413D01*
X80423848Y-57502810D01*
X80417535Y-57497917D01*
X80321888Y-57459706D01*
X80225207Y-57474827D01*
X80167655Y-57514943D01*
X80144245Y-57543370D01*
X80128039Y-57580672D01*
X80117741Y-57637223D01*
X80112049Y-57723394D01*
X80109664Y-57849558D01*
X80109264Y-57981042D01*
X80109186Y-58145999D01*
X80106361Y-58262761D01*
X80096907Y-58341510D01*
X80076940Y-58392431D01*
X80042576Y-58425706D01*
X79989932Y-58451520D01*
X79919617Y-58478344D01*
X79842820Y-58507542D01*
X79851962Y-57989346D01*
X79855643Y-57802539D01*
X79859950Y-57664490D01*
X79866123Y-57565568D01*
X79875402Y-57496145D01*
X79889027Y-57446590D01*
X79908239Y-57407273D01*
X79931402Y-57372584D01*
X80043152Y-57261770D01*
X80179513Y-57197689D01*
X80327825Y-57182339D01*
X80475429Y-57217719D01*
G37*
X84123943Y-57261920D02*
X84256565Y-57310859D01*
X84364010Y-57397419D01*
X84406032Y-57458352D01*
X84451843Y-57570161D01*
X84450891Y-57651006D01*
X84402808Y-57705378D01*
X84385017Y-57714624D01*
X84308204Y-57743450D01*
X84268976Y-57736065D01*
X84255689Y-57687658D01*
X84255012Y-57660920D01*
X84230686Y-57562548D01*
X84167281Y-57493734D01*
X84079154Y-57460498D01*
X83980663Y-57468861D01*
X83900602Y-57512296D01*
X83873561Y-57537072D01*
X83854394Y-57567129D01*
X83841446Y-57612565D01*
X83833064Y-57683476D01*
X83827593Y-57789960D01*
X83823378Y-57942112D01*
X83822287Y-57990287D01*
X83818307Y-58155095D01*
X83813781Y-58271088D01*
X83806995Y-58347833D01*
X83796231Y-58394893D01*
X83779773Y-58421835D01*
X83755906Y-58438223D01*
X83740626Y-58445463D01*
X83675733Y-58470220D01*
X83637534Y-58478391D01*
X83624912Y-58451103D01*
X83617208Y-58368603D01*
X83614380Y-58229941D01*
X83616386Y-58034162D01*
X83617011Y-58003965D01*
X83621421Y-57825349D01*
X83626635Y-57694923D01*
X83634055Y-57602492D01*
X83645082Y-57537858D01*
X83661117Y-57490825D01*
X83683561Y-57451196D01*
X83695302Y-57434215D01*
X83762619Y-57359080D01*
X83837910Y-57300638D01*
X83847128Y-57295536D01*
X83982133Y-57255260D01*
X84123943Y-57261920D01*
G36*
X84123943Y-57261920D02*
G01*
X84256565Y-57310859D01*
X84364010Y-57397419D01*
X84406032Y-57458352D01*
X84451843Y-57570161D01*
X84450891Y-57651006D01*
X84402808Y-57705378D01*
X84385017Y-57714624D01*
X84308204Y-57743450D01*
X84268976Y-57736065D01*
X84255689Y-57687658D01*
X84255012Y-57660920D01*
X84230686Y-57562548D01*
X84167281Y-57493734D01*
X84079154Y-57460498D01*
X83980663Y-57468861D01*
X83900602Y-57512296D01*
X83873561Y-57537072D01*
X83854394Y-57567129D01*
X83841446Y-57612565D01*
X83833064Y-57683476D01*
X83827593Y-57789960D01*
X83823378Y-57942112D01*
X83822287Y-57990287D01*
X83818307Y-58155095D01*
X83813781Y-58271088D01*
X83806995Y-58347833D01*
X83796231Y-58394893D01*
X83779773Y-58421835D01*
X83755906Y-58438223D01*
X83740626Y-58445463D01*
X83675733Y-58470220D01*
X83637534Y-58478391D01*
X83624912Y-58451103D01*
X83617208Y-58368603D01*
X83614380Y-58229941D01*
X83616386Y-58034162D01*
X83617011Y-58003965D01*
X83621421Y-57825349D01*
X83626635Y-57694923D01*
X83634055Y-57602492D01*
X83645082Y-57537858D01*
X83661117Y-57490825D01*
X83683561Y-57451196D01*
X83695302Y-57434215D01*
X83762619Y-57359080D01*
X83837910Y-57300638D01*
X83847128Y-57295536D01*
X83982133Y-57255260D01*
X84123943Y-57261920D01*
G37*
X86638124Y-57279840D02*
X86642579Y-57356653D01*
X86646071Y-57473391D01*
X86648315Y-57620821D01*
X86649035Y-57775455D01*
X86649035Y-58298727D01*
X86556645Y-58391117D01*
X86492978Y-58448047D01*
X86437089Y-58471107D01*
X86360702Y-58469647D01*
X86330380Y-58465934D01*
X86235610Y-58455126D01*
X86157222Y-58448933D01*
X86138115Y-58448361D01*
X86073699Y-58452102D01*
X85981571Y-58461494D01*
X85945850Y-58465934D01*
X85858114Y-58472801D01*
X85799153Y-58457885D01*
X85740690Y-58411835D01*
X85719585Y-58391117D01*
X85627195Y-58298727D01*
X85627195Y-57319947D01*
X85701558Y-57286066D01*
X85765590Y-57260970D01*
X85803052Y-57252184D01*
X85812657Y-57279950D01*
X85821635Y-57357530D01*
X85829386Y-57476348D01*
X85835314Y-57627828D01*
X85838173Y-57755805D01*
X85846161Y-58259425D01*
X85915848Y-58269278D01*
X85979229Y-58262389D01*
X86010286Y-58240083D01*
X86018967Y-58198379D01*
X86026378Y-58109544D01*
X86031931Y-57984834D01*
X86035036Y-57835507D01*
X86035484Y-57758661D01*
X86035931Y-57316287D01*
X86127874Y-57284235D01*
X86192949Y-57262443D01*
X86228347Y-57252281D01*
X86229368Y-57252184D01*
X86232920Y-57279809D01*
X86236823Y-57356411D01*
X86240751Y-57472579D01*
X86244376Y-57618904D01*
X86246908Y-57755805D01*
X86254897Y-58259425D01*
X86430069Y-58259425D01*
X86438107Y-57799965D01*
X86446146Y-57340505D01*
X86531543Y-57296344D01*
X86594593Y-57266019D01*
X86631910Y-57252258D01*
X86632987Y-57252184D01*
X86638124Y-57279840D01*
G36*
X86638124Y-57279840D02*
G01*
X86642579Y-57356653D01*
X86646071Y-57473391D01*
X86648315Y-57620821D01*
X86649035Y-57775455D01*
X86649035Y-58298727D01*
X86556645Y-58391117D01*
X86492978Y-58448047D01*
X86437089Y-58471107D01*
X86360702Y-58469647D01*
X86330380Y-58465934D01*
X86235610Y-58455126D01*
X86157222Y-58448933D01*
X86138115Y-58448361D01*
X86073699Y-58452102D01*
X85981571Y-58461494D01*
X85945850Y-58465934D01*
X85858114Y-58472801D01*
X85799153Y-58457885D01*
X85740690Y-58411835D01*
X85719585Y-58391117D01*
X85627195Y-58298727D01*
X85627195Y-57319947D01*
X85701558Y-57286066D01*
X85765590Y-57260970D01*
X85803052Y-57252184D01*
X85812657Y-57279950D01*
X85821635Y-57357530D01*
X85829386Y-57476348D01*
X85835314Y-57627828D01*
X85838173Y-57755805D01*
X85846161Y-58259425D01*
X85915848Y-58269278D01*
X85979229Y-58262389D01*
X86010286Y-58240083D01*
X86018967Y-58198379D01*
X86026378Y-58109544D01*
X86031931Y-57984834D01*
X86035036Y-57835507D01*
X86035484Y-57758661D01*
X86035931Y-57316287D01*
X86127874Y-57284235D01*
X86192949Y-57262443D01*
X86228347Y-57252281D01*
X86229368Y-57252184D01*
X86232920Y-57279809D01*
X86236823Y-57356411D01*
X86240751Y-57472579D01*
X86244376Y-57618904D01*
X86246908Y-57755805D01*
X86254897Y-58259425D01*
X86430069Y-58259425D01*
X86438107Y-57799965D01*
X86446146Y-57340505D01*
X86531543Y-57296344D01*
X86594593Y-57266019D01*
X86631910Y-57252258D01*
X86632987Y-57252184D01*
X86638124Y-57279840D01*
G37*
X81802598Y-57063857D02*
X81811154Y-57183188D01*
X81820981Y-57253506D01*
X81834599Y-57284179D01*
X81854527Y-57284571D01*
X81860989Y-57280910D01*
X81946940Y-57254398D01*
X82058745Y-57255946D01*
X82172414Y-57283199D01*
X82243510Y-57318455D01*
X82316405Y-57374778D01*
X82369693Y-57438519D01*
X82406275Y-57519510D01*
X82429050Y-57627586D01*
X82440919Y-57772580D01*
X82444782Y-57964326D01*
X82444851Y-58001109D01*
X82444897Y-58414288D01*
X82352954Y-58446339D01*
X82287652Y-58468144D01*
X82251824Y-58478297D01*
X82250770Y-58478391D01*
X82247242Y-58450860D01*
X82244239Y-58374923D01*
X82241990Y-58260565D01*
X82240724Y-58117769D01*
X82240529Y-58030951D01*
X82240123Y-57859773D01*
X82238032Y-57737088D01*
X82232947Y-57653000D01*
X82223560Y-57597614D01*
X82208561Y-57561032D01*
X82186642Y-57533359D01*
X82172957Y-57520032D01*
X82078949Y-57466328D01*
X81976364Y-57462307D01*
X81883290Y-57507725D01*
X81866078Y-57524123D01*
X81840832Y-57554957D01*
X81823320Y-57591531D01*
X81812142Y-57644415D01*
X81805896Y-57724177D01*
X81803182Y-57841385D01*
X81802598Y-58002991D01*
X81802598Y-58414288D01*
X81710655Y-58446339D01*
X81645353Y-58468144D01*
X81609525Y-58478297D01*
X81608471Y-58478391D01*
X81605775Y-58450448D01*
X81603345Y-58371630D01*
X81601278Y-58249453D01*
X81599671Y-58091432D01*
X81598623Y-57905083D01*
X81598231Y-57697920D01*
X81598230Y-57688706D01*
X81598230Y-56899020D01*
X81693115Y-56858997D01*
X81788000Y-56818973D01*
X81802598Y-57063857D01*
G36*
X81802598Y-57063857D02*
G01*
X81811154Y-57183188D01*
X81820981Y-57253506D01*
X81834599Y-57284179D01*
X81854527Y-57284571D01*
X81860989Y-57280910D01*
X81946940Y-57254398D01*
X82058745Y-57255946D01*
X82172414Y-57283199D01*
X82243510Y-57318455D01*
X82316405Y-57374778D01*
X82369693Y-57438519D01*
X82406275Y-57519510D01*
X82429050Y-57627586D01*
X82440919Y-57772580D01*
X82444782Y-57964326D01*
X82444851Y-58001109D01*
X82444897Y-58414288D01*
X82352954Y-58446339D01*
X82287652Y-58468144D01*
X82251824Y-58478297D01*
X82250770Y-58478391D01*
X82247242Y-58450860D01*
X82244239Y-58374923D01*
X82241990Y-58260565D01*
X82240724Y-58117769D01*
X82240529Y-58030951D01*
X82240123Y-57859773D01*
X82238032Y-57737088D01*
X82232947Y-57653000D01*
X82223560Y-57597614D01*
X82208561Y-57561032D01*
X82186642Y-57533359D01*
X82172957Y-57520032D01*
X82078949Y-57466328D01*
X81976364Y-57462307D01*
X81883290Y-57507725D01*
X81866078Y-57524123D01*
X81840832Y-57554957D01*
X81823320Y-57591531D01*
X81812142Y-57644415D01*
X81805896Y-57724177D01*
X81803182Y-57841385D01*
X81802598Y-58002991D01*
X81802598Y-58414288D01*
X81710655Y-58446339D01*
X81645353Y-58468144D01*
X81609525Y-58478297D01*
X81608471Y-58478391D01*
X81605775Y-58450448D01*
X81603345Y-58371630D01*
X81601278Y-58249453D01*
X81599671Y-58091432D01*
X81598623Y-57905083D01*
X81598231Y-57697920D01*
X81598230Y-57688706D01*
X81598230Y-56899020D01*
X81693115Y-56858997D01*
X81788000Y-56818973D01*
X81802598Y-57063857D01*
G37*
X77106221Y-57206015D02*
X77243061Y-57277968D01*
X77344051Y-57393766D01*
X77379925Y-57468213D01*
X77407839Y-57579992D01*
X77422129Y-57721227D01*
X77423484Y-57875371D01*
X77412595Y-58025879D01*
X77390153Y-58156205D01*
X77356850Y-58249803D01*
X77346615Y-58265922D01*
X77225382Y-58386249D01*
X77081387Y-58458317D01*
X76925139Y-58479408D01*
X76767148Y-58446802D01*
X76723180Y-58427253D01*
X76637556Y-58367012D01*
X76562408Y-58287135D01*
X76555306Y-58277004D01*
X76526439Y-58228181D01*
X76507357Y-58175990D01*
X76496084Y-58107285D01*
X76490645Y-58008918D01*
X76489062Y-57867744D01*
X76489035Y-57836092D01*
X76489107Y-57826019D01*
X76780989Y-57826019D01*
X76782687Y-57959256D01*
X76789372Y-58047674D01*
X76803425Y-58104785D01*
X76827229Y-58144102D01*
X76839379Y-58157241D01*
X76909236Y-58207172D01*
X76977059Y-58204895D01*
X77045635Y-58161584D01*
X77086535Y-58115346D01*
X77110758Y-58047857D01*
X77124361Y-57941433D01*
X77125294Y-57929020D01*
X77127616Y-57736147D01*
X77103350Y-57592900D01*
X77052824Y-57500160D01*
X76976368Y-57458807D01*
X76949076Y-57456552D01*
X76877411Y-57467893D01*
X76828390Y-57507184D01*
X76798418Y-57582326D01*
X76783899Y-57701222D01*
X76780989Y-57826019D01*
X76489107Y-57826019D01*
X76490122Y-57685659D01*
X76494688Y-57580549D01*
X76504688Y-57507714D01*
X76522079Y-57454108D01*
X76548816Y-57406681D01*
X76554724Y-57397864D01*
X76654032Y-57279007D01*
X76762242Y-57210008D01*
X76893981Y-57182619D01*
X76938717Y-57181281D01*
X77106221Y-57206015D01*
G36*
X77106221Y-57206015D02*
G01*
X77243061Y-57277968D01*
X77344051Y-57393766D01*
X77379925Y-57468213D01*
X77407839Y-57579992D01*
X77422129Y-57721227D01*
X77423484Y-57875371D01*
X77412595Y-58025879D01*
X77390153Y-58156205D01*
X77356850Y-58249803D01*
X77346615Y-58265922D01*
X77225382Y-58386249D01*
X77081387Y-58458317D01*
X76925139Y-58479408D01*
X76767148Y-58446802D01*
X76723180Y-58427253D01*
X76637556Y-58367012D01*
X76562408Y-58287135D01*
X76555306Y-58277004D01*
X76526439Y-58228181D01*
X76507357Y-58175990D01*
X76496084Y-58107285D01*
X76490645Y-58008918D01*
X76489062Y-57867744D01*
X76489035Y-57836092D01*
X76489107Y-57826019D01*
X76780989Y-57826019D01*
X76782687Y-57959256D01*
X76789372Y-58047674D01*
X76803425Y-58104785D01*
X76827229Y-58144102D01*
X76839379Y-58157241D01*
X76909236Y-58207172D01*
X76977059Y-58204895D01*
X77045635Y-58161584D01*
X77086535Y-58115346D01*
X77110758Y-58047857D01*
X77124361Y-57941433D01*
X77125294Y-57929020D01*
X77127616Y-57736147D01*
X77103350Y-57592900D01*
X77052824Y-57500160D01*
X76976368Y-57458807D01*
X76949076Y-57456552D01*
X76877411Y-57467893D01*
X76828390Y-57507184D01*
X76798418Y-57582326D01*
X76783899Y-57701222D01*
X76780989Y-57826019D01*
X76489107Y-57826019D01*
X76490122Y-57685659D01*
X76494688Y-57580549D01*
X76504688Y-57507714D01*
X76522079Y-57454108D01*
X76548816Y-57406681D01*
X76554724Y-57397864D01*
X76654032Y-57279007D01*
X76762242Y-57210008D01*
X76893981Y-57182619D01*
X76938717Y-57181281D01*
X77106221Y-57206015D01*
G37*
X89401439Y-57296540D02*
X89516950Y-57372034D01*
X89572664Y-57439617D01*
X89616804Y-57562255D01*
X89620309Y-57659298D01*
X89612368Y-57789056D01*
X89313115Y-57920039D01*
X89167611Y-57986958D01*
X89072537Y-58040790D01*
X89023101Y-58087416D01*
X89014511Y-58132720D01*
X89041972Y-58182582D01*
X89072253Y-58215632D01*
X89160363Y-58268633D01*
X89256196Y-58272347D01*
X89344212Y-58231041D01*
X89408869Y-58148983D01*
X89420433Y-58120008D01*
X89475825Y-58029509D01*
X89539553Y-57990940D01*
X89626966Y-57957946D01*
X89626966Y-58083034D01*
X89619238Y-58168156D01*
X89588966Y-58239938D01*
X89525518Y-58322356D01*
X89516088Y-58333066D01*
X89445513Y-58406391D01*
X89384847Y-58445742D01*
X89308950Y-58463845D01*
X89246030Y-58469774D01*
X89133487Y-58471251D01*
X89053370Y-58452535D01*
X89003390Y-58424747D01*
X88924838Y-58363641D01*
X88870463Y-58297554D01*
X88836052Y-58214441D01*
X88817388Y-58102254D01*
X88810256Y-57948946D01*
X88809687Y-57871136D01*
X88811622Y-57777853D01*
X88987899Y-57777853D01*
X88989944Y-57827896D01*
X88995039Y-57836092D01*
X89028666Y-57824958D01*
X89101030Y-57795493D01*
X89197747Y-57753601D01*
X89217973Y-57744597D01*
X89340203Y-57682442D01*
X89407547Y-57627815D01*
X89422348Y-57576649D01*
X89386947Y-57524876D01*
X89357711Y-57502000D01*
X89252216Y-57456250D01*
X89153476Y-57463808D01*
X89070812Y-57519651D01*
X89013548Y-57618753D01*
X88995188Y-57697414D01*
X88987899Y-57777853D01*
X88811622Y-57777853D01*
X88813459Y-57689351D01*
X88827359Y-57554853D01*
X88854894Y-57456916D01*
X88899572Y-57384811D01*
X88964901Y-57327813D01*
X88993383Y-57309393D01*
X89122763Y-57261422D01*
X89264412Y-57258403D01*
X89401439Y-57296540D01*
G36*
X89401439Y-57296540D02*
G01*
X89516950Y-57372034D01*
X89572664Y-57439617D01*
X89616804Y-57562255D01*
X89620309Y-57659298D01*
X89612368Y-57789056D01*
X89313115Y-57920039D01*
X89167611Y-57986958D01*
X89072537Y-58040790D01*
X89023101Y-58087416D01*
X89014511Y-58132720D01*
X89041972Y-58182582D01*
X89072253Y-58215632D01*
X89160363Y-58268633D01*
X89256196Y-58272347D01*
X89344212Y-58231041D01*
X89408869Y-58148983D01*
X89420433Y-58120008D01*
X89475825Y-58029509D01*
X89539553Y-57990940D01*
X89626966Y-57957946D01*
X89626966Y-58083034D01*
X89619238Y-58168156D01*
X89588966Y-58239938D01*
X89525518Y-58322356D01*
X89516088Y-58333066D01*
X89445513Y-58406391D01*
X89384847Y-58445742D01*
X89308950Y-58463845D01*
X89246030Y-58469774D01*
X89133487Y-58471251D01*
X89053370Y-58452535D01*
X89003390Y-58424747D01*
X88924838Y-58363641D01*
X88870463Y-58297554D01*
X88836052Y-58214441D01*
X88817388Y-58102254D01*
X88810256Y-57948946D01*
X88809687Y-57871136D01*
X88811622Y-57777853D01*
X88987899Y-57777853D01*
X88989944Y-57827896D01*
X88995039Y-57836092D01*
X89028666Y-57824958D01*
X89101030Y-57795493D01*
X89197747Y-57753601D01*
X89217973Y-57744597D01*
X89340203Y-57682442D01*
X89407547Y-57627815D01*
X89422348Y-57576649D01*
X89386947Y-57524876D01*
X89357711Y-57502000D01*
X89252216Y-57456250D01*
X89153476Y-57463808D01*
X89070812Y-57519651D01*
X89013548Y-57618753D01*
X88995188Y-57697414D01*
X88987899Y-57777853D01*
X88811622Y-57777853D01*
X88813459Y-57689351D01*
X88827359Y-57554853D01*
X88854894Y-57456916D01*
X88899572Y-57384811D01*
X88964901Y-57327813D01*
X88993383Y-57309393D01*
X89122763Y-57261422D01*
X89264412Y-57258403D01*
X89401439Y-57296540D01*
G37*
X85451914Y-57494455D02*
X85451543Y-57712661D01*
X85450108Y-57880519D01*
X85447002Y-58006070D01*
X85441622Y-58097355D01*
X85433362Y-58162415D01*
X85421616Y-58209291D01*
X85405781Y-58246024D01*
X85393790Y-58266991D01*
X85294490Y-58380694D01*
X85168588Y-58451965D01*
X85029291Y-58477538D01*
X84889805Y-58454150D01*
X84806743Y-58412119D01*
X84719545Y-58339411D01*
X84660117Y-58250612D01*
X84624261Y-58134320D01*
X84607781Y-57979135D01*
X84605447Y-57865287D01*
X84605761Y-57857106D01*
X84809724Y-57857106D01*
X84810970Y-57987657D01*
X84816678Y-58074080D01*
X84829804Y-58130618D01*
X84853306Y-58171514D01*
X84881386Y-58202362D01*
X84975688Y-58261905D01*
X85076940Y-58266992D01*
X85172636Y-58217279D01*
X85180084Y-58210543D01*
X85211874Y-58175502D01*
X85231808Y-58133811D01*
X85242600Y-58071762D01*
X85246965Y-57975644D01*
X85247655Y-57869379D01*
X85246159Y-57735880D01*
X85239964Y-57646822D01*
X85226514Y-57588293D01*
X85203251Y-57546382D01*
X85184175Y-57524123D01*
X85095563Y-57467985D01*
X84993508Y-57461235D01*
X84896095Y-57504114D01*
X84877296Y-57520032D01*
X84845293Y-57555382D01*
X84825318Y-57597502D01*
X84814593Y-57660251D01*
X84810339Y-57757487D01*
X84809724Y-57857106D01*
X84605761Y-57857106D01*
X84612504Y-57681947D01*
X84636472Y-57544195D01*
X84681548Y-57440632D01*
X84751928Y-57359856D01*
X84806743Y-57318455D01*
X84906376Y-57273728D01*
X85021855Y-57252967D01*
X85129199Y-57258525D01*
X85189264Y-57280943D01*
X85212835Y-57287323D01*
X85228477Y-57263535D01*
X85239395Y-57199788D01*
X85247655Y-57102687D01*
X85256699Y-56994541D01*
X85269261Y-56929475D01*
X85292119Y-56892268D01*
X85332051Y-56867699D01*
X85357138Y-56856819D01*
X85452023Y-56817072D01*
X85451914Y-57494455D01*
G36*
X85451914Y-57494455D02*
G01*
X85451543Y-57712661D01*
X85450108Y-57880519D01*
X85447002Y-58006070D01*
X85441622Y-58097355D01*
X85433362Y-58162415D01*
X85421616Y-58209291D01*
X85405781Y-58246024D01*
X85393790Y-58266991D01*
X85294490Y-58380694D01*
X85168588Y-58451965D01*
X85029291Y-58477538D01*
X84889805Y-58454150D01*
X84806743Y-58412119D01*
X84719545Y-58339411D01*
X84660117Y-58250612D01*
X84624261Y-58134320D01*
X84607781Y-57979135D01*
X84605447Y-57865287D01*
X84605761Y-57857106D01*
X84809724Y-57857106D01*
X84810970Y-57987657D01*
X84816678Y-58074080D01*
X84829804Y-58130618D01*
X84853306Y-58171514D01*
X84881386Y-58202362D01*
X84975688Y-58261905D01*
X85076940Y-58266992D01*
X85172636Y-58217279D01*
X85180084Y-58210543D01*
X85211874Y-58175502D01*
X85231808Y-58133811D01*
X85242600Y-58071762D01*
X85246965Y-57975644D01*
X85247655Y-57869379D01*
X85246159Y-57735880D01*
X85239964Y-57646822D01*
X85226514Y-57588293D01*
X85203251Y-57546382D01*
X85184175Y-57524123D01*
X85095563Y-57467985D01*
X84993508Y-57461235D01*
X84896095Y-57504114D01*
X84877296Y-57520032D01*
X84845293Y-57555382D01*
X84825318Y-57597502D01*
X84814593Y-57660251D01*
X84810339Y-57757487D01*
X84809724Y-57857106D01*
X84605761Y-57857106D01*
X84612504Y-57681947D01*
X84636472Y-57544195D01*
X84681548Y-57440632D01*
X84751928Y-57359856D01*
X84806743Y-57318455D01*
X84906376Y-57273728D01*
X85021855Y-57252967D01*
X85129199Y-57258525D01*
X85189264Y-57280943D01*
X85212835Y-57287323D01*
X85228477Y-57263535D01*
X85239395Y-57199788D01*
X85247655Y-57102687D01*
X85256699Y-56994541D01*
X85269261Y-56929475D01*
X85292119Y-56892268D01*
X85332051Y-56867699D01*
X85357138Y-56856819D01*
X85452023Y-56817072D01*
X85451914Y-57494455D01*
G37*
X79373552Y-57224676D02*
X79488658Y-57302111D01*
X79577611Y-57413949D01*
X79630749Y-57556265D01*
X79641497Y-57661015D01*
X79640276Y-57704726D01*
X79630056Y-57738194D01*
X79601961Y-57768179D01*
X79547116Y-57801440D01*
X79456645Y-57844738D01*
X79321672Y-57904833D01*
X79320989Y-57905134D01*
X79196751Y-57962037D01*
X79094873Y-58012565D01*
X79025767Y-58051280D01*
X78999846Y-58072740D01*
X78999839Y-58072913D01*
X79022685Y-58119644D01*
X79076109Y-58171154D01*
X79137442Y-58208261D01*
X79168515Y-58215632D01*
X79253289Y-58190138D01*
X79326293Y-58126291D01*
X79361913Y-58056094D01*
X79396180Y-58004343D01*
X79463303Y-57945409D01*
X79542208Y-57894496D01*
X79611821Y-57866809D01*
X79626377Y-57865287D01*
X79642763Y-57890321D01*
X79643750Y-57954311D01*
X79631708Y-58040593D01*
X79609007Y-58132501D01*
X79578014Y-58213369D01*
X79576448Y-58216509D01*
X79483181Y-58346734D01*
X79362304Y-58435311D01*
X79225027Y-58478786D01*
X79082560Y-58473706D01*
X78946112Y-58416616D01*
X78940045Y-58412602D01*
X78832710Y-58315326D01*
X78762132Y-58188409D01*
X78723074Y-58021526D01*
X78717832Y-57974639D01*
X78708548Y-57753329D01*
X78719678Y-57650124D01*
X78999839Y-57650124D01*
X79003479Y-57714503D01*
X79023389Y-57733291D01*
X79073026Y-57719235D01*
X79151267Y-57686009D01*
X79238726Y-57644359D01*
X79240899Y-57643256D01*
X79315030Y-57604265D01*
X79344781Y-57578244D01*
X79337445Y-57550965D01*
X79306553Y-57515121D01*
X79227960Y-57463251D01*
X79143323Y-57459439D01*
X79067403Y-57497189D01*
X79014965Y-57570001D01*
X78999839Y-57650124D01*
X78719678Y-57650124D01*
X78727644Y-57576261D01*
X78776634Y-57435829D01*
X78844836Y-57337447D01*
X78967935Y-57238030D01*
X79103528Y-57188711D01*
X79241955Y-57185568D01*
X79373552Y-57224676D01*
G36*
X79373552Y-57224676D02*
G01*
X79488658Y-57302111D01*
X79577611Y-57413949D01*
X79630749Y-57556265D01*
X79641497Y-57661015D01*
X79640276Y-57704726D01*
X79630056Y-57738194D01*
X79601961Y-57768179D01*
X79547116Y-57801440D01*
X79456645Y-57844738D01*
X79321672Y-57904833D01*
X79320989Y-57905134D01*
X79196751Y-57962037D01*
X79094873Y-58012565D01*
X79025767Y-58051280D01*
X78999846Y-58072740D01*
X78999839Y-58072913D01*
X79022685Y-58119644D01*
X79076109Y-58171154D01*
X79137442Y-58208261D01*
X79168515Y-58215632D01*
X79253289Y-58190138D01*
X79326293Y-58126291D01*
X79361913Y-58056094D01*
X79396180Y-58004343D01*
X79463303Y-57945409D01*
X79542208Y-57894496D01*
X79611821Y-57866809D01*
X79626377Y-57865287D01*
X79642763Y-57890321D01*
X79643750Y-57954311D01*
X79631708Y-58040593D01*
X79609007Y-58132501D01*
X79578014Y-58213369D01*
X79576448Y-58216509D01*
X79483181Y-58346734D01*
X79362304Y-58435311D01*
X79225027Y-58478786D01*
X79082560Y-58473706D01*
X78946112Y-58416616D01*
X78940045Y-58412602D01*
X78832710Y-58315326D01*
X78762132Y-58188409D01*
X78723074Y-58021526D01*
X78717832Y-57974639D01*
X78708548Y-57753329D01*
X78719678Y-57650124D01*
X78999839Y-57650124D01*
X79003479Y-57714503D01*
X79023389Y-57733291D01*
X79073026Y-57719235D01*
X79151267Y-57686009D01*
X79238726Y-57644359D01*
X79240899Y-57643256D01*
X79315030Y-57604265D01*
X79344781Y-57578244D01*
X79337445Y-57550965D01*
X79306553Y-57515121D01*
X79227960Y-57463251D01*
X79143323Y-57459439D01*
X79067403Y-57497189D01*
X79014965Y-57570001D01*
X78999839Y-57650124D01*
X78719678Y-57650124D01*
X78727644Y-57576261D01*
X78776634Y-57435829D01*
X78844836Y-57337447D01*
X78967935Y-57238030D01*
X79103528Y-57188711D01*
X79241955Y-57185568D01*
X79373552Y-57224676D01*
G37*
X83137944Y-57264360D02*
X83252343Y-57306842D01*
X83253652Y-57307658D01*
X83324403Y-57359730D01*
X83376636Y-57420584D01*
X83413371Y-57499887D01*
X83437634Y-57607309D01*
X83452445Y-57752517D01*
X83460829Y-57945179D01*
X83461564Y-57972628D01*
X83472120Y-58386521D01*
X83383291Y-58432456D01*
X83319018Y-58463498D01*
X83280210Y-58478206D01*
X83278415Y-58478391D01*
X83271700Y-58451250D01*
X83266365Y-58378041D01*
X83263083Y-58271081D01*
X83262368Y-58184469D01*
X83262351Y-58044162D01*
X83255937Y-57956051D01*
X83233580Y-57914025D01*
X83185732Y-57911975D01*
X83102849Y-57943790D01*
X82977713Y-58002272D01*
X82885697Y-58050845D01*
X82838371Y-58092986D01*
X82824458Y-58138916D01*
X82824437Y-58141189D01*
X82847395Y-58220311D01*
X82915370Y-58263055D01*
X83019398Y-58269246D01*
X83094330Y-58268172D01*
X83133839Y-58289753D01*
X83158478Y-58341591D01*
X83172659Y-58407632D01*
X83152223Y-58445104D01*
X83144528Y-58450467D01*
X83072083Y-58472006D01*
X82970633Y-58475055D01*
X82866157Y-58460778D01*
X82792125Y-58434688D01*
X82689772Y-58347785D01*
X82631591Y-58226816D01*
X82620069Y-58132308D01*
X82628862Y-58047062D01*
X82660680Y-57977476D01*
X82723684Y-57915672D01*
X82826031Y-57853772D01*
X82975882Y-57783897D01*
X82985012Y-57779948D01*
X83119997Y-57717588D01*
X83203294Y-57666446D01*
X83238997Y-57620488D01*
X83231203Y-57573683D01*
X83184007Y-57519998D01*
X83169894Y-57507644D01*
X83075359Y-57459741D01*
X82977406Y-57461758D01*
X82892097Y-57508724D01*
X82835496Y-57595669D01*
X82830237Y-57612734D01*
X82779023Y-57695504D01*
X82714037Y-57735372D01*
X82620069Y-57774882D01*
X82620069Y-57672658D01*
X82648653Y-57524072D01*
X82733495Y-57387784D01*
X82777645Y-57342191D01*
X82878005Y-57283674D01*
X83005635Y-57257184D01*
X83137944Y-57264360D01*
G36*
X83137944Y-57264360D02*
G01*
X83252343Y-57306842D01*
X83253652Y-57307658D01*
X83324403Y-57359730D01*
X83376636Y-57420584D01*
X83413371Y-57499887D01*
X83437634Y-57607309D01*
X83452445Y-57752517D01*
X83460829Y-57945179D01*
X83461564Y-57972628D01*
X83472120Y-58386521D01*
X83383291Y-58432456D01*
X83319018Y-58463498D01*
X83280210Y-58478206D01*
X83278415Y-58478391D01*
X83271700Y-58451250D01*
X83266365Y-58378041D01*
X83263083Y-58271081D01*
X83262368Y-58184469D01*
X83262351Y-58044162D01*
X83255937Y-57956051D01*
X83233580Y-57914025D01*
X83185732Y-57911975D01*
X83102849Y-57943790D01*
X82977713Y-58002272D01*
X82885697Y-58050845D01*
X82838371Y-58092986D01*
X82824458Y-58138916D01*
X82824437Y-58141189D01*
X82847395Y-58220311D01*
X82915370Y-58263055D01*
X83019398Y-58269246D01*
X83094330Y-58268172D01*
X83133839Y-58289753D01*
X83158478Y-58341591D01*
X83172659Y-58407632D01*
X83152223Y-58445104D01*
X83144528Y-58450467D01*
X83072083Y-58472006D01*
X82970633Y-58475055D01*
X82866157Y-58460778D01*
X82792125Y-58434688D01*
X82689772Y-58347785D01*
X82631591Y-58226816D01*
X82620069Y-58132308D01*
X82628862Y-58047062D01*
X82660680Y-57977476D01*
X82723684Y-57915672D01*
X82826031Y-57853772D01*
X82975882Y-57783897D01*
X82985012Y-57779948D01*
X83119997Y-57717588D01*
X83203294Y-57666446D01*
X83238997Y-57620488D01*
X83231203Y-57573683D01*
X83184007Y-57519998D01*
X83169894Y-57507644D01*
X83075359Y-57459741D01*
X82977406Y-57461758D01*
X82892097Y-57508724D01*
X82835496Y-57595669D01*
X82830237Y-57612734D01*
X82779023Y-57695504D01*
X82714037Y-57735372D01*
X82620069Y-57774882D01*
X82620069Y-57672658D01*
X82648653Y-57524072D01*
X82733495Y-57387784D01*
X82777645Y-57342191D01*
X82878005Y-57283674D01*
X83005635Y-57257184D01*
X83137944Y-57264360D01*
G37*
X78229900Y-57201903D02*
X78341450Y-57257522D01*
X78439908Y-57359931D01*
X78467023Y-57397864D01*
X78496562Y-57447500D01*
X78515728Y-57501412D01*
X78526693Y-57573364D01*
X78531629Y-57677122D01*
X78532713Y-57814101D01*
X78527818Y-58001815D01*
X78510804Y-58142758D01*
X78478177Y-58247908D01*
X78426442Y-58328243D01*
X78352104Y-58394741D01*
X78346642Y-58398678D01*
X78273380Y-58438953D01*
X78185160Y-58458880D01*
X78072962Y-58463793D01*
X77890567Y-58463793D01*
X77890491Y-58640857D01*
X77888793Y-58739470D01*
X77878450Y-58797314D01*
X77851422Y-58832006D01*
X77799668Y-58861164D01*
X77787239Y-58867121D01*
X77729077Y-58895039D01*
X77684044Y-58912672D01*
X77650559Y-58914194D01*
X77627038Y-58893781D01*
X77611900Y-58845607D01*
X77603563Y-58763846D01*
X77600444Y-58642672D01*
X77600960Y-58476260D01*
X77603529Y-58258785D01*
X77604332Y-58193736D01*
X77607222Y-57969502D01*
X77609812Y-57822821D01*
X77890414Y-57822821D01*
X77891991Y-57947326D01*
X77899000Y-58028787D01*
X77914858Y-58082515D01*
X77942981Y-58123823D01*
X77962075Y-58143971D01*
X78040135Y-58202921D01*
X78109247Y-58207720D01*
X78180560Y-58159038D01*
X78182368Y-58157241D01*
X78211383Y-58119618D01*
X78229033Y-58068484D01*
X78237936Y-57989738D01*
X78240709Y-57869276D01*
X78240759Y-57842588D01*
X78234058Y-57676583D01*
X78212248Y-57561505D01*
X78172765Y-57491254D01*
X78113044Y-57459729D01*
X78078528Y-57456552D01*
X77996611Y-57471460D01*
X77940421Y-57520548D01*
X77906598Y-57610362D01*
X77891780Y-57747445D01*
X77890414Y-57822821D01*
X77609812Y-57822821D01*
X77610287Y-57795952D01*
X77614247Y-57665382D01*
X77619826Y-57570087D01*
X77627746Y-57502364D01*
X77638731Y-57454507D01*
X77653501Y-57418813D01*
X77672782Y-57387578D01*
X77681049Y-57375824D01*
X77790712Y-57264797D01*
X77929365Y-57201847D01*
X78089754Y-57184297D01*
X78229900Y-57201903D01*
G36*
X78229900Y-57201903D02*
G01*
X78341450Y-57257522D01*
X78439908Y-57359931D01*
X78467023Y-57397864D01*
X78496562Y-57447500D01*
X78515728Y-57501412D01*
X78526693Y-57573364D01*
X78531629Y-57677122D01*
X78532713Y-57814101D01*
X78527818Y-58001815D01*
X78510804Y-58142758D01*
X78478177Y-58247908D01*
X78426442Y-58328243D01*
X78352104Y-58394741D01*
X78346642Y-58398678D01*
X78273380Y-58438953D01*
X78185160Y-58458880D01*
X78072962Y-58463793D01*
X77890567Y-58463793D01*
X77890491Y-58640857D01*
X77888793Y-58739470D01*
X77878450Y-58797314D01*
X77851422Y-58832006D01*
X77799668Y-58861164D01*
X77787239Y-58867121D01*
X77729077Y-58895039D01*
X77684044Y-58912672D01*
X77650559Y-58914194D01*
X77627038Y-58893781D01*
X77611900Y-58845607D01*
X77603563Y-58763846D01*
X77600444Y-58642672D01*
X77600960Y-58476260D01*
X77603529Y-58258785D01*
X77604332Y-58193736D01*
X77607222Y-57969502D01*
X77609812Y-57822821D01*
X77890414Y-57822821D01*
X77891991Y-57947326D01*
X77899000Y-58028787D01*
X77914858Y-58082515D01*
X77942981Y-58123823D01*
X77962075Y-58143971D01*
X78040135Y-58202921D01*
X78109247Y-58207720D01*
X78180560Y-58159038D01*
X78182368Y-58157241D01*
X78211383Y-58119618D01*
X78229033Y-58068484D01*
X78237936Y-57989738D01*
X78240709Y-57869276D01*
X78240759Y-57842588D01*
X78234058Y-57676583D01*
X78212248Y-57561505D01*
X78172765Y-57491254D01*
X78113044Y-57459729D01*
X78078528Y-57456552D01*
X77996611Y-57471460D01*
X77940421Y-57520548D01*
X77906598Y-57610362D01*
X77891780Y-57747445D01*
X77890414Y-57822821D01*
X77609812Y-57822821D01*
X77610287Y-57795952D01*
X77614247Y-57665382D01*
X77619826Y-57570087D01*
X77627746Y-57502364D01*
X77638731Y-57454507D01*
X77653501Y-57418813D01*
X77672782Y-57387578D01*
X77681049Y-57375824D01*
X77790712Y-57264797D01*
X77929365Y-57201847D01*
X78089754Y-57184297D01*
X78229900Y-57201903D01*
G37*
X87372406Y-57275156D02*
X87456469Y-57313393D01*
X87522450Y-57359726D01*
X87570794Y-57411532D01*
X87604172Y-57478363D01*
X87625253Y-57569769D01*
X87636707Y-57695301D01*
X87641203Y-57864508D01*
X87641678Y-57975933D01*
X87641678Y-58410627D01*
X87567316Y-58444509D01*
X87508746Y-58469272D01*
X87479730Y-58478391D01*
X87474179Y-58451257D01*
X87469775Y-58378094D01*
X87467078Y-58271263D01*
X87466506Y-58186437D01*
X87464046Y-58063887D01*
X87457412Y-57966668D01*
X87447726Y-57907134D01*
X87440032Y-57894483D01*
X87388311Y-57907402D01*
X87307117Y-57940539D01*
X87213102Y-57985461D01*
X87122917Y-58033735D01*
X87053215Y-58076928D01*
X87020648Y-58106608D01*
X87020519Y-58106929D01*
X87023320Y-58161857D01*
X87048439Y-58214292D01*
X87092541Y-58256881D01*
X87156909Y-58271126D01*
X87211921Y-58269466D01*
X87289835Y-58268245D01*
X87330732Y-58286498D01*
X87355295Y-58334726D01*
X87358392Y-58343820D01*
X87369040Y-58412598D01*
X87340565Y-58454360D01*
X87266344Y-58474263D01*
X87186168Y-58477944D01*
X87041890Y-58450658D01*
X86967203Y-58411690D01*
X86874963Y-58320148D01*
X86826043Y-58207782D01*
X86821654Y-58089051D01*
X86863001Y-57978411D01*
X86925197Y-57909080D01*
X86987294Y-57870265D01*
X87084895Y-57821125D01*
X87198632Y-57771292D01*
X87217590Y-57763677D01*
X87342521Y-57708545D01*
X87414539Y-57659954D01*
X87437700Y-57611647D01*
X87416064Y-57557370D01*
X87378920Y-57514943D01*
X87291127Y-57462702D01*
X87194530Y-57458784D01*
X87105944Y-57499041D01*
X87042186Y-57579326D01*
X87033817Y-57600040D01*
X86985096Y-57676225D01*
X86913965Y-57732785D01*
X86824207Y-57779201D01*
X86824207Y-57647584D01*
X86829490Y-57567168D01*
X86852142Y-57503786D01*
X86902367Y-57436163D01*
X86950582Y-57384076D01*
X87025554Y-57310322D01*
X87083806Y-57270702D01*
X87146372Y-57254810D01*
X87217193Y-57252184D01*
X87372406Y-57275156D01*
G36*
X87372406Y-57275156D02*
G01*
X87456469Y-57313393D01*
X87522450Y-57359726D01*
X87570794Y-57411532D01*
X87604172Y-57478363D01*
X87625253Y-57569769D01*
X87636707Y-57695301D01*
X87641203Y-57864508D01*
X87641678Y-57975933D01*
X87641678Y-58410627D01*
X87567316Y-58444509D01*
X87508746Y-58469272D01*
X87479730Y-58478391D01*
X87474179Y-58451257D01*
X87469775Y-58378094D01*
X87467078Y-58271263D01*
X87466506Y-58186437D01*
X87464046Y-58063887D01*
X87457412Y-57966668D01*
X87447726Y-57907134D01*
X87440032Y-57894483D01*
X87388311Y-57907402D01*
X87307117Y-57940539D01*
X87213102Y-57985461D01*
X87122917Y-58033735D01*
X87053215Y-58076928D01*
X87020648Y-58106608D01*
X87020519Y-58106929D01*
X87023320Y-58161857D01*
X87048439Y-58214292D01*
X87092541Y-58256881D01*
X87156909Y-58271126D01*
X87211921Y-58269466D01*
X87289835Y-58268245D01*
X87330732Y-58286498D01*
X87355295Y-58334726D01*
X87358392Y-58343820D01*
X87369040Y-58412598D01*
X87340565Y-58454360D01*
X87266344Y-58474263D01*
X87186168Y-58477944D01*
X87041890Y-58450658D01*
X86967203Y-58411690D01*
X86874963Y-58320148D01*
X86826043Y-58207782D01*
X86821654Y-58089051D01*
X86863001Y-57978411D01*
X86925197Y-57909080D01*
X86987294Y-57870265D01*
X87084895Y-57821125D01*
X87198632Y-57771292D01*
X87217590Y-57763677D01*
X87342521Y-57708545D01*
X87414539Y-57659954D01*
X87437700Y-57611647D01*
X87416064Y-57557370D01*
X87378920Y-57514943D01*
X87291127Y-57462702D01*
X87194530Y-57458784D01*
X87105944Y-57499041D01*
X87042186Y-57579326D01*
X87033817Y-57600040D01*
X86985096Y-57676225D01*
X86913965Y-57732785D01*
X86824207Y-57779201D01*
X86824207Y-57647584D01*
X86829490Y-57567168D01*
X86852142Y-57503786D01*
X86902367Y-57436163D01*
X86950582Y-57384076D01*
X87025554Y-57310322D01*
X87083806Y-57270702D01*
X87146372Y-57254810D01*
X87217193Y-57252184D01*
X87372406Y-57275156D01*
G37*
D13*
%TO.C,J2*%
X110133001Y-75757001D02*
X120387001Y-75757001D01*
X120387001Y-75757001D02*
X120387001Y-61402998D01*
X110133001Y-61402998D02*
X110133001Y-75757001D01*
X120387001Y-61402998D02*
X110133001Y-61402998D01*
%TO.C,J5*%
X99045001Y-56496999D02*
X99045001Y-46242999D01*
X99045001Y-46242999D02*
X89690998Y-46242999D01*
X89690998Y-56496999D02*
X99045001Y-56496999D01*
X89690998Y-46242999D02*
X89690998Y-56496999D01*
D12*
%TO.C,R4*%
X81307000Y-87619064D02*
X81307000Y-87164936D01*
X82777000Y-87619064D02*
X82777000Y-87164936D01*
%TO.C,D2*%
X88662000Y-72590000D02*
X90662000Y-72590000D01*
X88662000Y-72590000D02*
X88662000Y-68580000D01*
X90662000Y-72590000D02*
X90662000Y-68580000D01*
%TO.C,D1*%
X106520000Y-83446000D02*
X104300000Y-83446000D01*
X104300000Y-83446000D02*
X104300000Y-87856000D01*
X106520000Y-87856000D02*
X106520000Y-83446000D01*
%TO.C,G\u002A\u002A\u002A*%
D14*
X66007035Y-70746053D02*
X71460901Y-76199920D01*
X68136695Y-79524484D01*
X69079181Y-79537897D01*
X69343646Y-79541990D01*
X69559272Y-79546287D01*
X69733661Y-79551257D01*
X69874419Y-79557366D01*
X69989149Y-79565084D01*
X70085455Y-79574878D01*
X70170941Y-79587216D01*
X70253211Y-79602566D01*
X70303420Y-79613247D01*
X70675070Y-79720524D01*
X71016990Y-79871524D01*
X71324866Y-80063950D01*
X71594381Y-80295504D01*
X71604507Y-80305756D01*
X71735945Y-80464808D01*
X71862911Y-80664658D01*
X71977331Y-80889776D01*
X72071130Y-81124631D01*
X72125683Y-81308223D01*
X72161624Y-81495462D01*
X72187004Y-81712688D01*
X72201225Y-81943067D01*
X72203686Y-82169766D01*
X72193790Y-82375954D01*
X72170938Y-82544797D01*
X72169859Y-82550000D01*
X72078874Y-82850146D01*
X71939986Y-83124732D01*
X71757664Y-83368904D01*
X71536374Y-83577807D01*
X71280582Y-83746586D01*
X70994756Y-83870386D01*
X70938842Y-83888001D01*
X70631289Y-83953040D01*
X70296216Y-83976286D01*
X69942110Y-83959414D01*
X69577460Y-83904101D01*
X69210752Y-83812020D01*
X68850475Y-83684847D01*
X68505116Y-83524256D01*
X68209168Y-83349305D01*
X68129283Y-83291574D01*
X68035389Y-83216300D01*
X67936354Y-83131602D01*
X67841047Y-83045598D01*
X67758334Y-82966407D01*
X67697084Y-82902148D01*
X67666164Y-82860938D01*
X67665111Y-82851214D01*
X67694481Y-82857109D01*
X67764845Y-82883294D01*
X67866255Y-82925753D01*
X67988763Y-82980471D01*
X68013637Y-82991937D01*
X68428699Y-83167572D01*
X68816908Y-83296945D01*
X69182220Y-83381090D01*
X69528590Y-83421040D01*
X69670618Y-83424889D01*
X69887528Y-83418470D01*
X70068182Y-83396654D01*
X70231570Y-83355600D01*
X70396685Y-83291469D01*
X70448346Y-83267654D01*
X70662797Y-83136456D01*
X70839075Y-82967913D01*
X70883367Y-82902778D01*
X71475111Y-82902778D01*
X71489222Y-82916889D01*
X71503334Y-82902778D01*
X71489222Y-82888667D01*
X71475111Y-82902778D01*
X70883367Y-82902778D01*
X70974792Y-82768331D01*
X71067563Y-82544015D01*
X71114999Y-82301271D01*
X71114713Y-82046403D01*
X71064320Y-81785718D01*
X71039059Y-81707280D01*
X70927761Y-81473141D01*
X70771888Y-81264862D01*
X70579447Y-81089486D01*
X70358447Y-80954059D01*
X70116895Y-80865624D01*
X70070194Y-80854894D01*
X69893803Y-80833269D01*
X69688681Y-80837120D01*
X69449154Y-80867052D01*
X69169550Y-80923670D01*
X68977445Y-80971423D01*
X68539998Y-81083299D01*
X68147349Y-81176708D01*
X67791499Y-81253145D01*
X67464449Y-81314105D01*
X67158201Y-81361083D01*
X66864757Y-81395575D01*
X66586130Y-81418428D01*
X66218718Y-81442387D01*
X63392918Y-84268083D01*
X63060306Y-84600585D01*
X62738627Y-84921966D01*
X62430141Y-85229978D01*
X62137105Y-85522376D01*
X61861778Y-85796911D01*
X61606419Y-86051336D01*
X61373284Y-86283404D01*
X61164634Y-86490869D01*
X60982726Y-86671484D01*
X60829819Y-86823000D01*
X60708171Y-86943171D01*
X60620041Y-87029750D01*
X60567686Y-87080490D01*
X60553031Y-87093778D01*
X60532141Y-87074086D01*
X60472971Y-87016087D01*
X60377145Y-86921401D01*
X60246285Y-86791644D01*
X60082012Y-86628435D01*
X59885949Y-86433392D01*
X59659718Y-86208132D01*
X59404941Y-85954273D01*
X59123240Y-85673434D01*
X58816237Y-85367231D01*
X58485553Y-85037284D01*
X58132812Y-84685210D01*
X57759635Y-84312626D01*
X57367645Y-83921151D01*
X56958462Y-83512403D01*
X56533710Y-83087999D01*
X56095011Y-82649558D01*
X55643986Y-82198697D01*
X55182257Y-81737034D01*
X55092141Y-81646918D01*
X49645337Y-76200059D01*
X49645393Y-76200002D01*
X49899280Y-76200002D01*
X55219112Y-81519890D01*
X55677228Y-81977958D01*
X56124937Y-82425517D01*
X56560598Y-82860930D01*
X56982569Y-83282560D01*
X57389208Y-83688768D01*
X57778875Y-84077920D01*
X58149928Y-84448376D01*
X58500725Y-84798501D01*
X58829624Y-85126657D01*
X59134986Y-85431207D01*
X59415167Y-85710513D01*
X59668526Y-85962939D01*
X59893423Y-86186848D01*
X60088215Y-86380602D01*
X60251261Y-86542565D01*
X60380920Y-86671099D01*
X60475550Y-86764567D01*
X60533510Y-86821332D01*
X60553138Y-86839778D01*
X60574430Y-86820193D01*
X60633300Y-86762969D01*
X60727439Y-86670404D01*
X60854537Y-86544796D01*
X61012284Y-86388442D01*
X61198371Y-86203641D01*
X61410489Y-85992689D01*
X61646326Y-85757885D01*
X61903575Y-85501526D01*
X62179924Y-85225910D01*
X62473065Y-84933335D01*
X62780687Y-84626098D01*
X63100482Y-84306498D01*
X63270344Y-84136657D01*
X65973355Y-81433535D01*
X65683289Y-81399004D01*
X65565600Y-81381625D01*
X65406761Y-81353320D01*
X65220399Y-81316780D01*
X65020142Y-81274693D01*
X64819617Y-81229749D01*
X64786445Y-81222009D01*
X64472272Y-81148827D01*
X64204159Y-81088199D01*
X63973418Y-81038950D01*
X63771358Y-80999904D01*
X63589292Y-80969887D01*
X63418529Y-80947722D01*
X63250381Y-80932234D01*
X63076160Y-80922249D01*
X62887175Y-80916590D01*
X62674737Y-80914082D01*
X62506310Y-80913571D01*
X62265645Y-80911105D01*
X62066219Y-80902522D01*
X61892946Y-80885331D01*
X61730739Y-80857041D01*
X61564508Y-80815162D01*
X61379168Y-80757203D01*
X61214884Y-80700384D01*
X61050403Y-80642608D01*
X60932645Y-80603593D01*
X60855338Y-80582674D01*
X60812207Y-80579185D01*
X60796981Y-80592463D01*
X60803386Y-80621841D01*
X60820975Y-80658634D01*
X60889282Y-80742190D01*
X60985736Y-80803882D01*
X61086324Y-80828437D01*
X61087932Y-80828445D01*
X61134622Y-80833635D01*
X61145778Y-80841061D01*
X61129918Y-80867793D01*
X61087679Y-80927984D01*
X61027073Y-81010338D01*
X61003814Y-81041238D01*
X60851677Y-81263251D01*
X60744090Y-81473856D01*
X60675781Y-81688168D01*
X60641473Y-81921301D01*
X60634873Y-82098445D01*
X60643691Y-82289217D01*
X60668778Y-82496748D01*
X60706668Y-82701279D01*
X60753893Y-82883052D01*
X60790627Y-82986119D01*
X60833814Y-83071840D01*
X60894500Y-83172120D01*
X60929478Y-83223325D01*
X60999585Y-83326155D01*
X61037384Y-83400268D01*
X61047624Y-83459529D01*
X61035052Y-83517798D01*
X61032603Y-83524418D01*
X60978079Y-83598791D01*
X60895521Y-83631543D01*
X60799735Y-83617804D01*
X60778340Y-83608050D01*
X60734691Y-83578721D01*
X60700697Y-83535652D01*
X60672588Y-83469064D01*
X60646594Y-83369176D01*
X60618946Y-83226211D01*
X60608924Y-83168538D01*
X60576135Y-83037455D01*
X60525161Y-82902842D01*
X60463238Y-82778938D01*
X60397602Y-82679986D01*
X60335488Y-82620225D01*
X60328284Y-82616197D01*
X60239147Y-82600758D01*
X60139624Y-82633458D01*
X60035197Y-82708266D01*
X59931352Y-82819153D01*
X59833572Y-82960088D01*
X59747339Y-83125043D01*
X59678138Y-83307988D01*
X59667929Y-83342311D01*
X59616256Y-83479655D01*
X59554692Y-83561885D01*
X59482229Y-83589630D01*
X59397860Y-83563516D01*
X59357473Y-83535730D01*
X59293233Y-83458589D01*
X59283765Y-83374873D01*
X59328586Y-83289547D01*
X59386577Y-83235592D01*
X59514503Y-83127905D01*
X59613978Y-83016406D01*
X59699948Y-82882201D01*
X59761513Y-82761667D01*
X59825713Y-82623496D01*
X59865601Y-82524868D01*
X59883333Y-82455472D01*
X59881068Y-82404997D01*
X59860962Y-82363132D01*
X59848382Y-82346457D01*
X59822767Y-82317846D01*
X59794423Y-82301572D01*
X59750806Y-82296642D01*
X59679378Y-82302066D01*
X59567596Y-82316852D01*
X59533950Y-82321602D01*
X59321088Y-82355185D01*
X59148520Y-82391535D01*
X59000123Y-82435275D01*
X58859777Y-82491025D01*
X58737542Y-82549889D01*
X58629796Y-82601368D01*
X58534317Y-82640564D01*
X58466912Y-82661207D01*
X58452639Y-82662889D01*
X58373506Y-82638862D01*
X58317849Y-82577232D01*
X58290512Y-82493681D01*
X58296342Y-82403887D01*
X58340184Y-82323531D01*
X58345912Y-82317545D01*
X58376578Y-82292534D01*
X58417293Y-82274476D01*
X58478469Y-82261502D01*
X58570515Y-82251744D01*
X58703840Y-82243334D01*
X58781005Y-82239446D01*
X58959292Y-82228730D01*
X59093445Y-82213729D01*
X59195771Y-82190549D01*
X59278577Y-82155295D01*
X59354173Y-82104073D01*
X59434866Y-82032987D01*
X59435586Y-82032308D01*
X59511825Y-81937999D01*
X59536156Y-81850290D01*
X59507745Y-81773653D01*
X59487722Y-81752507D01*
X59397573Y-81692392D01*
X59264920Y-81630475D01*
X59103333Y-81571406D01*
X58926383Y-81519833D01*
X58747640Y-81480404D01*
X58648111Y-81464883D01*
X58547976Y-81448039D01*
X58458976Y-81426473D01*
X58431221Y-81417192D01*
X58358231Y-81363483D01*
X58322464Y-81284879D01*
X58321654Y-81196815D01*
X58353536Y-81114726D01*
X58415843Y-81054050D01*
X58487887Y-81031115D01*
X58548045Y-81032702D01*
X58604580Y-81056004D01*
X58673880Y-81109426D01*
X58716712Y-81148440D01*
X58890027Y-81283903D01*
X59078044Y-81384329D01*
X59271492Y-81447826D01*
X59461099Y-81472498D01*
X59637592Y-81456452D01*
X59791701Y-81397793D01*
X59827024Y-81375281D01*
X59915004Y-81297480D01*
X59990628Y-81193215D01*
X60057255Y-81055305D01*
X60118247Y-80876567D01*
X60176961Y-80649820D01*
X60187023Y-80605692D01*
X60238757Y-80389405D01*
X60287455Y-80219993D01*
X60336748Y-80088284D01*
X60390270Y-79985102D01*
X60451652Y-79901276D01*
X60476946Y-79873472D01*
X60606888Y-79765856D01*
X60760343Y-79692767D01*
X60942650Y-79653321D01*
X61159145Y-79646635D01*
X61415168Y-79671828D01*
X61555000Y-79695232D01*
X61697947Y-79721159D01*
X61836298Y-79745140D01*
X61951130Y-79763949D01*
X62006556Y-79772198D01*
X62147667Y-79791459D01*
X62079518Y-79717574D01*
X61996901Y-79651814D01*
X61877697Y-79596758D01*
X61716627Y-79550801D01*
X61508414Y-79512339D01*
X61325149Y-79488248D01*
X61109788Y-79461904D01*
X60938573Y-79435153D01*
X60799386Y-79403051D01*
X60680113Y-79360653D01*
X60568636Y-79303017D01*
X60452840Y-79225197D01*
X60320608Y-79122252D01*
X60215007Y-79035281D01*
X59919426Y-78761323D01*
X59632119Y-78441032D01*
X59360412Y-78084514D01*
X59111628Y-77701871D01*
X58893093Y-77303209D01*
X58773502Y-77046667D01*
X58592106Y-76595315D01*
X58453610Y-76175527D01*
X58357022Y-75783376D01*
X58301351Y-75414937D01*
X58285440Y-75113445D01*
X58285725Y-74957327D01*
X58289708Y-74841376D01*
X58299687Y-74749329D01*
X58317956Y-74664926D01*
X58346813Y-74571906D01*
X58372104Y-74499765D01*
X58412161Y-74384965D01*
X58433248Y-74314592D01*
X58436717Y-74280416D01*
X58423921Y-74274205D01*
X58408043Y-74280985D01*
X58320816Y-74357663D01*
X58248731Y-74482961D01*
X58194780Y-74650380D01*
X58167596Y-74803000D01*
X58127214Y-75013514D01*
X58062319Y-75176315D01*
X57967499Y-75296807D01*
X57837338Y-75380394D01*
X57666423Y-75432479D01*
X57515860Y-75453437D01*
X57191596Y-75505368D01*
X56896372Y-75598083D01*
X56635321Y-75729480D01*
X56413576Y-75897456D01*
X56399196Y-75910970D01*
X56308792Y-76009335D01*
X56221871Y-76124885D01*
X56146892Y-76243909D01*
X56092319Y-76352693D01*
X56066613Y-76437526D01*
X56065672Y-76451452D01*
X56051564Y-76504136D01*
X56017007Y-76575589D01*
X56009643Y-76588056D01*
X55961643Y-76650779D01*
X55904892Y-76676111D01*
X55845335Y-76679778D01*
X55745883Y-76663578D01*
X55670883Y-76609452D01*
X55613111Y-76516043D01*
X55610666Y-76417259D01*
X55663735Y-76312641D01*
X55772506Y-76201728D01*
X55866528Y-76130619D01*
X55986610Y-76018030D01*
X56055895Y-75883047D01*
X56073250Y-75777188D01*
X56069835Y-75693211D01*
X56045324Y-75639146D01*
X55990391Y-75608909D01*
X55895715Y-75596411D01*
X55794174Y-75595009D01*
X55697192Y-75597553D01*
X55619868Y-75606496D01*
X55546199Y-75626643D01*
X55460177Y-75662800D01*
X55345799Y-75719770D01*
X55300605Y-75743176D01*
X55184226Y-75802040D01*
X55084175Y-75849597D01*
X55012179Y-75880463D01*
X54981786Y-75889556D01*
X54935430Y-75873207D01*
X54873293Y-75833490D01*
X54868629Y-75829875D01*
X54814938Y-75773362D01*
X54799661Y-75705333D01*
X54801323Y-75670401D01*
X54815502Y-75596861D01*
X54848676Y-75541754D01*
X54908411Y-75501628D01*
X55002270Y-75473028D01*
X55137819Y-75452500D01*
X55311784Y-75437354D01*
X55526653Y-75415986D01*
X55691036Y-75385012D01*
X55810341Y-75342693D01*
X55889976Y-75287292D01*
X55924716Y-75240353D01*
X55934381Y-75167651D01*
X55896165Y-75087373D01*
X55817207Y-75004541D01*
X55704645Y-74924179D01*
X55565618Y-74851308D01*
X55407267Y-74790952D01*
X55236730Y-74748132D01*
X55221075Y-74745318D01*
X55068663Y-74708118D01*
X54968482Y-74656416D01*
X54917359Y-74586504D01*
X54912124Y-74494672D01*
X54935538Y-74411442D01*
X54992624Y-74331189D01*
X55078555Y-74291319D01*
X55155250Y-74294159D01*
X55208821Y-74321648D01*
X55287167Y-74378611D01*
X55375646Y-74454120D01*
X55399565Y-74476453D01*
X55528658Y-74591832D01*
X55637702Y-74668933D01*
X55740236Y-74714845D01*
X55849800Y-74736652D01*
X55903926Y-74740445D01*
X56051667Y-74746556D01*
X56060348Y-74610565D01*
X56054402Y-74481193D01*
X56025134Y-74348394D01*
X55978584Y-74231897D01*
X55920793Y-74151432D01*
X55919369Y-74150153D01*
X55857704Y-74086279D01*
X55793800Y-74006106D01*
X55739046Y-73925763D01*
X55704834Y-73861378D01*
X55698889Y-73837927D01*
X55721094Y-73784307D01*
X55774544Y-73724681D01*
X55839489Y-73677242D01*
X55892035Y-73660000D01*
X55961903Y-73677090D01*
X56021860Y-73732205D01*
X56075937Y-73831119D01*
X56128161Y-73979602D01*
X56137587Y-74011727D01*
X56234335Y-74292849D01*
X56348327Y-74520798D01*
X56480112Y-74696323D01*
X56630241Y-74820172D01*
X56782279Y-74888303D01*
X56975479Y-74923625D01*
X57144815Y-74907875D01*
X57290028Y-74841156D01*
X57410859Y-74723569D01*
X57479772Y-74613041D01*
X57524013Y-74504232D01*
X57568295Y-74355821D01*
X57608709Y-74184511D01*
X57641345Y-74007004D01*
X57662293Y-73840005D01*
X57663205Y-73829334D01*
X57661862Y-73563432D01*
X57614489Y-73316897D01*
X57523764Y-73095484D01*
X57392367Y-72904950D01*
X57222976Y-72751050D01*
X57135552Y-72695553D01*
X57026909Y-72634492D01*
X57139791Y-72512030D01*
X57244515Y-72378898D01*
X57299302Y-72261731D01*
X57307556Y-72203994D01*
X57293505Y-72182707D01*
X57249477Y-72194300D01*
X57172662Y-72240407D01*
X57060248Y-72322663D01*
X56940667Y-72417317D01*
X56706909Y-72581676D01*
X56427556Y-72735985D01*
X56113201Y-72875590D01*
X55774433Y-72995842D01*
X55421844Y-73092089D01*
X55385072Y-73100474D01*
X55254132Y-73127443D01*
X55133789Y-73145892D01*
X55007956Y-73157187D01*
X54860550Y-73162690D01*
X54675484Y-73163767D01*
X54640556Y-73163616D01*
X54401688Y-73158349D01*
X54201891Y-73143100D01*
X54024176Y-73114475D01*
X53851554Y-73069080D01*
X53667037Y-73003521D01*
X53505241Y-72936767D01*
X53265490Y-72833792D01*
X49899280Y-76200002D01*
X49645393Y-76200002D01*
X51377506Y-74467717D01*
X53109676Y-72735375D01*
X52892172Y-72528767D01*
X52770068Y-72408883D01*
X52685135Y-72312374D01*
X52678852Y-72302471D01*
X54007904Y-72302471D01*
X54014429Y-72381834D01*
X54062459Y-72445379D01*
X54083167Y-72458525D01*
X54179092Y-72488845D01*
X54304480Y-72500189D01*
X54435574Y-72492385D01*
X54548619Y-72465265D01*
X54556975Y-72461921D01*
X54636710Y-72410648D01*
X54682883Y-72347682D01*
X54693128Y-72249125D01*
X54657661Y-72152819D01*
X54586407Y-72070526D01*
X54489294Y-72014009D01*
X54385167Y-71994889D01*
X54275317Y-72013412D01*
X54176590Y-72062760D01*
X54095061Y-72133605D01*
X54036807Y-72216618D01*
X54007904Y-72302471D01*
X52678852Y-72302471D01*
X52630873Y-72226853D01*
X52600781Y-72139934D01*
X52588359Y-72039230D01*
X52586731Y-71946741D01*
X52604955Y-71765792D01*
X52659486Y-71591154D01*
X52753490Y-71418407D01*
X52890130Y-71243132D01*
X52917099Y-71216195D01*
X54047889Y-71216195D01*
X54048764Y-71224324D01*
X54093777Y-71213121D01*
X54174991Y-71185022D01*
X54273243Y-71146994D01*
X54521728Y-71049992D01*
X54730680Y-70975589D01*
X54910923Y-70920893D01*
X55073286Y-70883013D01*
X55228593Y-70859059D01*
X55387673Y-70846138D01*
X55402556Y-70845417D01*
X55783590Y-70855866D01*
X56165398Y-70921324D01*
X56545022Y-71040480D01*
X56919504Y-71212022D01*
X57285887Y-71434639D01*
X57641212Y-71707020D01*
X57915060Y-71959413D01*
X58043556Y-72089886D01*
X58166444Y-72220706D01*
X58289534Y-72358824D01*
X58418637Y-72511189D01*
X58559564Y-72684750D01*
X58718126Y-72886457D01*
X58900134Y-73123261D01*
X59018409Y-73279000D01*
X59207857Y-73529906D01*
X59367121Y-73742422D01*
X59500611Y-73922760D01*
X59612734Y-74077132D01*
X59707898Y-74211752D01*
X59790510Y-74332832D01*
X59864980Y-74446584D01*
X59935715Y-74559221D01*
X59989613Y-74647778D01*
X60064842Y-74775034D01*
X60132805Y-74896006D01*
X60196893Y-75018166D01*
X60260493Y-75148982D01*
X60326996Y-75295926D01*
X60399790Y-75466467D01*
X60482265Y-75668074D01*
X60577808Y-75908219D01*
X60681008Y-76171778D01*
X60837543Y-76568735D01*
X60979582Y-76917379D01*
X61110124Y-77223060D01*
X61232164Y-77491133D01*
X61348700Y-77726947D01*
X61462731Y-77935855D01*
X61577252Y-78123209D01*
X61695262Y-78294360D01*
X61819758Y-78454661D01*
X61953737Y-78609463D01*
X62100197Y-78764118D01*
X62174704Y-78838778D01*
X62418253Y-79063775D01*
X62675780Y-79269297D01*
X62956076Y-79461009D01*
X63267930Y-79644580D01*
X63620133Y-79825674D01*
X63925667Y-79967582D01*
X64339421Y-80142420D01*
X64723340Y-80281978D01*
X65089339Y-80388960D01*
X65449334Y-80466071D01*
X65815242Y-80516013D01*
X66198978Y-80541491D01*
X66475675Y-80546223D01*
X66671772Y-80544285D01*
X66856662Y-80537750D01*
X67040310Y-80525536D01*
X67232676Y-80506558D01*
X67443723Y-80479734D01*
X67683413Y-80443982D01*
X67961708Y-80398217D01*
X68173111Y-80361697D01*
X68542566Y-80299849D01*
X68864287Y-80252794D01*
X69144982Y-80220410D01*
X69391355Y-80202580D01*
X69610112Y-80199184D01*
X69807961Y-80210103D01*
X69991607Y-80235216D01*
X70167756Y-80274406D01*
X70330581Y-80323333D01*
X70593224Y-80427833D01*
X70817071Y-80555535D01*
X71018088Y-80715954D01*
X71065950Y-80761601D01*
X71281885Y-81011316D01*
X71446917Y-81284014D01*
X71560487Y-81577160D01*
X71622041Y-81888219D01*
X71631021Y-82214657D01*
X71586869Y-82553939D01*
X71517664Y-82818111D01*
X71513974Y-82842233D01*
X71533950Y-82815789D01*
X71541660Y-82802884D01*
X71567657Y-82744801D01*
X71602632Y-82648427D01*
X71640898Y-82529977D01*
X71660445Y-82464218D01*
X71725874Y-82145239D01*
X71735772Y-81836055D01*
X71690185Y-81536995D01*
X71589162Y-81248389D01*
X71447881Y-80993272D01*
X71247424Y-80734410D01*
X71012638Y-80518184D01*
X70738288Y-80340025D01*
X70642556Y-80290923D01*
X70471394Y-80214657D01*
X70300383Y-80153507D01*
X70123723Y-80107313D01*
X69935612Y-80075915D01*
X69730250Y-80059153D01*
X69501836Y-80056868D01*
X69244570Y-80068900D01*
X68952651Y-80095089D01*
X68620278Y-80135275D01*
X68241651Y-80189300D01*
X68046111Y-80219419D01*
X67767648Y-80261669D01*
X67531651Y-80293549D01*
X67325267Y-80315884D01*
X67135640Y-80329500D01*
X66949913Y-80335223D01*
X66755231Y-80333877D01*
X66538740Y-80326289D01*
X66449008Y-80321988D01*
X66054818Y-80295342D01*
X65701740Y-80255450D01*
X65376377Y-80198821D01*
X65065328Y-80121962D01*
X64755196Y-80021385D01*
X64432582Y-79893598D01*
X64084087Y-79735110D01*
X63953889Y-79671921D01*
X63615947Y-79498451D01*
X63321692Y-79330378D01*
X63059973Y-79159743D01*
X62819637Y-78978585D01*
X62589531Y-78778943D01*
X62358503Y-78552856D01*
X62298161Y-78490078D01*
X62127918Y-78303840D01*
X61978286Y-78122697D01*
X61843957Y-77937772D01*
X61719626Y-77740193D01*
X61599987Y-77521083D01*
X61479734Y-77271569D01*
X61353560Y-76982774D01*
X61258004Y-76750334D01*
X61049828Y-76244977D01*
X60851428Y-75787501D01*
X60658990Y-75371000D01*
X60468700Y-74988573D01*
X60276743Y-74633314D01*
X60079305Y-74298321D01*
X59872573Y-73976689D01*
X59652731Y-73661514D01*
X59415967Y-73345892D01*
X59285631Y-73180223D01*
X58964352Y-72786330D01*
X58665272Y-72438766D01*
X58384007Y-72134065D01*
X58116174Y-71868763D01*
X57857390Y-71639395D01*
X57603271Y-71442496D01*
X57349434Y-71274601D01*
X57091497Y-71132244D01*
X56825075Y-71011962D01*
X56545785Y-70910288D01*
X56333294Y-70846390D01*
X56221099Y-70816582D01*
X56124841Y-70795482D01*
X56030504Y-70781642D01*
X55924068Y-70773617D01*
X55791517Y-70769960D01*
X55618833Y-70769225D01*
X55586000Y-70769283D01*
X55406837Y-70770428D01*
X55270833Y-70773908D01*
X55164709Y-70781176D01*
X55075187Y-70793687D01*
X54988989Y-70812894D01*
X54892835Y-70840250D01*
X54867726Y-70847905D01*
X54734596Y-70893414D01*
X54583293Y-70952477D01*
X54427294Y-71019041D01*
X54280075Y-71087051D01*
X54155112Y-71150453D01*
X54065883Y-71203194D01*
X54047889Y-71216195D01*
X52917099Y-71216195D01*
X53072571Y-71060910D01*
X53303976Y-70867321D01*
X53426142Y-70774419D01*
X53557675Y-70675911D01*
X53650145Y-70603244D01*
X53710439Y-70549476D01*
X53745444Y-70507666D01*
X53762046Y-70470873D01*
X53766318Y-70438366D01*
X53808000Y-70438366D01*
X53829523Y-70497001D01*
X53871500Y-70541784D01*
X53950979Y-70571796D01*
X54060665Y-70580043D01*
X54179346Y-70568036D01*
X54285806Y-70537286D01*
X54337546Y-70508604D01*
X54404905Y-70434323D01*
X54424694Y-70355476D01*
X54404577Y-70279110D01*
X54352221Y-70212276D01*
X54275291Y-70162022D01*
X54181452Y-70135398D01*
X54078369Y-70139453D01*
X53978458Y-70178381D01*
X53896506Y-70248248D01*
X53834887Y-70339928D01*
X53808191Y-70431168D01*
X53808000Y-70438366D01*
X53766318Y-70438366D01*
X53767134Y-70432158D01*
X53767187Y-70430698D01*
X53795998Y-70308650D01*
X53865449Y-70205893D01*
X53963536Y-70129635D01*
X54078255Y-70087083D01*
X54197602Y-70085445D01*
X54287778Y-70118111D01*
X54344584Y-70143831D01*
X54406932Y-70154651D01*
X54484201Y-70149097D01*
X54585772Y-70125690D01*
X54721024Y-70082956D01*
X54887639Y-70023703D01*
X55087573Y-69951963D01*
X55248032Y-69898499D01*
X55381781Y-69860206D01*
X55497138Y-69834953D01*
X56264130Y-69834953D01*
X56440121Y-69884053D01*
X56672728Y-69966983D01*
X56917301Y-70085829D01*
X57154060Y-70229839D01*
X57355690Y-70381825D01*
X57610422Y-70577742D01*
X57903339Y-70767724D01*
X58216471Y-70940148D01*
X58227325Y-70945596D01*
X58347544Y-71003862D01*
X58498825Y-71074323D01*
X58671183Y-71152614D01*
X58854633Y-71234367D01*
X59039188Y-71315218D01*
X59214863Y-71390801D01*
X59371672Y-71456751D01*
X59499630Y-71508701D01*
X59588751Y-71542286D01*
X59603126Y-71547089D01*
X59771363Y-71586477D01*
X59931612Y-71597651D01*
X60068221Y-71580321D01*
X60130903Y-71556863D01*
X60225991Y-71477986D01*
X60289512Y-71363918D01*
X60319591Y-71227471D01*
X60314350Y-71081461D01*
X60271915Y-70938699D01*
X60232019Y-70866171D01*
X60119835Y-70739973D01*
X59955248Y-70621759D01*
X59737529Y-70511212D01*
X59465948Y-70408017D01*
X59139774Y-70311854D01*
X58758278Y-70222409D01*
X58741557Y-70218903D01*
X58638651Y-70190141D01*
X58548089Y-70152561D01*
X58508723Y-70128536D01*
X58451194Y-70054475D01*
X58435393Y-69968098D01*
X58459610Y-69886774D01*
X58522135Y-69827871D01*
X58539071Y-69820315D01*
X58606176Y-69808736D01*
X58682729Y-69826580D01*
X58778737Y-69877760D01*
X58895631Y-69959734D01*
X59045723Y-70052625D01*
X59216972Y-70118513D01*
X59421545Y-70161249D01*
X59589587Y-70179334D01*
X59827292Y-70197606D01*
X59808147Y-70087303D01*
X59767196Y-69946802D01*
X59692209Y-69781639D01*
X59590607Y-69605457D01*
X59469814Y-69431895D01*
X59411947Y-69359211D01*
X59322340Y-69248742D01*
X59264898Y-69168587D01*
X59233678Y-69107418D01*
X59222740Y-69053908D01*
X59225275Y-69003334D01*
X59258240Y-68942697D01*
X59327408Y-68901009D01*
X59389454Y-68890445D01*
X59471058Y-68912781D01*
X59546028Y-68981741D01*
X59616418Y-69100254D01*
X59684281Y-69271248D01*
X59708026Y-69344715D01*
X59767057Y-69527536D01*
X59818681Y-69665692D01*
X59867797Y-69769606D01*
X59919305Y-69849700D01*
X59975567Y-69913870D01*
X60056736Y-69976806D01*
X60122729Y-69985956D01*
X60176445Y-69941005D01*
X60203484Y-69889147D01*
X60220384Y-69834807D01*
X60231891Y-69760492D01*
X60238580Y-69657177D01*
X60241025Y-69515837D01*
X60239802Y-69327444D01*
X60239711Y-69320680D01*
X60237826Y-69146986D01*
X60238175Y-69021071D01*
X60241548Y-68934286D01*
X60248731Y-68877986D01*
X60260514Y-68843523D01*
X60277685Y-68822249D01*
X60285728Y-68815867D01*
X60354286Y-68781159D01*
X60417520Y-68793102D01*
X60455995Y-68817607D01*
X60474746Y-68831788D01*
X60488737Y-68848147D01*
X60498379Y-68874059D01*
X60504086Y-68916896D01*
X60506270Y-68984033D01*
X60505344Y-69082844D01*
X60501720Y-69220703D01*
X60495810Y-69404984D01*
X60493236Y-69483111D01*
X60492205Y-69680288D01*
X60504481Y-69826977D01*
X60531004Y-69927761D01*
X60572718Y-69987226D01*
X60600073Y-70003093D01*
X60627382Y-70009075D01*
X60659472Y-70003326D01*
X60702752Y-69981450D01*
X60763632Y-69939054D01*
X60848521Y-69871740D01*
X60963829Y-69775115D01*
X61089914Y-69667198D01*
X61239794Y-69541181D01*
X61355942Y-69451767D01*
X61444956Y-69396068D01*
X61513438Y-69371199D01*
X61567987Y-69374275D01*
X61615202Y-69402409D01*
X61639771Y-69426782D01*
X61671905Y-69491486D01*
X61653546Y-69561641D01*
X61583191Y-69639862D01*
X61469863Y-69722084D01*
X61248040Y-69893911D01*
X61069738Y-70099478D01*
X60967783Y-70266688D01*
X60861478Y-70509976D01*
X60798895Y-70757409D01*
X60778769Y-71019435D01*
X60799839Y-71306504D01*
X60824101Y-71455658D01*
X60851997Y-71660581D01*
X60849324Y-71822541D01*
X60814805Y-71946822D01*
X60747160Y-72038711D01*
X60670372Y-72091406D01*
X60609215Y-72114333D01*
X60508553Y-72142951D01*
X60384432Y-72172954D01*
X60298757Y-72191161D01*
X60167242Y-72220972D01*
X60048149Y-72254131D01*
X59957844Y-72285770D01*
X59922688Y-72302990D01*
X59838471Y-72356313D01*
X60019402Y-72372057D01*
X60130894Y-72380722D01*
X60274287Y-72390428D01*
X60425100Y-72399558D01*
X60484286Y-72402805D01*
X60749764Y-72429516D01*
X60999578Y-72479009D01*
X61219372Y-72547887D01*
X61351964Y-72608106D01*
X61478349Y-72691955D01*
X61619672Y-72811712D01*
X61762738Y-72954350D01*
X61894350Y-73106844D01*
X61988789Y-73236667D01*
X62070879Y-73372016D01*
X62167471Y-73547249D01*
X62272416Y-73749718D01*
X62379565Y-73966777D01*
X62482769Y-74185777D01*
X62575878Y-74394073D01*
X62652742Y-74579016D01*
X62691545Y-74682023D01*
X62744898Y-74840036D01*
X62808518Y-75040799D01*
X62878953Y-75272310D01*
X62952753Y-75522568D01*
X63026466Y-75779571D01*
X63096642Y-76031315D01*
X63159830Y-76265800D01*
X63212580Y-76471024D01*
X63245663Y-76609223D01*
X63320232Y-76958814D01*
X63389685Y-77325935D01*
X63449947Y-77687569D01*
X63496945Y-78020701D01*
X63500392Y-78048556D01*
X63518951Y-78200441D01*
X63536630Y-78344988D01*
X63551463Y-78466131D01*
X63561484Y-78547802D01*
X63561693Y-78549500D01*
X63575846Y-78643631D01*
X63588035Y-78684329D01*
X63597829Y-78674585D01*
X63604794Y-78617389D01*
X63608498Y-78515733D01*
X63608508Y-78372606D01*
X63605933Y-78243567D01*
X63604925Y-77980244D01*
X63619087Y-77765735D01*
X63650839Y-77593871D01*
X63702603Y-77458479D01*
X63776798Y-77353389D01*
X63875846Y-77272430D01*
X64002166Y-77209431D01*
X64013294Y-77205070D01*
X64097575Y-77167608D01*
X64215079Y-77108750D01*
X64354361Y-77034931D01*
X64503974Y-76952584D01*
X64652476Y-76868144D01*
X64788420Y-76788045D01*
X64900362Y-76718721D01*
X64976858Y-76666608D01*
X64991165Y-76655308D01*
X65068627Y-76571344D01*
X65122050Y-76464595D01*
X65156362Y-76322747D01*
X65170665Y-76206836D01*
X65169619Y-75976205D01*
X65128602Y-75723924D01*
X65050706Y-75464835D01*
X64981868Y-75300038D01*
X64920659Y-75162712D01*
X64885708Y-75063878D01*
X64875339Y-74992984D01*
X64887874Y-74939476D01*
X64917819Y-74896945D01*
X64985135Y-74845736D01*
X65046809Y-74848065D01*
X65103503Y-74904622D01*
X65155880Y-75016102D01*
X65204603Y-75183195D01*
X65208793Y-75200822D01*
X65271350Y-75425067D01*
X65344931Y-75615546D01*
X65426591Y-75767361D01*
X65513381Y-75875615D01*
X65602355Y-75935411D01*
X65657185Y-75946000D01*
X65726395Y-75922498D01*
X65813988Y-75857836D01*
X65912018Y-75760785D01*
X66012540Y-75640114D01*
X66107611Y-75504593D01*
X66189286Y-75362991D01*
X66194251Y-75353168D01*
X66279772Y-75191114D01*
X66351864Y-75077507D01*
X66415911Y-75007576D01*
X66477299Y-74976550D01*
X66541412Y-74979660D01*
X66592412Y-75000424D01*
X66656603Y-75049072D01*
X66677182Y-75113875D01*
X66677334Y-75122001D01*
X66671359Y-75175246D01*
X66649540Y-75231240D01*
X66606032Y-75298816D01*
X66534992Y-75386805D01*
X66430576Y-75504040D01*
X66408812Y-75527810D01*
X66278992Y-75683759D01*
X66173423Y-75839732D01*
X66095877Y-75987667D01*
X66050127Y-76119497D01*
X66039944Y-76227160D01*
X66055559Y-76283012D01*
X66109939Y-76327379D01*
X66206166Y-76345693D01*
X66336691Y-76339217D01*
X66493965Y-76309212D01*
X66670440Y-76256941D01*
X66858567Y-76183665D01*
X66975943Y-76129132D01*
X67090131Y-76075304D01*
X67190299Y-76032838D01*
X67262713Y-76007314D01*
X67287799Y-76002445D01*
X67360519Y-76024720D01*
X67402316Y-76080321D01*
X67408145Y-76152411D01*
X67372960Y-76224152D01*
X67358616Y-76238760D01*
X67307930Y-76267933D01*
X67218872Y-76304077D01*
X67107903Y-76340756D01*
X67069338Y-76351865D01*
X66868323Y-76413902D01*
X66678751Y-76484283D01*
X66508637Y-76559021D01*
X66365991Y-76634125D01*
X66258828Y-76705605D01*
X66195160Y-76769473D01*
X66183342Y-76792990D01*
X66185018Y-76875546D01*
X66236334Y-76960947D01*
X66331013Y-77044319D01*
X66462781Y-77120791D01*
X66625363Y-77185487D01*
X66725882Y-77214345D01*
X66875995Y-77256473D01*
X66977801Y-77297543D01*
X67039102Y-77342643D01*
X67067697Y-77396866D01*
X67072445Y-77440508D01*
X67055494Y-77527048D01*
X67003739Y-77572188D01*
X66915825Y-77576219D01*
X66790400Y-77539430D01*
X66730133Y-77513674D01*
X66564334Y-77448800D01*
X66369277Y-77389412D01*
X66164086Y-77340003D01*
X65967883Y-77305067D01*
X65799794Y-77289096D01*
X65772161Y-77288576D01*
X65646732Y-77292043D01*
X65550377Y-77307302D01*
X65456016Y-77340434D01*
X65377050Y-77377321D01*
X65258037Y-77443039D01*
X65130315Y-77525091D01*
X65007584Y-77613460D01*
X64903543Y-77698130D01*
X64831892Y-77769083D01*
X64819714Y-77784821D01*
X64793115Y-77868923D01*
X64801339Y-77990436D01*
X64843294Y-78143224D01*
X64913248Y-78311427D01*
X65065280Y-78589140D01*
X65236706Y-78816983D01*
X65433553Y-78999926D01*
X65661850Y-79142937D01*
X65927622Y-79250987D01*
X66116139Y-79303138D01*
X66313889Y-79345059D01*
X66548258Y-79387068D01*
X66804120Y-79427099D01*
X67066346Y-79463084D01*
X67319810Y-79492956D01*
X67549386Y-79514647D01*
X67739944Y-79526091D01*
X67749868Y-79526408D01*
X67876957Y-79530223D01*
X69541929Y-77865071D01*
X71206901Y-76199920D01*
X65880036Y-70873055D01*
X60553172Y-65546190D01*
X58408651Y-67690572D01*
X56264130Y-69834953D01*
X55497138Y-69834953D01*
X55501583Y-69833980D01*
X55620202Y-69816715D01*
X55750403Y-69805306D01*
X55797667Y-69802322D01*
X56051667Y-69787341D01*
X58302418Y-67539764D01*
X60553168Y-65292188D01*
X66007035Y-70746053D01*
G36*
X66007035Y-70746053D02*
G01*
X71460901Y-76199920D01*
X68136695Y-79524484D01*
X69079181Y-79537897D01*
X69343646Y-79541990D01*
X69559272Y-79546287D01*
X69733661Y-79551257D01*
X69874419Y-79557366D01*
X69989149Y-79565084D01*
X70085455Y-79574878D01*
X70170941Y-79587216D01*
X70253211Y-79602566D01*
X70303420Y-79613247D01*
X70675070Y-79720524D01*
X71016990Y-79871524D01*
X71324866Y-80063950D01*
X71594381Y-80295504D01*
X71604507Y-80305756D01*
X71735945Y-80464808D01*
X71862911Y-80664658D01*
X71977331Y-80889776D01*
X72071130Y-81124631D01*
X72125683Y-81308223D01*
X72161624Y-81495462D01*
X72187004Y-81712688D01*
X72201225Y-81943067D01*
X72203686Y-82169766D01*
X72193790Y-82375954D01*
X72170938Y-82544797D01*
X72169859Y-82550000D01*
X72078874Y-82850146D01*
X71939986Y-83124732D01*
X71757664Y-83368904D01*
X71536374Y-83577807D01*
X71280582Y-83746586D01*
X70994756Y-83870386D01*
X70938842Y-83888001D01*
X70631289Y-83953040D01*
X70296216Y-83976286D01*
X69942110Y-83959414D01*
X69577460Y-83904101D01*
X69210752Y-83812020D01*
X68850475Y-83684847D01*
X68505116Y-83524256D01*
X68209168Y-83349305D01*
X68129283Y-83291574D01*
X68035389Y-83216300D01*
X67936354Y-83131602D01*
X67841047Y-83045598D01*
X67758334Y-82966407D01*
X67697084Y-82902148D01*
X67666164Y-82860938D01*
X67665111Y-82851214D01*
X67694481Y-82857109D01*
X67764845Y-82883294D01*
X67866255Y-82925753D01*
X67988763Y-82980471D01*
X68013637Y-82991937D01*
X68428699Y-83167572D01*
X68816908Y-83296945D01*
X69182220Y-83381090D01*
X69528590Y-83421040D01*
X69670618Y-83424889D01*
X69887528Y-83418470D01*
X70068182Y-83396654D01*
X70231570Y-83355600D01*
X70396685Y-83291469D01*
X70448346Y-83267654D01*
X70662797Y-83136456D01*
X70839075Y-82967913D01*
X70883367Y-82902778D01*
X71475111Y-82902778D01*
X71489222Y-82916889D01*
X71503334Y-82902778D01*
X71489222Y-82888667D01*
X71475111Y-82902778D01*
X70883367Y-82902778D01*
X70974792Y-82768331D01*
X71067563Y-82544015D01*
X71114999Y-82301271D01*
X71114713Y-82046403D01*
X71064320Y-81785718D01*
X71039059Y-81707280D01*
X70927761Y-81473141D01*
X70771888Y-81264862D01*
X70579447Y-81089486D01*
X70358447Y-80954059D01*
X70116895Y-80865624D01*
X70070194Y-80854894D01*
X69893803Y-80833269D01*
X69688681Y-80837120D01*
X69449154Y-80867052D01*
X69169550Y-80923670D01*
X68977445Y-80971423D01*
X68539998Y-81083299D01*
X68147349Y-81176708D01*
X67791499Y-81253145D01*
X67464449Y-81314105D01*
X67158201Y-81361083D01*
X66864757Y-81395575D01*
X66586130Y-81418428D01*
X66218718Y-81442387D01*
X63392918Y-84268083D01*
X63060306Y-84600585D01*
X62738627Y-84921966D01*
X62430141Y-85229978D01*
X62137105Y-85522376D01*
X61861778Y-85796911D01*
X61606419Y-86051336D01*
X61373284Y-86283404D01*
X61164634Y-86490869D01*
X60982726Y-86671484D01*
X60829819Y-86823000D01*
X60708171Y-86943171D01*
X60620041Y-87029750D01*
X60567686Y-87080490D01*
X60553031Y-87093778D01*
X60532141Y-87074086D01*
X60472971Y-87016087D01*
X60377145Y-86921401D01*
X60246285Y-86791644D01*
X60082012Y-86628435D01*
X59885949Y-86433392D01*
X59659718Y-86208132D01*
X59404941Y-85954273D01*
X59123240Y-85673434D01*
X58816237Y-85367231D01*
X58485553Y-85037284D01*
X58132812Y-84685210D01*
X57759635Y-84312626D01*
X57367645Y-83921151D01*
X56958462Y-83512403D01*
X56533710Y-83087999D01*
X56095011Y-82649558D01*
X55643986Y-82198697D01*
X55182257Y-81737034D01*
X55092141Y-81646918D01*
X49645337Y-76200059D01*
X49645393Y-76200002D01*
X49899280Y-76200002D01*
X55219112Y-81519890D01*
X55677228Y-81977958D01*
X56124937Y-82425517D01*
X56560598Y-82860930D01*
X56982569Y-83282560D01*
X57389208Y-83688768D01*
X57778875Y-84077920D01*
X58149928Y-84448376D01*
X58500725Y-84798501D01*
X58829624Y-85126657D01*
X59134986Y-85431207D01*
X59415167Y-85710513D01*
X59668526Y-85962939D01*
X59893423Y-86186848D01*
X60088215Y-86380602D01*
X60251261Y-86542565D01*
X60380920Y-86671099D01*
X60475550Y-86764567D01*
X60533510Y-86821332D01*
X60553138Y-86839778D01*
X60574430Y-86820193D01*
X60633300Y-86762969D01*
X60727439Y-86670404D01*
X60854537Y-86544796D01*
X61012284Y-86388442D01*
X61198371Y-86203641D01*
X61410489Y-85992689D01*
X61646326Y-85757885D01*
X61903575Y-85501526D01*
X62179924Y-85225910D01*
X62473065Y-84933335D01*
X62780687Y-84626098D01*
X63100482Y-84306498D01*
X63270344Y-84136657D01*
X65973355Y-81433535D01*
X65683289Y-81399004D01*
X65565600Y-81381625D01*
X65406761Y-81353320D01*
X65220399Y-81316780D01*
X65020142Y-81274693D01*
X64819617Y-81229749D01*
X64786445Y-81222009D01*
X64472272Y-81148827D01*
X64204159Y-81088199D01*
X63973418Y-81038950D01*
X63771358Y-80999904D01*
X63589292Y-80969887D01*
X63418529Y-80947722D01*
X63250381Y-80932234D01*
X63076160Y-80922249D01*
X62887175Y-80916590D01*
X62674737Y-80914082D01*
X62506310Y-80913571D01*
X62265645Y-80911105D01*
X62066219Y-80902522D01*
X61892946Y-80885331D01*
X61730739Y-80857041D01*
X61564508Y-80815162D01*
X61379168Y-80757203D01*
X61214884Y-80700384D01*
X61050403Y-80642608D01*
X60932645Y-80603593D01*
X60855338Y-80582674D01*
X60812207Y-80579185D01*
X60796981Y-80592463D01*
X60803386Y-80621841D01*
X60820975Y-80658634D01*
X60889282Y-80742190D01*
X60985736Y-80803882D01*
X61086324Y-80828437D01*
X61087932Y-80828445D01*
X61134622Y-80833635D01*
X61145778Y-80841061D01*
X61129918Y-80867793D01*
X61087679Y-80927984D01*
X61027073Y-81010338D01*
X61003814Y-81041238D01*
X60851677Y-81263251D01*
X60744090Y-81473856D01*
X60675781Y-81688168D01*
X60641473Y-81921301D01*
X60634873Y-82098445D01*
X60643691Y-82289217D01*
X60668778Y-82496748D01*
X60706668Y-82701279D01*
X60753893Y-82883052D01*
X60790627Y-82986119D01*
X60833814Y-83071840D01*
X60894500Y-83172120D01*
X60929478Y-83223325D01*
X60999585Y-83326155D01*
X61037384Y-83400268D01*
X61047624Y-83459529D01*
X61035052Y-83517798D01*
X61032603Y-83524418D01*
X60978079Y-83598791D01*
X60895521Y-83631543D01*
X60799735Y-83617804D01*
X60778340Y-83608050D01*
X60734691Y-83578721D01*
X60700697Y-83535652D01*
X60672588Y-83469064D01*
X60646594Y-83369176D01*
X60618946Y-83226211D01*
X60608924Y-83168538D01*
X60576135Y-83037455D01*
X60525161Y-82902842D01*
X60463238Y-82778938D01*
X60397602Y-82679986D01*
X60335488Y-82620225D01*
X60328284Y-82616197D01*
X60239147Y-82600758D01*
X60139624Y-82633458D01*
X60035197Y-82708266D01*
X59931352Y-82819153D01*
X59833572Y-82960088D01*
X59747339Y-83125043D01*
X59678138Y-83307988D01*
X59667929Y-83342311D01*
X59616256Y-83479655D01*
X59554692Y-83561885D01*
X59482229Y-83589630D01*
X59397860Y-83563516D01*
X59357473Y-83535730D01*
X59293233Y-83458589D01*
X59283765Y-83374873D01*
X59328586Y-83289547D01*
X59386577Y-83235592D01*
X59514503Y-83127905D01*
X59613978Y-83016406D01*
X59699948Y-82882201D01*
X59761513Y-82761667D01*
X59825713Y-82623496D01*
X59865601Y-82524868D01*
X59883333Y-82455472D01*
X59881068Y-82404997D01*
X59860962Y-82363132D01*
X59848382Y-82346457D01*
X59822767Y-82317846D01*
X59794423Y-82301572D01*
X59750806Y-82296642D01*
X59679378Y-82302066D01*
X59567596Y-82316852D01*
X59533950Y-82321602D01*
X59321088Y-82355185D01*
X59148520Y-82391535D01*
X59000123Y-82435275D01*
X58859777Y-82491025D01*
X58737542Y-82549889D01*
X58629796Y-82601368D01*
X58534317Y-82640564D01*
X58466912Y-82661207D01*
X58452639Y-82662889D01*
X58373506Y-82638862D01*
X58317849Y-82577232D01*
X58290512Y-82493681D01*
X58296342Y-82403887D01*
X58340184Y-82323531D01*
X58345912Y-82317545D01*
X58376578Y-82292534D01*
X58417293Y-82274476D01*
X58478469Y-82261502D01*
X58570515Y-82251744D01*
X58703840Y-82243334D01*
X58781005Y-82239446D01*
X58959292Y-82228730D01*
X59093445Y-82213729D01*
X59195771Y-82190549D01*
X59278577Y-82155295D01*
X59354173Y-82104073D01*
X59434866Y-82032987D01*
X59435586Y-82032308D01*
X59511825Y-81937999D01*
X59536156Y-81850290D01*
X59507745Y-81773653D01*
X59487722Y-81752507D01*
X59397573Y-81692392D01*
X59264920Y-81630475D01*
X59103333Y-81571406D01*
X58926383Y-81519833D01*
X58747640Y-81480404D01*
X58648111Y-81464883D01*
X58547976Y-81448039D01*
X58458976Y-81426473D01*
X58431221Y-81417192D01*
X58358231Y-81363483D01*
X58322464Y-81284879D01*
X58321654Y-81196815D01*
X58353536Y-81114726D01*
X58415843Y-81054050D01*
X58487887Y-81031115D01*
X58548045Y-81032702D01*
X58604580Y-81056004D01*
X58673880Y-81109426D01*
X58716712Y-81148440D01*
X58890027Y-81283903D01*
X59078044Y-81384329D01*
X59271492Y-81447826D01*
X59461099Y-81472498D01*
X59637592Y-81456452D01*
X59791701Y-81397793D01*
X59827024Y-81375281D01*
X59915004Y-81297480D01*
X59990628Y-81193215D01*
X60057255Y-81055305D01*
X60118247Y-80876567D01*
X60176961Y-80649820D01*
X60187023Y-80605692D01*
X60238757Y-80389405D01*
X60287455Y-80219993D01*
X60336748Y-80088284D01*
X60390270Y-79985102D01*
X60451652Y-79901276D01*
X60476946Y-79873472D01*
X60606888Y-79765856D01*
X60760343Y-79692767D01*
X60942650Y-79653321D01*
X61159145Y-79646635D01*
X61415168Y-79671828D01*
X61555000Y-79695232D01*
X61697947Y-79721159D01*
X61836298Y-79745140D01*
X61951130Y-79763949D01*
X62006556Y-79772198D01*
X62147667Y-79791459D01*
X62079518Y-79717574D01*
X61996901Y-79651814D01*
X61877697Y-79596758D01*
X61716627Y-79550801D01*
X61508414Y-79512339D01*
X61325149Y-79488248D01*
X61109788Y-79461904D01*
X60938573Y-79435153D01*
X60799386Y-79403051D01*
X60680113Y-79360653D01*
X60568636Y-79303017D01*
X60452840Y-79225197D01*
X60320608Y-79122252D01*
X60215007Y-79035281D01*
X59919426Y-78761323D01*
X59632119Y-78441032D01*
X59360412Y-78084514D01*
X59111628Y-77701871D01*
X58893093Y-77303209D01*
X58773502Y-77046667D01*
X58592106Y-76595315D01*
X58453610Y-76175527D01*
X58357022Y-75783376D01*
X58301351Y-75414937D01*
X58285440Y-75113445D01*
X58285725Y-74957327D01*
X58289708Y-74841376D01*
X58299687Y-74749329D01*
X58317956Y-74664926D01*
X58346813Y-74571906D01*
X58372104Y-74499765D01*
X58412161Y-74384965D01*
X58433248Y-74314592D01*
X58436717Y-74280416D01*
X58423921Y-74274205D01*
X58408043Y-74280985D01*
X58320816Y-74357663D01*
X58248731Y-74482961D01*
X58194780Y-74650380D01*
X58167596Y-74803000D01*
X58127214Y-75013514D01*
X58062319Y-75176315D01*
X57967499Y-75296807D01*
X57837338Y-75380394D01*
X57666423Y-75432479D01*
X57515860Y-75453437D01*
X57191596Y-75505368D01*
X56896372Y-75598083D01*
X56635321Y-75729480D01*
X56413576Y-75897456D01*
X56399196Y-75910970D01*
X56308792Y-76009335D01*
X56221871Y-76124885D01*
X56146892Y-76243909D01*
X56092319Y-76352693D01*
X56066613Y-76437526D01*
X56065672Y-76451452D01*
X56051564Y-76504136D01*
X56017007Y-76575589D01*
X56009643Y-76588056D01*
X55961643Y-76650779D01*
X55904892Y-76676111D01*
X55845335Y-76679778D01*
X55745883Y-76663578D01*
X55670883Y-76609452D01*
X55613111Y-76516043D01*
X55610666Y-76417259D01*
X55663735Y-76312641D01*
X55772506Y-76201728D01*
X55866528Y-76130619D01*
X55986610Y-76018030D01*
X56055895Y-75883047D01*
X56073250Y-75777188D01*
X56069835Y-75693211D01*
X56045324Y-75639146D01*
X55990391Y-75608909D01*
X55895715Y-75596411D01*
X55794174Y-75595009D01*
X55697192Y-75597553D01*
X55619868Y-75606496D01*
X55546199Y-75626643D01*
X55460177Y-75662800D01*
X55345799Y-75719770D01*
X55300605Y-75743176D01*
X55184226Y-75802040D01*
X55084175Y-75849597D01*
X55012179Y-75880463D01*
X54981786Y-75889556D01*
X54935430Y-75873207D01*
X54873293Y-75833490D01*
X54868629Y-75829875D01*
X54814938Y-75773362D01*
X54799661Y-75705333D01*
X54801323Y-75670401D01*
X54815502Y-75596861D01*
X54848676Y-75541754D01*
X54908411Y-75501628D01*
X55002270Y-75473028D01*
X55137819Y-75452500D01*
X55311784Y-75437354D01*
X55526653Y-75415986D01*
X55691036Y-75385012D01*
X55810341Y-75342693D01*
X55889976Y-75287292D01*
X55924716Y-75240353D01*
X55934381Y-75167651D01*
X55896165Y-75087373D01*
X55817207Y-75004541D01*
X55704645Y-74924179D01*
X55565618Y-74851308D01*
X55407267Y-74790952D01*
X55236730Y-74748132D01*
X55221075Y-74745318D01*
X55068663Y-74708118D01*
X54968482Y-74656416D01*
X54917359Y-74586504D01*
X54912124Y-74494672D01*
X54935538Y-74411442D01*
X54992624Y-74331189D01*
X55078555Y-74291319D01*
X55155250Y-74294159D01*
X55208821Y-74321648D01*
X55287167Y-74378611D01*
X55375646Y-74454120D01*
X55399565Y-74476453D01*
X55528658Y-74591832D01*
X55637702Y-74668933D01*
X55740236Y-74714845D01*
X55849800Y-74736652D01*
X55903926Y-74740445D01*
X56051667Y-74746556D01*
X56060348Y-74610565D01*
X56054402Y-74481193D01*
X56025134Y-74348394D01*
X55978584Y-74231897D01*
X55920793Y-74151432D01*
X55919369Y-74150153D01*
X55857704Y-74086279D01*
X55793800Y-74006106D01*
X55739046Y-73925763D01*
X55704834Y-73861378D01*
X55698889Y-73837927D01*
X55721094Y-73784307D01*
X55774544Y-73724681D01*
X55839489Y-73677242D01*
X55892035Y-73660000D01*
X55961903Y-73677090D01*
X56021860Y-73732205D01*
X56075937Y-73831119D01*
X56128161Y-73979602D01*
X56137587Y-74011727D01*
X56234335Y-74292849D01*
X56348327Y-74520798D01*
X56480112Y-74696323D01*
X56630241Y-74820172D01*
X56782279Y-74888303D01*
X56975479Y-74923625D01*
X57144815Y-74907875D01*
X57290028Y-74841156D01*
X57410859Y-74723569D01*
X57479772Y-74613041D01*
X57524013Y-74504232D01*
X57568295Y-74355821D01*
X57608709Y-74184511D01*
X57641345Y-74007004D01*
X57662293Y-73840005D01*
X57663205Y-73829334D01*
X57661862Y-73563432D01*
X57614489Y-73316897D01*
X57523764Y-73095484D01*
X57392367Y-72904950D01*
X57222976Y-72751050D01*
X57135552Y-72695553D01*
X57026909Y-72634492D01*
X57139791Y-72512030D01*
X57244515Y-72378898D01*
X57299302Y-72261731D01*
X57307556Y-72203994D01*
X57293505Y-72182707D01*
X57249477Y-72194300D01*
X57172662Y-72240407D01*
X57060248Y-72322663D01*
X56940667Y-72417317D01*
X56706909Y-72581676D01*
X56427556Y-72735985D01*
X56113201Y-72875590D01*
X55774433Y-72995842D01*
X55421844Y-73092089D01*
X55385072Y-73100474D01*
X55254132Y-73127443D01*
X55133789Y-73145892D01*
X55007956Y-73157187D01*
X54860550Y-73162690D01*
X54675484Y-73163767D01*
X54640556Y-73163616D01*
X54401688Y-73158349D01*
X54201891Y-73143100D01*
X54024176Y-73114475D01*
X53851554Y-73069080D01*
X53667037Y-73003521D01*
X53505241Y-72936767D01*
X53265490Y-72833792D01*
X49899280Y-76200002D01*
X49645393Y-76200002D01*
X51377506Y-74467717D01*
X53109676Y-72735375D01*
X52892172Y-72528767D01*
X52770068Y-72408883D01*
X52685135Y-72312374D01*
X52678852Y-72302471D01*
X54007904Y-72302471D01*
X54014429Y-72381834D01*
X54062459Y-72445379D01*
X54083167Y-72458525D01*
X54179092Y-72488845D01*
X54304480Y-72500189D01*
X54435574Y-72492385D01*
X54548619Y-72465265D01*
X54556975Y-72461921D01*
X54636710Y-72410648D01*
X54682883Y-72347682D01*
X54693128Y-72249125D01*
X54657661Y-72152819D01*
X54586407Y-72070526D01*
X54489294Y-72014009D01*
X54385167Y-71994889D01*
X54275317Y-72013412D01*
X54176590Y-72062760D01*
X54095061Y-72133605D01*
X54036807Y-72216618D01*
X54007904Y-72302471D01*
X52678852Y-72302471D01*
X52630873Y-72226853D01*
X52600781Y-72139934D01*
X52588359Y-72039230D01*
X52586731Y-71946741D01*
X52604955Y-71765792D01*
X52659486Y-71591154D01*
X52753490Y-71418407D01*
X52890130Y-71243132D01*
X52917099Y-71216195D01*
X54047889Y-71216195D01*
X54048764Y-71224324D01*
X54093777Y-71213121D01*
X54174991Y-71185022D01*
X54273243Y-71146994D01*
X54521728Y-71049992D01*
X54730680Y-70975589D01*
X54910923Y-70920893D01*
X55073286Y-70883013D01*
X55228593Y-70859059D01*
X55387673Y-70846138D01*
X55402556Y-70845417D01*
X55783590Y-70855866D01*
X56165398Y-70921324D01*
X56545022Y-71040480D01*
X56919504Y-71212022D01*
X57285887Y-71434639D01*
X57641212Y-71707020D01*
X57915060Y-71959413D01*
X58043556Y-72089886D01*
X58166444Y-72220706D01*
X58289534Y-72358824D01*
X58418637Y-72511189D01*
X58559564Y-72684750D01*
X58718126Y-72886457D01*
X58900134Y-73123261D01*
X59018409Y-73279000D01*
X59207857Y-73529906D01*
X59367121Y-73742422D01*
X59500611Y-73922760D01*
X59612734Y-74077132D01*
X59707898Y-74211752D01*
X59790510Y-74332832D01*
X59864980Y-74446584D01*
X59935715Y-74559221D01*
X59989613Y-74647778D01*
X60064842Y-74775034D01*
X60132805Y-74896006D01*
X60196893Y-75018166D01*
X60260493Y-75148982D01*
X60326996Y-75295926D01*
X60399790Y-75466467D01*
X60482265Y-75668074D01*
X60577808Y-75908219D01*
X60681008Y-76171778D01*
X60837543Y-76568735D01*
X60979582Y-76917379D01*
X61110124Y-77223060D01*
X61232164Y-77491133D01*
X61348700Y-77726947D01*
X61462731Y-77935855D01*
X61577252Y-78123209D01*
X61695262Y-78294360D01*
X61819758Y-78454661D01*
X61953737Y-78609463D01*
X62100197Y-78764118D01*
X62174704Y-78838778D01*
X62418253Y-79063775D01*
X62675780Y-79269297D01*
X62956076Y-79461009D01*
X63267930Y-79644580D01*
X63620133Y-79825674D01*
X63925667Y-79967582D01*
X64339421Y-80142420D01*
X64723340Y-80281978D01*
X65089339Y-80388960D01*
X65449334Y-80466071D01*
X65815242Y-80516013D01*
X66198978Y-80541491D01*
X66475675Y-80546223D01*
X66671772Y-80544285D01*
X66856662Y-80537750D01*
X67040310Y-80525536D01*
X67232676Y-80506558D01*
X67443723Y-80479734D01*
X67683413Y-80443982D01*
X67961708Y-80398217D01*
X68173111Y-80361697D01*
X68542566Y-80299849D01*
X68864287Y-80252794D01*
X69144982Y-80220410D01*
X69391355Y-80202580D01*
X69610112Y-80199184D01*
X69807961Y-80210103D01*
X69991607Y-80235216D01*
X70167756Y-80274406D01*
X70330581Y-80323333D01*
X70593224Y-80427833D01*
X70817071Y-80555535D01*
X71018088Y-80715954D01*
X71065950Y-80761601D01*
X71281885Y-81011316D01*
X71446917Y-81284014D01*
X71560487Y-81577160D01*
X71622041Y-81888219D01*
X71631021Y-82214657D01*
X71586869Y-82553939D01*
X71517664Y-82818111D01*
X71513974Y-82842233D01*
X71533950Y-82815789D01*
X71541660Y-82802884D01*
X71567657Y-82744801D01*
X71602632Y-82648427D01*
X71640898Y-82529977D01*
X71660445Y-82464218D01*
X71725874Y-82145239D01*
X71735772Y-81836055D01*
X71690185Y-81536995D01*
X71589162Y-81248389D01*
X71447881Y-80993272D01*
X71247424Y-80734410D01*
X71012638Y-80518184D01*
X70738288Y-80340025D01*
X70642556Y-80290923D01*
X70471394Y-80214657D01*
X70300383Y-80153507D01*
X70123723Y-80107313D01*
X69935612Y-80075915D01*
X69730250Y-80059153D01*
X69501836Y-80056868D01*
X69244570Y-80068900D01*
X68952651Y-80095089D01*
X68620278Y-80135275D01*
X68241651Y-80189300D01*
X68046111Y-80219419D01*
X67767648Y-80261669D01*
X67531651Y-80293549D01*
X67325267Y-80315884D01*
X67135640Y-80329500D01*
X66949913Y-80335223D01*
X66755231Y-80333877D01*
X66538740Y-80326289D01*
X66449008Y-80321988D01*
X66054818Y-80295342D01*
X65701740Y-80255450D01*
X65376377Y-80198821D01*
X65065328Y-80121962D01*
X64755196Y-80021385D01*
X64432582Y-79893598D01*
X64084087Y-79735110D01*
X63953889Y-79671921D01*
X63615947Y-79498451D01*
X63321692Y-79330378D01*
X63059973Y-79159743D01*
X62819637Y-78978585D01*
X62589531Y-78778943D01*
X62358503Y-78552856D01*
X62298161Y-78490078D01*
X62127918Y-78303840D01*
X61978286Y-78122697D01*
X61843957Y-77937772D01*
X61719626Y-77740193D01*
X61599987Y-77521083D01*
X61479734Y-77271569D01*
X61353560Y-76982774D01*
X61258004Y-76750334D01*
X61049828Y-76244977D01*
X60851428Y-75787501D01*
X60658990Y-75371000D01*
X60468700Y-74988573D01*
X60276743Y-74633314D01*
X60079305Y-74298321D01*
X59872573Y-73976689D01*
X59652731Y-73661514D01*
X59415967Y-73345892D01*
X59285631Y-73180223D01*
X58964352Y-72786330D01*
X58665272Y-72438766D01*
X58384007Y-72134065D01*
X58116174Y-71868763D01*
X57857390Y-71639395D01*
X57603271Y-71442496D01*
X57349434Y-71274601D01*
X57091497Y-71132244D01*
X56825075Y-71011962D01*
X56545785Y-70910288D01*
X56333294Y-70846390D01*
X56221099Y-70816582D01*
X56124841Y-70795482D01*
X56030504Y-70781642D01*
X55924068Y-70773617D01*
X55791517Y-70769960D01*
X55618833Y-70769225D01*
X55586000Y-70769283D01*
X55406837Y-70770428D01*
X55270833Y-70773908D01*
X55164709Y-70781176D01*
X55075187Y-70793687D01*
X54988989Y-70812894D01*
X54892835Y-70840250D01*
X54867726Y-70847905D01*
X54734596Y-70893414D01*
X54583293Y-70952477D01*
X54427294Y-71019041D01*
X54280075Y-71087051D01*
X54155112Y-71150453D01*
X54065883Y-71203194D01*
X54047889Y-71216195D01*
X52917099Y-71216195D01*
X53072571Y-71060910D01*
X53303976Y-70867321D01*
X53426142Y-70774419D01*
X53557675Y-70675911D01*
X53650145Y-70603244D01*
X53710439Y-70549476D01*
X53745444Y-70507666D01*
X53762046Y-70470873D01*
X53766318Y-70438366D01*
X53808000Y-70438366D01*
X53829523Y-70497001D01*
X53871500Y-70541784D01*
X53950979Y-70571796D01*
X54060665Y-70580043D01*
X54179346Y-70568036D01*
X54285806Y-70537286D01*
X54337546Y-70508604D01*
X54404905Y-70434323D01*
X54424694Y-70355476D01*
X54404577Y-70279110D01*
X54352221Y-70212276D01*
X54275291Y-70162022D01*
X54181452Y-70135398D01*
X54078369Y-70139453D01*
X53978458Y-70178381D01*
X53896506Y-70248248D01*
X53834887Y-70339928D01*
X53808191Y-70431168D01*
X53808000Y-70438366D01*
X53766318Y-70438366D01*
X53767134Y-70432158D01*
X53767187Y-70430698D01*
X53795998Y-70308650D01*
X53865449Y-70205893D01*
X53963536Y-70129635D01*
X54078255Y-70087083D01*
X54197602Y-70085445D01*
X54287778Y-70118111D01*
X54344584Y-70143831D01*
X54406932Y-70154651D01*
X54484201Y-70149097D01*
X54585772Y-70125690D01*
X54721024Y-70082956D01*
X54887639Y-70023703D01*
X55087573Y-69951963D01*
X55248032Y-69898499D01*
X55381781Y-69860206D01*
X55497138Y-69834953D01*
X56264130Y-69834953D01*
X56440121Y-69884053D01*
X56672728Y-69966983D01*
X56917301Y-70085829D01*
X57154060Y-70229839D01*
X57355690Y-70381825D01*
X57610422Y-70577742D01*
X57903339Y-70767724D01*
X58216471Y-70940148D01*
X58227325Y-70945596D01*
X58347544Y-71003862D01*
X58498825Y-71074323D01*
X58671183Y-71152614D01*
X58854633Y-71234367D01*
X59039188Y-71315218D01*
X59214863Y-71390801D01*
X59371672Y-71456751D01*
X59499630Y-71508701D01*
X59588751Y-71542286D01*
X59603126Y-71547089D01*
X59771363Y-71586477D01*
X59931612Y-71597651D01*
X60068221Y-71580321D01*
X60130903Y-71556863D01*
X60225991Y-71477986D01*
X60289512Y-71363918D01*
X60319591Y-71227471D01*
X60314350Y-71081461D01*
X60271915Y-70938699D01*
X60232019Y-70866171D01*
X60119835Y-70739973D01*
X59955248Y-70621759D01*
X59737529Y-70511212D01*
X59465948Y-70408017D01*
X59139774Y-70311854D01*
X58758278Y-70222409D01*
X58741557Y-70218903D01*
X58638651Y-70190141D01*
X58548089Y-70152561D01*
X58508723Y-70128536D01*
X58451194Y-70054475D01*
X58435393Y-69968098D01*
X58459610Y-69886774D01*
X58522135Y-69827871D01*
X58539071Y-69820315D01*
X58606176Y-69808736D01*
X58682729Y-69826580D01*
X58778737Y-69877760D01*
X58895631Y-69959734D01*
X59045723Y-70052625D01*
X59216972Y-70118513D01*
X59421545Y-70161249D01*
X59589587Y-70179334D01*
X59827292Y-70197606D01*
X59808147Y-70087303D01*
X59767196Y-69946802D01*
X59692209Y-69781639D01*
X59590607Y-69605457D01*
X59469814Y-69431895D01*
X59411947Y-69359211D01*
X59322340Y-69248742D01*
X59264898Y-69168587D01*
X59233678Y-69107418D01*
X59222740Y-69053908D01*
X59225275Y-69003334D01*
X59258240Y-68942697D01*
X59327408Y-68901009D01*
X59389454Y-68890445D01*
X59471058Y-68912781D01*
X59546028Y-68981741D01*
X59616418Y-69100254D01*
X59684281Y-69271248D01*
X59708026Y-69344715D01*
X59767057Y-69527536D01*
X59818681Y-69665692D01*
X59867797Y-69769606D01*
X59919305Y-69849700D01*
X59975567Y-69913870D01*
X60056736Y-69976806D01*
X60122729Y-69985956D01*
X60176445Y-69941005D01*
X60203484Y-69889147D01*
X60220384Y-69834807D01*
X60231891Y-69760492D01*
X60238580Y-69657177D01*
X60241025Y-69515837D01*
X60239802Y-69327444D01*
X60239711Y-69320680D01*
X60237826Y-69146986D01*
X60238175Y-69021071D01*
X60241548Y-68934286D01*
X60248731Y-68877986D01*
X60260514Y-68843523D01*
X60277685Y-68822249D01*
X60285728Y-68815867D01*
X60354286Y-68781159D01*
X60417520Y-68793102D01*
X60455995Y-68817607D01*
X60474746Y-68831788D01*
X60488737Y-68848147D01*
X60498379Y-68874059D01*
X60504086Y-68916896D01*
X60506270Y-68984033D01*
X60505344Y-69082844D01*
X60501720Y-69220703D01*
X60495810Y-69404984D01*
X60493236Y-69483111D01*
X60492205Y-69680288D01*
X60504481Y-69826977D01*
X60531004Y-69927761D01*
X60572718Y-69987226D01*
X60600073Y-70003093D01*
X60627382Y-70009075D01*
X60659472Y-70003326D01*
X60702752Y-69981450D01*
X60763632Y-69939054D01*
X60848521Y-69871740D01*
X60963829Y-69775115D01*
X61089914Y-69667198D01*
X61239794Y-69541181D01*
X61355942Y-69451767D01*
X61444956Y-69396068D01*
X61513438Y-69371199D01*
X61567987Y-69374275D01*
X61615202Y-69402409D01*
X61639771Y-69426782D01*
X61671905Y-69491486D01*
X61653546Y-69561641D01*
X61583191Y-69639862D01*
X61469863Y-69722084D01*
X61248040Y-69893911D01*
X61069738Y-70099478D01*
X60967783Y-70266688D01*
X60861478Y-70509976D01*
X60798895Y-70757409D01*
X60778769Y-71019435D01*
X60799839Y-71306504D01*
X60824101Y-71455658D01*
X60851997Y-71660581D01*
X60849324Y-71822541D01*
X60814805Y-71946822D01*
X60747160Y-72038711D01*
X60670372Y-72091406D01*
X60609215Y-72114333D01*
X60508553Y-72142951D01*
X60384432Y-72172954D01*
X60298757Y-72191161D01*
X60167242Y-72220972D01*
X60048149Y-72254131D01*
X59957844Y-72285770D01*
X59922688Y-72302990D01*
X59838471Y-72356313D01*
X60019402Y-72372057D01*
X60130894Y-72380722D01*
X60274287Y-72390428D01*
X60425100Y-72399558D01*
X60484286Y-72402805D01*
X60749764Y-72429516D01*
X60999578Y-72479009D01*
X61219372Y-72547887D01*
X61351964Y-72608106D01*
X61478349Y-72691955D01*
X61619672Y-72811712D01*
X61762738Y-72954350D01*
X61894350Y-73106844D01*
X61988789Y-73236667D01*
X62070879Y-73372016D01*
X62167471Y-73547249D01*
X62272416Y-73749718D01*
X62379565Y-73966777D01*
X62482769Y-74185777D01*
X62575878Y-74394073D01*
X62652742Y-74579016D01*
X62691545Y-74682023D01*
X62744898Y-74840036D01*
X62808518Y-75040799D01*
X62878953Y-75272310D01*
X62952753Y-75522568D01*
X63026466Y-75779571D01*
X63096642Y-76031315D01*
X63159830Y-76265800D01*
X63212580Y-76471024D01*
X63245663Y-76609223D01*
X63320232Y-76958814D01*
X63389685Y-77325935D01*
X63449947Y-77687569D01*
X63496945Y-78020701D01*
X63500392Y-78048556D01*
X63518951Y-78200441D01*
X63536630Y-78344988D01*
X63551463Y-78466131D01*
X63561484Y-78547802D01*
X63561693Y-78549500D01*
X63575846Y-78643631D01*
X63588035Y-78684329D01*
X63597829Y-78674585D01*
X63604794Y-78617389D01*
X63608498Y-78515733D01*
X63608508Y-78372606D01*
X63605933Y-78243567D01*
X63604925Y-77980244D01*
X63619087Y-77765735D01*
X63650839Y-77593871D01*
X63702603Y-77458479D01*
X63776798Y-77353389D01*
X63875846Y-77272430D01*
X64002166Y-77209431D01*
X64013294Y-77205070D01*
X64097575Y-77167608D01*
X64215079Y-77108750D01*
X64354361Y-77034931D01*
X64503974Y-76952584D01*
X64652476Y-76868144D01*
X64788420Y-76788045D01*
X64900362Y-76718721D01*
X64976858Y-76666608D01*
X64991165Y-76655308D01*
X65068627Y-76571344D01*
X65122050Y-76464595D01*
X65156362Y-76322747D01*
X65170665Y-76206836D01*
X65169619Y-75976205D01*
X65128602Y-75723924D01*
X65050706Y-75464835D01*
X64981868Y-75300038D01*
X64920659Y-75162712D01*
X64885708Y-75063878D01*
X64875339Y-74992984D01*
X64887874Y-74939476D01*
X64917819Y-74896945D01*
X64985135Y-74845736D01*
X65046809Y-74848065D01*
X65103503Y-74904622D01*
X65155880Y-75016102D01*
X65204603Y-75183195D01*
X65208793Y-75200822D01*
X65271350Y-75425067D01*
X65344931Y-75615546D01*
X65426591Y-75767361D01*
X65513381Y-75875615D01*
X65602355Y-75935411D01*
X65657185Y-75946000D01*
X65726395Y-75922498D01*
X65813988Y-75857836D01*
X65912018Y-75760785D01*
X66012540Y-75640114D01*
X66107611Y-75504593D01*
X66189286Y-75362991D01*
X66194251Y-75353168D01*
X66279772Y-75191114D01*
X66351864Y-75077507D01*
X66415911Y-75007576D01*
X66477299Y-74976550D01*
X66541412Y-74979660D01*
X66592412Y-75000424D01*
X66656603Y-75049072D01*
X66677182Y-75113875D01*
X66677334Y-75122001D01*
X66671359Y-75175246D01*
X66649540Y-75231240D01*
X66606032Y-75298816D01*
X66534992Y-75386805D01*
X66430576Y-75504040D01*
X66408812Y-75527810D01*
X66278992Y-75683759D01*
X66173423Y-75839732D01*
X66095877Y-75987667D01*
X66050127Y-76119497D01*
X66039944Y-76227160D01*
X66055559Y-76283012D01*
X66109939Y-76327379D01*
X66206166Y-76345693D01*
X66336691Y-76339217D01*
X66493965Y-76309212D01*
X66670440Y-76256941D01*
X66858567Y-76183665D01*
X66975943Y-76129132D01*
X67090131Y-76075304D01*
X67190299Y-76032838D01*
X67262713Y-76007314D01*
X67287799Y-76002445D01*
X67360519Y-76024720D01*
X67402316Y-76080321D01*
X67408145Y-76152411D01*
X67372960Y-76224152D01*
X67358616Y-76238760D01*
X67307930Y-76267933D01*
X67218872Y-76304077D01*
X67107903Y-76340756D01*
X67069338Y-76351865D01*
X66868323Y-76413902D01*
X66678751Y-76484283D01*
X66508637Y-76559021D01*
X66365991Y-76634125D01*
X66258828Y-76705605D01*
X66195160Y-76769473D01*
X66183342Y-76792990D01*
X66185018Y-76875546D01*
X66236334Y-76960947D01*
X66331013Y-77044319D01*
X66462781Y-77120791D01*
X66625363Y-77185487D01*
X66725882Y-77214345D01*
X66875995Y-77256473D01*
X66977801Y-77297543D01*
X67039102Y-77342643D01*
X67067697Y-77396866D01*
X67072445Y-77440508D01*
X67055494Y-77527048D01*
X67003739Y-77572188D01*
X66915825Y-77576219D01*
X66790400Y-77539430D01*
X66730133Y-77513674D01*
X66564334Y-77448800D01*
X66369277Y-77389412D01*
X66164086Y-77340003D01*
X65967883Y-77305067D01*
X65799794Y-77289096D01*
X65772161Y-77288576D01*
X65646732Y-77292043D01*
X65550377Y-77307302D01*
X65456016Y-77340434D01*
X65377050Y-77377321D01*
X65258037Y-77443039D01*
X65130315Y-77525091D01*
X65007584Y-77613460D01*
X64903543Y-77698130D01*
X64831892Y-77769083D01*
X64819714Y-77784821D01*
X64793115Y-77868923D01*
X64801339Y-77990436D01*
X64843294Y-78143224D01*
X64913248Y-78311427D01*
X65065280Y-78589140D01*
X65236706Y-78816983D01*
X65433553Y-78999926D01*
X65661850Y-79142937D01*
X65927622Y-79250987D01*
X66116139Y-79303138D01*
X66313889Y-79345059D01*
X66548258Y-79387068D01*
X66804120Y-79427099D01*
X67066346Y-79463084D01*
X67319810Y-79492956D01*
X67549386Y-79514647D01*
X67739944Y-79526091D01*
X67749868Y-79526408D01*
X67876957Y-79530223D01*
X69541929Y-77865071D01*
X71206901Y-76199920D01*
X65880036Y-70873055D01*
X60553172Y-65546190D01*
X58408651Y-67690572D01*
X56264130Y-69834953D01*
X55497138Y-69834953D01*
X55501583Y-69833980D01*
X55620202Y-69816715D01*
X55750403Y-69805306D01*
X55797667Y-69802322D01*
X56051667Y-69787341D01*
X58302418Y-67539764D01*
X60553168Y-65292188D01*
X66007035Y-70746053D01*
G37*
D12*
%TO.C,U3*%
X94222000Y-65802500D02*
X94222000Y-64002500D01*
X91002000Y-64002500D02*
X91002000Y-66452500D01*
%TD*%
M02*
